<?xml version="1.0" encoding="UTF-8" standalone="no"?>
<!-- Created with Inkscape (http://www.inkscape.org/) -->

<svg
   xmlns:dc="http://purl.org/dc/elements/1.1/"
   xmlns:cc="http://creativecommons.org/ns#"
   xmlns:rdf="http://www.w3.org/1999/02/22-rdf-syntax-ns#"
   xmlns:svg="http://www.w3.org/2000/svg"
   xmlns="http://www.w3.org/2000/svg"
   xmlns:sodipodi="http://sodipodi.sourceforge.net/DTD/sodipodi-0.dtd"
   xmlns:inkscape="http://www.inkscape.org/namespaces/inkscape"
   width="400mm"
   height="400mm"
   viewBox="0 0 1417.3228 1417.3228"
   id="svg2"
   version="1.1"
   inkscape:version="0.91 r13725"
   sodipodi:docname="cellphone.svg">
  <defs
     id="defs4" />
  <sodipodi:namedview
     id="base"
     pagecolor="#ffffff"
     bordercolor="#666666"
     borderopacity="1.0"
     inkscape:pageopacity="0.0"
     inkscape:pageshadow="2"
     inkscape:zoom="0.49497475"
     inkscape:cx="779.66596"
     inkscape:cy="788.40904"
     inkscape:document-units="mm"
     inkscape:current-layer="text4250"
     showgrid="false"
     inkscape:window-width="1440"
     inkscape:window-height="851"
     inkscape:window-x="0"
     inkscape:window-y="1"
     inkscape:window-maximized="1" />
  <metadata
     id="metadata7">
    <rdf:RDF>
      <cc:Work
         rdf:about="">
        <dc:format>image/svg+xml</dc:format>
        <dc:type
           rdf:resource="http://purl.org/dc/dcmitype/StillImage" />
        <dc:title></dc:title>
      </cc:Work>
    </rdf:RDF>
  </metadata>
  <g
     inkscape:label="Layer 1"
     inkscape:groupmode="layer"
     id="layer1"
     transform="translate(0,364.96063)">
    <rect
       style="opacity:1;fill:none;fill-opacity:1;stroke:#ff0000;stroke-width:0.40000001;stroke-miterlimit:4;stroke-dasharray:none;stroke-opacity:1"
       id="rect4136"
       width="644.88226"
       height="361.41733"
       x="17.916536"
       y="-344.11804" />
    <rect
       style="opacity:1;fill:none;fill-opacity:1;stroke:#343425;stroke-width:0.40000001;stroke-miterlimit:4;stroke-dasharray:none;stroke-opacity:1"
       id="rect4138"
       width="552.75592"
       height="255.1181"
       x="63.979706"
       y="-290.96841"
       ry="10" />
    <circle
       style="opacity:1;fill:none;fill-opacity:1;stroke:#ff00db;stroke-width:0.27297923;stroke-miterlimit:4;stroke-dasharray:none;stroke-opacity:1"
       id="path4178"
       cx="340.35767"
       cy="-283.40939"
       r="33.634937" />
    <circle
       r="33.634937"
       cy="-43.409378"
       cx="340.35767"
       id="circle4182"
       style="opacity:1;fill:none;fill-opacity:1;stroke:#ff00db;stroke-width:0.27297923;stroke-miterlimit:4;stroke-dasharray:none;stroke-opacity:1" />
    <rect
       style="opacity:1;fill:none;fill-opacity:1;stroke:#27a64c;stroke-width:0.40000001;stroke-miterlimit:4;stroke-dasharray:none;stroke-opacity:1"
       id="rect4242"
       width="464.67017"
       height="242.43661"
       x="108.02258"
       y="-284.62769"
       ry="0" />
    <rect
       style="opacity:1;fill:none;fill-opacity:1;stroke:#27a64c;stroke-width:0.40000001;stroke-miterlimit:4;stroke-dasharray:none;stroke-opacity:1"
       id="rect4244"
       width="8.5714283"
       height="59.285713"
       x="81.428574"
       y="-193.05223"
       ry="4.2857141" />
    <rect
       style="opacity:1;fill:none;fill-opacity:1;stroke:#27a64c;stroke-width:0.31222624;stroke-miterlimit:4;stroke-dasharray:none;stroke-opacity:1"
       id="rect4246"
       width="26.516346"
       height="35.087772"
       x="580.67041"
       y="-180.95326"
       ry="7.8839264" />
    <rect
       style="opacity:1;fill:none;fill-opacity:1;stroke:#27a64c;stroke-width:0.40000001;stroke-miterlimit:4;stroke-dasharray:none;stroke-opacity:1"
       id="rect4248"
       width="12.142858"
       height="12.142858"
       x="80.428574"
       y="-88.986649"
       ry="4.2857099" />
    <g
       id="text"
       inkscape:label="text">
      <g
         transform="matrix(0,-1,1,0,0,6.1157293)"
         style="font-style:normal;font-weight:normal;font-size:40px;line-height:125%;font-family:sans-serif;letter-spacing:0px;word-spacing:0px;fill:none;fill-opacity:1;stroke:#ffbf00;stroke-width:1px;stroke-linecap:butt;stroke-linejoin:miter;stroke-opacity:1"
         id="text4250">
        <path
           d="m 107.91622,231.44781 4.23828,0 8.08594,11.99219 8.02734,-11.99219 4.23828,0 -10.3125,15.27344 0,13.88672 -3.96484,0 0,-13.88672 -10.3125,-15.27344 z"
           style="text-align:center;text-anchor:middle;fill:none;stroke:#ffbf00;stroke-opacity:1"
           id="path4301"
           inkscape:connector-curvature="0" />
        <path
           d="m 146.02169,234.1236 q -4.29688,0 -6.83594,3.20312 -2.51953,3.20313 -2.51953,8.73047 0,5.50781 2.51953,8.71094 2.53906,3.20312 6.83594,3.20312 4.29687,0 6.79687,-3.20312 2.51953,-3.20313 2.51953,-8.71094 0,-5.52734 -2.51953,-8.73047 -2.5,-3.20312 -6.79687,-3.20312 z m 0,-3.20313 q 6.13281,0 9.80468,4.12109 3.67188,4.10157 3.67188,11.01563 0,6.89453 -3.67188,11.01562 -3.67187,4.10157 -9.80468,4.10157 -6.15235,0 -9.84375,-4.10157 -3.67188,-4.10156 -3.67188,-11.01562 0,-6.91406 3.67188,-11.01563 3.6914,-4.12109 9.84375,-4.12109 z"
           style="text-align:center;text-anchor:middle;fill:none;stroke:#ffbf00;stroke-opacity:1"
           id="path4303"
           inkscape:connector-curvature="0" />
        <path
           d="m 165.2209,231.44781 3.96485,0 0,17.71485 q 0,4.6875 1.69922,6.75781 1.69922,2.05078 5.50781,2.05078 3.78906,0 5.48828,-2.05078 1.69922,-2.07031 1.69922,-6.75781 l 0,-17.71485 3.96484,0 0,18.20313 q 0,5.70312 -2.83203,8.61328 -2.8125,2.91016 -8.32031,2.91016 -5.52734,0 -8.35938,-2.91016 -2.8125,-2.91016 -2.8125,-8.61328 l 0,-18.20313 z"
           style="text-align:center;text-anchor:middle;fill:none;stroke:#ffbf00;stroke-opacity:1"
           id="path4305"
           inkscape:connector-curvature="0" />
        <path
           d="m 208.79512,246.9361 q 1.26953,0.42968 2.46094,1.83593 1.21094,1.40625 2.42188,3.86719 l 4.0039,7.96875 -4.23828,0 -3.73047,-7.48047 q -1.44531,-2.92969 -2.8125,-3.88672 -1.34765,-0.95703 -3.6914,-0.95703 l -4.29688,0 0,12.32422 -3.94531,0 0,-29.16016 8.90625,0 q 5,0 7.46094,2.08985 2.46093,2.08984 2.46093,6.30859 0,2.75391 -1.28906,4.57031 -1.26953,1.81641 -3.71094,2.51954 z m -9.88281,-12.2461 0,10.35156 4.96094,0 q 2.85156,0 4.29687,-1.30859 1.46485,-1.32812 1.46485,-3.88672 0,-2.55859 -1.46485,-3.84765 -1.44531,-1.3086 -4.29687,-1.3086 l -4.96094,0 z"
           style="text-align:center;text-anchor:middle;fill:none;stroke:#ffbf00;stroke-opacity:1"
           id="path4307"
           inkscape:connector-curvature="0" />
        <path
           d="m 120.00606,281.44781 5.3125,0 12.92969,24.39454 0,-24.39454 3.82812,0 0,29.16016 -5.3125,0 -12.92968,-24.39453 0,24.39453 -3.82813,0 0,-29.16016 z"
           style="text-align:center;text-anchor:middle;fill:none;stroke:#ffbf00;stroke-opacity:1"
           id="path4309"
           inkscape:connector-curvature="0" />
        <path
           d="m 149.92794,281.44781 18.4375,0 0,3.32032 -14.49219,0 0,8.63281 13.88672,0 0,3.32031 -13.88672,0 0,10.56641 14.84375,0 0,3.32031 -18.78906,0 0,-29.16016 z"
           style="text-align:center;text-anchor:middle;fill:none;stroke:#ffbf00;stroke-opacity:1"
           id="path4311"
           inkscape:connector-curvature="0" />
        <path
           d="m 172.56465,281.44781 3.98438,0 6.13281,24.64844 6.11328,-24.64844 4.4336,0 6.13281,24.64844 6.11328,-24.64844 4.00391,0 -7.32422,29.16016 -4.96094,0 -6.15234,-25.3125 -6.21094,25.3125 -4.96094,0 -7.30469,-29.16016 z"
           style="text-align:center;text-anchor:middle;fill:none;stroke:#ffbf00;stroke-opacity:1"
           id="path4313"
           inkscape:connector-curvature="0" />
        <path
           d="m 100.86544,334.69 0,10.95703 4.96093,0 q 2.75391,0 4.25782,-1.42578 1.5039,-1.42578 1.5039,-4.0625 0,-2.61719 -1.5039,-4.04297 -1.50391,-1.42578 -4.25782,-1.42578 l -4.96093,0 z m -3.945321,-3.24219 8.906251,0 q 4.90235,0 7.40235,2.22657 2.51953,2.20703 2.51953,6.48437 0,4.31641 -2.51953,6.52344 -2.5,2.20703 -7.40235,2.20703 l -4.96093,0 0,11.71875 -3.945321,0 0,-29.16016 z"
           style="text-align:center;text-anchor:middle;fill:none;stroke:#ffbf00;stroke-opacity:1"
           id="path4315"
           inkscape:connector-curvature="0" />
        <path
           d="m 121.06075,331.44781 3.94531,0 0,11.95313 14.33594,0 0,-11.95313 3.94531,0 0,29.16016 -3.94531,0 0,-13.88672 -14.33594,0 0,13.88672 -3.94531,0 0,-29.16016 z"
           style="text-align:center;text-anchor:middle;fill:none;stroke:#ffbf00;stroke-opacity:1"
           id="path4317"
           inkscape:connector-curvature="0" />
        <path
           d="m 162.97481,334.1236 q -4.29687,0 -6.83594,3.20312 -2.51953,3.20313 -2.51953,8.73047 0,5.50781 2.51953,8.71094 2.53907,3.20312 6.83594,3.20312 4.29688,0 6.79688,-3.20312 2.51953,-3.20313 2.51953,-8.71094 0,-5.52734 -2.51953,-8.73047 -2.5,-3.20312 -6.79688,-3.20312 z m 0,-3.20313 q 6.13281,0 9.80469,4.12109 3.67187,4.10157 3.67187,11.01563 0,6.89453 -3.67187,11.01562 -3.67188,4.10157 -9.80469,4.10157 -6.15234,0 -9.84375,-4.10157 -3.67187,-4.10156 -3.67187,-11.01562 0,-6.91406 3.67187,-11.01563 3.69141,-4.12109 9.84375,-4.12109 z"
           style="text-align:center;text-anchor:middle;fill:none;stroke:#ffbf00;stroke-opacity:1"
           id="path4319"
           inkscape:connector-curvature="0" />
        <path
           d="m 182.62325,331.44781 5.3125,0 12.92969,24.39454 0,-24.39454 3.82812,0 0,29.16016 -5.3125,0 -12.92969,-24.39453 0,24.39453 -3.82812,0 0,-29.16016 z"
           style="text-align:center;text-anchor:middle;fill:none;stroke:#ffbf00;stroke-opacity:1"
           id="path4321"
           inkscape:connector-curvature="0" />
        <path
           d="m 212.54512,331.44781 18.4375,0 0,3.32032 -14.49218,0 0,8.63281 13.88671,0 0,3.32031 -13.88671,0 0,10.56641 14.84375,0 0,3.32031 -18.78907,0 0,-29.16016 z"
           style="text-align:center;text-anchor:middle;fill:none;stroke:#ffbf00;stroke-opacity:1"
           id="path4323"
           inkscape:connector-curvature="0" />
      </g>
      <g
         id="cam"
         inkscape:label="cam"
         style="stroke:#0044e2;stroke-opacity:1"
         transform="matrix(-1,0,0,-1,175.78572,41.661271)">
        <circle
           r="12.857142"
           cy="103.79077"
           cx="89.285713"
           id="path4289"
           style="opacity:1;fill:none;fill-opacity:1;stroke:#0044e2;stroke-width:0.40000001;stroke-miterlimit:4;stroke-dasharray:none;stroke-opacity:1" />
        <circle
           r="6.7857141"
           cy="145.00507"
           cx="89.285713"
           id="path4291"
           style="opacity:1;fill:none;fill-opacity:1;stroke:#0044e2;stroke-width:0.40000001;stroke-miterlimit:4;stroke-dasharray:none;stroke-opacity:1" />
        <circle
           style="opacity:1;fill:none;fill-opacity:1;stroke:#0044e2;stroke-width:0.40000001;stroke-miterlimit:4;stroke-dasharray:none;stroke-opacity:1"
           id="circle4293"
           cx="89.285713"
           cy="103.79077"
           r="6.7857141" />
      </g>
    </g>
  </g>
</svg>
