  0
SECTION
  2
HEADER
  9
$ACADVER
  1
AC1014
  9
$HANDSEED
  5
FFFF
  9
$MEASUREMENT
 70
     1
  0
ENDSEC
  0
SECTION
  2
TABLES
  0
TABLE
  2
VPORT
  5
8
330
0
100
AcDbSymbolTable
 70
     4
  0
VPORT
  5
2E
330
8
100
AcDbSymbolTableRecord
100
AcDbViewportTableRecord
  2
*ACTIVE
 70
     0
 10
0.0
 20
0.0
 11
1.0
 21
1.0
 12
210.0
 22
148.5
 13
0.0
 23
0.0
 14
10.0
 24
10.0
 15
10.0
 25
10.0
 16
0.0
 26
0.0
 36
1.0
 17
0.0
 27
0.0
 37
0.0
 40
341.0
 41
1.24
 42
50.0
 43
0.0
 44
0.0
 50
0.0
 51
0.0
 71
     0
 72
   100
 73
     1
 74
     3
 75
     0
 76
     0
 77
     0
 78
     0
  0
ENDTAB
  0
TABLE
  2
LTYPE
  5
5
330
0
100
AcDbSymbolTable
 70
     1
  0
LTYPE
  5
14
330
5
100
AcDbSymbolTableRecord
100
AcDbLinetypeTableRecord
  2
BYBLOCK
 70
     0
  3

 72
    65
 73
     0
 40
0.0
  0
LTYPE
  5
15
330
5
100
AcDbSymbolTableRecord
100
AcDbLinetypeTableRecord
  2
BYLAYER
 70
     0
  3

 72
    65
 73
     0
 40
0.0
  0
LTYPE
  5
16
330
5
100
AcDbSymbolTableRecord
100
AcDbLinetypeTableRecord
  2
CONTINUOUS
 70
     0
  3
Solid line
 72
    65
 73
     0
 40
0.0
  0
ENDTAB
  0
TABLE
  2
LAYER
  5
2
100
AcDbSymbolTable
 70
2
  0
LAYER
  5
50
100
AcDbSymbolTableRecord
100
AcDbLayerTableRecord
  2
0
 70
0
  6
CONTINUOUS
  0
LAYER
  5
51
100
AcDbSymbolTableRecord
100
AcDbLayerTableRecord
  2
Layer_1
 70
0
  6
CONTINUOUS
  0
ENDTAB
  0
TABLE
  2
STYLE
  5
3
330
0
100
AcDbSymbolTable
 70
     1
  0
STYLE
  5
11
330
3
100
AcDbSymbolTableRecord
100
AcDbTextStyleTableRecord
  2
STANDARD
 70
     0
 40
0.0
 41
1.0
 50
0.0
 71
     0
 42
2.5
  3
txt
  4

  0
ENDTAB
  0
TABLE
  2
VIEW
  5
6
330
0
100
AcDbSymbolTable
 70
     0
  0
ENDTAB
  0
TABLE
  2
UCS
  5
7
330
0
100
AcDbSymbolTable
 70
     0
  0
ENDTAB
  0
TABLE
  2
APPID
  5
9
330
0
100
AcDbSymbolTable
 70
     2
  0
APPID
  5
12
330
9
100
AcDbSymbolTableRecord
100
AcDbRegAppTableRecord
  2
ACAD
 70
     0
  0
ENDTAB
  0
TABLE
  2
DIMSTYLE
  5
A
330
0
100
AcDbSymbolTable
 70
     1
  0
DIMSTYLE
105
27
330
A
100
AcDbSymbolTableRecord
100
AcDbDimStyleTableRecord
  2
ISO-25
 70
     0
  3

  4

  5

  6

  7

 40
1.0
 41
2.5
 42
0.625
 43
3.75
 44
1.25
 45
0.0
 46
0.0
 47
0.0
 48
0.0
140
2.5
141
2.5
142
0.0
143
0.03937007874016
144
1.0
145
0.0
146
1.0
147
0.625
 71
     0
 72
     0
 73
     0
 74
     0
 75
     0
 76
     0
 77
     1
 78
     8
170
     0
171
     3
172
     1
173
     0
174
     0
175
     0
176
     0
177
     0
178
     0
270
     2
271
     2
272
     2
273
     2
274
     3
340
11
275
     0
280
     0
281
     0
282
     0
283
     0
284
     8
285
     0
286
     0
287
     3
288
     0
  0
ENDTAB
  0
TABLE
  2
BLOCK_RECORD
  5
1
330
0
100
AcDbSymbolTable
 70
     1
  0
BLOCK_RECORD
  5
1F
330
1
100
AcDbSymbolTableRecord
100
AcDbBlockTableRecord
  2
*MODEL_SPACE
  0
BLOCK_RECORD
  5
1B
330
1
100
AcDbSymbolTableRecord
100
AcDbBlockTableRecord
  2
*PAPER_SPACE
  0
ENDTAB
  0
ENDSEC
  0
SECTION
  2
BLOCKS
  0
BLOCK
  5
20
330
1F
100
AcDbEntity
  8
0
100
AcDbBlockBegin
  2
*MODEL_SPACE
 70
     0
 10
0.0
 20
0.0
 30
0.0
  3
*MODEL_SPACE
  1

  0
ENDBLK
  5
21
330
1F
100
AcDbEntity
  8
0
100
AcDbBlockEnd
  0
BLOCK
  5
1C
330
1B
100
AcDbEntity
 67
     1
  8
0
100
AcDbBlockBegin
  2
*PAPER_SPACE
  1

  0
ENDBLK
  5
1D
330
1B
100
AcDbEntity
 67
     1
  8
0
100
AcDbBlockEnd
  0
ENDSEC
  0
SECTION
  2
ENTITIES
  0
SPLINE
  5
100
100
AcDbEntity
  8
Layer_1
 62
7
100
AcDbSpline
 70
8
 71
3
 72
8
 73
4
 74
0
 40
0
 40
0
 40
0
 40
0
 40
1
 40
1
 40
1
 40
1
 10
267.154210
 20
144.265090
 30
0.0
 10
267.154160
 20
141.779610
 30
0.0
 10
268.161600
 20
139.764710
 30
0.0
 10
269.404300
 20
139.764890
 30
0.0
  0
SPLINE
  5
101
100
AcDbEntity
  8
Layer_1
 62
7
100
AcDbSpline
 70
8
 71
3
 72
8
 73
4
 74
0
 40
0
 40
0
 40
0
 40
0
 40
1
 40
1
 40
1
 40
1
 10
269.404300
 20
139.764890
 30
0.0
 10
270.110660
 20
139.768890
 30
0.0
 10
270.775250
 20
140.434610
 30
0.0
 10
271.199080
 20
141.564790
 30
0.0
  0
LINE
  5
102
100
AcDbEntity
  8
Layer_1
 62
7
100
AcDbLine
 10
271.199080
 20
141.564790
 30
0.0
 11
271.654870
 21
141.565270
 31
0.0
  0
LINE
  5
103
100
AcDbEntity
  8
Layer_1
 62
7
100
AcDbLine
 10
271.654870
 20
141.565270
 30
0.0
 11
271.654870
 21
142.015010
 31
0.0
  0
LINE
  5
104
100
AcDbEntity
  8
Layer_1
 62
7
100
AcDbLine
 10
271.654870
 20
142.015010
 30
0.0
 11
271.654390
 21
142.284290
 31
0.0
  0
SPLINE
  5
105
100
AcDbEntity
  8
Layer_1
 62
7
100
AcDbSpline
 70
8
 71
3
 72
8
 73
4
 74
0
 40
0
 40
0
 40
0
 40
0
 40
1
 40
1
 40
1
 40
1
 10
271.654390
 20
142.284290
 30
0.0
 10
271.946300
 20
131.256830
 30
0.0
 10
274.768190
 20
120.443920
 30
0.0
 10
279.902260
 20
110.680150
 30
0.0
  0
LINE
  5
106
100
AcDbEntity
  8
Layer_1
 62
7
100
AcDbLine
 10
279.902260
 20
110.680150
 30
0.0
 11
279.531600
 21
110.466210
 31
0.0
  0
SPLINE
  5
107
100
AcDbEntity
  8
Layer_1
 62
7
100
AcDbSpline
 70
8
 71
3
 72
8
 73
4
 74
0
 40
0
 40
0
 40
0
 40
0
 40
1
 40
1
 40
1
 40
1
 10
279.531600
 20
110.466210
 30
0.0
 10
278.599870
 20
111.232570
 30
0.0
 10
277.691490
 20
111.477450
 30
0.0
 10
277.078250
 20
111.127570
 30
0.0
  0
SPLINE
  5
108
100
AcDbEntity
  8
Layer_1
 62
7
100
AcDbSpline
 70
8
 71
3
 72
8
 73
4
 74
0
 40
0
 40
0
 40
0
 40
0
 40
1
 40
1
 40
1
 40
1
 10
277.078250
 20
111.127570
 30
0.0
 10
276.001800
 20
110.506470
 30
0.0
 10
276.136740
 20
108.257650
 30
0.0
 10
277.379620
 20
106.105080
 30
0.0
  0
SPLINE
  5
109
100
AcDbEntity
  8
Layer_1
 62
7
100
AcDbSpline
 70
8
 71
3
 72
8
 73
4
 74
0
 40
0
 40
0
 40
0
 40
0
 40
1
 40
1
 40
1
 40
1
 10
277.379620
 20
106.105080
 30
0.0
 10
278.622160
 20
103.952860
 30
0.0
 10
280.501790
 20
102.711660
 30
0.0
 10
281.577990
 20
103.332690
 30
0.0
  0
SPLINE
  5
10a
100
AcDbEntity
  8
Layer_1
 62
7
100
AcDbSpline
 70
8
 71
3
 72
8
 73
4
 74
0
 40
0
 40
0
 40
0
 40
0
 40
1
 40
1
 40
1
 40
1
 10
281.577990
 20
103.332690
 30
0.0
 10
282.188090
 20
103.688670
 30
0.0
 10
282.430410
 20
104.598160
 30
0.0
 10
282.232360
 20
105.788820
 30
0.0
  0
LINE
  5
10b
100
AcDbEntity
  8
Layer_1
 62
7
100
AcDbLine
 10
282.232360
 20
105.788820
 30
0.0
 11
282.620720
 21
106.012990
 31
0.0
  0
SPLINE
  5
10c
100
AcDbEntity
  8
Layer_1
 62
7
100
AcDbSpline
 70
8
 71
3
 72
8
 73
4
 74
0
 40
0
 40
0
 40
0
 40
0
 40
1
 40
1
 40
1
 40
1
 10
282.620720
 20
106.012990
 30
0.0
 10
288.356910
 20
96.870950
 30
0.0
 10
296.074950
 20
89.135430
 30
0.0
 10
305.203970
 20
83.378560
 30
0.0
  0
LINE
  5
10d
100
AcDbEntity
  8
Layer_1
 62
7
100
AcDbLine
 10
305.203970
 20
83.378560
 30
0.0
 11
304.998420
 21
83.022770
 31
0.0
  0
SPLINE
  5
10e
100
AcDbEntity
  8
Layer_1
 62
7
100
AcDbSpline
 70
8
 71
3
 72
8
 73
4
 74
0
 40
0
 40
0
 40
0
 40
0
 40
1
 40
1
 40
1
 40
1
 10
304.998420
 20
83.022770
 30
0.0
 10
303.808410
 20
83.220560
 30
0.0
 10
302.899350
 20
82.978470
 30
0.0
 10
302.543210
 20
82.368860
 30
0.0
  0
SPLINE
  5
10f
100
AcDbEntity
  8
Layer_1
 62
7
100
AcDbSpline
 70
8
 71
3
 72
8
 73
4
 74
0
 40
0
 40
0
 40
0
 40
0
 40
1
 40
1
 40
1
 40
1
 10
302.543210
 20
82.368860
 30
0.0
 10
301.921460
 20
81.292810
 30
0.0
 10
303.162570
 20
79.412830
 30
0.0
 10
305.315130
 20
78.170040
 30
0.0
  0
SPLINE
  5
110
100
AcDbEntity
  8
Layer_1
 62
7
100
AcDbSpline
 70
8
 71
3
 72
8
 73
4
 74
0
 40
0
 40
0
 40
0
 40
0
 40
1
 40
1
 40
1
 40
1
 10
305.315130
 20
78.170040
 30
0.0
 10
307.467490
 20
76.927210
 30
0.0
 10
309.716170
 20
76.792070
 30
0.0
 10
310.337610
 20
77.868200
 30
0.0
  0
SPLINE
  5
111
100
AcDbEntity
  8
Layer_1
 62
7
100
AcDbSpline
 70
8
 71
3
 72
8
 73
4
 74
0
 40
0
 40
0
 40
0
 40
0
 40
1
 40
1
 40
1
 40
1
 10
310.337610
 20
77.868200
 30
0.0
 10
310.688010
 20
78.481530
 30
0.0
 10
310.443100
 20
79.390330
 30
0.0
 10
309.676270
 20
80.322460
 30
0.0
  0
LINE
  5
112
100
AcDbEntity
  8
Layer_1
 62
7
100
AcDbLine
 10
309.676270
 20
80.322460
 30
0.0
 11
309.861360
 21
80.643850
 31
0.0
  0
SPLINE
  5
113
100
AcDbEntity
  8
Layer_1
 62
7
100
AcDbSpline
 70
8
 71
3
 72
8
 73
4
 74
0
 40
0
 40
0
 40
0
 40
0
 40
1
 40
1
 40
1
 40
1
 10
309.861360
 20
80.643850
 30
0.0
 10
311.406080
 20
79.854930
 30
0.0
 10
312.978800
 20
79.122090
 30
0.0
 10
314.576430
 20
78.446770
 30
0.0
  0
LINE
  5
114
100
AcDbEntity
  8
Layer_1
 62
7
100
AcDbLine
 10
314.576430
 20
78.446770
 30
0.0
 11
319.338930
 21
85.237980
 31
0.0
  0
LINE
  5
115
100
AcDbEntity
  8
Layer_1
 62
7
100
AcDbLine
 10
319.338930
 20
85.237980
 30
0.0
 11
301.874890
 21
104.287980
 31
0.0
  0
LINE
  5
116
100
AcDbEntity
  8
Layer_1
 62
7
100
AcDbLine
 10
301.874890
 20
104.287980
 30
0.0
 11
301.874890
 21
184.242690
 31
0.0
  0
LINE
  5
117
100
AcDbEntity
  8
Layer_1
 62
7
100
AcDbLine
 10
301.874890
 20
184.242690
 30
0.0
 11
319.338930
 21
203.292699
 31
0.0
  0
LINE
  5
118
100
AcDbEntity
  8
Layer_1
 62
7
100
AcDbLine
 10
319.338930
 20
203.292699
 30
0.0
 11
314.576430
 21
210.048576
 31
0.0
  0
SPLINE
  5
119
100
AcDbEntity
  8
Layer_1
 62
7
100
AcDbSpline
 70
8
 71
3
 72
8
 73
4
 74
0
 40
0
 40
0
 40
0
 40
0
 40
1
 40
1
 40
1
 40
1
 10
314.576430
 20
210.048576
 30
0.0
 10
312.982910
 20
209.377734
 30
0.0
 10
311.414100
 20
208.649706
 30
0.0
 10
309.873010
 20
207.865923
 30
0.0
  0
LINE
  5
11a
100
AcDbEntity
  8
Layer_1
 62
7
100
AcDbLine
 10
309.873010
 20
207.865923
 30
0.0
 11
309.675340
 21
208.208220
 31
0.0
  0
SPLINE
  5
11b
100
AcDbEntity
  8
Layer_1
 62
7
100
AcDbSpline
 70
8
 71
3
 72
8
 73
4
 74
0
 40
0
 40
0
 40
0
 40
0
 40
1
 40
1
 40
1
 40
1
 10
309.675340
 20
208.208220
 30
0.0
 10
310.441890
 20
209.140215
 30
0.0
 10
310.686610
 20
210.048819
 30
0.0
 10
310.336230
 20
210.662025
 30
0.0
  0
SPLINE
  5
11c
100
AcDbEntity
  8
Layer_1
 62
7
100
AcDbSpline
 70
8
 71
3
 72
8
 73
4
 74
0
 40
0
 40
0
 40
0
 40
0
 40
1
 40
1
 40
1
 40
1
 10
310.336230
 20
210.662025
 30
0.0
 10
309.714990
 20
211.738207
 30
0.0
 10
307.466530
 20
211.603270
 30
0.0
 10
305.314190
 20
210.360651
 30
0.0
  0
SPLINE
  5
11d
100
AcDbEntity
  8
Layer_1
 62
7
100
AcDbSpline
 70
8
 71
3
 72
8
 73
4
 74
0
 40
0
 40
0
 40
0
 40
0
 40
1
 40
1
 40
1
 40
1
 10
305.314190
 20
210.360651
 30
0.0
 10
303.161640
 20
209.117859
 30
0.0
 10
301.920540
 20
207.237876
 30
0.0
 10
302.542280
 20
206.161836
 30
0.0
  0
SPLINE
  5
11e
100
AcDbEntity
  8
Layer_1
 62
7
100
AcDbSpline
 70
8
 71
3
 72
8
 73
4
 74
0
 40
0
 40
0
 40
0
 40
0
 40
1
 40
1
 40
1
 40
1
 10
302.542280
 20
206.161836
 30
0.0
 10
302.898250
 20
205.551717
 30
0.0
 10
303.807750
 20
205.309410
 30
0.0
 10
304.998420
 20
205.507446
 30
0.0
  0
LINE
  5
11f
100
AcDbEntity
  8
Layer_1
 62
7
100
AcDbLine
 10
304.998420
 20
205.507446
 30
0.0
 11
305.204920
 21
205.149327
 31
0.0
  0
SPLINE
  5
120
100
AcDbEntity
  8
Layer_1
 62
7
100
AcDbSpline
 70
8
 71
3
 72
8
 73
4
 74
0
 40
0
 40
0
 40
0
 40
0
 40
1
 40
1
 40
1
 40
1
 10
305.204920
 20
205.149327
 30
0.0
 10
296.055890
 20
199.412259
 30
0.0
 10
288.314600
 20
191.690640
 30
0.0
 10
282.554210
 20
182.556270
 30
0.0
  0
LINE
  5
121
100
AcDbEntity
  8
Layer_1
 62
7
100
AcDbLine
 10
282.554210
 20
182.556270
 30
0.0
 11
282.231880
 21
182.741840
 31
0.0
  0
SPLINE
  5
122
100
AcDbEntity
  8
Layer_1
 62
7
100
AcDbSpline
 70
8
 71
3
 72
8
 73
4
 74
0
 40
0
 40
0
 40
0
 40
0
 40
1
 40
1
 40
1
 40
1
 10
282.231880
 20
182.741840
 30
0.0
 10
282.429810
 20
183.932090
 30
0.0
 10
282.187680
 20
184.841340
 30
0.0
 10
281.577990
 20
185.197510
 30
0.0
  0
SPLINE
  5
123
100
AcDbEntity
  8
Layer_1
 62
7
100
AcDbSpline
 70
8
 71
3
 72
8
 73
4
 74
0
 40
0
 40
0
 40
0
 40
0
 40
1
 40
1
 40
1
 40
1
 10
281.577990
 20
185.197510
 30
0.0
 10
280.501950
 20
185.819250
 30
0.0
 10
278.621950
 20
184.578150
 30
0.0
 10
277.379160
 20
182.425580
 30
0.0
  0
SPLINE
  5
124
100
AcDbEntity
  8
Layer_1
 62
7
100
AcDbSpline
 70
8
 71
3
 72
8
 73
4
 74
0
 40
0
 40
0
 40
0
 40
0
 40
1
 40
1
 40
1
 40
1
 10
277.379160
 20
182.425580
 30
0.0
 10
276.136270
 20
180.273000
 30
0.0
 10
276.001340
 20
178.024190
 30
0.0
 10
277.077780
 20
177.403100
 30
0.0
  0
SPLINE
  5
125
100
AcDbEntity
  8
Layer_1
 62
7
100
AcDbSpline
 70
8
 71
3
 72
8
 73
4
 74
0
 40
0
 40
0
 40
0
 40
0
 40
1
 40
1
 40
1
 40
1
 10
277.077780
 20
177.403100
 30
0.0
 10
277.691110
 20
177.052700
 30
0.0
 10
278.599920
 20
177.297600
 30
0.0
 10
279.532070
 20
178.064450
 30
0.0
  0
LINE
  5
126
100
AcDbEntity
  8
Layer_1
 62
7
100
AcDbLine
 10
279.532070
 20
178.064450
 30
0.0
 11
279.895290
 21
177.855160
 31
0.0
  0
SPLINE
  5
127
100
AcDbEntity
  8
Layer_1
 62
7
100
AcDbSpline
 70
8
 71
3
 72
8
 73
4
 74
0
 40
0
 40
0
 40
0
 40
0
 40
1
 40
1
 40
1
 40
1
 10
279.895290
 20
177.855160
 30
0.0
 10
274.858020
 20
168.308810
 30
0.0
 10
272.031600
 20
157.752050
 30
0.0
 10
271.625100
 20
146.965870
 30
0.0
  0
LINE
  5
128
100
AcDbEntity
  8
Layer_1
 62
7
100
AcDbLine
 10
271.625100
 20
146.965870
 30
0.0
 11
271.199070
 21
146.965870
 31
0.0
  0
SPLINE
  5
129
100
AcDbEntity
  8
Layer_1
 62
7
100
AcDbSpline
 70
8
 71
3
 72
8
 73
4
 74
0
 40
0
 40
0
 40
0
 40
0
 40
1
 40
1
 40
1
 40
1
 10
271.199070
 20
146.965870
 30
0.0
 10
270.775190
 20
148.095870
 30
0.0
 10
270.110600
 20
148.762170
 30
0.0
 10
269.404290
 20
148.765300
 30
0.0
  0
SPLINE
  5
12a
100
AcDbEntity
  8
Layer_1
 62
7
100
AcDbSpline
 70
8
 71
3
 72
8
 73
4
 74
0
 40
0
 40
0
 40
0
 40
0
 40
1
 40
1
 40
1
 40
1
 10
269.404290
 20
148.765300
 30
0.0
 10
268.161590
 20
148.765470
 30
0.0
 10
267.154150
 20
146.750580
 30
0.0
 10
267.154200
 20
144.265100
 30
0.0
  0
LINE
  5
12b
100
AcDbEntity
  8
Layer_1
 62
7
100
AcDbLine
 10
267.154200
 20
144.265100
 30
0.0
 11
267.154210
 21
144.265090
 31
0.0
  0
SPLINE
  5
12c
100
AcDbEntity
  8
Layer_1
 62
7
100
AcDbSpline
 70
8
 71
3
 72
8
 73
4
 74
0
 40
0
 40
0
 40
0
 40
0
 40
1
 40
1
 40
1
 40
1
 10
22.000329
 20
380.000246
 30
0.0
 10
10.920330
 20
380.000246
 30
0.0
 10
2.000000
 20
371.079916
 30
0.0
 10
2.000000
 20
359.999917
 30
0.0
  0
LINE
  5
12d
100
AcDbEntity
  8
Layer_1
 62
7
100
AcDbLine
 10
2.000000
 20
359.999917
 30
0.0
 11
2.000000
 21
321.708199
 31
0.0
  0
SPLINE
  5
12e
100
AcDbEntity
  8
Layer_1
 62
7
100
AcDbSpline
 70
8
 71
3
 72
8
 73
4
 74
0
 40
0
 40
0
 40
0
 40
0
 40
1
 40
1
 40
1
 40
1
 10
2.000000
 20
321.708199
 30
0.0
 10
2.000000
 20
277.388197
 30
0.0
 10
32.388616
 20
120.000000
 30
0.0
 10
76.708615
 20
120.000000
 30
0.0
  0
LINE
  5
12f
100
AcDbEntity
  8
Layer_1
 62
7
100
AcDbLine
 10
76.708615
 20
120.000000
 30
0.0
 11
227.291670
 21
120.000000
 31
0.0
  0
SPLINE
  5
130
100
AcDbEntity
  8
Layer_1
 62
7
100
AcDbSpline
 70
8
 71
3
 72
8
 73
4
 74
0
 40
0
 40
0
 40
0
 40
0
 40
1
 40
1
 40
1
 40
1
 10
227.291670
 20
120.000000
 30
0.0
 10
271.611670
 20
120.000000
 30
0.0
 10
302.000280
 20
277.388197
 30
0.0
 10
302.000280
 20
321.708199
 30
0.0
  0
LINE
  5
131
100
AcDbEntity
  8
Layer_1
 62
7
100
AcDbLine
 10
302.000280
 20
321.708199
 30
0.0
 11
302.000280
 21
359.999917
 31
0.0
  0
SPLINE
  5
132
100
AcDbEntity
  8
Layer_1
 62
7
100
AcDbSpline
 70
8
 71
3
 72
8
 73
4
 74
0
 40
0
 40
0
 40
0
 40
0
 40
1
 40
1
 40
1
 40
1
 10
302.000280
 20
359.999917
 30
0.0
 10
302.000280
 20
371.079916
 30
0.0
 10
293.079960
 20
380.000246
 30
0.0
 10
281.999950
 20
380.000246
 30
0.0
  0
LINE
  5
133
100
AcDbEntity
  8
Layer_1
 62
7
100
AcDbLine
 10
281.999950
 20
380.000246
 30
0.0
 11
22.000329
 21
380.000246
 31
0.0
  0
LINE
  5
134
100
AcDbEntity
  8
Layer_1
 62
7
100
AcDbLine
 10
148.298337
 20
340.187003
 30
0.0
 11
148.085947
 21
340.448204
 31
0.0
  0
LINE
  5
135
100
AcDbEntity
  8
Layer_1
 62
7
100
AcDbLine
 10
148.085947
 20
340.448204
 30
0.0
 11
149.500337
 21
342.187003
 31
0.0
  0
LINE
  5
136
100
AcDbEntity
  8
Layer_1
 62
7
100
AcDbLine
 10
149.500337
 20
342.187003
 30
0.0
 11
154.500027
 21
342.187003
 31
0.0
  0
LINE
  5
137
100
AcDbEntity
  8
Layer_1
 62
7
100
AcDbLine
 10
154.500027
 20
342.187003
 30
0.0
 11
155.914417
 21
340.448204
 31
0.0
  0
LINE
  5
138
100
AcDbEntity
  8
Layer_1
 62
7
100
AcDbLine
 10
155.914417
 20
340.448204
 30
0.0
 11
155.702537
 21
340.187003
 31
0.0
  0
LINE
  5
139
100
AcDbEntity
  8
Layer_1
 62
7
100
AcDbLine
 10
155.702537
 20
340.187003
 30
0.0
 11
154.376007
 21
341.818397
 31
0.0
  0
LINE
  5
13a
100
AcDbEntity
  8
Layer_1
 62
7
100
AcDbLine
 10
154.376007
 20
341.818397
 30
0.0
 11
149.624357
 21
341.818397
 31
0.0
  0
LINE
  5
13b
100
AcDbEntity
  8
Layer_1
 62
7
100
AcDbLine
 10
149.624357
 20
341.818397
 30
0.0
 11
148.298337
 21
340.187003
 31
0.0
  0
LINE
  5
13c
100
AcDbEntity
  8
Layer_1
 62
7
100
AcDbLine
 10
108.298347
 20
340.187003
 30
0.0
 11
108.085957
 21
340.448204
 31
0.0
  0
LINE
  5
13d
100
AcDbEntity
  8
Layer_1
 62
7
100
AcDbLine
 10
108.085957
 20
340.448204
 30
0.0
 11
109.500347
 21
342.187003
 31
0.0
  0
LINE
  5
13e
100
AcDbEntity
  8
Layer_1
 62
7
100
AcDbLine
 10
109.500347
 20
342.187003
 30
0.0
 11
114.500027
 21
342.187003
 31
0.0
  0
LINE
  5
13f
100
AcDbEntity
  8
Layer_1
 62
7
100
AcDbLine
 10
114.500027
 20
342.187003
 30
0.0
 11
115.914417
 21
340.448204
 31
0.0
  0
LINE
  5
140
100
AcDbEntity
  8
Layer_1
 62
7
100
AcDbLine
 10
115.914417
 20
340.448204
 30
0.0
 11
115.702537
 21
340.187003
 31
0.0
  0
LINE
  5
141
100
AcDbEntity
  8
Layer_1
 62
7
100
AcDbLine
 10
115.702537
 20
340.187003
 30
0.0
 11
114.376007
 21
341.818397
 31
0.0
  0
LINE
  5
142
100
AcDbEntity
  8
Layer_1
 62
7
100
AcDbLine
 10
114.376007
 20
341.818397
 30
0.0
 11
109.624357
 21
341.818397
 31
0.0
  0
LINE
  5
143
100
AcDbEntity
  8
Layer_1
 62
7
100
AcDbLine
 10
109.624357
 20
341.818397
 30
0.0
 11
108.298347
 21
340.187003
 31
0.0
  0
LINE
  5
144
100
AcDbEntity
  8
Layer_1
 62
7
100
AcDbLine
 10
62.298347
 20
340.187003
 30
0.0
 11
62.085957
 21
340.448204
 31
0.0
  0
LINE
  5
145
100
AcDbEntity
  8
Layer_1
 62
7
100
AcDbLine
 10
62.085957
 20
340.448204
 30
0.0
 11
63.500347
 21
342.187003
 31
0.0
  0
LINE
  5
146
100
AcDbEntity
  8
Layer_1
 62
7
100
AcDbLine
 10
63.500347
 20
342.187003
 30
0.0
 11
68.500027
 21
342.187003
 31
0.0
  0
LINE
  5
147
100
AcDbEntity
  8
Layer_1
 62
7
100
AcDbLine
 10
68.500027
 20
342.187003
 30
0.0
 11
69.914417
 21
340.448204
 31
0.0
  0
LINE
  5
148
100
AcDbEntity
  8
Layer_1
 62
7
100
AcDbLine
 10
69.914417
 20
340.448204
 30
0.0
 11
69.702537
 21
340.187003
 31
0.0
  0
LINE
  5
149
100
AcDbEntity
  8
Layer_1
 62
7
100
AcDbLine
 10
69.702537
 20
340.187003
 30
0.0
 11
68.376007
 21
341.818397
 31
0.0
  0
LINE
  5
14a
100
AcDbEntity
  8
Layer_1
 62
7
100
AcDbLine
 10
68.376007
 20
341.818397
 30
0.0
 11
63.624357
 21
341.818397
 31
0.0
  0
LINE
  5
14b
100
AcDbEntity
  8
Layer_1
 62
7
100
AcDbLine
 10
63.624357
 20
341.818397
 30
0.0
 11
62.298347
 21
340.187003
 31
0.0
  0
LINE
  5
14c
100
AcDbEntity
  8
Layer_1
 62
7
100
AcDbLine
 10
13.298347
 20
340.187003
 30
0.0
 11
13.085957
 21
340.448204
 31
0.0
  0
LINE
  5
14d
100
AcDbEntity
  8
Layer_1
 62
7
100
AcDbLine
 10
13.085957
 20
340.448204
 30
0.0
 11
14.500347
 21
342.187003
 31
0.0
  0
LINE
  5
14e
100
AcDbEntity
  8
Layer_1
 62
7
100
AcDbLine
 10
14.500347
 20
342.187003
 30
0.0
 11
19.500027
 21
342.187003
 31
0.0
  0
LINE
  5
14f
100
AcDbEntity
  8
Layer_1
 62
7
100
AcDbLine
 10
19.500027
 20
342.187003
 30
0.0
 11
20.914417
 21
340.448204
 31
0.0
  0
LINE
  5
150
100
AcDbEntity
  8
Layer_1
 62
7
100
AcDbLine
 10
20.914417
 20
340.448204
 30
0.0
 11
20.702537
 21
340.187003
 31
0.0
  0
LINE
  5
151
100
AcDbEntity
  8
Layer_1
 62
7
100
AcDbLine
 10
20.702537
 20
340.187003
 30
0.0
 11
19.376007
 21
341.818397
 31
0.0
  0
LINE
  5
152
100
AcDbEntity
  8
Layer_1
 62
7
100
AcDbLine
 10
19.376007
 20
341.818397
 30
0.0
 11
14.624357
 21
341.818397
 31
0.0
  0
LINE
  5
153
100
AcDbEntity
  8
Layer_1
 62
7
100
AcDbLine
 10
14.624357
 20
341.818397
 30
0.0
 11
13.298347
 21
340.187003
 31
0.0
  0
LINE
  5
154
100
AcDbEntity
  8
Layer_1
 62
7
100
AcDbLine
 10
188.298337
 20
340.187003
 30
0.0
 11
188.085947
 21
340.448204
 31
0.0
  0
LINE
  5
155
100
AcDbEntity
  8
Layer_1
 62
7
100
AcDbLine
 10
188.085947
 20
340.448204
 30
0.0
 11
189.500337
 21
342.187003
 31
0.0
  0
LINE
  5
156
100
AcDbEntity
  8
Layer_1
 62
7
100
AcDbLine
 10
189.500337
 20
342.187003
 30
0.0
 11
194.500027
 21
342.187003
 31
0.0
  0
LINE
  5
157
100
AcDbEntity
  8
Layer_1
 62
7
100
AcDbLine
 10
194.500027
 20
342.187003
 30
0.0
 11
195.914417
 21
340.448204
 31
0.0
  0
LINE
  5
158
100
AcDbEntity
  8
Layer_1
 62
7
100
AcDbLine
 10
195.914417
 20
340.448204
 30
0.0
 11
195.702537
 21
340.187003
 31
0.0
  0
LINE
  5
159
100
AcDbEntity
  8
Layer_1
 62
7
100
AcDbLine
 10
195.702537
 20
340.187003
 30
0.0
 11
194.376007
 21
341.818397
 31
0.0
  0
LINE
  5
15a
100
AcDbEntity
  8
Layer_1
 62
7
100
AcDbLine
 10
194.376007
 20
341.818397
 30
0.0
 11
189.624357
 21
341.818397
 31
0.0
  0
LINE
  5
15b
100
AcDbEntity
  8
Layer_1
 62
7
100
AcDbLine
 10
189.624357
 20
341.818397
 30
0.0
 11
188.298337
 21
340.187003
 31
0.0
  0
LINE
  5
15c
100
AcDbEntity
  8
Layer_1
 62
7
100
AcDbLine
 10
234.298337
 20
340.187003
 30
0.0
 11
234.085957
 21
340.448204
 31
0.0
  0
LINE
  5
15d
100
AcDbEntity
  8
Layer_1
 62
7
100
AcDbLine
 10
234.085957
 20
340.448204
 30
0.0
 11
235.500337
 21
342.187003
 31
0.0
  0
LINE
  5
15e
100
AcDbEntity
  8
Layer_1
 62
7
100
AcDbLine
 10
235.500337
 20
342.187003
 30
0.0
 11
240.500027
 21
342.187003
 31
0.0
  0
LINE
  5
15f
100
AcDbEntity
  8
Layer_1
 62
7
100
AcDbLine
 10
240.500027
 20
342.187003
 30
0.0
 11
241.914427
 21
340.448204
 31
0.0
  0
LINE
  5
160
100
AcDbEntity
  8
Layer_1
 62
7
100
AcDbLine
 10
241.914427
 20
340.448204
 30
0.0
 11
241.702537
 21
340.187003
 31
0.0
  0
LINE
  5
161
100
AcDbEntity
  8
Layer_1
 62
7
100
AcDbLine
 10
241.702537
 20
340.187003
 30
0.0
 11
240.376017
 21
341.818397
 31
0.0
  0
LINE
  5
162
100
AcDbEntity
  8
Layer_1
 62
7
100
AcDbLine
 10
240.376017
 20
341.818397
 30
0.0
 11
235.624357
 21
341.818397
 31
0.0
  0
LINE
  5
163
100
AcDbEntity
  8
Layer_1
 62
7
100
AcDbLine
 10
235.624357
 20
341.818397
 30
0.0
 11
234.298337
 21
340.187003
 31
0.0
  0
LINE
  5
164
100
AcDbEntity
  8
Layer_1
 62
7
100
AcDbLine
 10
283.298327
 20
340.187003
 30
0.0
 11
283.085947
 21
340.448204
 31
0.0
  0
LINE
  5
165
100
AcDbEntity
  8
Layer_1
 62
7
100
AcDbLine
 10
283.085947
 20
340.448204
 30
0.0
 11
284.500327
 21
342.187003
 31
0.0
  0
LINE
  5
166
100
AcDbEntity
  8
Layer_1
 62
7
100
AcDbLine
 10
284.500327
 20
342.187003
 30
0.0
 11
289.500027
 21
342.187003
 31
0.0
  0
LINE
  5
167
100
AcDbEntity
  8
Layer_1
 62
7
100
AcDbLine
 10
289.500027
 20
342.187003
 30
0.0
 11
290.914427
 21
340.448204
 31
0.0
  0
LINE
  5
168
100
AcDbEntity
  8
Layer_1
 62
7
100
AcDbLine
 10
290.914427
 20
340.448204
 30
0.0
 11
290.702537
 21
340.187003
 31
0.0
  0
LINE
  5
169
100
AcDbEntity
  8
Layer_1
 62
7
100
AcDbLine
 10
290.702537
 20
340.187003
 30
0.0
 11
289.376017
 21
341.818397
 31
0.0
  0
LINE
  5
16a
100
AcDbEntity
  8
Layer_1
 62
7
100
AcDbLine
 10
289.376017
 20
341.818397
 30
0.0
 11
284.624347
 21
341.818397
 31
0.0
  0
LINE
  5
16b
100
AcDbEntity
  8
Layer_1
 62
7
100
AcDbLine
 10
284.624347
 20
341.818397
 30
0.0
 11
283.298327
 21
340.187003
 31
0.0
  0
LINE
  5
16c
100
AcDbEntity
  8
Layer_1
 62
7
100
AcDbLine
 10
109.968481
 20
132.901357
 30
0.0
 11
109.777332
 21
132.640156
 31
0.0
  0
LINE
  5
16d
100
AcDbEntity
  8
Layer_1
 62
7
100
AcDbLine
 10
109.777332
 20
132.640156
 30
0.0
 11
111.050281
 21
130.901357
 31
0.0
  0
LINE
  5
16e
100
AcDbEntity
  8
Layer_1
 62
7
100
AcDbLine
 10
111.050281
 20
130.901357
 30
0.0
 11
115.549990
 21
130.901357
 31
0.0
  0
LINE
  5
16f
100
AcDbEntity
  8
Layer_1
 62
7
100
AcDbLine
 10
115.549990
 20
130.901357
 30
0.0
 11
116.822941
 21
132.640156
 31
0.0
  0
LINE
  5
170
100
AcDbEntity
  8
Layer_1
 62
7
100
AcDbLine
 10
116.822941
 20
132.640156
 30
0.0
 11
116.632249
 21
132.901357
 31
0.0
  0
LINE
  5
171
100
AcDbEntity
  8
Layer_1
 62
7
100
AcDbLine
 10
116.632249
 20
132.901357
 30
0.0
 11
115.438372
 21
131.269957
 31
0.0
  0
LINE
  5
172
100
AcDbEntity
  8
Layer_1
 62
7
100
AcDbLine
 10
115.438372
 20
131.269957
 30
0.0
 11
111.161890
 21
131.269957
 31
0.0
  0
LINE
  5
173
100
AcDbEntity
  8
Layer_1
 62
7
100
AcDbLine
 10
111.161890
 20
131.269957
 30
0.0
 11
109.968481
 21
132.901357
 31
0.0
  0
LINE
  5
174
100
AcDbEntity
  8
Layer_1
 62
7
100
AcDbLine
 10
71.268481
 20
132.901357
 30
0.0
 11
71.077330
 21
132.640156
 31
0.0
  0
LINE
  5
175
100
AcDbEntity
  8
Layer_1
 62
7
100
AcDbLine
 10
71.077330
 20
132.640156
 30
0.0
 11
72.350281
 21
130.901357
 31
0.0
  0
LINE
  5
176
100
AcDbEntity
  8
Layer_1
 62
7
100
AcDbLine
 10
72.350281
 20
130.901357
 30
0.0
 11
76.849993
 21
130.901357
 31
0.0
  0
LINE
  5
177
100
AcDbEntity
  8
Layer_1
 62
7
100
AcDbLine
 10
76.849993
 20
130.901357
 30
0.0
 11
78.122944
 21
132.640156
 31
0.0
  0
LINE
  5
178
100
AcDbEntity
  8
Layer_1
 62
7
100
AcDbLine
 10
78.122944
 20
132.640156
 30
0.0
 11
77.932252
 21
132.901357
 31
0.0
  0
LINE
  5
179
100
AcDbEntity
  8
Layer_1
 62
7
100
AcDbLine
 10
77.932252
 20
132.901357
 30
0.0
 11
76.738375
 21
131.269957
 31
0.0
  0
LINE
  5
17a
100
AcDbEntity
  8
Layer_1
 62
7
100
AcDbLine
 10
76.738375
 20
131.269957
 30
0.0
 11
72.461890
 21
131.269957
 31
0.0
  0
LINE
  5
17b
100
AcDbEntity
  8
Layer_1
 62
7
100
AcDbLine
 10
72.461890
 20
131.269957
 30
0.0
 11
71.268481
 21
132.901357
 31
0.0
  0
LINE
  5
17c
100
AcDbEntity
  8
Layer_1
 62
7
100
AcDbLine
 10
148.668469
 20
132.901357
 30
0.0
 11
148.477318
 21
132.640156
 31
0.0
  0
LINE
  5
17d
100
AcDbEntity
  8
Layer_1
 62
7
100
AcDbLine
 10
148.477318
 20
132.640156
 30
0.0
 11
149.750269
 21
130.901357
 31
0.0
  0
LINE
  5
17e
100
AcDbEntity
  8
Layer_1
 62
7
100
AcDbLine
 10
149.750269
 20
130.901357
 30
0.0
 11
154.249990
 21
130.901357
 31
0.0
  0
LINE
  5
17f
100
AcDbEntity
  8
Layer_1
 62
7
100
AcDbLine
 10
154.249990
 20
130.901357
 30
0.0
 11
155.522941
 21
132.640156
 31
0.0
  0
LINE
  5
180
100
AcDbEntity
  8
Layer_1
 62
7
100
AcDbLine
 10
155.522941
 20
132.640156
 30
0.0
 11
155.332249
 21
132.901357
 31
0.0
  0
LINE
  5
181
100
AcDbEntity
  8
Layer_1
 62
7
100
AcDbLine
 10
155.332249
 20
132.901357
 30
0.0
 11
154.138372
 21
131.269957
 31
0.0
  0
LINE
  5
182
100
AcDbEntity
  8
Layer_1
 62
7
100
AcDbLine
 10
154.138372
 20
131.269957
 30
0.0
 11
149.861887
 21
131.269957
 31
0.0
  0
LINE
  5
183
100
AcDbEntity
  8
Layer_1
 62
7
100
AcDbLine
 10
149.861887
 20
131.269957
 30
0.0
 11
148.668469
 21
132.901357
 31
0.0
  0
LINE
  5
184
100
AcDbEntity
  8
Layer_1
 62
7
100
AcDbLine
 10
226.068469
 20
132.901357
 30
0.0
 11
225.877327
 21
132.640156
 31
0.0
  0
LINE
  5
185
100
AcDbEntity
  8
Layer_1
 62
7
100
AcDbLine
 10
225.877327
 20
132.640156
 30
0.0
 11
227.150269
 21
130.901357
 31
0.0
  0
LINE
  5
186
100
AcDbEntity
  8
Layer_1
 62
7
100
AcDbLine
 10
227.150269
 20
130.901357
 30
0.0
 11
231.649990
 21
130.901357
 31
0.0
  0
LINE
  5
187
100
AcDbEntity
  8
Layer_1
 62
7
100
AcDbLine
 10
231.649990
 20
130.901357
 30
0.0
 11
232.922950
 21
132.640156
 31
0.0
  0
LINE
  5
188
100
AcDbEntity
  8
Layer_1
 62
7
100
AcDbLine
 10
232.922950
 20
132.640156
 30
0.0
 11
232.732249
 21
132.901357
 31
0.0
  0
LINE
  5
189
100
AcDbEntity
  8
Layer_1
 62
7
100
AcDbLine
 10
232.732249
 20
132.901357
 30
0.0
 11
231.538381
 21
131.269957
 31
0.0
  0
LINE
  5
18a
100
AcDbEntity
  8
Layer_1
 62
7
100
AcDbLine
 10
231.538381
 20
131.269957
 30
0.0
 11
227.261887
 21
131.269957
 31
0.0
  0
LINE
  5
18b
100
AcDbEntity
  8
Layer_1
 62
7
100
AcDbLine
 10
227.261887
 20
131.269957
 30
0.0
 11
226.068469
 21
132.901357
 31
0.0
  0
LINE
  5
18c
100
AcDbEntity
  8
Layer_1
 62
7
100
AcDbLine
 10
187.368478
 20
132.901357
 30
0.0
 11
187.177327
 21
132.640156
 31
0.0
  0
LINE
  5
18d
100
AcDbEntity
  8
Layer_1
 62
7
100
AcDbLine
 10
187.177327
 20
132.640156
 30
0.0
 11
188.450278
 21
130.901357
 31
0.0
  0
LINE
  5
18e
100
AcDbEntity
  8
Layer_1
 62
7
100
AcDbLine
 10
188.450278
 20
130.901357
 30
0.0
 11
192.949990
 21
130.901357
 31
0.0
  0
LINE
  5
18f
100
AcDbEntity
  8
Layer_1
 62
7
100
AcDbLine
 10
192.949990
 20
130.901357
 30
0.0
 11
194.222941
 21
132.640156
 31
0.0
  0
LINE
  5
190
100
AcDbEntity
  8
Layer_1
 62
7
100
AcDbLine
 10
194.222941
 20
132.640156
 30
0.0
 11
194.032249
 21
132.901357
 31
0.0
  0
LINE
  5
191
100
AcDbEntity
  8
Layer_1
 62
7
100
AcDbLine
 10
194.032249
 20
132.901357
 30
0.0
 11
192.838372
 21
131.269957
 31
0.0
  0
LINE
  5
192
100
AcDbEntity
  8
Layer_1
 62
7
100
AcDbLine
 10
192.838372
 20
131.269957
 30
0.0
 11
188.561887
 21
131.269957
 31
0.0
  0
LINE
  5
193
100
AcDbEntity
  8
Layer_1
 62
7
100
AcDbLine
 10
188.561887
 20
131.269957
 30
0.0
 11
187.368478
 21
132.901357
 31
0.0
  0
SPLINE
  5
194
100
AcDbEntity
  8
Layer_1
 62
7
100
AcDbSpline
 70
8
 71
3
 72
8
 73
4
 74
0
 40
0
 40
0
 40
0
 40
0
 40
1
 40
1
 40
1
 40
1
 10
151.999627
 20
116.000279
 30
0.0
 10
150.673539
 20
116.000238
 30
0.0
 10
149.401798
 20
115.736812
 30
0.0
 10
148.464172
 20
115.267952
 30
0.0
  0
SPLINE
  5
195
100
AcDbEntity
  8
Layer_1
 62
7
100
AcDbSpline
 70
8
 71
3
 72
8
 73
4
 74
0
 40
0
 40
0
 40
0
 40
0
 40
1
 40
1
 40
1
 40
1
 10
148.464172
 20
115.267952
 30
0.0
 10
147.526547
 20
114.799091
 30
0.0
 10
146.999844
 20
114.163204
 30
0.0
 10
146.999933
 20
113.500178
 30
0.0
  0
SPLINE
  5
196
100
AcDbEntity
  8
Layer_1
 62
7
100
AcDbSpline
 70
8
 71
3
 72
8
 73
4
 74
0
 40
0
 40
0
 40
0
 40
0
 40
1
 40
1
 40
1
 40
1
 10
146.999933
 20
113.500178
 30
0.0
 10
147.003521
 20
112.715342
 30
0.0
 10
147.744062
 20
111.976906
 30
0.0
 10
148.999810
 20
111.505987
 30
0.0
  0
LINE
  5
197
100
AcDbEntity
  8
Layer_1
 62
7
100
AcDbLine
 10
148.999810
 20
111.505987
 30
0.0
 11
148.999810
 21
111.000077
 31
0.0
  0
LINE
  5
198
100
AcDbEntity
  8
Layer_1
 62
7
100
AcDbLine
 10
148.999810
 20
111.000077
 30
0.0
 11
146.999933
 21
111.000077
 31
0.0
  0
SPLINE
  5
199
100
AcDbEntity
  8
Layer_1
 62
7
100
AcDbSpline
 70
8
 71
3
 72
8
 73
4
 74
0
 40
0
 40
0
 40
0
 40
0
 40
1
 40
1
 40
1
 40
1
 10
146.999933
 20
111.000077
 30
0.0
 10
144.229933
 20
111.000077
 30
0.0
 10
142.000239
 20
108.770380
 30
0.0
 10
142.000239
 20
106.000378
 30
0.0
  0
LINE
  5
19a
100
AcDbEntity
  8
Layer_1
 62
7
100
AcDbLine
 10
142.000239
 20
106.000378
 30
0.0
 11
142.000239
 21
74.000268
 31
0.0
  0
SPLINE
  5
19b
100
AcDbEntity
  8
Layer_1
 62
7
100
AcDbSpline
 70
8
 71
3
 72
8
 73
4
 74
0
 40
0
 40
0
 40
0
 40
0
 40
1
 40
1
 40
1
 40
1
 10
142.000239
 20
74.000268
 30
0.0
 10
142.000239
 20
71.230266
 30
0.0
 10
144.229933
 20
69.000066
 30
0.0
 10
146.999933
 20
69.000066
 30
0.0
  0
LINE
  5
19c
100
AcDbEntity
  8
Layer_1
 62
7
100
AcDbLine
 10
146.999933
 20
69.000066
 30
0.0
 11
135.000148
 21
69.000066
 31
0.0
  0
SPLINE
  5
19d
100
AcDbEntity
  8
Layer_1
 62
7
100
AcDbSpline
 70
8
 71
3
 72
8
 73
4
 74
0
 40
0
 40
0
 40
0
 40
0
 40
1
 40
1
 40
1
 40
1
 10
135.000148
 20
69.000066
 30
0.0
 10
137.770150
 20
69.000066
 30
0.0
 10
139.999844
 20
71.230266
 30
0.0
 10
139.999844
 20
74.000268
 30
0.0
  0
LINE
  5
19e
100
AcDbEntity
  8
Layer_1
 62
7
100
AcDbLine
 10
139.999844
 20
74.000268
 30
0.0
 11
139.999844
 21
103.999996
 31
0.0
  0
SPLINE
  5
19f
100
AcDbEntity
  8
Layer_1
 62
7
100
AcDbSpline
 70
8
 71
3
 72
8
 73
4
 74
0
 40
0
 40
0
 40
0
 40
0
 40
1
 40
1
 40
1
 40
1
 10
139.999844
 20
103.999996
 30
0.0
 10
139.999844
 20
106.769998
 30
0.0
 10
137.770150
 20
109.000197
 30
0.0
 10
135.000148
 20
109.000197
 30
0.0
  0
LINE
  5
1a0
100
AcDbEntity
  8
Layer_1
 62
7
100
AcDbLine
 10
135.000148
 20
109.000197
 30
0.0
 11
133.000271
 21
109.000197
 31
0.0
  0
SPLINE
  5
1a1
100
AcDbEntity
  8
Layer_1
 62
7
100
AcDbSpline
 70
8
 71
3
 72
8
 73
4
 74
0
 40
0
 40
0
 40
0
 40
0
 40
1
 40
1
 40
1
 40
1
 10
133.000271
 20
109.000197
 30
0.0
 10
133.000271
 20
109.000197
 30
0.0
 10
133.000271
 20
109.506636
 30
0.0
 10
133.000271
 20
109.506636
 30
0.0
  0
SPLINE
  5
1a2
100
AcDbEntity
  8
Layer_1
 62
7
100
AcDbSpline
 70
8
 71
3
 72
8
 73
4
 74
0
 40
0
 40
0
 40
0
 40
0
 40
1
 40
1
 40
1
 40
1
 10
133.000271
 20
109.506636
 30
0.0
 10
134.255721
 20
109.977444
 30
0.0
 10
134.996228
 20
110.715649
 30
0.0
 10
135.000148
 20
111.500298
 30
0.0
  0
SPLINE
  5
1a3
100
AcDbEntity
  8
Layer_1
 62
7
100
AcDbSpline
 70
8
 71
3
 72
8
 73
4
 74
0
 40
0
 40
0
 40
0
 40
0
 40
1
 40
1
 40
1
 40
1
 10
135.000148
 20
111.500298
 30
0.0
 10
135.000237
 20
112.163369
 30
0.0
 10
134.473463
 20
112.799296
 30
0.0
 10
133.535726
 20
113.268163
 30
0.0
  0
SPLINE
  5
1a4
100
AcDbEntity
  8
Layer_1
 62
7
100
AcDbSpline
 70
8
 71
3
 72
8
 73
4
 74
0
 40
0
 40
0
 40
0
 40
0
 40
1
 40
1
 40
1
 40
1
 10
133.535726
 20
113.268163
 30
0.0
 10
132.597989
 20
113.737031
 30
0.0
 10
131.326115
 20
114.000427
 30
0.0
 10
129.999938
 20
114.000399
 30
0.0
  0
SPLINE
  5
1a5
100
AcDbEntity
  8
Layer_1
 62
7
100
AcDbSpline
 70
8
 71
3
 72
8
 73
4
 74
0
 40
0
 40
0
 40
0
 40
0
 40
1
 40
1
 40
1
 40
1
 10
129.999938
 20
114.000399
 30
0.0
 10
128.673850
 20
114.000359
 30
0.0
 10
127.402108
 20
113.736933
 30
0.0
 10
126.464482
 20
113.268073
 30
0.0
  0
SPLINE
  5
1a6
100
AcDbEntity
  8
Layer_1
 62
7
100
AcDbSpline
 70
8
 71
3
 72
8
 73
4
 74
0
 40
0
 40
0
 40
0
 40
0
 40
1
 40
1
 40
1
 40
1
 10
126.464482
 20
113.268073
 30
0.0
 10
125.526856
 20
112.799212
 30
0.0
 10
125.000153
 20
112.163324
 30
0.0
 10
125.000242
 20
111.500298
 30
0.0
  0
SPLINE
  5
1a7
100
AcDbEntity
  8
Layer_1
 62
7
100
AcDbSpline
 70
8
 71
3
 72
8
 73
4
 74
0
 40
0
 40
0
 40
0
 40
0
 40
1
 40
1
 40
1
 40
1
 10
125.000242
 20
111.500298
 30
0.0
 10
125.003831
 20
110.715463
 30
0.0
 10
125.744373
 20
109.977027
 30
0.0
 10
127.000121
 20
109.506107
 30
0.0
  0
LINE
  5
1a8
100
AcDbEntity
  8
Layer_1
 62
7
100
AcDbLine
 10
127.000121
 20
109.506107
 30
0.0
 11
127.000121
 21
109.000197
 31
0.0
  0
LINE
  5
1a9
100
AcDbEntity
  8
Layer_1
 62
7
100
AcDbLine
 10
127.000121
 20
109.000197
 30
0.0
 11
125.000242
 21
109.000197
 31
0.0
  0
SPLINE
  5
1aa
100
AcDbEntity
  8
Layer_1
 62
7
100
AcDbSpline
 70
8
 71
3
 72
8
 73
4
 74
0
 40
0
 40
0
 40
0
 40
0
 40
1
 40
1
 40
1
 40
1
 10
125.000242
 20
109.000197
 30
0.0
 10
122.230242
 20
109.000197
 30
0.0
 10
120.000030
 20
106.769998
 30
0.0
 10
120.000032
 20
103.999996
 30
0.0
  0
LINE
  5
1ab
100
AcDbEntity
  8
Layer_1
 62
7
100
AcDbLine
 10
120.000032
 20
103.999996
 30
0.0
 11
120.000032
 21
74.000268
 31
0.0
  0
SPLINE
  5
1ac
100
AcDbEntity
  8
Layer_1
 62
7
100
AcDbSpline
 70
8
 71
3
 72
8
 73
4
 74
0
 40
0
 40
0
 40
0
 40
0
 40
1
 40
1
 40
1
 40
1
 10
120.000032
 20
74.000268
 30
0.0
 10
120.000032
 20
71.230266
 30
0.0
 10
122.230242
 20
69.000066
 30
0.0
 10
125.000242
 20
69.000066
 30
0.0
  0
LINE
  5
1ad
100
AcDbEntity
  8
Layer_1
 62
7
100
AcDbLine
 10
125.000242
 20
69.000066
 30
0.0
 11
106.999791
 21
69.000066
 31
0.0
  0
SPLINE
  5
1ae
100
AcDbEntity
  8
Layer_1
 62
7
100
AcDbSpline
 70
8
 71
3
 72
8
 73
4
 74
0
 40
0
 40
0
 40
0
 40
0
 40
1
 40
1
 40
1
 40
1
 10
106.999791
 20
69.000066
 30
0.0
 10
109.769791
 20
69.000066
 30
0.0
 10
112.000004
 20
71.230266
 30
0.0
 10
112.000004
 20
74.000268
 30
0.0
  0
LINE
  5
1af
100
AcDbEntity
  8
Layer_1
 62
7
100
AcDbLine
 10
112.000004
 20
74.000268
 30
0.0
 11
112.000004
 21
92.000189
 31
0.0
  0
SPLINE
  5
1b0
100
AcDbEntity
  8
Layer_1
 62
7
100
AcDbSpline
 70
8
 71
3
 72
8
 73
4
 74
0
 40
0
 40
0
 40
0
 40
0
 40
1
 40
1
 40
1
 40
1
 10
112.000004
 20
92.000189
 30
0.0
 10
112.000004
 20
94.770192
 30
0.0
 10
109.769791
 20
97.000417
 30
0.0
 10
106.999791
 20
97.000417
 30
0.0
  0
LINE
  5
1b1
100
AcDbEntity
  8
Layer_1
 62
7
100
AcDbLine
 10
106.999791
 20
97.000417
 30
0.0
 11
104.999914
 21
97.000417
 31
0.0
  0
LINE
  5
1b2
100
AcDbEntity
  8
Layer_1
 62
7
100
AcDbLine
 10
104.999914
 20
97.000417
 30
0.0
 11
104.999914
 21
97.506830
 31
0.0
  0
SPLINE
  5
1b3
100
AcDbEntity
  8
Layer_1
 62
7
100
AcDbSpline
 70
8
 71
3
 72
8
 73
4
 74
0
 40
0
 40
0
 40
0
 40
0
 40
1
 40
1
 40
1
 40
1
 10
104.999914
 20
97.506830
 30
0.0
 10
106.255380
 20
97.977643
 30
0.0
 10
106.995888
 20
98.715860
 30
0.0
 10
106.999791
 20
99.500518
 30
0.0
  0
SPLINE
  5
1b4
100
AcDbEntity
  8
Layer_1
 62
7
100
AcDbSpline
 70
8
 71
3
 72
8
 73
4
 74
0
 40
0
 40
0
 40
0
 40
0
 40
1
 40
1
 40
1
 40
1
 10
106.999791
 20
99.500518
 30
0.0
 10
106.999880
 20
100.163589
 30
0.0
 10
106.473106
 20
100.799516
 30
0.0
 10
105.535369
 20
101.268384
 30
0.0
  0
SPLINE
  5
1b5
100
AcDbEntity
  8
Layer_1
 62
7
100
AcDbSpline
 70
8
 71
3
 72
8
 73
4
 74
0
 40
0
 40
0
 40
0
 40
0
 40
1
 40
1
 40
1
 40
1
 10
105.535369
 20
101.268384
 30
0.0
 10
104.597631
 20
101.737251
 30
0.0
 10
103.325756
 20
102.000647
 30
0.0
 10
101.999579
 20
102.000619
 30
0.0
  0
SPLINE
  5
1b6
100
AcDbEntity
  8
Layer_1
 62
7
100
AcDbSpline
 70
8
 71
3
 72
8
 73
4
 74
0
 40
0
 40
0
 40
0
 40
0
 40
1
 40
1
 40
1
 40
1
 10
101.999579
 20
102.000619
 30
0.0
 10
100.673492
 20
102.000578
 30
0.0
 10
99.401750
 20
101.737152
 30
0.0
 10
98.464125
 20
101.268292
 30
0.0
  0
SPLINE
  5
1b7
100
AcDbEntity
  8
Layer_1
 62
7
100
AcDbSpline
 70
8
 71
3
 72
8
 73
4
 74
0
 40
0
 40
0
 40
0
 40
0
 40
1
 40
1
 40
1
 40
1
 10
98.464125
 20
101.268292
 30
0.0
 10
97.526500
 20
100.799432
 30
0.0
 10
96.999797
 20
100.163544
 30
0.0
 10
96.999886
 20
99.500518
 30
0.0
  0
SPLINE
  5
1b8
100
AcDbEntity
  8
Layer_1
 62
7
100
AcDbSpline
 70
8
 71
3
 72
8
 73
4
 74
0
 40
0
 40
0
 40
0
 40
0
 40
1
 40
1
 40
1
 40
1
 10
96.999886
 20
99.500518
 30
0.0
 10
97.003474
 20
98.715683
 30
0.0
 10
97.744015
 20
97.977247
 30
0.0
 10
98.999762
 20
97.506327
 30
0.0
  0
LINE
  5
1b9
100
AcDbEntity
  8
Layer_1
 62
7
100
AcDbLine
 10
98.999762
 20
97.506327
 30
0.0
 11
98.999762
 21
97.000417
 31
0.0
  0
LINE
  5
1ba
100
AcDbEntity
  8
Layer_1
 62
7
100
AcDbLine
 10
98.999762
 20
97.000417
 30
0.0
 11
96.999886
 21
97.000417
 31
0.0
  0
SPLINE
  5
1bb
100
AcDbEntity
  8
Layer_1
 62
7
100
AcDbSpline
 70
8
 71
3
 72
8
 73
4
 74
0
 40
0
 40
0
 40
0
 40
0
 40
1
 40
1
 40
1
 40
1
 10
96.999886
 20
97.000417
 30
0.0
 10
94.229886
 20
97.000417
 30
0.0
 10
92.000189
 20
94.770192
 30
0.0
 10
92.000189
 20
92.000189
 30
0.0
  0
LINE
  5
1bc
100
AcDbEntity
  8
Layer_1
 62
7
100
AcDbLine
 10
92.000189
 20
92.000189
 30
0.0
 11
92.000189
 21
74.000268
 31
0.0
  0
SPLINE
  5
1bd
100
AcDbEntity
  8
Layer_1
 62
7
100
AcDbSpline
 70
8
 71
3
 72
8
 73
4
 74
0
 40
0
 40
0
 40
0
 40
0
 40
1
 40
1
 40
1
 40
1
 10
92.000189
 20
74.000268
 30
0.0
 10
92.000189
 20
71.230266
 30
0.0
 10
94.229886
 20
69.000066
 30
0.0
 10
96.999886
 20
69.000066
 30
0.0
  0
LINE
  5
1be
100
AcDbEntity
  8
Layer_1
 62
7
100
AcDbLine
 10
96.999886
 20
69.000066
 30
0.0
 11
67.000166
 21
69.000066
 31
0.0
  0
SPLINE
  5
1bf
100
AcDbEntity
  8
Layer_1
 62
7
100
AcDbSpline
 70
8
 71
3
 72
8
 73
4
 74
0
 40
0
 40
0
 40
0
 40
0
 40
1
 40
1
 40
1
 40
1
 10
67.000166
 20
69.000066
 30
0.0
 10
69.770165
 20
69.000066
 30
0.0
 10
71.999862
 20
71.230266
 30
0.0
 10
71.999862
 20
74.000268
 30
0.0
  0
LINE
  5
1c0
100
AcDbEntity
  8
Layer_1
 62
7
100
AcDbLine
 10
71.999862
 20
74.000268
 30
0.0
 11
71.999862
 21
78.000027
 31
0.0
  0
SPLINE
  5
1c1
100
AcDbEntity
  8
Layer_1
 62
7
100
AcDbSpline
 70
8
 71
3
 72
8
 73
4
 74
0
 40
0
 40
0
 40
0
 40
0
 40
1
 40
1
 40
1
 40
1
 10
71.999862
 20
78.000027
 30
0.0
 10
71.999862
 20
80.770029
 30
0.0
 10
69.770165
 20
83.000229
 30
0.0
 10
67.000166
 20
83.000229
 30
0.0
  0
LINE
  5
1c2
100
AcDbEntity
  8
Layer_1
 62
7
100
AcDbLine
 10
67.000166
 20
83.000229
 30
0.0
 11
65.000289
 21
83.000229
 31
0.0
  0
SPLINE
  5
1c3
100
AcDbEntity
  8
Layer_1
 62
7
100
AcDbSpline
 70
8
 71
3
 72
8
 73
4
 74
0
 40
0
 40
0
 40
0
 40
0
 40
1
 40
1
 40
1
 40
1
 10
65.000289
 20
83.000229
 30
0.0
 10
65.000289
 20
83.000229
 30
0.0
 10
65.000289
 20
83.506668
 30
0.0
 10
65.000289
 20
83.506668
 30
0.0
  0
SPLINE
  5
1c4
100
AcDbEntity
  8
Layer_1
 62
7
100
AcDbSpline
 70
8
 71
3
 72
8
 73
4
 74
0
 40
0
 40
0
 40
0
 40
0
 40
1
 40
1
 40
1
 40
1
 10
65.000289
 20
83.506668
 30
0.0
 10
66.255739
 20
83.977475
 30
0.0
 10
66.996246
 20
84.715680
 30
0.0
 10
67.000166
 20
85.500329
 30
0.0
  0
SPLINE
  5
1c5
100
AcDbEntity
  8
Layer_1
 62
7
100
AcDbSpline
 70
8
 71
3
 72
8
 73
4
 74
0
 40
0
 40
0
 40
0
 40
0
 40
1
 40
1
 40
1
 40
1
 10
67.000166
 20
85.500329
 30
0.0
 10
67.000268
 20
86.163405
 30
0.0
 10
66.473501
 20
86.799339
 30
0.0
 10
65.535762
 20
87.268212
 30
0.0
  0
SPLINE
  5
1c6
100
AcDbEntity
  8
Layer_1
 62
7
100
AcDbSpline
 70
8
 71
3
 72
8
 73
4
 74
0
 40
0
 40
0
 40
0
 40
0
 40
1
 40
1
 40
1
 40
1
 10
65.535762
 20
87.268212
 30
0.0
 10
64.598023
 20
87.737085
 30
0.0
 10
63.326140
 20
88.000485
 30
0.0
 10
61.999953
 20
88.000457
 30
0.0
  0
SPLINE
  5
1c7
100
AcDbEntity
  8
Layer_1
 62
7
100
AcDbSpline
 70
8
 71
3
 72
8
 73
4
 74
0
 40
0
 40
0
 40
0
 40
0
 40
1
 40
1
 40
1
 40
1
 10
61.999953
 20
88.000457
 30
0.0
 10
60.673857
 20
88.000416
 30
0.0
 10
59.402107
 20
87.736986
 30
0.0
 10
58.464480
 20
87.268120
 30
0.0
  0
SPLINE
  5
1c8
100
AcDbEntity
  8
Layer_1
 62
7
100
AcDbSpline
 70
8
 71
3
 72
8
 73
4
 74
0
 40
0
 40
0
 40
0
 40
0
 40
1
 40
1
 40
1
 40
1
 10
58.464480
 20
87.268120
 30
0.0
 10
57.526854
 20
86.799254
 30
0.0
 10
57.000157
 20
86.163360
 30
0.0
 10
57.000260
 20
85.500329
 30
0.0
  0
SPLINE
  5
1c9
100
AcDbEntity
  8
Layer_1
 62
7
100
AcDbSpline
 70
8
 71
3
 72
8
 73
4
 74
0
 40
0
 40
0
 40
0
 40
0
 40
1
 40
1
 40
1
 40
1
 10
57.000260
 20
85.500329
 30
0.0
 10
57.003848
 20
84.715494
 30
0.0
 10
57.744389
 20
83.977058
 30
0.0
 10
59.000137
 20
83.506138
 30
0.0
  0
LINE
  5
1ca
100
AcDbEntity
  8
Layer_1
 62
7
100
AcDbLine
 10
59.000137
 20
83.506138
 30
0.0
 11
59.000137
 21
83.000229
 31
0.0
  0
LINE
  5
1cb
100
AcDbEntity
  8
Layer_1
 62
7
100
AcDbLine
 10
59.000137
 20
83.000229
 30
0.0
 11
56.999744
 21
83.000229
 31
0.0
  0
SPLINE
  5
1cc
100
AcDbEntity
  8
Layer_1
 62
7
100
AcDbSpline
 70
8
 71
3
 72
8
 73
4
 74
0
 40
0
 40
0
 40
0
 40
0
 40
1
 40
1
 40
1
 40
1
 10
56.999744
 20
83.000229
 30
0.0
 10
54.229744
 20
83.000229
 30
0.0
 10
52.000048
 20
80.770029
 30
0.0
 10
52.000048
 20
78.000027
 30
0.0
  0
LINE
  5
1cd
100
AcDbEntity
  8
Layer_1
 62
7
100
AcDbLine
 10
52.000048
 20
78.000027
 30
0.0
 11
52.000048
 21
74.000268
 31
0.0
  0
SPLINE
  5
1ce
100
AcDbEntity
  8
Layer_1
 62
7
100
AcDbSpline
 70
8
 71
3
 72
8
 73
4
 74
0
 40
0
 40
0
 40
0
 40
0
 40
1
 40
1
 40
1
 40
1
 10
52.000048
 20
74.000268
 30
0.0
 10
52.000048
 20
71.230266
 30
0.0
 10
54.229744
 20
69.000066
 30
0.0
 10
56.999744
 20
69.000066
 30
0.0
  0
LINE
  5
1cf
100
AcDbEntity
  8
Layer_1
 62
7
100
AcDbLine
 10
56.999744
 20
69.000066
 30
0.0
 11
42.000142
 21
69.000066
 31
0.0
  0
LINE
  5
1d0
100
AcDbEntity
  8
Layer_1
 62
7
100
AcDbLine
 10
42.000142
 20
69.000066
 30
0.0
 11
42.000142
 21
69.000066
 31
0.0
  0
SPLINE
  5
1d1
100
AcDbEntity
  8
Layer_1
 62
7
100
AcDbSpline
 70
8
 71
3
 72
8
 73
4
 74
0
 40
0
 40
0
 40
0
 40
0
 40
1
 40
1
 40
1
 40
1
 10
42.000142
 20
69.000066
 30
0.0
 10
42.000142
 20
71.770068
 30
0.0
 10
39.769929
 20
73.999765
 30
0.0
 10
36.999930
 20
73.999765
 30
0.0
  0
LINE
  5
1d2
100
AcDbEntity
  8
Layer_1
 62
7
100
AcDbLine
 10
36.999930
 20
73.999765
 30
0.0
 11
7.000212
 21
73.999765
 31
0.0
  0
SPLINE
  5
1d3
100
AcDbEntity
  8
Layer_1
 62
7
100
AcDbSpline
 70
8
 71
3
 72
8
 73
4
 74
0
 40
0
 40
0
 40
0
 40
0
 40
1
 40
1
 40
1
 40
1
 10
7.000212
 20
73.999765
 30
0.0
 10
4.230212
 20
74.000268
 30
0.0
 10
2.000000
 20
71.770571
 30
0.0
 10
2.000000
 20
69.000569
 30
0.0
  0
LINE
  5
1d4
100
AcDbEntity
  8
Layer_1
 62
7
100
AcDbLine
 10
2.000000
 20
69.000569
 30
0.0
 11
2.000000
 21
49.000239
 31
0.0
  0
SPLINE
  5
1d5
100
AcDbEntity
  8
Layer_1
 62
7
100
AcDbSpline
 70
8
 71
3
 72
8
 73
4
 74
0
 40
0
 40
0
 40
0
 40
0
 40
1
 40
1
 40
1
 40
1
 10
2.000000
 20
49.000239
 30
0.0
 10
2.000000
 20
46.230237
 30
0.0
 10
4.230212
 20
44.000540
 30
0.0
 10
7.000212
 20
44.000540
 30
0.0
  0
LINE
  5
1d6
100
AcDbEntity
  8
Layer_1
 62
7
100
AcDbLine
 10
7.000212
 20
44.000540
 30
0.0
 11
36.999930
 21
44.000540
 31
0.0
  0
SPLINE
  5
1d7
100
AcDbEntity
  8
Layer_1
 62
7
100
AcDbSpline
 70
8
 71
3
 72
8
 73
4
 74
0
 40
0
 40
0
 40
0
 40
0
 40
1
 40
1
 40
1
 40
1
 10
36.999930
 20
44.000540
 30
0.0
 10
39.769929
 20
44.000540
 30
0.0
 10
42.000142
 20
46.230237
 30
0.0
 10
42.000142
 20
49.000239
 30
0.0
  0
LINE
  5
1d8
100
AcDbEntity
  8
Layer_1
 62
7
100
AcDbLine
 10
42.000142
 20
49.000239
 30
0.0
 11
56.999744
 21
49.000239
 31
0.0
  0
SPLINE
  5
1d9
100
AcDbEntity
  8
Layer_1
 62
7
100
AcDbSpline
 70
8
 71
3
 72
8
 73
4
 74
0
 40
0
 40
0
 40
0
 40
0
 40
1
 40
1
 40
1
 40
1
 10
56.999744
 20
49.000239
 30
0.0
 10
54.229744
 20
49.000239
 30
0.0
 10
52.000048
 20
46.770039
 30
0.0
 10
52.000048
 20
44.000037
 30
0.0
  0
LINE
  5
1da
100
AcDbEntity
  8
Layer_1
 62
7
100
AcDbLine
 10
52.000048
 20
44.000037
 30
0.0
 11
52.000048
 21
40.000278
 31
0.0
  0
SPLINE
  5
1db
100
AcDbEntity
  8
Layer_1
 62
7
100
AcDbSpline
 70
8
 71
3
 72
8
 73
4
 74
0
 40
0
 40
0
 40
0
 40
0
 40
1
 40
1
 40
1
 40
1
 10
52.000048
 20
40.000278
 30
0.0
 10
52.000048
 20
37.230276
 30
0.0
 10
54.229744
 20
35.000076
 30
0.0
 10
56.999744
 20
35.000076
 30
0.0
  0
LINE
  5
1dc
100
AcDbEntity
  8
Layer_1
 62
7
100
AcDbLine
 10
56.999744
 20
35.000076
 30
0.0
 11
59.000137
 21
35.000076
 31
0.0
  0
SPLINE
  5
1dd
100
AcDbEntity
  8
Layer_1
 62
7
100
AcDbSpline
 70
8
 71
3
 72
8
 73
4
 74
0
 40
0
 40
0
 40
0
 40
0
 40
1
 40
1
 40
1
 40
1
 10
59.000137
 20
35.000076
 30
0.0
 10
59.000137
 20
35.000076
 30
0.0
 10
59.000137
 20
34.494140
 30
0.0
 10
59.000137
 20
34.494140
 30
0.0
  0
SPLINE
  5
1de
100
AcDbEntity
  8
Layer_1
 62
7
100
AcDbSpline
 70
8
 71
3
 72
8
 73
4
 74
0
 40
0
 40
0
 40
0
 40
0
 40
1
 40
1
 40
1
 40
1
 10
59.000137
 20
34.494140
 30
0.0
 10
57.744389
 20
34.023220
 30
0.0
 10
57.003848
 20
33.284785
 30
0.0
 10
57.000260
 20
32.499949
 30
0.0
  0
SPLINE
  5
1df
100
AcDbEntity
  8
Layer_1
 62
7
100
AcDbSpline
 70
8
 71
3
 72
8
 73
4
 74
0
 40
0
 40
0
 40
0
 40
0
 40
1
 40
1
 40
1
 40
1
 10
57.000260
 20
32.499949
 30
0.0
 10
57.000171
 20
31.836923
 30
0.0
 10
57.526874
 20
31.201036
 30
0.0
 10
58.464499
 20
30.732175
 30
0.0
  0
SPLINE
  5
1e0
100
AcDbEntity
  8
Layer_1
 62
7
100
AcDbSpline
 70
8
 71
3
 72
8
 73
4
 74
0
 40
0
 40
0
 40
0
 40
0
 40
1
 40
1
 40
1
 40
1
 10
58.464499
 20
30.732175
 30
0.0
 10
59.402124
 20
30.263315
 30
0.0
 10
60.673866
 20
29.999889
 30
0.0
 10
61.999953
 20
29.999848
 30
0.0
  0
SPLINE
  5
1e1
100
AcDbEntity
  8
Layer_1
 62
7
100
AcDbSpline
 70
8
 71
3
 72
8
 73
4
 74
0
 40
0
 40
0
 40
0
 40
0
 40
1
 40
1
 40
1
 40
1
 10
61.999953
 20
29.999848
 30
0.0
 10
63.326131
 20
29.999820
 30
0.0
 10
64.598005
 20
30.263216
 30
0.0
 10
65.535743
 20
30.732084
 30
0.0
  0
SPLINE
  5
1e2
100
AcDbEntity
  8
Layer_1
 62
7
100
AcDbSpline
 70
8
 71
3
 72
8
 73
4
 74
0
 40
0
 40
0
 40
0
 40
0
 40
1
 40
1
 40
1
 40
1
 10
65.535743
 20
30.732084
 30
0.0
 10
66.473480
 20
31.200951
 30
0.0
 10
67.000254
 20
31.836878
 30
0.0
 10
67.000166
 20
32.499949
 30
0.0
  0
SPLINE
  5
1e3
100
AcDbEntity
  8
Layer_1
 62
7
100
AcDbSpline
 70
8
 71
3
 72
8
 73
4
 74
0
 40
0
 40
0
 40
0
 40
0
 40
1
 40
1
 40
1
 40
1
 10
67.000166
 20
32.499949
 30
0.0
 10
66.996262
 20
33.284608
 30
0.0
 10
66.255754
 20
34.022824
 30
0.0
 10
65.000289
 20
34.493637
 30
0.0
  0
LINE
  5
1e4
100
AcDbEntity
  8
Layer_1
 62
7
100
AcDbLine
 10
65.000289
 20
34.493637
 30
0.0
 11
65.000289
 21
35.000076
 31
0.0
  0
LINE
  5
1e5
100
AcDbEntity
  8
Layer_1
 62
7
100
AcDbLine
 10
65.000289
 20
35.000076
 30
0.0
 11
67.000166
 21
35.000076
 31
0.0
  0
SPLINE
  5
1e6
100
AcDbEntity
  8
Layer_1
 62
7
100
AcDbSpline
 70
8
 71
3
 72
8
 73
4
 74
0
 40
0
 40
0
 40
0
 40
0
 40
1
 40
1
 40
1
 40
1
 10
67.000166
 20
35.000076
 30
0.0
 10
69.770165
 20
35.000076
 30
0.0
 10
71.999862
 20
37.230276
 30
0.0
 10
71.999862
 20
40.000278
 30
0.0
  0
LINE
  5
1e7
100
AcDbEntity
  8
Layer_1
 62
7
100
AcDbLine
 10
71.999862
 20
40.000278
 30
0.0
 11
71.999862
 21
44.000037
 31
0.0
  0
SPLINE
  5
1e8
100
AcDbEntity
  8
Layer_1
 62
7
100
AcDbSpline
 70
8
 71
3
 72
8
 73
4
 74
0
 40
0
 40
0
 40
0
 40
0
 40
1
 40
1
 40
1
 40
1
 10
71.999862
 20
44.000037
 30
0.0
 10
71.999862
 20
46.770039
 30
0.0
 10
69.770165
 20
49.000239
 30
0.0
 10
67.000166
 20
49.000239
 30
0.0
  0
LINE
  5
1e9
100
AcDbEntity
  8
Layer_1
 62
7
100
AcDbLine
 10
67.000166
 20
49.000239
 30
0.0
 11
96.999886
 21
49.000239
 31
0.0
  0
SPLINE
  5
1ea
100
AcDbEntity
  8
Layer_1
 62
7
100
AcDbSpline
 70
8
 71
3
 72
8
 73
4
 74
0
 40
0
 40
0
 40
0
 40
0
 40
1
 40
1
 40
1
 40
1
 10
96.999886
 20
49.000239
 30
0.0
 10
94.229886
 20
49.000239
 30
0.0
 10
92.000189
 20
46.770039
 30
0.0
 10
92.000189
 20
44.000037
 30
0.0
  0
LINE
  5
1eb
100
AcDbEntity
  8
Layer_1
 62
7
100
AcDbLine
 10
92.000189
 20
44.000037
 30
0.0
 11
92.000189
 21
26.000089
 31
0.0
  0
SPLINE
  5
1ec
100
AcDbEntity
  8
Layer_1
 62
7
100
AcDbSpline
 70
8
 71
3
 72
8
 73
4
 74
0
 40
0
 40
0
 40
0
 40
0
 40
1
 40
1
 40
1
 40
1
 10
92.000189
 20
26.000089
 30
0.0
 10
92.000189
 20
23.230113
 30
0.0
 10
94.229886
 20
21.000390
 30
0.0
 10
96.999886
 20
21.000390
 30
0.0
  0
LINE
  5
1ed
100
AcDbEntity
  8
Layer_1
 62
7
100
AcDbLine
 10
96.999886
 20
21.000390
 30
0.0
 11
98.999762
 21
21.000390
 31
0.0
  0
SPLINE
  5
1ee
100
AcDbEntity
  8
Layer_1
 62
7
100
AcDbSpline
 70
8
 71
3
 72
8
 73
4
 74
0
 40
0
 40
0
 40
0
 40
0
 40
1
 40
1
 40
1
 40
1
 10
98.999762
 20
21.000390
 30
0.0
 10
98.999762
 20
21.000390
 30
0.0
 10
98.999762
 20
20.494481
 30
0.0
 10
98.999762
 20
20.494481
 30
0.0
  0
SPLINE
  5
1ef
100
AcDbEntity
  8
Layer_1
 62
7
100
AcDbSpline
 70
8
 71
3
 72
8
 73
4
 74
0
 40
0
 40
0
 40
0
 40
0
 40
1
 40
1
 40
1
 40
1
 10
98.999762
 20
20.494481
 30
0.0
 10
97.744015
 20
20.023561
 30
0.0
 10
97.003474
 20
19.285125
 30
0.0
 10
96.999886
 20
18.500290
 30
0.0
  0
SPLINE
  5
1f0
100
AcDbEntity
  8
Layer_1
 62
7
100
AcDbSpline
 70
8
 71
3
 72
8
 73
4
 74
0
 40
0
 40
0
 40
0
 40
0
 40
1
 40
1
 40
1
 40
1
 10
96.999886
 20
18.500290
 30
0.0
 10
96.999516
 20
17.837172
 30
0.0
 10
97.526095
 20
17.201148
 30
0.0
 10
98.463751
 20
16.732174
 30
0.0
  0
SPLINE
  5
1f1
100
AcDbEntity
  8
Layer_1
 62
7
100
AcDbSpline
 70
8
 71
3
 72
8
 73
4
 74
0
 40
0
 40
0
 40
0
 40
0
 40
1
 40
1
 40
1
 40
1
 10
98.463751
 20
16.732174
 30
0.0
 10
99.401406
 20
16.263199
 30
0.0
 10
100.673308
 20
15.999700
 30
0.0
 10
101.999579
 20
15.999660
 30
0.0
  0
SPLINE
  5
1f2
100
AcDbEntity
  8
Layer_1
 62
7
100
AcDbSpline
 70
8
 71
3
 72
8
 73
4
 74
0
 40
0
 40
0
 40
0
 40
0
 40
1
 40
1
 40
1
 40
1
 10
101.999579
 20
15.999660
 30
0.0
 10
103.325940
 20
15.999631
 30
0.0
 10
104.597975
 20
16.263100
 30
0.0
 10
105.535743
 20
16.732082
 30
0.0
  0
SPLINE
  5
1f3
100
AcDbEntity
  8
Layer_1
 62
7
100
AcDbSpline
 70
8
 71
3
 72
8
 73
4
 74
0
 40
0
 40
0
 40
0
 40
0
 40
1
 40
1
 40
1
 40
1
 10
105.535743
 20
16.732082
 30
0.0
 10
106.473511
 20
17.201064
 30
0.0
 10
107.000161
 20
17.837127
 30
0.0
 10
106.999791
 20
18.500290
 30
0.0
  0
SPLINE
  5
1f4
100
AcDbEntity
  8
Layer_1
 62
7
100
AcDbSpline
 70
8
 71
3
 72
8
 73
4
 74
0
 40
0
 40
0
 40
0
 40
0
 40
1
 40
1
 40
1
 40
1
 10
106.999791
 20
18.500290
 30
0.0
 10
106.995888
 20
19.284948
 30
0.0
 10
106.255380
 20
20.023165
 30
0.0
 10
104.999914
 20
20.493978
 30
0.0
  0
LINE
  5
1f5
100
AcDbEntity
  8
Layer_1
 62
7
100
AcDbLine
 10
104.999914
 20
20.493978
 30
0.0
 11
104.999914
 21
21.000390
 31
0.0
  0
LINE
  5
1f6
100
AcDbEntity
  8
Layer_1
 62
7
100
AcDbLine
 10
104.999914
 20
21.000390
 30
0.0
 11
106.999791
 21
21.000390
 31
0.0
  0
SPLINE
  5
1f7
100
AcDbEntity
  8
Layer_1
 62
7
100
AcDbSpline
 70
8
 71
3
 72
8
 73
4
 74
0
 40
0
 40
0
 40
0
 40
0
 40
1
 40
1
 40
1
 40
1
 10
106.999791
 20
21.000390
 30
0.0
 10
109.769791
 20
21.000390
 30
0.0
 10
112.000004
 20
23.230113
 30
0.0
 10
112.000004
 20
26.000089
 30
0.0
  0
LINE
  5
1f8
100
AcDbEntity
  8
Layer_1
 62
7
100
AcDbLine
 10
112.000004
 20
26.000089
 30
0.0
 11
112.000004
 21
44.000037
 31
0.0
  0
SPLINE
  5
1f9
100
AcDbEntity
  8
Layer_1
 62
7
100
AcDbSpline
 70
8
 71
3
 72
8
 73
4
 74
0
 40
0
 40
0
 40
0
 40
0
 40
1
 40
1
 40
1
 40
1
 10
112.000004
 20
44.000037
 30
0.0
 10
112.000004
 20
46.770039
 30
0.0
 10
109.769791
 20
49.000239
 30
0.0
 10
106.999791
 20
49.000239
 30
0.0
  0
LINE
  5
1fa
100
AcDbEntity
  8
Layer_1
 62
7
100
AcDbLine
 10
106.999791
 20
49.000239
 30
0.0
 11
125.000242
 21
49.000239
 31
0.0
  0
SPLINE
  5
1fb
100
AcDbEntity
  8
Layer_1
 62
7
100
AcDbSpline
 70
8
 71
3
 72
8
 73
4
 74
0
 40
0
 40
0
 40
0
 40
0
 40
1
 40
1
 40
1
 40
1
 10
125.000242
 20
49.000239
 30
0.0
 10
122.230242
 20
49.000239
 30
0.0
 10
120.000030
 20
46.770039
 30
0.0
 10
120.000032
 20
44.000037
 30
0.0
  0
LINE
  5
1fc
100
AcDbEntity
  8
Layer_1
 62
7
100
AcDbLine
 10
120.000032
 20
44.000037
 30
0.0
 11
120.000032
 21
14.000309
 31
0.0
  0
SPLINE
  5
1fd
100
AcDbEntity
  8
Layer_1
 62
7
100
AcDbSpline
 70
8
 71
3
 72
8
 73
4
 74
0
 40
0
 40
0
 40
0
 40
0
 40
1
 40
1
 40
1
 40
1
 10
120.000032
 20
14.000309
 30
0.0
 10
120.000032
 20
11.230307
 30
0.0
 10
122.230242
 20
9.000108
 30
0.0
 10
125.000242
 20
9.000108
 30
0.0
  0
LINE
  5
1fe
100
AcDbEntity
  8
Layer_1
 62
7
100
AcDbLine
 10
125.000242
 20
9.000108
 30
0.0
 11
127.000121
 21
9.000108
 31
0.0
  0
SPLINE
  5
1ff
100
AcDbEntity
  8
Layer_1
 62
7
100
AcDbSpline
 70
8
 71
3
 72
8
 73
4
 74
0
 40
0
 40
0
 40
0
 40
0
 40
1
 40
1
 40
1
 40
1
 10
127.000121
 20
9.000108
 30
0.0
 10
127.000121
 20
9.000108
 30
0.0
 10
127.000121
 20
8.494198
 30
0.0
 10
127.000121
 20
8.494198
 30
0.0
  0
SPLINE
  5
200
100
AcDbEntity
  8
Layer_1
 62
7
100
AcDbSpline
 70
8
 71
3
 72
8
 73
4
 74
0
 40
0
 40
0
 40
0
 40
0
 40
1
 40
1
 40
1
 40
1
 10
127.000121
 20
8.494198
 30
0.0
 10
125.744373
 20
8.023278
 30
0.0
 10
125.003831
 20
7.284842
 30
0.0
 10
125.000242
 20
6.500007
 30
0.0
  0
SPLINE
  5
201
100
AcDbEntity
  8
Layer_1
 62
7
100
AcDbSpline
 70
8
 71
3
 72
8
 73
4
 74
0
 40
0
 40
0
 40
0
 40
0
 40
1
 40
1
 40
1
 40
1
 10
125.000242
 20
6.500007
 30
0.0
 10
125.000139
 20
5.836976
 30
0.0
 10
125.526836
 20
5.201081
 30
0.0
 10
126.464463
 20
4.732215
 30
0.0
  0
SPLINE
  5
202
100
AcDbEntity
  8
Layer_1
 62
7
100
AcDbSpline
 70
8
 71
3
 72
8
 73
4
 74
0
 40
0
 40
0
 40
0
 40
0
 40
1
 40
1
 40
1
 40
1
 10
126.464463
 20
4.732215
 30
0.0
 10
127.402091
 20
4.263349
 30
0.0
 10
128.673841
 20
3.999920
 30
0.0
 10
129.999938
 20
3.999880
 30
0.0
  0
SPLINE
  5
203
100
AcDbEntity
  8
Layer_1
 62
7
100
AcDbSpline
 70
8
 71
3
 72
8
 73
4
 74
0
 40
0
 40
0
 40
0
 40
0
 40
1
 40
1
 40
1
 40
1
 10
129.999938
 20
3.999880
 30
0.0
 10
131.326124
 20
3.999852
 30
0.0
 10
132.598006
 20
4.263251
 30
0.0
 10
133.535745
 20
4.732125
 30
0.0
  0
SPLINE
  5
204
100
AcDbEntity
  8
Layer_1
 62
7
100
AcDbSpline
 70
8
 71
3
 72
8
 73
4
 74
0
 40
0
 40
0
 40
0
 40
0
 40
1
 40
1
 40
1
 40
1
 10
133.535745
 20
4.732125
 30
0.0
 10
134.473483
 20
5.200998
 30
0.0
 10
135.000251
 20
5.836932
 30
0.0
 10
135.000148
 20
6.500007
 30
0.0
  0
SPLINE
  5
205
100
AcDbEntity
  8
Layer_1
 62
7
100
AcDbSpline
 70
8
 71
3
 72
8
 73
4
 74
0
 40
0
 40
0
 40
0
 40
0
 40
1
 40
1
 40
1
 40
1
 10
135.000148
 20
6.500007
 30
0.0
 10
134.996228
 20
7.284656
 30
0.0
 10
134.255721
 20
8.022861
 30
0.0
 10
133.000271
 20
8.493669
 30
0.0
  0
LINE
  5
206
100
AcDbEntity
  8
Layer_1
 62
7
100
AcDbLine
 10
133.000271
 20
8.493669
 30
0.0
 11
133.000271
 21
9.000108
 31
0.0
  0
LINE
  5
207
100
AcDbEntity
  8
Layer_1
 62
7
100
AcDbLine
 10
133.000271
 20
9.000108
 30
0.0
 11
135.000148
 21
9.000108
 31
0.0
  0
SPLINE
  5
208
100
AcDbEntity
  8
Layer_1
 62
7
100
AcDbSpline
 70
8
 71
3
 72
8
 73
4
 74
0
 40
0
 40
0
 40
0
 40
0
 40
1
 40
1
 40
1
 40
1
 10
135.000148
 20
9.000108
 30
0.0
 10
137.770150
 20
9.000108
 30
0.0
 10
139.999844
 20
11.230307
 30
0.0
 10
139.999844
 20
14.000309
 30
0.0
  0
LINE
  5
209
100
AcDbEntity
  8
Layer_1
 62
7
100
AcDbLine
 10
139.999844
 20
14.000309
 30
0.0
 11
139.999844
 21
44.000037
 31
0.0
  0
SPLINE
  5
20a
100
AcDbEntity
  8
Layer_1
 62
7
100
AcDbSpline
 70
8
 71
3
 72
8
 73
4
 74
0
 40
0
 40
0
 40
0
 40
0
 40
1
 40
1
 40
1
 40
1
 10
139.999844
 20
44.000037
 30
0.0
 10
139.999844
 20
46.770039
 30
0.0
 10
137.770150
 20
49.000239
 30
0.0
 10
135.000148
 20
49.000239
 30
0.0
  0
LINE
  5
20b
100
AcDbEntity
  8
Layer_1
 62
7
100
AcDbLine
 10
135.000148
 20
49.000239
 30
0.0
 11
146.999933
 21
49.000239
 31
0.0
  0
SPLINE
  5
20c
100
AcDbEntity
  8
Layer_1
 62
7
100
AcDbSpline
 70
8
 71
3
 72
8
 73
4
 74
0
 40
0
 40
0
 40
0
 40
0
 40
1
 40
1
 40
1
 40
1
 10
146.999933
 20
49.000239
 30
0.0
 10
144.229933
 20
49.000239
 30
0.0
 10
142.000239
 20
46.770039
 30
0.0
 10
142.000239
 20
44.000037
 30
0.0
  0
LINE
  5
20d
100
AcDbEntity
  8
Layer_1
 62
7
100
AcDbLine
 10
142.000239
 20
44.000037
 30
0.0
 11
142.000239
 21
11.999927
 31
0.0
  0
SPLINE
  5
20e
100
AcDbEntity
  8
Layer_1
 62
7
100
AcDbSpline
 70
8
 71
3
 72
8
 73
4
 74
0
 40
0
 40
0
 40
0
 40
0
 40
1
 40
1
 40
1
 40
1
 10
142.000239
 20
11.999927
 30
0.0
 10
142.000239
 20
9.229925
 30
0.0
 10
144.229933
 20
7.000228
 30
0.0
 10
146.999933
 20
7.000228
 30
0.0
  0
LINE
  5
20f
100
AcDbEntity
  8
Layer_1
 62
7
100
AcDbLine
 10
146.999933
 20
7.000228
 30
0.0
 11
148.999810
 21
7.000228
 31
0.0
  0
SPLINE
  5
210
100
AcDbEntity
  8
Layer_1
 62
7
100
AcDbSpline
 70
8
 71
3
 72
8
 73
4
 74
0
 40
0
 40
0
 40
0
 40
0
 40
1
 40
1
 40
1
 40
1
 10
148.999810
 20
7.000228
 30
0.0
 10
148.999810
 20
7.000228
 30
0.0
 10
148.999810
 20
6.494318
 30
0.0
 10
148.999810
 20
6.494318
 30
0.0
  0
SPLINE
  5
211
100
AcDbEntity
  8
Layer_1
 62
7
100
AcDbSpline
 70
8
 71
3
 72
8
 73
4
 74
0
 40
0
 40
0
 40
0
 40
0
 40
1
 40
1
 40
1
 40
1
 10
148.999810
 20
6.494318
 30
0.0
 10
147.744063
 20
6.023399
 30
0.0
 10
147.003521
 20
5.284963
 30
0.0
 10
146.999933
 20
4.500127
 30
0.0
  0
SPLINE
  5
212
100
AcDbEntity
  8
Layer_1
 62
7
100
AcDbSpline
 70
8
 71
3
 72
8
 73
4
 74
0
 40
0
 40
0
 40
0
 40
0
 40
1
 40
1
 40
1
 40
1
 10
146.999933
 20
4.500127
 30
0.0
 10
146.999830
 20
3.837097
 30
0.0
 10
147.526527
 20
3.201202
 30
0.0
 10
148.464154
 20
2.732336
 30
0.0
  0
SPLINE
  5
213
100
AcDbEntity
  8
Layer_1
 62
7
100
AcDbSpline
 70
8
 71
3
 72
8
 73
4
 74
0
 40
0
 40
0
 40
0
 40
0
 40
1
 40
1
 40
1
 40
1
 10
148.464154
 20
2.732336
 30
0.0
 10
149.401780
 20
2.263470
 30
0.0
 10
150.673530
 20
2.000041
 30
0.0
 10
151.999627
 20
2.000000
 30
0.0
  0
SPLINE
  5
214
100
AcDbEntity
  8
Layer_1
 62
7
100
AcDbSpline
 70
8
 71
3
 72
8
 73
4
 74
0
 40
0
 40
0
 40
0
 40
0
 40
1
 40
1
 40
1
 40
1
 10
151.999627
 20
2.000000
 30
0.0
 10
153.325813
 20
1.999972
 30
0.0
 10
154.597696
 20
2.263371
 30
0.0
 10
155.535435
 20
2.732245
 30
0.0
  0
SPLINE
  5
215
100
AcDbEntity
  8
Layer_1
 62
7
100
AcDbSpline
 70
8
 71
3
 72
8
 73
4
 74
0
 40
0
 40
0
 40
0
 40
0
 40
1
 40
1
 40
1
 40
1
 10
155.535435
 20
2.732245
 30
0.0
 10
156.473174
 20
3.201118
 30
0.0
 10
156.999942
 20
3.837052
 30
0.0
 10
156.999839
 20
4.500127
 30
0.0
  0
SPLINE
  5
216
100
AcDbEntity
  8
Layer_1
 62
7
100
AcDbSpline
 70
8
 71
3
 72
8
 73
4
 74
0
 40
0
 40
0
 40
0
 40
0
 40
1
 40
1
 40
1
 40
1
 10
156.999839
 20
4.500127
 30
0.0
 10
156.995919
 20
5.284776
 30
0.0
 10
156.255412
 20
6.022981
 30
0.0
 10
154.999962
 20
6.493789
 30
0.0
  0
LINE
  5
217
100
AcDbEntity
  8
Layer_1
 62
7
100
AcDbLine
 10
154.999962
 20
6.493789
 30
0.0
 11
154.999962
 21
7.000228
 31
0.0
  0
LINE
  5
218
100
AcDbEntity
  8
Layer_1
 62
7
100
AcDbLine
 10
154.999962
 20
7.000228
 30
0.0
 11
156.999839
 21
7.000228
 31
0.0
  0
SPLINE
  5
219
100
AcDbEntity
  8
Layer_1
 62
7
100
AcDbSpline
 70
8
 71
3
 72
8
 73
4
 74
0
 40
0
 40
0
 40
0
 40
0
 40
1
 40
1
 40
1
 40
1
 10
156.999839
 20
7.000228
 30
0.0
 10
159.769838
 20
7.000228
 30
0.0
 10
162.000051
 20
9.229925
 30
0.0
 10
162.000051
 20
11.999927
 30
0.0
  0
LINE
  5
21a
100
AcDbEntity
  8
Layer_1
 62
7
100
AcDbLine
 10
162.000051
 20
11.999927
 30
0.0
 11
162.000051
 21
44.000037
 31
0.0
  0
SPLINE
  5
21b
100
AcDbEntity
  8
Layer_1
 62
7
100
AcDbSpline
 70
8
 71
3
 72
8
 73
4
 74
0
 40
0
 40
0
 40
0
 40
0
 40
1
 40
1
 40
1
 40
1
 10
162.000051
 20
44.000037
 30
0.0
 10
162.000051
 20
46.770039
 30
0.0
 10
159.769838
 20
49.000239
 30
0.0
 10
156.999839
 20
49.000239
 30
0.0
  0
LINE
  5
21c
100
AcDbEntity
  8
Layer_1
 62
7
100
AcDbLine
 10
156.999839
 20
49.000239
 30
0.0
 11
169.000140
 21
49.000239
 31
0.0
  0
SPLINE
  5
21d
100
AcDbEntity
  8
Layer_1
 62
7
100
AcDbSpline
 70
8
 71
3
 72
8
 73
4
 74
0
 40
0
 40
0
 40
0
 40
0
 40
1
 40
1
 40
1
 40
1
 10
169.000140
 20
49.000239
 30
0.0
 10
166.230141
 20
49.000239
 30
0.0
 10
163.999928
 20
46.770039
 30
0.0
 10
163.999928
 20
44.000037
 30
0.0
  0
LINE
  5
21e
100
AcDbEntity
  8
Layer_1
 62
7
100
AcDbLine
 10
163.999928
 20
44.000037
 30
0.0
 11
163.999928
 21
14.000309
 31
0.0
  0
SPLINE
  5
21f
100
AcDbEntity
  8
Layer_1
 62
7
100
AcDbSpline
 70
8
 71
3
 72
8
 73
4
 74
0
 40
0
 40
0
 40
0
 40
0
 40
1
 40
1
 40
1
 40
1
 10
163.999928
 20
14.000309
 30
0.0
 10
163.999928
 20
11.230307
 30
0.0
 10
166.230141
 20
9.000108
 30
0.0
 10
169.000140
 20
9.000108
 30
0.0
  0
LINE
  5
220
100
AcDbEntity
  8
Layer_1
 62
7
100
AcDbLine
 10
169.000140
 20
9.000108
 30
0.0
 11
171.000017
 21
9.000108
 31
0.0
  0
SPLINE
  5
221
100
AcDbEntity
  8
Layer_1
 62
7
100
AcDbSpline
 70
8
 71
3
 72
8
 73
4
 74
0
 40
0
 40
0
 40
0
 40
0
 40
1
 40
1
 40
1
 40
1
 10
171.000017
 20
9.000108
 30
0.0
 10
171.000017
 20
9.000108
 30
0.0
 10
171.000017
 20
8.494198
 30
0.0
 10
171.000017
 20
8.494198
 30
0.0
  0
SPLINE
  5
222
100
AcDbEntity
  8
Layer_1
 62
7
100
AcDbSpline
 70
8
 71
3
 72
8
 73
4
 74
0
 40
0
 40
0
 40
0
 40
0
 40
1
 40
1
 40
1
 40
1
 10
171.000017
 20
8.494198
 30
0.0
 10
169.744270
 20
8.023278
 30
0.0
 10
169.003728
 20
7.284842
 30
0.0
 10
169.000140
 20
6.500007
 30
0.0
  0
SPLINE
  5
223
100
AcDbEntity
  8
Layer_1
 62
7
100
AcDbSpline
 70
8
 71
3
 72
8
 73
4
 74
0
 40
0
 40
0
 40
0
 40
0
 40
1
 40
1
 40
1
 40
1
 10
169.000140
 20
6.500007
 30
0.0
 10
169.000037
 20
5.836976
 30
0.0
 10
169.526734
 20
5.201082
 30
0.0
 10
170.464361
 20
4.732216
 30
0.0
  0
SPLINE
  5
224
100
AcDbEntity
  8
Layer_1
 62
7
100
AcDbSpline
 70
8
 71
3
 72
8
 73
4
 74
0
 40
0
 40
0
 40
0
 40
0
 40
1
 40
1
 40
1
 40
1
 10
170.464361
 20
4.732216
 30
0.0
 10
171.401988
 20
4.263350
 30
0.0
 10
172.673737
 20
3.999920
 30
0.0
 10
173.999834
 20
3.999880
 30
0.0
  0
SPLINE
  5
225
100
AcDbEntity
  8
Layer_1
 62
7
100
AcDbSpline
 70
8
 71
3
 72
8
 73
4
 74
0
 40
0
 40
0
 40
0
 40
0
 40
1
 40
1
 40
1
 40
1
 10
173.999834
 20
3.999880
 30
0.0
 10
175.326020
 20
3.999851
 30
0.0
 10
176.597903
 20
4.263251
 30
0.0
 10
177.535642
 20
4.732124
 30
0.0
  0
SPLINE
  5
226
100
AcDbEntity
  8
Layer_1
 62
7
100
AcDbSpline
 70
8
 71
3
 72
8
 73
4
 74
0
 40
0
 40
0
 40
0
 40
0
 40
1
 40
1
 40
1
 40
1
 10
177.535642
 20
4.732124
 30
0.0
 10
178.473381
 20
5.200998
 30
0.0
 10
179.000149
 20
5.836931
 30
0.0
 10
179.000046
 20
6.500007
 30
0.0
  0
SPLINE
  5
227
100
AcDbEntity
  8
Layer_1
 62
7
100
AcDbSpline
 70
8
 71
3
 72
8
 73
4
 74
0
 40
0
 40
0
 40
0
 40
0
 40
1
 40
1
 40
1
 40
1
 10
179.000046
 20
6.500007
 30
0.0
 10
178.996126
 20
7.284656
 30
0.0
 10
178.255620
 20
8.022861
 30
0.0
 10
177.000169
 20
8.493669
 30
0.0
  0
LINE
  5
228
100
AcDbEntity
  8
Layer_1
 62
7
100
AcDbLine
 10
177.000169
 20
8.493669
 30
0.0
 11
177.000169
 21
9.000108
 31
0.0
  0
LINE
  5
229
100
AcDbEntity
  8
Layer_1
 62
7
100
AcDbLine
 10
177.000169
 20
9.000108
 30
0.0
 11
179.000046
 21
9.000108
 31
0.0
  0
SPLINE
  5
22a
100
AcDbEntity
  8
Layer_1
 62
7
100
AcDbSpline
 70
8
 71
3
 72
8
 73
4
 74
0
 40
0
 40
0
 40
0
 40
0
 40
1
 40
1
 40
1
 40
1
 10
179.000046
 20
9.000108
 30
0.0
 10
181.770046
 20
9.000108
 30
0.0
 10
183.999742
 20
11.230307
 30
0.0
 10
183.999742
 20
14.000309
 30
0.0
  0
LINE
  5
22b
100
AcDbEntity
  8
Layer_1
 62
7
100
AcDbLine
 10
183.999742
 20
14.000309
 30
0.0
 11
183.999742
 21
44.000037
 31
0.0
  0
SPLINE
  5
22c
100
AcDbEntity
  8
Layer_1
 62
7
100
AcDbSpline
 70
8
 71
3
 72
8
 73
4
 74
0
 40
0
 40
0
 40
0
 40
0
 40
1
 40
1
 40
1
 40
1
 10
183.999742
 20
44.000037
 30
0.0
 10
183.999742
 20
46.770039
 30
0.0
 10
181.770046
 20
49.000239
 30
0.0
 10
179.000046
 20
49.000239
 30
0.0
  0
LINE
  5
22d
100
AcDbEntity
  8
Layer_1
 62
7
100
AcDbLine
 10
179.000046
 20
49.000239
 30
0.0
 11
196.999981
 21
49.000239
 31
0.0
  0
SPLINE
  5
22e
100
AcDbEntity
  8
Layer_1
 62
7
100
AcDbSpline
 70
8
 71
3
 72
8
 73
4
 74
0
 40
0
 40
0
 40
0
 40
0
 40
1
 40
1
 40
1
 40
1
 10
196.999981
 20
49.000239
 30
0.0
 10
194.229981
 20
49.000239
 30
0.0
 10
191.999768
 20
46.770039
 30
0.0
 10
191.999771
 20
44.000037
 30
0.0
  0
LINE
  5
22f
100
AcDbEntity
  8
Layer_1
 62
7
100
AcDbLine
 10
191.999771
 20
44.000037
 30
0.0
 11
191.999771
 21
26.000089
 31
0.0
  0
SPLINE
  5
230
100
AcDbEntity
  8
Layer_1
 62
7
100
AcDbSpline
 70
8
 71
3
 72
8
 73
4
 74
0
 40
0
 40
0
 40
0
 40
0
 40
1
 40
1
 40
1
 40
1
 10
191.999771
 20
26.000089
 30
0.0
 10
191.999771
 20
23.230113
 30
0.0
 10
194.229981
 20
21.000390
 30
0.0
 10
196.999981
 20
21.000390
 30
0.0
  0
LINE
  5
231
100
AcDbEntity
  8
Layer_1
 62
7
100
AcDbLine
 10
196.999981
 20
21.000390
 30
0.0
 11
198.999860
 21
21.000390
 31
0.0
  0
SPLINE
  5
232
100
AcDbEntity
  8
Layer_1
 62
7
100
AcDbSpline
 70
8
 71
3
 72
8
 73
4
 74
0
 40
0
 40
0
 40
0
 40
0
 40
1
 40
1
 40
1
 40
1
 10
198.999860
 20
21.000390
 30
0.0
 10
198.999860
 20
21.000390
 30
0.0
 10
198.999860
 20
20.494481
 30
0.0
 10
198.999860
 20
20.494481
 30
0.0
  0
SPLINE
  5
233
100
AcDbEntity
  8
Layer_1
 62
7
100
AcDbSpline
 70
8
 71
3
 72
8
 73
4
 74
0
 40
0
 40
0
 40
0
 40
0
 40
1
 40
1
 40
1
 40
1
 10
198.999860
 20
20.494481
 30
0.0
 10
197.744112
 20
20.023561
 30
0.0
 10
197.003569
 20
19.285125
 30
0.0
 10
196.999981
 20
18.500290
 30
0.0
  0
SPLINE
  5
234
100
AcDbEntity
  8
Layer_1
 62
7
100
AcDbSpline
 70
8
 71
3
 72
8
 73
4
 74
0
 40
0
 40
0
 40
0
 40
0
 40
1
 40
1
 40
1
 40
1
 10
196.999981
 20
18.500290
 30
0.0
 10
196.999611
 20
17.837172
 30
0.0
 10
197.526190
 20
17.201148
 30
0.0
 10
198.463847
 20
16.732173
 30
0.0
  0
SPLINE
  5
235
100
AcDbEntity
  8
Layer_1
 62
7
100
AcDbSpline
 70
8
 71
3
 72
8
 73
4
 74
0
 40
0
 40
0
 40
0
 40
0
 40
1
 40
1
 40
1
 40
1
 10
198.463847
 20
16.732173
 30
0.0
 10
199.401503
 20
16.263198
 30
0.0
 10
200.673406
 20
15.999700
 30
0.0
 10
201.999677
 20
15.999660
 30
0.0
  0
SPLINE
  5
236
100
AcDbEntity
  8
Layer_1
 62
7
100
AcDbSpline
 70
8
 71
3
 72
8
 73
4
 74
0
 40
0
 40
0
 40
0
 40
0
 40
1
 40
1
 40
1
 40
1
 10
201.999677
 20
15.999660
 30
0.0
 10
203.326037
 20
15.999632
 30
0.0
 10
204.598072
 20
16.263100
 30
0.0
 10
205.535839
 20
16.732082
 30
0.0
  0
SPLINE
  5
237
100
AcDbEntity
  8
Layer_1
 62
7
100
AcDbSpline
 70
8
 71
3
 72
8
 73
4
 74
0
 40
0
 40
0
 40
0
 40
0
 40
1
 40
1
 40
1
 40
1
 10
205.535839
 20
16.732082
 30
0.0
 10
206.473606
 20
17.201065
 30
0.0
 10
207.000256
 20
17.837127
 30
0.0
 10
206.999886
 20
18.500290
 30
0.0
  0
SPLINE
  5
238
100
AcDbEntity
  8
Layer_1
 62
7
100
AcDbSpline
 70
8
 71
3
 72
8
 73
4
 74
0
 40
0
 40
0
 40
0
 40
0
 40
1
 40
1
 40
1
 40
1
 10
206.999886
 20
18.500290
 30
0.0
 10
206.995983
 20
19.284948
 30
0.0
 10
206.255475
 20
20.023165
 30
0.0
 10
205.000009
 20
20.493978
 30
0.0
  0
LINE
  5
239
100
AcDbEntity
  8
Layer_1
 62
7
100
AcDbLine
 10
205.000009
 20
20.493978
 30
0.0
 11
205.000009
 21
21.000390
 31
0.0
  0
LINE
  5
23a
100
AcDbEntity
  8
Layer_1
 62
7
100
AcDbLine
 10
205.000009
 20
21.000390
 30
0.0
 11
206.999886
 21
21.000390
 31
0.0
  0
SPLINE
  5
23b
100
AcDbEntity
  8
Layer_1
 62
7
100
AcDbSpline
 70
8
 71
3
 72
8
 73
4
 74
0
 40
0
 40
0
 40
0
 40
0
 40
1
 40
1
 40
1
 40
1
 10
206.999886
 20
21.000390
 30
0.0
 10
209.769897
 20
21.000390
 30
0.0
 10
212.000099
 20
23.230113
 30
0.0
 10
212.000099
 20
26.000089
 30
0.0
  0
LINE
  5
23c
100
AcDbEntity
  8
Layer_1
 62
7
100
AcDbLine
 10
212.000099
 20
26.000089
 30
0.0
 11
212.000099
 21
44.000037
 31
0.0
  0
SPLINE
  5
23d
100
AcDbEntity
  8
Layer_1
 62
7
100
AcDbSpline
 70
8
 71
3
 72
8
 73
4
 74
0
 40
0
 40
0
 40
0
 40
0
 40
1
 40
1
 40
1
 40
1
 10
212.000099
 20
44.000037
 30
0.0
 10
212.000099
 20
46.770039
 30
0.0
 10
209.769897
 20
49.000239
 30
0.0
 10
206.999886
 20
49.000239
 30
0.0
  0
LINE
  5
23e
100
AcDbEntity
  8
Layer_1
 62
7
100
AcDbLine
 10
206.999886
 20
49.000239
 30
0.0
 11
237.000122
 21
49.000239
 31
0.0
  0
SPLINE
  5
23f
100
AcDbEntity
  8
Layer_1
 62
7
100
AcDbSpline
 70
8
 71
3
 72
8
 73
4
 74
0
 40
0
 40
0
 40
0
 40
0
 40
1
 40
1
 40
1
 40
1
 10
237.000122
 20
49.000239
 30
0.0
 10
234.230123
 20
49.000239
 30
0.0
 10
231.999913
 20
46.770039
 30
0.0
 10
231.999913
 20
44.000037
 30
0.0
  0
LINE
  5
240
100
AcDbEntity
  8
Layer_1
 62
7
100
AcDbLine
 10
231.999913
 20
44.000037
 30
0.0
 11
231.999913
 21
40.000278
 31
0.0
  0
SPLINE
  5
241
100
AcDbEntity
  8
Layer_1
 62
7
100
AcDbSpline
 70
8
 71
3
 72
8
 73
4
 74
0
 40
0
 40
0
 40
0
 40
0
 40
1
 40
1
 40
1
 40
1
 10
231.999913
 20
40.000278
 30
0.0
 10
231.999913
 20
37.230276
 30
0.0
 10
234.230123
 20
35.000050
 30
0.0
 10
237.000122
 20
35.000076
 30
0.0
  0
LINE
  5
242
100
AcDbEntity
  8
Layer_1
 62
7
100
AcDbLine
 10
237.000122
 20
35.000076
 30
0.0
 11
239.000002
 21
35.000076
 31
0.0
  0
SPLINE
  5
243
100
AcDbEntity
  8
Layer_1
 62
7
100
AcDbSpline
 70
8
 71
3
 72
8
 73
4
 74
0
 40
0
 40
0
 40
0
 40
0
 40
1
 40
1
 40
1
 40
1
 10
239.000002
 20
35.000076
 30
0.0
 10
239.000002
 20
35.000076
 30
0.0
 10
239.000002
 20
34.494140
 30
0.0
 10
239.000002
 20
34.494140
 30
0.0
  0
SPLINE
  5
244
100
AcDbEntity
  8
Layer_1
 62
7
100
AcDbSpline
 70
8
 71
3
 72
8
 73
4
 74
0
 40
0
 40
0
 40
0
 40
0
 40
1
 40
1
 40
1
 40
1
 10
239.000002
 20
34.494140
 30
0.0
 10
237.744253
 20
34.023221
 30
0.0
 10
237.003711
 20
33.284785
 30
0.0
 10
237.000122
 20
32.499949
 30
0.0
  0
SPLINE
  5
245
100
AcDbEntity
  8
Layer_1
 62
7
100
AcDbSpline
 70
8
 71
3
 72
8
 73
4
 74
0
 40
0
 40
0
 40
0
 40
0
 40
1
 40
1
 40
1
 40
1
 10
237.000122
 20
32.499949
 30
0.0
 10
237.000033
 20
31.836923
 30
0.0
 10
237.526737
 20
31.201035
 30
0.0
 10
238.464363
 20
30.732175
 30
0.0
  0
SPLINE
  5
246
100
AcDbEntity
  8
Layer_1
 62
7
100
AcDbSpline
 70
8
 71
3
 72
8
 73
4
 74
0
 40
0
 40
0
 40
0
 40
0
 40
1
 40
1
 40
1
 40
1
 10
238.464363
 20
30.732175
 30
0.0
 10
239.401988
 20
30.263315
 30
0.0
 10
240.673731
 20
29.999889
 30
0.0
 10
241.999819
 20
29.999848
 30
0.0
  0
SPLINE
  5
247
100
AcDbEntity
  8
Layer_1
 62
7
100
AcDbSpline
 70
8
 71
3
 72
8
 73
4
 74
0
 40
0
 40
0
 40
0
 40
0
 40
1
 40
1
 40
1
 40
1
 10
241.999819
 20
29.999848
 30
0.0
 10
243.325996
 20
29.999820
 30
0.0
 10
244.597871
 20
30.263216
 30
0.0
 10
245.535608
 20
30.732084
 30
0.0
  0
SPLINE
  5
248
100
AcDbEntity
  8
Layer_1
 62
7
100
AcDbSpline
 70
8
 71
3
 72
8
 73
4
 74
0
 40
0
 40
0
 40
0
 40
0
 40
1
 40
1
 40
1
 40
1
 10
245.535608
 20
30.732084
 30
0.0
 10
246.473346
 20
31.200951
 30
0.0
 10
247.000120
 20
31.836878
 30
0.0
 10
247.000031
 20
32.499949
 30
0.0
  0
SPLINE
  5
249
100
AcDbEntity
  8
Layer_1
 62
7
100
AcDbSpline
 70
8
 71
3
 72
8
 73
4
 74
0
 40
0
 40
0
 40
0
 40
0
 40
1
 40
1
 40
1
 40
1
 10
247.000031
 20
32.499949
 30
0.0
 10
246.996127
 20
33.284608
 30
0.0
 10
246.255618
 20
34.022824
 30
0.0
 10
245.000151
 20
34.493637
 30
0.0
  0
LINE
  5
24a
100
AcDbEntity
  8
Layer_1
 62
7
100
AcDbLine
 10
245.000151
 20
34.493637
 30
0.0
 11
245.000151
 21
35.000076
 31
0.0
  0
LINE
  5
24b
100
AcDbEntity
  8
Layer_1
 62
7
100
AcDbLine
 10
245.000151
 20
35.000076
 30
0.0
 11
247.000031
 21
35.000076
 31
0.0
  0
SPLINE
  5
24c
100
AcDbEntity
  8
Layer_1
 62
7
100
AcDbSpline
 70
8
 71
3
 72
8
 73
4
 74
0
 40
0
 40
0
 40
0
 40
0
 40
1
 40
1
 40
1
 40
1
 10
247.000031
 20
35.000076
 30
0.0
 10
249.770030
 20
35.000076
 30
0.0
 10
252.000240
 20
37.230276
 30
0.0
 10
252.000240
 20
40.000278
 30
0.0
  0
LINE
  5
24d
100
AcDbEntity
  8
Layer_1
 62
7
100
AcDbLine
 10
252.000240
 20
40.000278
 30
0.0
 11
252.000240
 21
44.000037
 31
0.0
  0
SPLINE
  5
24e
100
AcDbEntity
  8
Layer_1
 62
7
100
AcDbSpline
 70
8
 71
3
 72
8
 73
4
 74
0
 40
0
 40
0
 40
0
 40
0
 40
1
 40
1
 40
1
 40
1
 10
252.000240
 20
44.000037
 30
0.0
 10
252.000240
 20
46.770039
 30
0.0
 10
249.770030
 20
49.000239
 30
0.0
 10
247.000031
 20
49.000239
 30
0.0
  0
LINE
  5
24f
100
AcDbEntity
  8
Layer_1
 62
7
100
AcDbLine
 10
247.000031
 20
49.000239
 30
0.0
 11
262.000146
 21
49.000239
 31
0.0
  0
SPLINE
  5
250
100
AcDbEntity
  8
Layer_1
 62
7
100
AcDbSpline
 70
8
 71
3
 72
8
 73
4
 74
0
 40
0
 40
0
 40
0
 40
0
 40
1
 40
1
 40
1
 40
1
 10
262.000146
 20
49.000239
 30
0.0
 10
262.000146
 20
46.230237
 30
0.0
 10
264.229843
 20
44.000540
 30
0.0
 10
266.999837
 20
44.000540
 30
0.0
  0
LINE
  5
251
100
AcDbEntity
  8
Layer_1
 62
7
100
AcDbLine
 10
266.999837
 20
44.000540
 30
0.0
 11
297.000068
 21
44.000540
 31
0.0
  0
SPLINE
  5
252
100
AcDbEntity
  8
Layer_1
 62
7
100
AcDbSpline
 70
8
 71
3
 72
8
 73
4
 74
0
 40
0
 40
0
 40
0
 40
0
 40
1
 40
1
 40
1
 40
1
 10
297.000068
 20
44.000540
 30
0.0
 10
299.770070
 20
44.000540
 30
0.0
 10
301.999767
 20
46.230237
 30
0.0
 10
301.999767
 20
49.000239
 30
0.0
  0
LINE
  5
253
100
AcDbEntity
  8
Layer_1
 62
7
100
AcDbLine
 10
301.999767
 20
49.000239
 30
0.0
 11
301.999767
 21
69.000569
 31
0.0
  0
SPLINE
  5
254
100
AcDbEntity
  8
Layer_1
 62
7
100
AcDbSpline
 70
8
 71
3
 72
8
 73
4
 74
0
 40
0
 40
0
 40
0
 40
0
 40
1
 40
1
 40
1
 40
1
 10
301.999767
 20
69.000569
 30
0.0
 10
301.999767
 20
71.770571
 30
0.0
 10
299.770070
 20
74.000268
 30
0.0
 10
297.000068
 20
74.000268
 30
0.0
  0
LINE
  5
255
100
AcDbEntity
  8
Layer_1
 62
7
100
AcDbLine
 10
297.000068
 20
74.000268
 30
0.0
 11
266.999837
 21
74.000268
 31
0.0
  0
SPLINE
  5
256
100
AcDbEntity
  8
Layer_1
 62
7
100
AcDbSpline
 70
8
 71
3
 72
8
 73
4
 74
0
 40
0
 40
0
 40
0
 40
0
 40
1
 40
1
 40
1
 40
1
 10
266.999837
 20
74.000268
 30
0.0
 10
264.229843
 20
74.000268
 30
0.0
 10
262.000146
 20
71.770571
 30
0.0
 10
262.000146
 20
69.000569
 30
0.0
  0
LINE
  5
257
100
AcDbEntity
  8
Layer_1
 62
7
100
AcDbLine
 10
262.000146
 20
69.000569
 30
0.0
 11
262.000146
 21
69.000569
 31
0.0
  0
LINE
  5
258
100
AcDbEntity
  8
Layer_1
 62
7
100
AcDbLine
 10
262.000146
 20
69.000569
 30
0.0
 11
247.000031
 21
69.000569
 31
0.0
  0
SPLINE
  5
259
100
AcDbEntity
  8
Layer_1
 62
7
100
AcDbSpline
 70
8
 71
3
 72
8
 73
4
 74
0
 40
0
 40
0
 40
0
 40
0
 40
1
 40
1
 40
1
 40
1
 10
247.000031
 20
69.000569
 30
0.0
 10
249.770030
 20
69.000569
 30
0.0
 10
252.000240
 20
71.230768
 30
0.0
 10
252.000240
 20
74.000771
 30
0.0
  0
LINE
  5
25a
100
AcDbEntity
  8
Layer_1
 62
7
100
AcDbLine
 10
252.000240
 20
74.000771
 30
0.0
 11
252.000240
 21
78.000530
 31
0.0
  0
SPLINE
  5
25b
100
AcDbEntity
  8
Layer_1
 62
7
100
AcDbSpline
 70
8
 71
3
 72
8
 73
4
 74
0
 40
0
 40
0
 40
0
 40
0
 40
1
 40
1
 40
1
 40
1
 10
252.000240
 20
78.000530
 30
0.0
 10
252.000240
 20
80.770532
 30
0.0
 10
249.770030
 20
83.000731
 30
0.0
 10
247.000031
 20
83.000731
 30
0.0
  0
LINE
  5
25c
100
AcDbEntity
  8
Layer_1
 62
7
100
AcDbLine
 10
247.000031
 20
83.000731
 30
0.0
 11
245.000151
 21
83.000731
 31
0.0
  0
LINE
  5
25d
100
AcDbEntity
  8
Layer_1
 62
7
100
AcDbLine
 10
245.000151
 20
83.000731
 30
0.0
 11
245.000151
 21
83.507170
 31
0.0
  0
SPLINE
  5
25e
100
AcDbEntity
  8
Layer_1
 62
7
100
AcDbSpline
 70
8
 71
3
 72
8
 73
4
 74
0
 40
0
 40
0
 40
0
 40
0
 40
1
 40
1
 40
1
 40
1
 10
245.000151
 20
83.507170
 30
0.0
 10
246.255603
 20
83.977978
 30
0.0
 10
246.996110
 20
84.716183
 30
0.0
 10
247.000031
 20
85.500832
 30
0.0
  0
SPLINE
  5
25f
100
AcDbEntity
  8
Layer_1
 62
7
100
AcDbSpline
 70
8
 71
3
 72
8
 73
4
 74
0
 40
0
 40
0
 40
0
 40
0
 40
1
 40
1
 40
1
 40
1
 10
247.000031
 20
85.500832
 30
0.0
 10
247.000134
 20
86.163908
 30
0.0
 10
246.473366
 20
86.799841
 30
0.0
 10
245.535627
 20
87.268715
 30
0.0
  0
SPLINE
  5
260
100
AcDbEntity
  8
Layer_1
 62
7
100
AcDbSpline
 70
8
 71
3
 72
8
 73
4
 74
0
 40
0
 40
0
 40
0
 40
0
 40
1
 40
1
 40
1
 40
1
 10
245.535627
 20
87.268715
 30
0.0
 10
244.597888
 20
87.737588
 30
0.0
 10
243.326005
 20
88.000987
 30
0.0
 10
241.999819
 20
88.000959
 30
0.0
  0
SPLINE
  5
261
100
AcDbEntity
  8
Layer_1
 62
7
100
AcDbSpline
 70
8
 71
3
 72
8
 73
4
 74
0
 40
0
 40
0
 40
0
 40
0
 40
1
 40
1
 40
1
 40
1
 10
241.999819
 20
88.000959
 30
0.0
 10
240.673722
 20
88.000919
 30
0.0
 10
239.401971
 20
87.737490
 30
0.0
 10
238.464344
 20
87.268624
 30
0.0
  0
SPLINE
  5
262
100
AcDbEntity
  8
Layer_1
 62
7
100
AcDbSpline
 70
8
 71
3
 72
8
 73
4
 74
0
 40
0
 40
0
 40
0
 40
0
 40
1
 40
1
 40
1
 40
1
 10
238.464344
 20
87.268624
 30
0.0
 10
237.526717
 20
86.799758
 30
0.0
 10
237.000019
 20
86.163863
 30
0.0
 10
237.000122
 20
85.500832
 30
0.0
  0
SPLINE
  5
263
100
AcDbEntity
  8
Layer_1
 62
7
100
AcDbSpline
 70
8
 71
3
 72
8
 73
4
 74
0
 40
0
 40
0
 40
0
 40
0
 40
1
 40
1
 40
1
 40
1
 10
237.000122
 20
85.500832
 30
0.0
 10
237.003711
 20
84.715996
 30
0.0
 10
237.744253
 20
83.977560
 30
0.0
 10
239.000002
 20
83.506641
 30
0.0
  0
LINE
  5
264
100
AcDbEntity
  8
Layer_1
 62
7
100
AcDbLine
 10
239.000002
 20
83.506641
 30
0.0
 11
239.000002
 21
83.000731
 31
0.0
  0
LINE
  5
265
100
AcDbEntity
  8
Layer_1
 62
7
100
AcDbLine
 10
239.000002
 20
83.000731
 30
0.0
 11
237.000122
 21
83.000731
 31
0.0
  0
SPLINE
  5
266
100
AcDbEntity
  8
Layer_1
 62
7
100
AcDbSpline
 70
8
 71
3
 72
8
 73
4
 74
0
 40
0
 40
0
 40
0
 40
0
 40
1
 40
1
 40
1
 40
1
 10
237.000122
 20
83.000731
 30
0.0
 10
234.230123
 20
83.000731
 30
0.0
 10
231.999913
 20
80.770532
 30
0.0
 10
231.999913
 20
78.000530
 30
0.0
  0
LINE
  5
267
100
AcDbEntity
  8
Layer_1
 62
7
100
AcDbLine
 10
231.999913
 20
78.000530
 30
0.0
 11
231.999913
 21
74.000771
 31
0.0
  0
SPLINE
  5
268
100
AcDbEntity
  8
Layer_1
 62
7
100
AcDbSpline
 70
8
 71
3
 72
8
 73
4
 74
0
 40
0
 40
0
 40
0
 40
0
 40
1
 40
1
 40
1
 40
1
 10
231.999913
 20
74.000771
 30
0.0
 10
231.999913
 20
71.230768
 30
0.0
 10
234.230123
 20
69.000569
 30
0.0
 10
237.000122
 20
69.000569
 30
0.0
  0
LINE
  5
269
100
AcDbEntity
  8
Layer_1
 62
7
100
AcDbLine
 10
237.000122
 20
69.000569
 30
0.0
 11
206.999886
 21
69.000569
 31
0.0
  0
SPLINE
  5
26a
100
AcDbEntity
  8
Layer_1
 62
7
100
AcDbSpline
 70
8
 71
3
 72
8
 73
4
 74
0
 40
0
 40
0
 40
0
 40
0
 40
1
 40
1
 40
1
 40
1
 10
206.999886
 20
69.000569
 30
0.0
 10
209.769897
 20
69.000569
 30
0.0
 10
212.000099
 20
71.230768
 30
0.0
 10
212.000099
 20
74.000771
 30
0.0
  0
LINE
  5
26b
100
AcDbEntity
  8
Layer_1
 62
7
100
AcDbLine
 10
212.000099
 20
74.000771
 30
0.0
 11
212.000099
 21
92.000692
 31
0.0
  0
SPLINE
  5
26c
100
AcDbEntity
  8
Layer_1
 62
7
100
AcDbSpline
 70
8
 71
3
 72
8
 73
4
 74
0
 40
0
 40
0
 40
0
 40
0
 40
1
 40
1
 40
1
 40
1
 10
212.000099
 20
92.000692
 30
0.0
 10
212.000099
 20
94.770694
 30
0.0
 10
209.769897
 20
97.000920
 30
0.0
 10
206.999886
 20
97.000920
 30
0.0
  0
LINE
  5
26d
100
AcDbEntity
  8
Layer_1
 62
7
100
AcDbLine
 10
206.999886
 20
97.000920
 30
0.0
 11
205.000009
 21
97.000920
 31
0.0
  0
SPLINE
  5
26e
100
AcDbEntity
  8
Layer_1
 62
7
100
AcDbSpline
 70
8
 71
3
 72
8
 73
4
 74
0
 40
0
 40
0
 40
0
 40
0
 40
1
 40
1
 40
1
 40
1
 10
205.000009
 20
97.000920
 30
0.0
 10
205.000009
 20
97.000920
 30
0.0
 10
205.000009
 20
97.507333
 30
0.0
 10
205.000009
 20
97.507333
 30
0.0
  0
SPLINE
  5
26f
100
AcDbEntity
  8
Layer_1
 62
7
100
AcDbSpline
 70
8
 71
3
 72
8
 73
4
 74
0
 40
0
 40
0
 40
0
 40
0
 40
1
 40
1
 40
1
 40
1
 10
205.000009
 20
97.507333
 30
0.0
 10
206.255475
 20
97.978146
 30
0.0
 10
206.995983
 20
98.716363
 30
0.0
 10
206.999886
 20
99.501021
 30
0.0
  0
SPLINE
  5
270
100
AcDbEntity
  8
Layer_1
 62
7
100
AcDbSpline
 70
8
 71
3
 72
8
 73
4
 74
0
 40
0
 40
0
 40
0
 40
0
 40
1
 40
1
 40
1
 40
1
 10
206.999886
 20
99.501021
 30
0.0
 10
206.999975
 20
100.164092
 30
0.0
 10
206.473202
 20
100.800018
 30
0.0
 10
205.535465
 20
101.268886
 30
0.0
  0
SPLINE
  5
271
100
AcDbEntity
  8
Layer_1
 62
7
100
AcDbSpline
 70
8
 71
3
 72
8
 73
4
 74
0
 40
0
 40
0
 40
0
 40
0
 40
1
 40
1
 40
1
 40
1
 10
205.535465
 20
101.268886
 30
0.0
 10
204.597728
 20
101.737754
 30
0.0
 10
203.325854
 20
102.001149
 30
0.0
 10
201.999677
 20
102.001122
 30
0.0
  0
SPLINE
  5
272
100
AcDbEntity
  8
Layer_1
 62
7
100
AcDbSpline
 70
8
 71
3
 72
8
 73
4
 74
0
 40
0
 40
0
 40
0
 40
0
 40
1
 40
1
 40
1
 40
1
 10
201.999677
 20
102.001122
 30
0.0
 10
200.673589
 20
102.001081
 30
0.0
 10
199.401847
 20
101.737656
 30
0.0
 10
198.464221
 20
101.268795
 30
0.0
  0
SPLINE
  5
273
100
AcDbEntity
  8
Layer_1
 62
7
100
AcDbSpline
 70
8
 71
3
 72
8
 73
4
 74
0
 40
0
 40
0
 40
0
 40
0
 40
1
 40
1
 40
1
 40
1
 10
198.464221
 20
101.268795
 30
0.0
 10
197.526595
 20
100.799935
 30
0.0
 10
196.999892
 20
100.164047
 30
0.0
 10
196.999981
 20
99.501021
 30
0.0
  0
SPLINE
  5
274
100
AcDbEntity
  8
Layer_1
 62
7
100
AcDbSpline
 70
8
 71
3
 72
8
 73
4
 74
0
 40
0
 40
0
 40
0
 40
0
 40
1
 40
1
 40
1
 40
1
 10
196.999981
 20
99.501021
 30
0.0
 10
197.003569
 20
98.716185
 30
0.0
 10
197.744112
 20
97.977749
 30
0.0
 10
198.999860
 20
97.506830
 30
0.0
  0
LINE
  5
275
100
AcDbEntity
  8
Layer_1
 62
7
100
AcDbLine
 10
198.999860
 20
97.506830
 30
0.0
 11
198.999860
 21
97.000920
 31
0.0
  0
LINE
  5
276
100
AcDbEntity
  8
Layer_1
 62
7
100
AcDbLine
 10
198.999860
 20
97.000920
 30
0.0
 11
196.999981
 21
97.000920
 31
0.0
  0
SPLINE
  5
277
100
AcDbEntity
  8
Layer_1
 62
7
100
AcDbSpline
 70
8
 71
3
 72
8
 73
4
 74
0
 40
0
 40
0
 40
0
 40
0
 40
1
 40
1
 40
1
 40
1
 10
196.999981
 20
97.000920
 30
0.0
 10
194.229981
 20
97.000920
 30
0.0
 10
191.999768
 20
94.770694
 30
0.0
 10
191.999771
 20
92.000692
 30
0.0
  0
LINE
  5
278
100
AcDbEntity
  8
Layer_1
 62
7
100
AcDbLine
 10
191.999771
 20
92.000692
 30
0.0
 11
191.999771
 21
74.000771
 31
0.0
  0
SPLINE
  5
279
100
AcDbEntity
  8
Layer_1
 62
7
100
AcDbSpline
 70
8
 71
3
 72
8
 73
4
 74
0
 40
0
 40
0
 40
0
 40
0
 40
1
 40
1
 40
1
 40
1
 10
191.999771
 20
74.000771
 30
0.0
 10
191.999771
 20
71.230768
 30
0.0
 10
194.229981
 20
69.000569
 30
0.0
 10
196.999981
 20
69.000569
 30
0.0
  0
LINE
  5
27a
100
AcDbEntity
  8
Layer_1
 62
7
100
AcDbLine
 10
196.999981
 20
69.000569
 30
0.0
 11
179.000046
 21
69.000569
 31
0.0
  0
SPLINE
  5
27b
100
AcDbEntity
  8
Layer_1
 62
7
100
AcDbSpline
 70
8
 71
3
 72
8
 73
4
 74
0
 40
0
 40
0
 40
0
 40
0
 40
1
 40
1
 40
1
 40
1
 10
179.000046
 20
69.000569
 30
0.0
 10
181.770046
 20
69.000569
 30
0.0
 10
183.999742
 20
71.230768
 30
0.0
 10
183.999742
 20
74.000771
 30
0.0
  0
LINE
  5
27c
100
AcDbEntity
  8
Layer_1
 62
7
100
AcDbLine
 10
183.999742
 20
74.000771
 30
0.0
 11
183.999742
 21
104.000498
 31
0.0
  0
SPLINE
  5
27d
100
AcDbEntity
  8
Layer_1
 62
7
100
AcDbSpline
 70
8
 71
3
 72
8
 73
4
 74
0
 40
0
 40
0
 40
0
 40
0
 40
1
 40
1
 40
1
 40
1
 10
183.999742
 20
104.000498
 30
0.0
 10
183.999742
 20
106.770501
 30
0.0
 10
181.770046
 20
109.000700
 30
0.0
 10
179.000046
 20
109.000700
 30
0.0
  0
LINE
  5
27e
100
AcDbEntity
  8
Layer_1
 62
7
100
AcDbLine
 10
179.000046
 20
109.000700
 30
0.0
 11
177.000169
 21
109.000700
 31
0.0
  0
SPLINE
  5
27f
100
AcDbEntity
  8
Layer_1
 62
7
100
AcDbSpline
 70
8
 71
3
 72
8
 73
4
 74
0
 40
0
 40
0
 40
0
 40
0
 40
1
 40
1
 40
1
 40
1
 10
177.000169
 20
109.000700
 30
0.0
 10
177.000169
 20
109.000700
 30
0.0
 10
177.000169
 20
109.507139
 30
0.0
 10
177.000169
 20
109.507139
 30
0.0
  0
SPLINE
  5
280
100
AcDbEntity
  8
Layer_1
 62
7
100
AcDbSpline
 70
8
 71
3
 72
8
 73
4
 74
0
 40
0
 40
0
 40
0
 40
0
 40
1
 40
1
 40
1
 40
1
 10
177.000169
 20
109.507139
 30
0.0
 10
178.255620
 20
109.977947
 30
0.0
 10
178.996126
 20
110.716152
 30
0.0
 10
179.000046
 20
111.500801
 30
0.0
  0
SPLINE
  5
281
100
AcDbEntity
  8
Layer_1
 62
7
100
AcDbSpline
 70
8
 71
3
 72
8
 73
4
 74
0
 40
0
 40
0
 40
0
 40
0
 40
1
 40
1
 40
1
 40
1
 10
179.000046
 20
111.500801
 30
0.0
 10
179.000135
 20
112.163872
 30
0.0
 10
178.473361
 20
112.799799
 30
0.0
 10
177.535623
 20
113.268666
 30
0.0
  0
SPLINE
  5
282
100
AcDbEntity
  8
Layer_1
 62
7
100
AcDbSpline
 70
8
 71
3
 72
8
 73
4
 74
0
 40
0
 40
0
 40
0
 40
0
 40
1
 40
1
 40
1
 40
1
 10
177.535623
 20
113.268666
 30
0.0
 10
176.597886
 20
113.737534
 30
0.0
 10
175.326011
 20
114.000930
 30
0.0
 10
173.999834
 20
114.000902
 30
0.0
  0
SPLINE
  5
283
100
AcDbEntity
  8
Layer_1
 62
7
100
AcDbSpline
 70
8
 71
3
 72
8
 73
4
 74
0
 40
0
 40
0
 40
0
 40
0
 40
1
 40
1
 40
1
 40
1
 10
173.999834
 20
114.000902
 30
0.0
 10
172.673746
 20
114.000861
 30
0.0
 10
171.402005
 20
113.737435
 30
0.0
 10
170.464379
 20
113.268575
 30
0.0
  0
SPLINE
  5
284
100
AcDbEntity
  8
Layer_1
 62
7
100
AcDbSpline
 70
8
 71
3
 72
8
 73
4
 74
0
 40
0
 40
0
 40
0
 40
0
 40
1
 40
1
 40
1
 40
1
 10
170.464379
 20
113.268575
 30
0.0
 10
169.526754
 20
112.799715
 30
0.0
 10
169.000051
 20
112.163827
 30
0.0
 10
169.000140
 20
111.500801
 30
0.0
  0
SPLINE
  5
285
100
AcDbEntity
  8
Layer_1
 62
7
100
AcDbSpline
 70
8
 71
3
 72
8
 73
4
 74
0
 40
0
 40
0
 40
0
 40
0
 40
1
 40
1
 40
1
 40
1
 10
169.000140
 20
111.500801
 30
0.0
 10
169.003728
 20
110.715966
 30
0.0
 10
169.744270
 20
109.977530
 30
0.0
 10
171.000017
 20
109.506610
 30
0.0
  0
LINE
  5
286
100
AcDbEntity
  8
Layer_1
 62
7
100
AcDbLine
 10
171.000017
 20
109.506610
 30
0.0
 11
171.000017
 21
109.000700
 31
0.0
  0
LINE
  5
287
100
AcDbEntity
  8
Layer_1
 62
7
100
AcDbLine
 10
171.000017
 20
109.000700
 30
0.0
 11
169.000140
 21
109.000700
 31
0.0
  0
SPLINE
  5
288
100
AcDbEntity
  8
Layer_1
 62
7
100
AcDbSpline
 70
8
 71
3
 72
8
 73
4
 74
0
 40
0
 40
0
 40
0
 40
0
 40
1
 40
1
 40
1
 40
1
 10
169.000140
 20
109.000700
 30
0.0
 10
166.230141
 20
109.000700
 30
0.0
 10
163.999928
 20
106.770501
 30
0.0
 10
163.999928
 20
104.000498
 30
0.0
  0
LINE
  5
289
100
AcDbEntity
  8
Layer_1
 62
7
100
AcDbLine
 10
163.999928
 20
104.000498
 30
0.0
 11
163.999928
 21
74.000771
 31
0.0
  0
SPLINE
  5
28a
100
AcDbEntity
  8
Layer_1
 62
7
100
AcDbSpline
 70
8
 71
3
 72
8
 73
4
 74
0
 40
0
 40
0
 40
0
 40
0
 40
1
 40
1
 40
1
 40
1
 10
163.999928
 20
74.000771
 30
0.0
 10
163.999928
 20
71.230768
 30
0.0
 10
166.230141
 20
69.000569
 30
0.0
 10
169.000140
 20
69.000569
 30
0.0
  0
LINE
  5
28b
100
AcDbEntity
  8
Layer_1
 62
7
100
AcDbLine
 10
169.000140
 20
69.000569
 30
0.0
 11
156.999839
 21
69.000569
 31
0.0
  0
SPLINE
  5
28c
100
AcDbEntity
  8
Layer_1
 62
7
100
AcDbSpline
 70
8
 71
3
 72
8
 73
4
 74
0
 40
0
 40
0
 40
0
 40
0
 40
1
 40
1
 40
1
 40
1
 10
156.999839
 20
69.000569
 30
0.0
 10
159.769838
 20
69.000569
 30
0.0
 10
162.000051
 20
71.230768
 30
0.0
 10
162.000051
 20
74.000771
 30
0.0
  0
LINE
  5
28d
100
AcDbEntity
  8
Layer_1
 62
7
100
AcDbLine
 10
162.000051
 20
74.000771
 30
0.0
 11
162.000051
 21
106.000881
 31
0.0
  0
SPLINE
  5
28e
100
AcDbEntity
  8
Layer_1
 62
7
100
AcDbSpline
 70
8
 71
3
 72
8
 73
4
 74
0
 40
0
 40
0
 40
0
 40
0
 40
1
 40
1
 40
1
 40
1
 10
162.000051
 20
106.000881
 30
0.0
 10
162.000051
 20
108.770883
 30
0.0
 10
159.769838
 20
111.000580
 30
0.0
 10
156.999839
 20
111.000580
 30
0.0
  0
LINE
  5
28f
100
AcDbEntity
  8
Layer_1
 62
7
100
AcDbLine
 10
156.999839
 20
111.000580
 30
0.0
 11
154.999962
 21
111.000580
 31
0.0
  0
SPLINE
  5
290
100
AcDbEntity
  8
Layer_1
 62
7
100
AcDbSpline
 70
8
 71
3
 72
8
 73
4
 74
0
 40
0
 40
0
 40
0
 40
0
 40
1
 40
1
 40
1
 40
1
 10
154.999962
 20
111.000580
 30
0.0
 10
154.999962
 20
111.000580
 30
0.0
 10
154.999962
 20
111.507019
 30
0.0
 10
154.999962
 20
111.507019
 30
0.0
  0
SPLINE
  5
291
100
AcDbEntity
  8
Layer_1
 62
7
100
AcDbSpline
 70
8
 71
3
 72
8
 73
4
 74
0
 40
0
 40
0
 40
0
 40
0
 40
1
 40
1
 40
1
 40
1
 10
154.999962
 20
111.507019
 30
0.0
 10
156.255413
 20
111.977826
 30
0.0
 10
156.995919
 20
112.716031
 30
0.0
 10
156.999839
 20
113.500680
 30
0.0
  0
SPLINE
  5
292
100
AcDbEntity
  8
Layer_1
 62
7
100
AcDbSpline
 70
8
 71
3
 72
8
 73
4
 74
0
 40
0
 40
0
 40
0
 40
0
 40
1
 40
1
 40
1
 40
1
 10
156.999839
 20
113.500680
 30
0.0
 10
156.999928
 20
114.163751
 30
0.0
 10
156.473154
 20
114.799678
 30
0.0
 10
155.535416
 20
115.268546
 30
0.0
  0
SPLINE
  5
293
100
AcDbEntity
  8
Layer_1
 62
7
100
AcDbSpline
 70
8
 71
3
 72
8
 73
4
 74
0
 40
0
 40
0
 40
0
 40
0
 40
1
 40
1
 40
1
 40
1
 10
155.535416
 20
115.268546
 30
0.0
 10
154.597679
 20
115.737414
 30
0.0
 10
153.325804
 20
116.000809
 30
0.0
 10
151.999627
 20
116.000781
 30
0.0
  0
LINE
  5
294
100
AcDbEntity
  8
Layer_1
 62
7
100
AcDbLine
 10
151.999627
 20
116.000781
 30
0.0
 11
151.999627
 21
116.000279
 31
0.0
  0
LINE
  5
295
100
AcDbEntity
  8
Layer_1
 62
7
100
AcDbLine
 10
8.000000
 20
67.000143
 30
0.0
 11
11.000000
 21
67.000143
 31
0.0
  0
LINE
  5
296
100
AcDbEntity
  8
Layer_1
 62
7
100
AcDbLine
 10
11.000000
 20
67.000143
 30
0.0
 11
11.000000
 21
51.000143
 31
0.0
  0
LINE
  5
297
100
AcDbEntity
  8
Layer_1
 62
7
100
AcDbLine
 10
11.000000
 20
51.000143
 30
0.0
 11
8.000000
 21
51.000143
 31
0.0
  0
LINE
  5
298
100
AcDbEntity
  8
Layer_1
 62
7
100
AcDbLine
 10
8.000000
 20
51.000143
 30
0.0
 11
8.000000
 21
67.000143
 31
0.0
  0
LINE
  5
299
100
AcDbEntity
  8
Layer_1
 62
7
100
AcDbLine
 10
16.000000
 20
67.000143
 30
0.0
 11
19.000000
 21
67.000143
 31
0.0
  0
LINE
  5
29a
100
AcDbEntity
  8
Layer_1
 62
7
100
AcDbLine
 10
19.000000
 20
67.000143
 30
0.0
 11
19.000000
 21
51.000143
 31
0.0
  0
LINE
  5
29b
100
AcDbEntity
  8
Layer_1
 62
7
100
AcDbLine
 10
19.000000
 20
51.000143
 30
0.0
 11
16.000000
 21
51.000143
 31
0.0
  0
LINE
  5
29c
100
AcDbEntity
  8
Layer_1
 62
7
100
AcDbLine
 10
16.000000
 20
51.000143
 30
0.0
 11
16.000000
 21
67.000143
 31
0.0
  0
LINE
  5
29d
100
AcDbEntity
  8
Layer_1
 62
7
100
AcDbLine
 10
24.000000
 20
67.000143
 30
0.0
 11
27.000000
 21
67.000143
 31
0.0
  0
LINE
  5
29e
100
AcDbEntity
  8
Layer_1
 62
7
100
AcDbLine
 10
27.000000
 20
67.000143
 30
0.0
 11
27.000000
 21
51.000143
 31
0.0
  0
LINE
  5
29f
100
AcDbEntity
  8
Layer_1
 62
7
100
AcDbLine
 10
27.000000
 20
51.000143
 30
0.0
 11
24.000000
 21
51.000143
 31
0.0
  0
LINE
  5
2a0
100
AcDbEntity
  8
Layer_1
 62
7
100
AcDbLine
 10
24.000000
 20
51.000143
 30
0.0
 11
24.000000
 21
67.000143
 31
0.0
  0
LINE
  5
2a1
100
AcDbEntity
  8
Layer_1
 62
7
100
AcDbLine
 10
32.000000
 20
67.000143
 30
0.0
 11
35.000000
 21
67.000143
 31
0.0
  0
LINE
  5
2a2
100
AcDbEntity
  8
Layer_1
 62
7
100
AcDbLine
 10
35.000000
 20
67.000143
 30
0.0
 11
35.000000
 21
51.000143
 31
0.0
  0
LINE
  5
2a3
100
AcDbEntity
  8
Layer_1
 62
7
100
AcDbLine
 10
35.000000
 20
51.000143
 30
0.0
 11
32.000000
 21
51.000143
 31
0.0
  0
LINE
  5
2a4
100
AcDbEntity
  8
Layer_1
 62
7
100
AcDbLine
 10
32.000000
 20
51.000143
 30
0.0
 11
32.000000
 21
67.000143
 31
0.0
  0
LINE
  5
2a5
100
AcDbEntity
  8
Layer_1
 62
7
100
AcDbLine
 10
268.999760
 20
67.000143
 30
0.0
 11
271.999760
 21
67.000143
 31
0.0
  0
LINE
  5
2a6
100
AcDbEntity
  8
Layer_1
 62
7
100
AcDbLine
 10
271.999760
 20
67.000143
 30
0.0
 11
271.999760
 21
51.000143
 31
0.0
  0
LINE
  5
2a7
100
AcDbEntity
  8
Layer_1
 62
7
100
AcDbLine
 10
271.999760
 20
51.000143
 30
0.0
 11
268.999760
 21
51.000143
 31
0.0
  0
LINE
  5
2a8
100
AcDbEntity
  8
Layer_1
 62
7
100
AcDbLine
 10
268.999760
 20
51.000143
 30
0.0
 11
268.999760
 21
67.000143
 31
0.0
  0
LINE
  5
2a9
100
AcDbEntity
  8
Layer_1
 62
7
100
AcDbLine
 10
276.999760
 20
67.000143
 30
0.0
 11
279.999760
 21
67.000143
 31
0.0
  0
LINE
  5
2aa
100
AcDbEntity
  8
Layer_1
 62
7
100
AcDbLine
 10
279.999760
 20
67.000143
 30
0.0
 11
279.999760
 21
51.000143
 31
0.0
  0
LINE
  5
2ab
100
AcDbEntity
  8
Layer_1
 62
7
100
AcDbLine
 10
279.999760
 20
51.000143
 30
0.0
 11
276.999760
 21
51.000143
 31
0.0
  0
LINE
  5
2ac
100
AcDbEntity
  8
Layer_1
 62
7
100
AcDbLine
 10
276.999760
 20
51.000143
 30
0.0
 11
276.999760
 21
67.000143
 31
0.0
  0
LINE
  5
2ad
100
AcDbEntity
  8
Layer_1
 62
7
100
AcDbLine
 10
284.999760
 20
67.000143
 30
0.0
 11
287.999760
 21
67.000143
 31
0.0
  0
LINE
  5
2ae
100
AcDbEntity
  8
Layer_1
 62
7
100
AcDbLine
 10
287.999760
 20
67.000143
 30
0.0
 11
287.999760
 21
51.000143
 31
0.0
  0
LINE
  5
2af
100
AcDbEntity
  8
Layer_1
 62
7
100
AcDbLine
 10
287.999760
 20
51.000143
 30
0.0
 11
284.999760
 21
51.000143
 31
0.0
  0
LINE
  5
2b0
100
AcDbEntity
  8
Layer_1
 62
7
100
AcDbLine
 10
284.999760
 20
51.000143
 30
0.0
 11
284.999760
 21
67.000143
 31
0.0
  0
LINE
  5
2b1
100
AcDbEntity
  8
Layer_1
 62
7
100
AcDbLine
 10
292.999760
 20
67.000143
 30
0.0
 11
295.999760
 21
67.000143
 31
0.0
  0
LINE
  5
2b2
100
AcDbEntity
  8
Layer_1
 62
7
100
AcDbLine
 10
295.999760
 20
67.000143
 30
0.0
 11
295.999760
 21
51.000143
 31
0.0
  0
LINE
  5
2b3
100
AcDbEntity
  8
Layer_1
 62
7
100
AcDbLine
 10
295.999760
 20
51.000143
 30
0.0
 11
292.999760
 21
51.000143
 31
0.0
  0
LINE
  5
2b4
100
AcDbEntity
  8
Layer_1
 62
7
100
AcDbLine
 10
292.999760
 20
51.000143
 30
0.0
 11
292.999760
 21
67.000143
 31
0.0
  0
LINE
  5
2b5
100
AcDbEntity
  8
Layer_1
 62
7
100
AcDbLine
 10
148.298337
 20
365.187003
 30
0.0
 11
148.085947
 21
365.448204
 31
0.0
  0
LINE
  5
2b6
100
AcDbEntity
  8
Layer_1
 62
7
100
AcDbLine
 10
148.085947
 20
365.448204
 30
0.0
 11
149.500337
 21
367.187003
 31
0.0
  0
LINE
  5
2b7
100
AcDbEntity
  8
Layer_1
 62
7
100
AcDbLine
 10
149.500337
 20
367.187003
 30
0.0
 11
154.500027
 21
367.187003
 31
0.0
  0
LINE
  5
2b8
100
AcDbEntity
  8
Layer_1
 62
7
100
AcDbLine
 10
154.500027
 20
367.187003
 30
0.0
 11
155.914417
 21
365.448204
 31
0.0
  0
LINE
  5
2b9
100
AcDbEntity
  8
Layer_1
 62
7
100
AcDbLine
 10
155.914417
 20
365.448204
 30
0.0
 11
155.702537
 21
365.187003
 31
0.0
  0
LINE
  5
2ba
100
AcDbEntity
  8
Layer_1
 62
7
100
AcDbLine
 10
155.702537
 20
365.187003
 30
0.0
 11
154.376007
 21
366.818397
 31
0.0
  0
LINE
  5
2bb
100
AcDbEntity
  8
Layer_1
 62
7
100
AcDbLine
 10
154.376007
 20
366.818397
 30
0.0
 11
149.624357
 21
366.818397
 31
0.0
  0
LINE
  5
2bc
100
AcDbEntity
  8
Layer_1
 62
7
100
AcDbLine
 10
149.624357
 20
366.818397
 30
0.0
 11
148.298337
 21
365.187003
 31
0.0
  0
LINE
  5
2bd
100
AcDbEntity
  8
Layer_1
 62
7
100
AcDbLine
 10
108.298347
 20
365.187003
 30
0.0
 11
108.085957
 21
365.448204
 31
0.0
  0
LINE
  5
2be
100
AcDbEntity
  8
Layer_1
 62
7
100
AcDbLine
 10
108.085957
 20
365.448204
 30
0.0
 11
109.500347
 21
367.187003
 31
0.0
  0
LINE
  5
2bf
100
AcDbEntity
  8
Layer_1
 62
7
100
AcDbLine
 10
109.500347
 20
367.187003
 30
0.0
 11
114.500027
 21
367.187003
 31
0.0
  0
LINE
  5
2c0
100
AcDbEntity
  8
Layer_1
 62
7
100
AcDbLine
 10
114.500027
 20
367.187003
 30
0.0
 11
115.914417
 21
365.448204
 31
0.0
  0
LINE
  5
2c1
100
AcDbEntity
  8
Layer_1
 62
7
100
AcDbLine
 10
115.914417
 20
365.448204
 30
0.0
 11
115.702537
 21
365.187003
 31
0.0
  0
LINE
  5
2c2
100
AcDbEntity
  8
Layer_1
 62
7
100
AcDbLine
 10
115.702537
 20
365.187003
 30
0.0
 11
114.376007
 21
366.818397
 31
0.0
  0
LINE
  5
2c3
100
AcDbEntity
  8
Layer_1
 62
7
100
AcDbLine
 10
114.376007
 20
366.818397
 30
0.0
 11
109.624357
 21
366.818397
 31
0.0
  0
LINE
  5
2c4
100
AcDbEntity
  8
Layer_1
 62
7
100
AcDbLine
 10
109.624357
 20
366.818397
 30
0.0
 11
108.298347
 21
365.187003
 31
0.0
  0
LINE
  5
2c5
100
AcDbEntity
  8
Layer_1
 62
7
100
AcDbLine
 10
62.298347
 20
365.187003
 30
0.0
 11
62.085957
 21
365.448204
 31
0.0
  0
LINE
  5
2c6
100
AcDbEntity
  8
Layer_1
 62
7
100
AcDbLine
 10
62.085957
 20
365.448204
 30
0.0
 11
63.500347
 21
367.187003
 31
0.0
  0
LINE
  5
2c7
100
AcDbEntity
  8
Layer_1
 62
7
100
AcDbLine
 10
63.500347
 20
367.187003
 30
0.0
 11
68.500027
 21
367.187003
 31
0.0
  0
LINE
  5
2c8
100
AcDbEntity
  8
Layer_1
 62
7
100
AcDbLine
 10
68.500027
 20
367.187003
 30
0.0
 11
69.914417
 21
365.448204
 31
0.0
  0
LINE
  5
2c9
100
AcDbEntity
  8
Layer_1
 62
7
100
AcDbLine
 10
69.914417
 20
365.448204
 30
0.0
 11
69.702537
 21
365.187003
 31
0.0
  0
LINE
  5
2ca
100
AcDbEntity
  8
Layer_1
 62
7
100
AcDbLine
 10
69.702537
 20
365.187003
 30
0.0
 11
68.376007
 21
366.818397
 31
0.0
  0
LINE
  5
2cb
100
AcDbEntity
  8
Layer_1
 62
7
100
AcDbLine
 10
68.376007
 20
366.818397
 30
0.0
 11
63.624357
 21
366.818397
 31
0.0
  0
LINE
  5
2cc
100
AcDbEntity
  8
Layer_1
 62
7
100
AcDbLine
 10
63.624357
 20
366.818397
 30
0.0
 11
62.298347
 21
365.187003
 31
0.0
  0
LINE
  5
2cd
100
AcDbEntity
  8
Layer_1
 62
7
100
AcDbLine
 10
13.298347
 20
365.187003
 30
0.0
 11
13.085957
 21
365.448204
 31
0.0
  0
LINE
  5
2ce
100
AcDbEntity
  8
Layer_1
 62
7
100
AcDbLine
 10
13.085957
 20
365.448204
 30
0.0
 11
14.500347
 21
367.187003
 31
0.0
  0
LINE
  5
2cf
100
AcDbEntity
  8
Layer_1
 62
7
100
AcDbLine
 10
14.500347
 20
367.187003
 30
0.0
 11
19.500027
 21
367.187003
 31
0.0
  0
LINE
  5
2d0
100
AcDbEntity
  8
Layer_1
 62
7
100
AcDbLine
 10
19.500027
 20
367.187003
 30
0.0
 11
20.914417
 21
365.448204
 31
0.0
  0
LINE
  5
2d1
100
AcDbEntity
  8
Layer_1
 62
7
100
AcDbLine
 10
20.914417
 20
365.448204
 30
0.0
 11
20.702537
 21
365.187003
 31
0.0
  0
LINE
  5
2d2
100
AcDbEntity
  8
Layer_1
 62
7
100
AcDbLine
 10
20.702537
 20
365.187003
 30
0.0
 11
19.376007
 21
366.818397
 31
0.0
  0
LINE
  5
2d3
100
AcDbEntity
  8
Layer_1
 62
7
100
AcDbLine
 10
19.376007
 20
366.818397
 30
0.0
 11
14.624357
 21
366.818397
 31
0.0
  0
LINE
  5
2d4
100
AcDbEntity
  8
Layer_1
 62
7
100
AcDbLine
 10
14.624357
 20
366.818397
 30
0.0
 11
13.298347
 21
365.187003
 31
0.0
  0
LINE
  5
2d5
100
AcDbEntity
  8
Layer_1
 62
7
100
AcDbLine
 10
188.298337
 20
365.187003
 30
0.0
 11
188.085947
 21
365.448204
 31
0.0
  0
LINE
  5
2d6
100
AcDbEntity
  8
Layer_1
 62
7
100
AcDbLine
 10
188.085947
 20
365.448204
 30
0.0
 11
189.500337
 21
367.187003
 31
0.0
  0
LINE
  5
2d7
100
AcDbEntity
  8
Layer_1
 62
7
100
AcDbLine
 10
189.500337
 20
367.187003
 30
0.0
 11
194.500027
 21
367.187003
 31
0.0
  0
LINE
  5
2d8
100
AcDbEntity
  8
Layer_1
 62
7
100
AcDbLine
 10
194.500027
 20
367.187003
 30
0.0
 11
195.914417
 21
365.448204
 31
0.0
  0
LINE
  5
2d9
100
AcDbEntity
  8
Layer_1
 62
7
100
AcDbLine
 10
195.914417
 20
365.448204
 30
0.0
 11
195.702537
 21
365.187003
 31
0.0
  0
LINE
  5
2da
100
AcDbEntity
  8
Layer_1
 62
7
100
AcDbLine
 10
195.702537
 20
365.187003
 30
0.0
 11
194.376007
 21
366.818397
 31
0.0
  0
LINE
  5
2db
100
AcDbEntity
  8
Layer_1
 62
7
100
AcDbLine
 10
194.376007
 20
366.818397
 30
0.0
 11
189.624357
 21
366.818397
 31
0.0
  0
LINE
  5
2dc
100
AcDbEntity
  8
Layer_1
 62
7
100
AcDbLine
 10
189.624357
 20
366.818397
 30
0.0
 11
188.298337
 21
365.187003
 31
0.0
  0
LINE
  5
2dd
100
AcDbEntity
  8
Layer_1
 62
7
100
AcDbLine
 10
234.298337
 20
365.187003
 30
0.0
 11
234.085957
 21
365.448204
 31
0.0
  0
LINE
  5
2de
100
AcDbEntity
  8
Layer_1
 62
7
100
AcDbLine
 10
234.085957
 20
365.448204
 30
0.0
 11
235.500337
 21
367.187003
 31
0.0
  0
LINE
  5
2df
100
AcDbEntity
  8
Layer_1
 62
7
100
AcDbLine
 10
235.500337
 20
367.187003
 30
0.0
 11
240.500027
 21
367.187003
 31
0.0
  0
LINE
  5
2e0
100
AcDbEntity
  8
Layer_1
 62
7
100
AcDbLine
 10
240.500027
 20
367.187003
 30
0.0
 11
241.914427
 21
365.448204
 31
0.0
  0
LINE
  5
2e1
100
AcDbEntity
  8
Layer_1
 62
7
100
AcDbLine
 10
241.914427
 20
365.448204
 30
0.0
 11
241.702537
 21
365.187003
 31
0.0
  0
LINE
  5
2e2
100
AcDbEntity
  8
Layer_1
 62
7
100
AcDbLine
 10
241.702537
 20
365.187003
 30
0.0
 11
240.376017
 21
366.818397
 31
0.0
  0
LINE
  5
2e3
100
AcDbEntity
  8
Layer_1
 62
7
100
AcDbLine
 10
240.376017
 20
366.818397
 30
0.0
 11
235.624357
 21
366.818397
 31
0.0
  0
LINE
  5
2e4
100
AcDbEntity
  8
Layer_1
 62
7
100
AcDbLine
 10
235.624357
 20
366.818397
 30
0.0
 11
234.298337
 21
365.187003
 31
0.0
  0
LINE
  5
2e5
100
AcDbEntity
  8
Layer_1
 62
7
100
AcDbLine
 10
283.298327
 20
365.187003
 30
0.0
 11
283.085947
 21
365.448204
 31
0.0
  0
LINE
  5
2e6
100
AcDbEntity
  8
Layer_1
 62
7
100
AcDbLine
 10
283.085947
 20
365.448204
 30
0.0
 11
284.500327
 21
367.187003
 31
0.0
  0
LINE
  5
2e7
100
AcDbEntity
  8
Layer_1
 62
7
100
AcDbLine
 10
284.500327
 20
367.187003
 30
0.0
 11
289.500027
 21
367.187003
 31
0.0
  0
LINE
  5
2e8
100
AcDbEntity
  8
Layer_1
 62
7
100
AcDbLine
 10
289.500027
 20
367.187003
 30
0.0
 11
290.914427
 21
365.448204
 31
0.0
  0
LINE
  5
2e9
100
AcDbEntity
  8
Layer_1
 62
7
100
AcDbLine
 10
290.914427
 20
365.448204
 30
0.0
 11
290.702537
 21
365.187003
 31
0.0
  0
LINE
  5
2ea
100
AcDbEntity
  8
Layer_1
 62
7
100
AcDbLine
 10
290.702537
 20
365.187003
 30
0.0
 11
289.376017
 21
366.818397
 31
0.0
  0
LINE
  5
2eb
100
AcDbEntity
  8
Layer_1
 62
7
100
AcDbLine
 10
289.376017
 20
366.818397
 30
0.0
 11
284.624347
 21
366.818397
 31
0.0
  0
LINE
  5
2ec
100
AcDbEntity
  8
Layer_1
 62
7
100
AcDbLine
 10
284.624347
 20
366.818397
 30
0.0
 11
283.298327
 21
365.187003
 31
0.0
  0
ENDSEC
  0
SECTION
  2
OBJECTS
  0
DICTIONARY
  5
C
330
0
100
AcDbDictionary
  3
ACAD_GROUP
350
D
  3
ACAD_MLINESTYLE
350
17
  0
DICTIONARY
  5
D
330
C
100
AcDbDictionary
  0
DICTIONARY
  5
1A
330
C
100
AcDbDictionary
  0
DICTIONARY
  5
17
330
C
100
AcDbDictionary
  3
STANDARD
350
18
  0
DICTIONARY
  5
19
330
C
100
AcDbDictionary
  0
ENDSEC
  0
EOF
