<?xml version="1.0" encoding="UTF-8" standalone="no"?>
<svg
   xmlns:dc="http://purl.org/dc/elements/1.1/"
   xmlns:cc="http://creativecommons.org/ns#"
   xmlns:rdf="http://www.w3.org/1999/02/22-rdf-syntax-ns#"
   xmlns:svg="http://www.w3.org/2000/svg"
   xmlns="http://www.w3.org/2000/svg"
   xmlns:sodipodi="http://sodipodi.sourceforge.net/DTD/sodipodi-0.dtd"
   xmlns:inkscape="http://www.inkscape.org/namespaces/inkscape"
   width="793.700787402"
   height="1122.51968504"
   version="1.1"
   id="svg143"
   sodipodi:docname="shield_5.svg"
   inkscape:version="0.92.2 5c3e80d, 2017-08-06">
  <metadata
     id="metadata147">
    <rdf:RDF>
      <cc:Work
         rdf:about="">
        <dc:format>image/svg+xml</dc:format>
        <dc:type
           rdf:resource="http://purl.org/dc/dcmitype/StillImage" />
        <dc:title></dc:title>
      </cc:Work>
    </rdf:RDF>
  </metadata>
  <sodipodi:namedview
     pagecolor="#ffffff"
     bordercolor="#666666"
     borderopacity="1"
     objecttolerance="10"
     gridtolerance="10"
     guidetolerance="10"
     inkscape:pageopacity="0"
     inkscape:pageshadow="2"
     inkscape:window-width="1376"
     inkscape:window-height="859"
     id="namedview145"
     showgrid="false"
     inkscape:zoom="0.42048262"
     inkscape:cx="-310.84495"
     inkscape:cy="2209.692"
     inkscape:window-x="0"
     inkscape:window-y="0"
     inkscape:window-maximized="0"
     inkscape:current-layer="g141" />
  <desc
     id="desc2">/Users/flop/Downloads/Telegram Desktop/mask_new_optimal_round.dxf - scale = 1.000000, origin = (0.000000, 0.000000), method = manual</desc>
  <defs
     id="defs17">
    <marker
       id="DistanceX"
       orient="auto"
       refX="0.0"
       refY="0.0"
       style="overflow:visible">
      <path
         d="M 3,-3 L -3,3 M 0,-5 L  0,5"
         style="stroke:#000000; stroke-width:0.5"
         id="path4" />
    </marker>
    <pattern
       height="8"
       id="Hatch"
       patternUnits="userSpaceOnUse"
       width="8"
       x="0"
       y="0">
      <path
         d="M8 4 l-4,4"
         linecap="square"
         stroke="#000000"
         stroke-width="0.25"
         id="path7" />
      <path
         d="M6 2 l-4,4"
         linecap="square"
         stroke="#000000"
         stroke-width="0.25"
         id="path9" />
      <path
         d="M4 0 l-4,4"
         linecap="square"
         stroke="#000000"
         stroke-width="0.25"
         id="path11" />
    </pattern>
    <symbol
       id="*Model_Space" />
    <symbol
       id="*Paper_Space" />
    <symbol
       id="*Paper_Space0" />
  </defs>
  <g
     inkscape:groupmode="layer"
     inkscape:label="0"
     id="g141">
    <g
       id="g1005">
      <path
         id="path19"
         style="stroke:#333333;stroke-width:0.5;fill:none"
         d="M -491.403213,-914.643780 C -658.911874,-914.643780 -773.766425,-1467.244724 -773.766425,-1633.413165 C -773.766425,-1633.413165 -773.766425,-1776.979654 -773.766425,-1776.979654 C -773.766425,-1818.521953 -740.051906,-1851.966614 -698.174740,-1851.966614 C -698.174740,-1851.966614 284.500913,-1851.966614 284.500913,-1851.966614 C 326.378079,-1851.966614 360.092976,-1818.521953 360.092976,-1776.979654 C 360.092976,-1776.979654 360.092976,-1633.413165 360.092976,-1633.413165 C 360.092976,-1467.244724 245.238047,-914.643780 77.729764,-914.643780 C 77.729764,-914.643780 -491.403213,-914.643780 -491.403213,-914.643780 z" />
      <g
         id="g981">
        <path
           d="M -707.526425,-1801.447937 C -707.526425,-1801.447937 -703.375370,-1796.340283 -703.375370,-1796.340283 C -703.301291,-1796.248819 -703.200000,-1796.200819 -703.082079,-1796.200819 C -702.964535,-1796.200819 -702.863244,-1796.248819 -702.788787,-1796.340283 C -702.788787,-1796.340283 -702.473197,-1796.728441 -702.473197,-1796.728441 C -702.359055,-1796.869039 -702.359055,-1797.065197 -702.473197,-1797.205417 C -702.473197,-1797.205417 -707.511685,-1803.399307 -707.511685,-1803.399307 C -707.586142,-1803.490772 -707.687433,-1803.538772 -707.804976,-1803.538772 C -707.804976,-1803.538772 -726.341669,-1803.538772 -726.341669,-1803.538772 C -726.459213,-1803.538772 -726.560504,-1803.490772 -726.634961,-1803.399307 C -726.634961,-1803.399307 -731.673449,-1797.205039 -731.673449,-1797.205039 C -731.787591,-1797.064819 -731.787591,-1796.868661 -731.673827,-1796.728441 C -731.673827,-1796.728441 -731.359748,-1796.341039 -731.359748,-1796.341039 C -731.285669,-1796.249575 -731.184000,-1796.201197 -731.066457,-1796.201197 C -730.948535,-1796.201197 -730.847244,-1796.249197 -730.772787,-1796.340661 C -730.772787,-1796.340661 -726.620220,-1801.447937 -726.620220,-1801.447937 C -726.249071,-1801.904504 -725.742236,-1802.145638 -725.153764,-1802.145638 C -725.153764,-1802.145638 -708.992882,-1802.145638 -708.992882,-1802.145638 C -708.404409,-1802.145638 -707.897575,-1801.904504 -707.526425,-1801.447937 z"
           style="stroke:#333333;stroke-width:0.5;fill:none"
           id="path21" />
        <path
           d="M 312.946016,-1801.337197 C 312.946016,-1801.337197 317.097071,-1796.229543 317.097071,-1796.229543 C 317.171150,-1796.138079 317.272441,-1796.090079 317.390362,-1796.090079 C 317.507906,-1796.090079 317.609197,-1796.138079 317.683654,-1796.229543 C 317.683654,-1796.229543 317.999244,-1796.617701 317.999244,-1796.617701 C 318.113386,-1796.758299 318.113386,-1796.954457 317.999244,-1797.094677 C 317.999244,-1797.094677 312.960756,-1803.288567 312.960756,-1803.288567 C 312.886299,-1803.380031 312.785008,-1803.428031 312.667465,-1803.428031 C 312.667465,-1803.428031 294.130772,-1803.428031 294.130772,-1803.428031 C 294.013228,-1803.428031 293.911937,-1803.380031 293.837480,-1803.288567 C 293.837480,-1803.288567 288.798992,-1797.094299 288.798992,-1797.094299 C 288.684850,-1796.954079 288.684850,-1796.757921 288.798614,-1796.617701 C 288.798614,-1796.617701 289.112693,-1796.230299 289.112693,-1796.230299 C 289.186772,-1796.138835 289.288441,-1796.090457 289.405984,-1796.090457 C 289.523906,-1796.090457 289.625197,-1796.138457 289.699654,-1796.229921 C 289.699654,-1796.229921 293.852220,-1801.337197 293.852220,-1801.337197 C 294.223370,-1801.793764 294.730205,-1802.034898 295.318677,-1802.034898 C 295.318677,-1802.034898 311.479559,-1802.034898 311.479559,-1802.034898 C 312.068031,-1802.034898 312.574866,-1801.793764 312.946016,-1801.337197 z"
           style="stroke:#333333;stroke-width:0.5;fill:none"
           id="path23" />
        <path
           d="M -522.329575,-1801.337197 C -522.329575,-1801.337197 -518.178520,-1796.229543 -518.178520,-1796.229543 C -518.104441,-1796.138079 -518.003150,-1796.090079 -517.885228,-1796.090079 C -517.767685,-1796.090079 -517.666394,-1796.138079 -517.591937,-1796.229543 C -517.591937,-1796.229543 -517.276346,-1796.617701 -517.276346,-1796.617701 C -517.162205,-1796.758299 -517.162205,-1796.954457 -517.276346,-1797.094677 C -517.276346,-1797.094677 -522.314835,-1803.288567 -522.314835,-1803.288567 C -522.389291,-1803.380031 -522.490583,-1803.428031 -522.608126,-1803.428031 C -522.608126,-1803.428031 -541.144819,-1803.428031 -541.144819,-1803.428031 C -541.262362,-1803.428031 -541.363654,-1803.380031 -541.438110,-1803.288567 C -541.438110,-1803.288567 -546.476598,-1797.094299 -546.476598,-1797.094299 C -546.590740,-1796.954079 -546.590740,-1796.757921 -546.476976,-1796.617701 C -546.476976,-1796.617701 -546.162898,-1796.230299 -546.162898,-1796.230299 C -546.088819,-1796.138835 -545.987150,-1796.090457 -545.869606,-1796.090457 C -545.751685,-1796.090457 -545.650394,-1796.138457 -545.575937,-1796.229921 C -545.575937,-1796.229921 -541.423370,-1801.337197 -541.423370,-1801.337197 C -541.052220,-1801.793764 -540.545386,-1802.034898 -539.956913,-1802.034898 C -539.956913,-1802.034898 -523.796031,-1802.034898 -523.796031,-1802.034898 C -523.207559,-1802.034898 -522.700724,-1801.793764 -522.329575,-1801.337197 z"
           style="stroke:#333333;stroke-width:0.5;fill:none"
           id="path25" />
        <path
           d="M -348.471307,-1706.849008 C -348.471307,-1706.849008 -344.320252,-1701.741354 -344.320252,-1701.741354 C -344.246173,-1701.649890 -344.144882,-1701.601890 -344.026961,-1701.601890 C -343.909417,-1701.601890 -343.808126,-1701.649890 -343.733669,-1701.741354 C -343.733669,-1701.741354 -343.418079,-1702.129512 -343.418079,-1702.129512 C -343.303937,-1702.270110 -343.303937,-1702.466268 -343.418079,-1702.606488 C -343.418079,-1702.606488 -348.456567,-1708.800378 -348.456567,-1708.800378 C -348.531024,-1708.891843 -348.632315,-1708.939843 -348.749858,-1708.939843 C -348.749858,-1708.939843 -367.286551,-1708.939843 -367.286551,-1708.939843 C -367.404094,-1708.939843 -367.505386,-1708.891843 -367.579843,-1708.800378 C -367.579843,-1708.800378 -372.618331,-1702.606110 -372.618331,-1702.606110 C -372.732472,-1702.465890 -372.732472,-1702.269732 -372.618709,-1702.129512 C -372.618709,-1702.129512 -372.304630,-1701.742110 -372.304630,-1701.742110 C -372.230551,-1701.650646 -372.128882,-1701.602268 -372.011339,-1701.602268 C -371.893417,-1701.602268 -371.792126,-1701.650268 -371.717669,-1701.741732 C -371.717669,-1701.741732 -367.565102,-1706.849008 -367.565102,-1706.849008 C -367.193953,-1707.305575 -366.687118,-1707.546709 -366.098646,-1707.546709 C -366.098646,-1707.546709 -349.937764,-1707.546709 -349.937764,-1707.546709 C -349.349291,-1707.546709 -348.842457,-1707.305575 -348.471307,-1706.849008 z"
           style="stroke:#333333;stroke-width:0.5;fill:none"
           id="path27" />
        <path
           d="M -348.471307,-1801.337197 C -348.471307,-1801.337197 -344.320252,-1796.229543 -344.320252,-1796.229543 C -344.246173,-1796.138079 -344.144882,-1796.090079 -344.026961,-1796.090079 C -343.909417,-1796.090079 -343.808126,-1796.138079 -343.733669,-1796.229543 C -343.733669,-1796.229543 -343.418079,-1796.617701 -343.418079,-1796.617701 C -343.303937,-1796.758299 -343.303937,-1796.954457 -343.418079,-1797.094677 C -343.418079,-1797.094677 -348.456567,-1803.288567 -348.456567,-1803.288567 C -348.531024,-1803.380031 -348.632315,-1803.428031 -348.749858,-1803.428031 C -348.749858,-1803.428031 -367.286551,-1803.428031 -367.286551,-1803.428031 C -367.404094,-1803.428031 -367.505386,-1803.380031 -367.579843,-1803.288567 C -367.579843,-1803.288567 -372.618331,-1797.094299 -372.618331,-1797.094299 C -372.732472,-1796.954079 -372.732472,-1796.757921 -372.618709,-1796.617701 C -372.618709,-1796.617701 -372.304630,-1796.230299 -372.304630,-1796.230299 C -372.230551,-1796.138835 -372.128882,-1796.090457 -372.011339,-1796.090457 C -371.893417,-1796.090457 -371.792126,-1796.138457 -371.717669,-1796.229921 C -371.717669,-1796.229921 -367.565102,-1801.337197 -367.565102,-1801.337197 C -367.193953,-1801.793764 -366.687118,-1802.034898 -366.098646,-1802.034898 C -366.098646,-1802.034898 -349.937764,-1802.034898 -349.937764,-1802.034898 C -349.349291,-1802.034898 -348.842457,-1801.793764 -348.471307,-1801.337197 z"
           style="stroke:#333333;stroke-width:0.5;fill:none"
           id="path29" />
        <path
           d="M -522.329575,-1706.849008 C -522.329575,-1706.849008 -518.178520,-1701.741354 -518.178520,-1701.741354 C -518.104441,-1701.649890 -518.003150,-1701.601890 -517.885228,-1701.601890 C -517.767685,-1701.601890 -517.666394,-1701.649890 -517.591937,-1701.741354 C -517.591937,-1701.741354 -517.276346,-1702.129512 -517.276346,-1702.129512 C -517.162205,-1702.270110 -517.162205,-1702.466268 -517.276346,-1702.606488 C -517.276346,-1702.606488 -522.314835,-1708.800378 -522.314835,-1708.800378 C -522.389291,-1708.891843 -522.490583,-1708.939843 -522.608126,-1708.939843 C -522.608126,-1708.939843 -541.144819,-1708.939843 -541.144819,-1708.939843 C -541.262362,-1708.939843 -541.363654,-1708.891843 -541.438110,-1708.800378 C -541.438110,-1708.800378 -546.476598,-1702.606110 -546.476598,-1702.606110 C -546.590740,-1702.465890 -546.590740,-1702.269732 -546.476976,-1702.129512 C -546.476976,-1702.129512 -546.162898,-1701.742110 -546.162898,-1701.742110 C -546.088819,-1701.650646 -545.987150,-1701.602268 -545.869606,-1701.602268 C -545.751685,-1701.602268 -545.650394,-1701.650268 -545.575937,-1701.741732 C -545.575937,-1701.741732 -541.423370,-1706.849008 -541.423370,-1706.849008 C -541.052220,-1707.305575 -540.545386,-1707.546709 -539.956913,-1707.546709 C -539.956913,-1707.546709 -523.796031,-1707.546709 -523.796031,-1707.546709 C -523.207559,-1707.546709 -522.700724,-1707.305575 -522.329575,-1706.849008 z"
           style="stroke:#333333;stroke-width:0.5;fill:none"
           id="path31" />
        <path
           d="M 127.749165,-1801.337197 C 127.749165,-1801.337197 131.900220,-1796.229543 131.900220,-1796.229543 C 131.974299,-1796.138079 132.075591,-1796.090079 132.193512,-1796.090079 C 132.311055,-1796.090079 132.412346,-1796.138079 132.486803,-1796.229543 C 132.486803,-1796.229543 132.802394,-1796.617701 132.802394,-1796.617701 C 132.916535,-1796.758299 132.916535,-1796.954457 132.802394,-1797.094677 C 132.802394,-1797.094677 127.763906,-1803.288567 127.763906,-1803.288567 C 127.689449,-1803.380031 127.588157,-1803.428031 127.470614,-1803.428031 C 127.470614,-1803.428031 108.933921,-1803.428031 108.933921,-1803.428031 C 108.816378,-1803.428031 108.715087,-1803.380031 108.640630,-1803.288567 C 108.640630,-1803.288567 103.602142,-1797.094299 103.602142,-1797.094299 C 103.488000,-1796.954079 103.488000,-1796.757921 103.601764,-1796.617701 C 103.601764,-1796.617701 103.915843,-1796.230299 103.915843,-1796.230299 C 103.989921,-1796.138835 104.091591,-1796.090457 104.209134,-1796.090457 C 104.327055,-1796.090457 104.428346,-1796.138457 104.502803,-1796.229921 C 104.502803,-1796.229921 108.655370,-1801.337197 108.655370,-1801.337197 C 109.026520,-1801.793764 109.533354,-1802.034898 110.121827,-1802.034898 C 110.121827,-1802.034898 126.282709,-1802.034898 126.282709,-1802.034898 C 126.871181,-1802.034898 127.378016,-1801.793764 127.749165,-1801.337197 z"
           style="stroke:#333333;stroke-width:0.5;fill:none"
           id="path33" />
        <path
           d="M -46.109102,-1801.337197 C -46.109102,-1801.337197 -41.958047,-1796.229543 -41.958047,-1796.229543 C -41.883969,-1796.138079 -41.782677,-1796.090079 -41.664756,-1796.090079 C -41.547213,-1796.090079 -41.445921,-1796.138079 -41.371465,-1796.229543 C -41.371465,-1796.229543 -41.055874,-1796.617701 -41.055874,-1796.617701 C -40.941732,-1796.758299 -40.941732,-1796.954457 -41.055874,-1797.094677 C -41.055874,-1797.094677 -46.094362,-1803.288567 -46.094362,-1803.288567 C -46.168819,-1803.380031 -46.270110,-1803.428031 -46.387654,-1803.428031 C -46.387654,-1803.428031 -64.924346,-1803.428031 -64.924346,-1803.428031 C -65.041890,-1803.428031 -65.143181,-1803.380031 -65.217638,-1803.288567 C -65.217638,-1803.288567 -70.256126,-1797.094299 -70.256126,-1797.094299 C -70.370268,-1796.954079 -70.370268,-1796.757921 -70.256504,-1796.617701 C -70.256504,-1796.617701 -69.942425,-1796.230299 -69.942425,-1796.230299 C -69.868346,-1796.138835 -69.766677,-1796.090457 -69.649134,-1796.090457 C -69.531213,-1796.090457 -69.429921,-1796.138457 -69.355465,-1796.229921 C -69.355465,-1796.229921 -65.202898,-1801.337197 -65.202898,-1801.337197 C -64.831748,-1801.793764 -64.324913,-1802.034898 -63.736441,-1802.034898 C -63.736441,-1802.034898 -47.575559,-1802.034898 -47.575559,-1802.034898 C -46.987087,-1802.034898 -46.480252,-1801.793764 -46.109102,-1801.337197 z"
           style="stroke:#333333;stroke-width:0.5;fill:none"
           id="path35" />
        <path
           d="M -197.290205,-1801.337197 C -197.290205,-1801.337197 -193.139150,-1796.229543 -193.139150,-1796.229543 C -193.065071,-1796.138079 -192.963780,-1796.090079 -192.845858,-1796.090079 C -192.728315,-1796.090079 -192.627024,-1796.138079 -192.552567,-1796.229543 C -192.552567,-1796.229543 -192.236976,-1796.617701 -192.236976,-1796.617701 C -192.122835,-1796.758299 -192.122835,-1796.954457 -192.236976,-1797.094677 C -192.236976,-1797.094677 -197.275465,-1803.288567 -197.275465,-1803.288567 C -197.349921,-1803.380031 -197.451213,-1803.428031 -197.568756,-1803.428031 C -197.568756,-1803.428031 -216.105449,-1803.428031 -216.105449,-1803.428031 C -216.222992,-1803.428031 -216.324283,-1803.380031 -216.398740,-1803.288567 C -216.398740,-1803.288567 -221.437228,-1797.094299 -221.437228,-1797.094299 C -221.551370,-1796.954079 -221.551370,-1796.757921 -221.437606,-1796.617701 C -221.437606,-1796.617701 -221.123528,-1796.230299 -221.123528,-1796.230299 C -221.049449,-1796.138835 -220.947780,-1796.090457 -220.830236,-1796.090457 C -220.712315,-1796.090457 -220.611024,-1796.138457 -220.536567,-1796.229921 C -220.536567,-1796.229921 -216.384000,-1801.337197 -216.384000,-1801.337197 C -216.012850,-1801.793764 -215.506016,-1802.034898 -214.917543,-1802.034898 C -214.917543,-1802.034898 -198.756661,-1802.034898 -198.756661,-1802.034898 C -198.168189,-1802.034898 -197.661354,-1801.793764 -197.290205,-1801.337197 z"
           style="stroke:#333333;stroke-width:0.5;fill:none"
           id="path37" />
        <path
           d="M 312.946016,-1706.849008 C 312.946016,-1706.849008 317.097071,-1701.741354 317.097071,-1701.741354 C 317.171150,-1701.649890 317.272441,-1701.601890 317.390362,-1701.601890 C 317.507906,-1701.601890 317.609197,-1701.649890 317.683654,-1701.741354 C 317.683654,-1701.741354 317.999244,-1702.129512 317.999244,-1702.129512 C 318.113386,-1702.270110 318.113386,-1702.466268 317.999244,-1702.606488 C 317.999244,-1702.606488 312.960756,-1708.800378 312.960756,-1708.800378 C 312.886299,-1708.891843 312.785008,-1708.939843 312.667465,-1708.939843 C 312.667465,-1708.939843 294.130772,-1708.939843 294.130772,-1708.939843 C 294.013228,-1708.939843 293.911937,-1708.891843 293.837480,-1708.800378 C 293.837480,-1708.800378 288.798992,-1702.606110 288.798992,-1702.606110 C 288.684850,-1702.465890 288.684850,-1702.269732 288.798614,-1702.129512 C 288.798614,-1702.129512 289.112693,-1701.742110 289.112693,-1701.742110 C 289.186772,-1701.650646 289.288441,-1701.602268 289.405984,-1701.602268 C 289.523906,-1701.602268 289.625197,-1701.650268 289.699654,-1701.741732 C 289.699654,-1701.741732 293.852220,-1706.849008 293.852220,-1706.849008 C 294.223370,-1707.305575 294.730205,-1707.546709 295.318677,-1707.546709 C 295.318677,-1707.546709 311.479559,-1707.546709 311.479559,-1707.546709 C 312.068031,-1707.546709 312.574866,-1707.305575 312.946016,-1706.849008 z"
           style="stroke:#333333;stroke-width:0.5;fill:none"
           id="path39" />
        <path
           d="M 127.749165,-1706.849008 C 127.749165,-1706.849008 131.900220,-1701.741354 131.900220,-1701.741354 C 131.974299,-1701.649890 132.075591,-1701.601890 132.193512,-1701.601890 C 132.311055,-1701.601890 132.412346,-1701.649890 132.486803,-1701.741354 C 132.486803,-1701.741354 132.802394,-1702.129512 132.802394,-1702.129512 C 132.916535,-1702.270110 132.916535,-1702.466268 132.802394,-1702.606488 C 132.802394,-1702.606488 127.763906,-1708.800378 127.763906,-1708.800378 C 127.689449,-1708.891843 127.588157,-1708.939843 127.470614,-1708.939843 C 127.470614,-1708.939843 108.933921,-1708.939843 108.933921,-1708.939843 C 108.816378,-1708.939843 108.715087,-1708.891843 108.640630,-1708.800378 C 108.640630,-1708.800378 103.602142,-1702.606110 103.602142,-1702.606110 C 103.488000,-1702.465890 103.488000,-1702.269732 103.601764,-1702.129512 C 103.601764,-1702.129512 103.915843,-1701.742110 103.915843,-1701.742110 C 103.989921,-1701.650646 104.091591,-1701.602268 104.209134,-1701.602268 C 104.327055,-1701.602268 104.428346,-1701.650268 104.502803,-1701.741732 C 104.502803,-1701.741732 108.655370,-1706.849008 108.655370,-1706.849008 C 109.026520,-1707.305575 109.533354,-1707.546709 110.121827,-1707.546709 C 110.121827,-1707.546709 126.282709,-1707.546709 126.282709,-1707.546709 C 126.871181,-1707.546709 127.378016,-1707.305575 127.749165,-1706.849008 z"
           style="stroke:#333333;stroke-width:0.5;fill:none"
           id="path41" />
        <path
           d="M -46.109102,-1706.849008 C -46.109102,-1706.849008 -41.958047,-1701.741354 -41.958047,-1701.741354 C -41.883969,-1701.649890 -41.782677,-1701.601890 -41.664756,-1701.601890 C -41.547213,-1701.601890 -41.445921,-1701.649890 -41.371465,-1701.741354 C -41.371465,-1701.741354 -41.055874,-1702.129512 -41.055874,-1702.129512 C -40.941732,-1702.270110 -40.941732,-1702.466268 -41.055874,-1702.606488 C -41.055874,-1702.606488 -46.094362,-1708.800378 -46.094362,-1708.800378 C -46.168819,-1708.891843 -46.270110,-1708.939843 -46.387654,-1708.939843 C -46.387654,-1708.939843 -64.924346,-1708.939843 -64.924346,-1708.939843 C -65.041890,-1708.939843 -65.143181,-1708.891843 -65.217638,-1708.800378 C -65.217638,-1708.800378 -70.256126,-1702.606110 -70.256126,-1702.606110 C -70.370268,-1702.465890 -70.370268,-1702.269732 -70.256504,-1702.129512 C -70.256504,-1702.129512 -69.942425,-1701.742110 -69.942425,-1701.742110 C -69.868346,-1701.650646 -69.766677,-1701.602268 -69.649134,-1701.602268 C -69.531213,-1701.602268 -69.429921,-1701.650268 -69.355465,-1701.741732 C -69.355465,-1701.741732 -65.202898,-1706.849008 -65.202898,-1706.849008 C -64.831748,-1707.305575 -64.324913,-1707.546709 -63.736441,-1707.546709 C -63.736441,-1707.546709 -47.575559,-1707.546709 -47.575559,-1707.546709 C -46.987087,-1707.546709 -46.480252,-1707.305575 -46.109102,-1706.849008 z"
           style="stroke:#333333;stroke-width:0.5;fill:none"
           id="path43" />
        <path
           d="M -197.290205,-1706.849008 C -197.290205,-1706.849008 -193.139150,-1701.741354 -193.139150,-1701.741354 C -193.065071,-1701.649890 -192.963780,-1701.601890 -192.845858,-1701.601890 C -192.728315,-1701.601890 -192.627024,-1701.649890 -192.552567,-1701.741354 C -192.552567,-1701.741354 -192.236976,-1702.129512 -192.236976,-1702.129512 C -192.122835,-1702.270110 -192.122835,-1702.466268 -192.236976,-1702.606488 C -192.236976,-1702.606488 -197.275465,-1708.800378 -197.275465,-1708.800378 C -197.349921,-1708.891843 -197.451213,-1708.939843 -197.568756,-1708.939843 C -197.568756,-1708.939843 -216.105449,-1708.939843 -216.105449,-1708.939843 C -216.222992,-1708.939843 -216.324283,-1708.891843 -216.398740,-1708.800378 C -216.398740,-1708.800378 -221.437228,-1702.606110 -221.437228,-1702.606110 C -221.551370,-1702.465890 -221.551370,-1702.269732 -221.437606,-1702.129512 C -221.437606,-1702.129512 -221.123528,-1701.742110 -221.123528,-1701.742110 C -221.049449,-1701.650646 -220.947780,-1701.602268 -220.830236,-1701.602268 C -220.712315,-1701.602268 -220.611024,-1701.650268 -220.536567,-1701.741732 C -220.536567,-1701.741732 -216.384000,-1706.849008 -216.384000,-1706.849008 C -216.012850,-1707.305575 -215.506016,-1707.546709 -214.917543,-1707.546709 C -214.917543,-1707.546709 -198.756661,-1707.546709 -198.756661,-1707.546709 C -198.168189,-1707.546709 -197.661354,-1707.305575 -197.290205,-1706.849008 z"
           style="stroke:#333333;stroke-width:0.5;fill:none"
           id="path45" />
        <path
           d="M -707.526425,-1706.849008 C -707.526425,-1706.849008 -703.375370,-1701.741354 -703.375370,-1701.741354 C -703.301291,-1701.649890 -703.200000,-1701.601890 -703.082079,-1701.601890 C -702.964535,-1701.601890 -702.863244,-1701.649890 -702.788787,-1701.741354 C -702.788787,-1701.741354 -702.473197,-1702.129512 -702.473197,-1702.129512 C -702.359055,-1702.270110 -702.359055,-1702.466268 -702.473197,-1702.606488 C -702.473197,-1702.606488 -707.511685,-1708.800378 -707.511685,-1708.800378 C -707.586142,-1708.891843 -707.687433,-1708.939843 -707.804976,-1708.939843 C -707.804976,-1708.939843 -726.341669,-1708.939843 -726.341669,-1708.939843 C -726.459213,-1708.939843 -726.560504,-1708.891843 -726.634961,-1708.800378 C -726.634961,-1708.800378 -731.673449,-1702.606110 -731.673449,-1702.606110 C -731.787591,-1702.465890 -731.787591,-1702.269732 -731.673827,-1702.129512 C -731.673827,-1702.129512 -731.359748,-1701.742110 -731.359748,-1701.742110 C -731.285669,-1701.650646 -731.184000,-1701.602268 -731.066457,-1701.602268 C -730.948535,-1701.602268 -730.847244,-1701.650268 -730.772787,-1701.741732 C -730.772787,-1701.741732 -726.620220,-1706.849008 -726.620220,-1706.849008 C -726.249071,-1707.305575 -725.742236,-1707.546709 -725.153764,-1707.546709 C -725.153764,-1707.546709 -708.992882,-1707.546709 -708.992882,-1707.546709 C -708.404409,-1707.546709 -707.897575,-1707.305575 -707.526425,-1706.849008 z"
           style="stroke:#333333;stroke-width:0.5;fill:none"
           id="path47" />
      </g>
      <g
         id="g965">
        <path
           d="M -489.825260,-958.406929 C -489.825260,-958.406929 -485.674205,-963.514583 -485.674205,-963.514583 C -485.600126,-963.606047 -485.498835,-963.654047 -485.380913,-963.654047 C -485.263370,-963.654047 -485.162079,-963.606047 -485.087622,-963.514583 C -485.087622,-963.514583 -484.772031,-963.126425 -484.772031,-963.126425 C -484.657890,-962.985827 -484.657890,-962.789669 -484.772031,-962.649449 C -484.772031,-962.649449 -489.810520,-956.455559 -489.810520,-956.455559 C -489.884976,-956.364094 -489.986268,-956.316094 -490.103811,-956.316094 C -490.103811,-956.316094 -508.640504,-956.316094 -508.640504,-956.316094 C -508.758047,-956.316094 -508.859339,-956.364094 -508.933795,-956.455559 C -508.933795,-956.455559 -513.972283,-962.649827 -513.972283,-962.649827 C -514.086425,-962.790047 -514.086425,-962.986205 -513.972661,-963.126425 C -513.972661,-963.126425 -513.658583,-963.513827 -513.658583,-963.513827 C -513.584504,-963.605291 -513.482835,-963.653669 -513.365291,-963.653669 C -513.247370,-963.653669 -513.146079,-963.605669 -513.071622,-963.514205 C -513.071622,-963.514205 -508.919055,-958.406929 -508.919055,-958.406929 C -508.547906,-957.950362 -508.041071,-957.709228 -507.452598,-957.709228 C -507.452598,-957.709228 -491.291717,-957.709228 -491.291717,-957.709228 C -490.703244,-957.709228 -490.196409,-957.950362 -489.825260,-958.406929 z"
           style="stroke:#333333;stroke-width:0.5;fill:none"
           id="path49" />
        <path
           d="M 95.245606,-958.406929 C 95.245606,-958.406929 99.396661,-963.514583 99.396661,-963.514583 C 99.470740,-963.606047 99.572031,-963.654047 99.689953,-963.654047 C 99.807496,-963.654047 99.908787,-963.606047 99.983244,-963.514583 C 99.983244,-963.514583 100.298835,-963.126425 100.298835,-963.126425 C 100.412976,-962.985827 100.412976,-962.789669 100.298835,-962.649449 C 100.298835,-962.649449 95.260346,-956.455559 95.260346,-956.455559 C 95.185890,-956.364094 95.084598,-956.316094 94.967055,-956.316094 C 94.967055,-956.316094 76.430362,-956.316094 76.430362,-956.316094 C 76.312819,-956.316094 76.211528,-956.364094 76.137071,-956.455559 C 76.137071,-956.455559 71.098583,-962.649827 71.098583,-962.649827 C 70.984441,-962.790047 70.984441,-962.986205 71.098205,-963.126425 C 71.098205,-963.126425 71.412283,-963.513827 71.412283,-963.513827 C 71.486362,-963.605291 71.588031,-963.653669 71.705575,-963.653669 C 71.823496,-963.653669 71.924787,-963.605669 71.999244,-963.514205 C 71.999244,-963.514205 76.151811,-958.406929 76.151811,-958.406929 C 76.522961,-957.950362 77.029795,-957.709228 77.618268,-957.709228 C 77.618268,-957.709228 93.779150,-957.709228 93.779150,-957.709228 C 94.367622,-957.709228 94.874457,-957.950362 95.245606,-958.406929 z"
           style="stroke:#333333;stroke-width:0.5;fill:none"
           id="path51" />
        <path
           d="M -343.557543,-958.406929 C -343.557543,-958.406929 -339.406488,-963.514583 -339.406488,-963.514583 C -339.332409,-963.606047 -339.231118,-963.654047 -339.113197,-963.654047 C -338.995654,-963.654047 -338.894362,-963.606047 -338.819906,-963.514583 C -338.819906,-963.514583 -338.504315,-963.126425 -338.504315,-963.126425 C -338.390173,-962.985827 -338.390173,-962.789669 -338.504315,-962.649449 C -338.504315,-962.649449 -343.542803,-956.455559 -343.542803,-956.455559 C -343.617260,-956.364094 -343.718551,-956.316094 -343.836094,-956.316094 C -343.836094,-956.316094 -362.372787,-956.316094 -362.372787,-956.316094 C -362.490331,-956.316094 -362.591622,-956.364094 -362.666079,-956.455559 C -362.666079,-956.455559 -367.704567,-962.649827 -367.704567,-962.649827 C -367.818709,-962.790047 -367.818709,-962.986205 -367.704945,-963.126425 C -367.704945,-963.126425 -367.390866,-963.513827 -367.390866,-963.513827 C -367.316787,-963.605291 -367.215118,-963.653669 -367.097575,-963.653669 C -366.979654,-963.653669 -366.878362,-963.605669 -366.803906,-963.514205 C -366.803906,-963.514205 -362.651339,-958.406929 -362.651339,-958.406929 C -362.280189,-957.950362 -361.773354,-957.709228 -361.184882,-957.709228 C -361.184882,-957.709228 -345.024000,-957.709228 -345.024000,-957.709228 C -344.435528,-957.709228 -343.928693,-957.950362 -343.557543,-958.406929 z"
           style="stroke:#333333;stroke-width:0.5;fill:none"
           id="path53" />
        <path
           d="M -197.289827,-958.406929 C -197.289827,-958.406929 -193.138772,-963.514583 -193.138772,-963.514583 C -193.064693,-963.606047 -192.963402,-963.654047 -192.845480,-963.654047 C -192.727937,-963.654047 -192.626646,-963.606047 -192.552189,-963.514583 C -192.552189,-963.514583 -192.236598,-963.126425 -192.236598,-963.126425 C -192.122457,-962.985827 -192.122457,-962.789669 -192.236598,-962.649449 C -192.236598,-962.649449 -197.275087,-956.455559 -197.275087,-956.455559 C -197.349543,-956.364094 -197.450835,-956.316094 -197.568378,-956.316094 C -197.568378,-956.316094 -216.105071,-956.316094 -216.105071,-956.316094 C -216.222614,-956.316094 -216.323906,-956.364094 -216.398362,-956.455559 C -216.398362,-956.455559 -221.436850,-962.649827 -221.436850,-962.649827 C -221.550992,-962.790047 -221.550992,-962.986205 -221.437228,-963.126425 C -221.437228,-963.126425 -221.123150,-963.513827 -221.123150,-963.513827 C -221.049071,-963.605291 -220.947402,-963.653669 -220.829858,-963.653669 C -220.711937,-963.653669 -220.610646,-963.605669 -220.536189,-963.514205 C -220.536189,-963.514205 -216.383622,-958.406929 -216.383622,-958.406929 C -216.012472,-957.950362 -215.505638,-957.709228 -214.917165,-957.709228 C -214.917165,-957.709228 -198.756283,-957.709228 -198.756283,-957.709228 C -198.167811,-957.709228 -197.660976,-957.950362 -197.289827,-958.406929 z"
           style="stroke:#333333;stroke-width:0.5;fill:none"
           id="path55" />
        <path
           d="M -51.022110,-958.406929 C -51.022110,-958.406929 -46.871055,-963.514583 -46.871055,-963.514583 C -46.796976,-963.606047 -46.695685,-963.654047 -46.577764,-963.654047 C -46.460220,-963.654047 -46.358929,-963.606047 -46.284472,-963.514583 C -46.284472,-963.514583 -45.968882,-963.126425 -45.968882,-963.126425 C -45.854740,-962.985827 -45.854740,-962.789669 -45.968882,-962.649449 C -45.968882,-962.649449 -51.007370,-956.455559 -51.007370,-956.455559 C -51.081827,-956.364094 -51.183118,-956.316094 -51.300661,-956.316094 C -51.300661,-956.316094 -69.837354,-956.316094 -69.837354,-956.316094 C -69.954898,-956.316094 -70.056189,-956.364094 -70.130646,-956.455559 C -70.130646,-956.455559 -75.169134,-962.649827 -75.169134,-962.649827 C -75.283276,-962.790047 -75.283276,-962.986205 -75.169512,-963.126425 C -75.169512,-963.126425 -74.855433,-963.513827 -74.855433,-963.513827 C -74.781354,-963.605291 -74.679685,-963.653669 -74.562142,-963.653669 C -74.444220,-963.653669 -74.342929,-963.605669 -74.268472,-963.514205 C -74.268472,-963.514205 -70.115906,-958.406929 -70.115906,-958.406929 C -69.744756,-957.950362 -69.237921,-957.709228 -68.649449,-957.709228 C -68.649449,-957.709228 -52.488567,-957.709228 -52.488567,-957.709228 C -51.900094,-957.709228 -51.393260,-957.950362 -51.022110,-958.406929 z"
           style="stroke:#333333;stroke-width:0.5;fill:none"
           id="path57" />
      </g>
    </g>
    <g
       id="g1095">
      <path
         id="path99"
         style="stroke:#333333;stroke-width:0.5;fill:none"
         d="M -188.751874,-633.101858 C -188.751874,-633.101858 -217.314898,-642.683717 -217.314898,-642.683717 C -217.661480,-642.800126 -218.032630,-642.659150 -218.215181,-642.342425 C -218.397354,-642.025323 -218.332346,-641.633386 -218.057197,-641.392630 C -212.504693,-636.523843 -210.124724,-628.639748 -212.627528,-621.177827 C -212.627528,-621.177827 -251.094803,-506.512630 -251.094803,-506.512630 C -254.424945,-496.587213 -265.096819,-491.278488 -275.022614,-494.608252 C -275.022614,-494.608252 -281.472000,-496.772031 -281.472000,-496.772031 C -281.866961,-496.904315 -282.296693,-496.690772 -282.428976,-496.295811 C -282.497386,-496.092094 -282.570331,-495.875150 -282.632693,-495.688441 C -282.733228,-495.389480 -282.645921,-495.076535 -282.405543,-494.872063 C -278.748094,-491.763780 -277.130079,-488.370898 -278.027339,-485.649638 C -278.824063,-483.273827 -281.476535,-481.628220 -285.399685,-481.075654 C -289.323969,-480.522709 -294.198425,-481.108157 -298.949291,-482.703874 C -303.700913,-484.298457 -307.941543,-486.770646 -310.738016,-489.578079 C -313.534110,-492.385134 -314.656630,-495.296882 -313.858394,-497.672315 C -312.935055,-500.385638 -309.598488,-502.116661 -304.804913,-502.391055 C -304.490079,-502.408819 -304.231559,-502.606110 -304.131402,-502.905071 C -304.131402,-502.905071 -303.928441,-503.510173 -303.928441,-503.510173 C -303.795780,-503.905134 -304.009701,-504.334866 -304.404661,-504.467150 C -304.404661,-504.467150 -310.853669,-506.630929 -310.853669,-506.630929 C -320.779465,-509.960693 -326.088945,-520.630677 -322.758803,-530.556094 C -322.758803,-530.556094 -284.291528,-645.221291 -284.291528,-645.221291 C -281.788346,-652.683213 -275.136000,-657.537260 -267.771213,-658.072441 C -267.406110,-658.098520 -267.117732,-658.372157 -267.072378,-658.734992 C -267.026268,-659.097827 -267.237921,-659.433827 -267.584126,-659.549858 C -267.584126,-659.549858 -296.144882,-669.131339 -296.144882,-669.131339 C -296.491465,-669.247748 -296.862614,-669.107150 -297.044787,-668.790047 C -297.227339,-668.473323 -297.162331,-668.081008 -296.887181,-667.840252 C -291.335433,-662.971843 -288.955843,-655.088126 -291.459402,-647.626583 C -291.459402,-647.626583 -327.522520,-540.128882 -327.522520,-540.128882 C -330.851906,-530.203087 -341.523024,-524.892094 -351.448063,-528.222614 C -351.448063,-528.222614 -357.897827,-530.385638 -357.897827,-530.385638 C -358.292787,-530.518299 -358.722520,-530.304378 -358.855181,-529.909417 C -358.923213,-529.706079 -358.996157,-529.489134 -359.058898,-529.302047 C -359.159055,-529.003465 -359.072126,-528.690142 -358.831370,-528.486047 C -355.173921,-525.377386 -353.556283,-521.984504 -354.453543,-519.263622 C -355.250268,-516.887811 -357.902362,-515.241827 -361.825890,-514.689260 C -365.749795,-514.136315 -370.624252,-514.722142 -375.376252,-516.315969 C -380.127496,-517.910551 -384.368126,-520.382740 -387.164220,-523.190173 C -389.960315,-525.997228 -391.083213,-528.908598 -390.285732,-531.284787 C -389.362016,-533.997354 -386.025071,-535.728756 -381.231496,-536.002772 C -380.916283,-536.020535 -380.658142,-536.217827 -380.557606,-536.516787 C -380.557606,-536.516787 -380.355024,-537.122268 -380.355024,-537.122268 C -380.222740,-537.516850 -380.436661,-537.946961 -380.831244,-538.079244 C -380.831244,-538.079244 -387.280630,-540.243024 -387.280630,-540.243024 C -397.206425,-543.572787 -402.517039,-554.245039 -399.186898,-564.170457 C -399.186898,-564.170457 -363.123780,-671.668157 -363.123780,-671.668157 C -360.620976,-679.130079 -353.967496,-683.983370 -346.601953,-684.518173 C -346.236850,-684.544630 -345.948472,-684.818268 -345.903118,-685.181102 C -345.857386,-685.543937 -346.069039,-685.879937 -346.415244,-685.995969 C -346.415244,-685.995969 -396.477732,-702.790677 -396.477732,-702.790677 C -396.824315,-702.907087 -397.195465,-702.766488 -397.378016,-702.449764 C -397.560567,-702.132661 -397.495559,-701.740346 -397.220409,-701.499591 C -391.667528,-696.630803 -389.287181,-688.746709 -391.790740,-681.284787 C -391.790740,-681.284787 -413.428535,-616.786016 -413.428535,-616.786016 C -416.757921,-606.860220 -427.430551,-601.549984 -437.356346,-604.880126 C -437.356346,-604.880126 -443.805732,-607.043906 -443.805732,-607.043906 C -444.200693,-607.176189 -444.630425,-606.962646 -444.762709,-606.567685 C -444.762709,-606.567685 -444.966425,-605.960315 -444.966425,-605.960315 C -445.066961,-605.660976 -444.980031,-605.348031 -444.739276,-605.143559 C -441.081449,-602.034898 -439.464189,-598.642394 -440.361449,-595.921134 C -441.158173,-593.544945 -443.810268,-591.899717 -447.733795,-591.346772 C -451.657701,-590.794205 -456.532157,-591.379276 -461.284157,-592.973858 C -466.035402,-594.568063 -470.275654,-597.040252 -473.071748,-599.847307 C -475.867843,-602.655118 -476.990740,-605.566866 -476.193638,-607.942299 C -475.269921,-610.654866 -471.932976,-612.386268 -467.139402,-612.660283 C -466.824189,-612.678425 -466.566047,-612.875339 -466.465512,-613.174677 C -466.465512,-613.174677 -466.262929,-613.780157 -466.262929,-613.780157 C -466.130646,-614.174362 -466.344567,-614.604850 -466.739150,-614.737134 C -466.739150,-614.737134 -473.188535,-616.900535 -473.188535,-616.900535 C -483.114331,-620.230677 -488.423055,-630.902173 -485.092913,-640.829102 C -485.092913,-640.829102 -463.455118,-705.326362 -463.455118,-705.326362 C -460.951559,-712.788661 -454.298835,-717.642709 -446.933669,-718.177512 C -446.568945,-718.203969 -446.280567,-718.477606 -446.234835,-718.840441 C -446.189480,-719.202898 -446.400378,-719.538898 -446.746961,-719.655307 C -446.746961,-719.655307 -539.807622,-750.874583 -539.807622,-750.874583 C -540.154205,-750.990992 -540.525732,-750.850016 -540.707528,-750.532913 C -540.890079,-750.215811 -540.825071,-749.824252 -540.549921,-749.583118 C -534.997795,-744.714709 -532.618583,-736.830992 -535.121386,-729.369071 C -535.121386,-729.369071 -539.929701,-715.036724 -539.929701,-715.036724 C -543.259465,-705.110929 -553.929827,-699.799937 -563.855244,-703.130079 C -563.855244,-703.130079 -570.305008,-705.293858 -570.305008,-705.293858 C -570.699969,-705.426142 -571.129323,-705.212220 -571.261984,-704.817260 C -571.330394,-704.613921 -571.402961,-704.396598 -571.465701,-704.209890 C -571.566236,-703.910929 -571.478929,-703.597984 -571.238551,-703.393512 C -567.581102,-700.284472 -565.963087,-696.892346 -566.861102,-694.171087 C -567.657827,-691.794898 -570.309543,-690.149669 -574.233449,-689.596724 C -578.157354,-689.043780 -583.031433,-689.628850 -587.783433,-691.223433 C -592.535055,-692.818016 -596.775685,-695.290205 -599.572157,-698.097638 C -602.367874,-700.905071 -603.490772,-703.817197 -602.693291,-706.192630 C -601.769197,-708.905197 -598.432630,-710.636598 -593.638677,-710.910236 C -593.323843,-710.928378 -593.065323,-711.125291 -592.965165,-711.424630 C -592.965165,-711.424630 -592.762205,-712.029732 -592.762205,-712.029732 C -592.629543,-712.424693 -592.843465,-712.854425 -593.238425,-712.986709 C -593.238425,-712.986709 -599.689701,-715.151244 -599.689701,-715.151244 C -609.615118,-718.481008 -614.923843,-729.152504 -611.594457,-739.078299 C -611.594457,-739.078299 -606.786142,-753.410646 -606.786142,-753.410646 C -604.282961,-760.872945 -597.629858,-765.726614 -590.264693,-766.261795 C -589.899969,-766.287874 -589.611969,-766.561890 -589.566236,-766.924346 C -589.520126,-767.286803 -589.731780,-767.623181 -590.077984,-767.739591 C -590.077984,-767.739591 -616.308283,-776.539087 -616.308283,-776.539087 C -622.889197,-778.746709 -629.635276,-777.377764 -634.835906,-772.779591 C -639.723213,-768.458079 -646.713827,-766.807559 -653.368063,-769.040126 C -653.368063,-769.040126 -760.865764,-805.102866 -760.865764,-805.102866 C -770.791559,-808.431118 -776.102551,-819.101102 -772.773165,-829.026898 C -772.773165,-829.026898 -748.730079,-900.695055 -748.730079,-900.695055 C -745.399937,-910.620472 -734.728441,-915.928819 -724.803780,-912.597921 C -724.803780,-912.597921 -617.306079,-876.534425 -617.306079,-876.534425 C -610.651465,-874.302614 -606.071055,-868.770142 -604.778457,-862.375559 C -603.403087,-855.571276 -598.847622,-850.410709 -592.266709,-848.203087 C -592.266709,-848.203087 -566.036409,-839.403213 -566.036409,-839.403213 C -565.690205,-839.287181 -565.318677,-839.427780 -565.136504,-839.744882 C -564.954331,-840.061606 -565.018961,-840.453543 -565.294110,-840.694677 C -570.846614,-845.563087 -573.226583,-853.447181 -570.723024,-860.909480 C -570.723024,-860.909480 -565.914709,-875.241827 -565.914709,-875.241827 C -562.584567,-885.167244 -551.914205,-890.478236 -541.988409,-887.148472 C -541.988409,-887.148472 -535.537134,-884.984315 -535.537134,-884.984315 C -535.142173,-884.851654 -534.712441,-885.065575 -534.580157,-885.460535 C -534.580157,-885.460535 -534.377197,-886.065638 -534.377197,-886.065638 C -534.276661,-886.364976 -534.363969,-886.677921 -534.604346,-886.882394 C -538.263307,-889.991811 -539.880189,-893.385071 -538.981795,-896.106331 C -538.185449,-898.481764 -535.533354,-900.127370 -531.610205,-900.681071 C -527.686299,-901.234016 -522.812598,-900.648567 -518.060598,-899.054740 C -513.308598,-897.460913 -509.067969,-894.988346 -506.271118,-892.180913 C -503.475024,-889.373480 -502.352126,-886.461732 -503.149606,-884.085543 C -504.074079,-881.373732 -507.410268,-879.643465 -512.203087,-879.369071 C -512.517921,-879.351307 -512.776063,-879.154016 -512.876598,-878.855055 C -512.939339,-878.667969 -513.011906,-878.451024 -513.080315,-878.247307 C -513.212976,-877.852724 -512.999055,-877.422992 -512.604094,-877.290331 C -512.604094,-877.290331 -506.154709,-875.126551 -506.154709,-875.126551 C -496.228913,-871.797165 -490.920189,-861.125669 -494.249953,-851.199874 C -494.249953,-851.199874 -499.058268,-836.867528 -499.058268,-836.867528 C -501.561827,-829.405984 -508.214173,-824.551937 -515.579339,-824.016756 C -515.944063,-823.990677 -516.232063,-823.717417 -516.277795,-823.354205 C -516.323906,-822.991748 -516.112630,-822.655370 -515.766047,-822.538961 C -515.766047,-822.538961 -422.705386,-791.319307 -422.705386,-791.319307 C -422.358803,-791.202898 -421.988031,-791.343874 -421.805858,-791.660220 C -421.623307,-791.977323 -421.688315,-792.369638 -421.963465,-792.610394 C -427.515591,-797.479181 -429.895181,-805.362898 -427.391622,-812.825197 C -427.391622,-812.825197 -405.754583,-877.322835 -405.754583,-877.322835 C -402.424441,-887.249764 -391.754079,-892.560756 -381.828283,-889.230992 C -381.828283,-889.230992 -375.378898,-887.067213 -375.378898,-887.067213 C -374.984315,-886.934929 -374.554205,-887.148850 -374.421543,-887.543433 C -374.421543,-887.543433 -374.218205,-888.148535 -374.218205,-888.148535 C -374.118047,-888.447874 -374.204976,-888.760819 -374.445354,-888.965291 C -378.103937,-892.074709 -379.721953,-895.468346 -378.822803,-898.188850 C -378.026079,-900.564661 -375.374362,-902.210268 -371.450457,-902.763591 C -367.527307,-903.316535 -362.653984,-902.731465 -357.902362,-901.137638 C -353.150362,-899.543811 -348.909354,-897.070866 -346.112504,-894.263811 C -343.316031,-891.456378 -342.192756,-888.544252 -342.990236,-886.168441 C -343.915465,-883.456630 -347.251654,-881.725984 -352.044472,-881.451969 C -352.359307,-881.434205 -352.617827,-881.236913 -352.717984,-880.937953 C -352.717984,-880.937953 -352.922079,-880.330583 -352.922079,-880.330583 C -353.054362,-879.935622 -352.840441,-879.505890 -352.445480,-879.373228 C -352.445480,-879.373228 -345.996094,-877.209827 -345.996094,-877.209827 C -336.070299,-873.880441 -330.759685,-863.207811 -334.089827,-853.282394 C -334.089827,-853.282394 -355.727622,-788.783622 -355.727622,-788.783622 C -358.230425,-781.321701 -364.884283,-776.468031 -372.249827,-775.933228 C -372.614551,-775.906772 -372.902929,-775.633134 -372.948661,-775.270299 C -372.994016,-774.907465 -372.782740,-774.571465 -372.436157,-774.455433 C -372.436157,-774.455433 -322.373669,-757.660724 -322.373669,-757.660724 C -322.027087,-757.544315 -321.655937,-757.684913 -321.473386,-758.001638 C -321.290835,-758.318740 -321.355843,-758.711055 -321.630992,-758.951811 C -327.183874,-763.820598 -329.564598,-771.704315 -327.060661,-779.166236 C -327.060661,-779.166236 -290.997921,-886.663559 -290.997921,-886.663559 C -287.668535,-896.589354 -276.996283,-901.899969 -267.070488,-898.570205 C -267.070488,-898.570205 -260.621102,-896.406425 -260.621102,-896.406425 C -260.226520,-896.274142 -259.796409,-896.488063 -259.663748,-896.882646 C -259.663748,-896.882646 -259.460409,-897.487748 -259.460409,-897.487748 C -259.360252,-897.787087 -259.447181,-898.100031 -259.687559,-898.304126 C -263.346142,-901.413543 -264.964157,-904.807181 -264.065008,-907.528063 C -263.268283,-909.904252 -260.616567,-911.549480 -256.693039,-912.102425 C -252.769890,-912.655748 -247.896189,-912.070299 -243.144567,-910.476850 C -238.392945,-908.882646 -234.151559,-906.410079 -231.354709,-903.602646 C -228.558236,-900.795591 -227.434961,-897.883087 -228.232441,-895.507654 C -229.157669,-892.795843 -232.494236,-891.065197 -237.286677,-890.791181 C -237.601512,-890.773417 -237.860031,-890.576126 -237.960189,-890.277165 C -238.022929,-890.090457 -238.095874,-889.873512 -238.163906,-889.669795 C -238.296567,-889.275213 -238.082646,-888.845480 -237.687685,-888.712819 C -237.687685,-888.712819 -231.237921,-886.548283 -231.237921,-886.548283 C -221.312504,-883.219276 -216.003402,-872.547402 -219.333543,-862.621984 C -219.333543,-862.621984 -255.396283,-755.124283 -255.396283,-755.124283 C -257.899465,-747.662740 -264.551811,-742.809071 -271.916598,-742.273890 C -272.281323,-742.247433 -272.569701,-741.973795 -272.615055,-741.611339 C -272.661165,-741.248504 -272.449890,-740.912504 -272.103307,-740.796094 C -272.103307,-740.796094 -243.542551,-731.214614 -243.542551,-731.214614 C -243.195969,-731.098205 -242.824819,-731.238803 -242.642646,-731.556283 C -242.460094,-731.873008 -242.525102,-732.264945 -242.800252,-732.506079 C -248.352378,-737.374488 -250.731591,-745.258205 -248.228031,-752.720126 C -248.228031,-752.720126 -209.760756,-867.385323 -209.760756,-867.385323 C -206.431370,-877.311118 -195.761008,-882.620220 -185.835213,-879.290457 C -185.835213,-879.290457 -179.386205,-877.126677 -179.386205,-877.126677 C -178.991244,-876.994394 -178.561512,-877.208315 -178.429228,-877.602898 C -178.429228,-877.602898 -178.225890,-878.208378 -178.225890,-878.208378 C -178.125732,-878.506961 -178.213039,-878.820283 -178.453417,-879.024378 C -182.112000,-882.134173 -183.729260,-885.527055 -182.829354,-888.248315 C -182.033386,-890.624504 -179.382047,-892.270110 -175.458898,-892.823055 C -171.534992,-893.376000 -166.661291,-892.790551 -161.909291,-891.196724 C -157.157291,-889.604787 -152.915906,-887.132220 -150.119433,-884.324787 C -147.323339,-881.517732 -146.199685,-878.605228 -146.997165,-876.229795 C -147.922394,-873.517984 -151.259339,-871.787339 -156.051402,-871.513323 C -156.366236,-871.495559 -156.624378,-871.298268 -156.724913,-870.999307 C -156.787276,-870.812598 -156.860220,-870.595654 -156.928630,-870.391937 C -157.060913,-869.997354 -156.847370,-869.567622 -156.452409,-869.434961 C -156.452409,-869.434961 -150.002646,-867.271181 -150.002646,-867.271181 C -140.077228,-863.941417 -134.766236,-853.271055 -138.095622,-843.345260 C -138.095622,-843.345260 -176.562898,-728.680063 -176.562898,-728.680063 C -179.066457,-721.218520 -185.719937,-716.364850 -193.085102,-715.829669 C -193.449827,-715.803591 -193.738205,-715.530331 -193.784315,-715.167118 C -193.829669,-714.804661 -193.618394,-714.468283 -193.271811,-714.351874 C -193.271811,-714.351874 -164.709165,-704.769638 -164.709165,-704.769638 C -164.362583,-704.653228 -163.991811,-704.793827 -163.809260,-705.110551 C -163.626709,-705.427654 -163.691717,-705.819969 -163.966866,-706.060724 C -169.519748,-710.929890 -171.900472,-718.813984 -169.396913,-726.275906 C -169.396913,-726.275906 -133.334551,-833.773228 -133.334551,-833.773228 C -130.004409,-843.699024 -119.332157,-849.008882 -109.406362,-845.679496 C -109.406362,-845.679496 -102.956598,-843.515717 -102.956598,-843.515717 C -102.562016,-843.383433 -102.132283,-843.597354 -101.999622,-843.991937 C -101.999622,-843.991937 -101.796661,-844.597417 -101.796661,-844.597417 C -101.696126,-844.896378 -101.783433,-845.209701 -102.023811,-845.413795 C -105.682772,-848.523213 -107.300031,-851.916472 -106.400882,-854.638110 C -105.604535,-857.013543 -102.953197,-858.659150 -99.029669,-859.212472 C -95.105386,-859.764661 -90.232063,-859.179969 -85.480441,-857.586520 C -80.728441,-855.992315 -76.487811,-853.519748 -73.691339,-850.711937 C -70.894110,-847.905638 -69.771591,-844.992756 -70.569071,-842.617323 C -71.493543,-839.905134 -74.830110,-838.174488 -79.622551,-837.900850 C -79.937386,-837.882709 -80.195906,-837.685417 -80.296063,-837.386835 C -80.358803,-837.199748 -80.431748,-836.982425 -80.499780,-836.779087 C -80.632441,-836.384126 -80.418520,-835.954394 -80.023559,-835.821732 C -80.023559,-835.821732 -73.574173,-833.658709 -73.574173,-833.658709 C -63.648756,-830.328945 -58.339654,-819.657071 -61.669417,-809.731276 C -61.669417,-809.731276 -97.732157,-702.234331 -97.732157,-702.234331 C -100.235339,-694.772409 -106.888063,-689.918362 -114.252850,-689.383559 C -114.617953,-689.357102 -114.905953,-689.083465 -114.951685,-688.721008 C -114.997795,-688.357795 -114.786142,-688.021795 -114.439937,-687.905764 C -114.439937,-687.905764 -64.378961,-671.111433 -64.378961,-671.111433 C -64.032378,-670.995402 -63.661228,-671.136000 -63.479055,-671.452724 C -63.296504,-671.769827 -63.361890,-672.161764 -63.637039,-672.402898 C -69.189165,-677.271307 -71.569512,-685.155780 -69.066331,-692.617701 C -69.066331,-692.617701 -47.428535,-757.116472 -47.428535,-757.116472 C -44.098394,-767.041890 -33.426142,-772.351748 -23.501102,-769.022740 C -23.501102,-769.022740 -17.051339,-766.858961 -17.051339,-766.858961 C -16.656756,-766.726677 -16.226646,-766.940598 -16.094362,-767.335181 C -16.094362,-767.335181 -15.891024,-767.940283 -15.891024,-767.940283 C -15.790488,-768.239622 -15.877795,-768.552567 -16.118173,-768.756661 C -19.776756,-771.866079 -21.394016,-775.260094 -20.495244,-777.980976 C -19.698520,-780.356787 -17.046803,-782.002394 -13.123276,-782.555339 C -9.200126,-783.107528 -4.326425,-782.523591 0.425575,-780.929386 C 5.177197,-779.335181 9.418205,-776.862614 12.214677,-774.054803 C 15.011150,-771.247748 16.134425,-768.336000 15.336567,-765.960189 C 14.411717,-763.248378 11.075528,-761.517732 6.283087,-761.243339 C 5.968252,-761.225197 5.709732,-761.028283 5.609575,-760.729323 C 5.546835,-760.542614 5.474268,-760.325669 5.405858,-760.122331 C 5.273575,-759.727370 5.487496,-759.297638 5.882079,-759.165354 C 5.882079,-759.165354 12.331843,-757.001575 12.331843,-757.001575 C 22.256882,-753.671433 27.567874,-742.999181 24.237732,-733.073386 C 24.237732,-733.073386 2.599937,-668.574992 2.599937,-668.574992 C 0.096378,-661.113071 -6.556724,-656.259780 -13.922268,-655.724976 C -14.286992,-655.698520 -14.575370,-655.424882 -14.621102,-655.062425 C -14.666835,-654.699591 -14.455559,-654.363213 -14.108976,-654.247181 C -14.108976,-654.247181 78.952063,-623.027150 78.952063,-623.027150 C 79.298646,-622.911118 79.669795,-623.052094 79.852346,-623.368819 C 80.034520,-623.685543 79.969512,-624.077480 79.694362,-624.318614 C 74.141858,-629.187402 71.761512,-637.071118 74.264693,-644.533417 C 74.264693,-644.533417 79.073008,-658.865764 79.073008,-658.865764 C 82.402772,-668.791181 93.076157,-674.101417 103.001197,-670.771654 C 103.001197,-670.771654 109.450205,-668.608252 109.450205,-668.608252 C 109.845165,-668.475969 110.274898,-668.689512 110.407181,-669.084472 C 110.407181,-669.084472 110.610142,-669.690331 110.610142,-669.690331 C 110.710299,-669.988913 110.623370,-670.302236 110.382992,-670.506331 C 106.724787,-673.615370 105.107150,-677.009008 106.005921,-679.730268 C 106.802646,-682.106457 109.454740,-683.751685 113.377890,-684.305008 C 117.301039,-684.857575 122.175118,-684.272882 126.927118,-682.678677 C 131.679118,-681.084850 135.919748,-678.612283 138.716220,-675.804472 C 141.512315,-672.997039 142.635969,-670.085669 141.838866,-667.709480 C 140.913638,-664.997669 137.577071,-663.267402 132.784252,-662.992630 C 132.469795,-662.974866 132.211654,-662.777575 132.111118,-662.478614 C 132.111118,-662.478614 131.907780,-661.871622 131.907780,-661.871622 C 131.775118,-661.476661 131.989039,-661.046929 132.384000,-660.914646 C 132.384000,-660.914646 138.833386,-658.750866 138.833386,-658.750866 C 148.758803,-655.420724 154.069039,-644.748472 150.739654,-634.823055 C 150.739654,-634.823055 145.930961,-620.490709 145.930961,-620.490709 C 143.428157,-613.028787 136.774299,-608.175118 129.408756,-607.640315 C 129.044031,-607.613858 128.755654,-607.339843 128.709921,-606.977386 C 128.664567,-606.614551 128.875843,-606.278551 129.222047,-606.162520 C 129.222047,-606.162520 155.453102,-597.363024 155.453102,-597.363024 C 162.034016,-595.155402 168.780472,-596.523969 173.980724,-601.122520 C 178.867654,-605.443654 185.857512,-607.094551 192.511748,-604.861984 C 192.511748,-604.861984 300.010205,-568.799244 300.010205,-568.799244 C 309.936378,-565.469102 315.245480,-554.798740 311.915717,-544.873701 C 311.915717,-544.873701 287.872630,-473.205543 287.872630,-473.205543 C 284.542866,-463.280126 273.872882,-457.970646 263.947087,-461.300409 C 263.947087,-461.300409 156.448630,-497.363906 156.448630,-497.363906 C 149.794016,-499.596094 145.214362,-505.128189 143.922142,-511.522394 C 142.547150,-518.326677 137.991307,-523.487244 131.410016,-525.694866 C 131.410016,-525.694866 105.179339,-534.495118 105.179339,-534.495118 C 104.833134,-534.611150 104.461984,-534.470551 104.279433,-534.153827 C 104.097260,-533.837102 104.161890,-533.444787 104.437039,-533.203654 C 109.989921,-528.334866 112.370268,-520.450772 109.866709,-512.989228 C 109.866709,-512.989228 105.058772,-498.656126 105.058772,-498.656126 C 101.729008,-488.731087 91.056756,-483.420472 81.130961,-486.749858 C 81.130961,-486.749858 74.681575,-488.913638 74.681575,-488.913638 C 74.286614,-489.045921 73.856882,-488.832378 73.724598,-488.437417 C 73.724598,-488.437417 73.520882,-487.830425 73.520882,-487.830425 C 73.420724,-487.531465 73.507654,-487.218520 73.747654,-487.014425 C 77.405102,-483.905008 79.023118,-480.512504 78.125858,-477.791244 C 77.328756,-475.415433 74.676661,-473.770205 70.753134,-473.217260 C 66.829228,-472.663937 61.955150,-473.249008 57.203150,-474.843591 C 52.451150,-476.437795 48.210898,-478.910740 45.414803,-481.717795 C 42.619087,-484.524850 41.495811,-487.436976 42.293291,-489.812409 C 43.217008,-492.525354 46.554331,-494.256756 51.347528,-494.530772 C 51.661984,-494.548535 51.920504,-494.745827 52.020661,-495.044787 C 52.020661,-495.044787 52.224378,-495.650268 52.224378,-495.650268 C 52.356661,-496.045228 52.142740,-496.474961 51.748157,-496.607244 C 51.748157,-496.607244 45.298772,-498.770646 45.298772,-498.770646 C 35.373732,-502.100409 30.062362,-512.773039 33.392126,-522.698835 C 33.392126,-522.698835 38.200441,-537.031181 38.200441,-537.031181 C 40.703622,-544.493102 47.357102,-549.346394 54.722646,-549.881197 C 55.087370,-549.907654 55.375748,-550.181291 55.421102,-550.544126 C 55.466835,-550.906583 55.255937,-551.242961 54.909354,-551.358992 C 54.909354,-551.358992 -38.152063,-582.579024 -38.152063,-582.579024 C -38.498646,-582.695055 -38.869795,-582.554457 -39.051969,-582.237354 C -39.234520,-581.920630 -39.169512,-581.528693 -38.894362,-581.287559 C -33.341480,-576.418772 -30.961134,-568.535055 -33.464693,-561.073134 C -33.464693,-561.073134 -55.101732,-496.574362 -55.101732,-496.574362 C -58.431874,-486.648945 -69.104504,-481.338331 -79.029921,-484.667717 C -79.029921,-484.667717 -85.479307,-486.831496 -85.479307,-486.831496 C -85.874268,-486.963780 -86.304000,-486.750236 -86.436283,-486.355276 C -86.504693,-486.151559 -86.577260,-485.934992 -86.640000,-485.748283 C -86.740157,-485.449323 -86.653228,-485.136378 -86.412850,-484.931906 C -82.755402,-481.822866 -81.137764,-478.430362 -82.035402,-475.709480 C -82.832126,-473.332913 -85.483843,-471.688063 -89.407748,-471.135118 C -93.331654,-470.582173 -98.205732,-471.167244 -102.957732,-472.761449 C -107.709354,-474.355654 -111.949228,-476.828976 -114.745701,-479.635276 C -117.541795,-482.442709 -118.664693,-485.354457 -117.867591,-487.730268 C -116.943496,-490.442835 -113.606551,-492.174614 -108.812976,-492.448252 C -108.498142,-492.466394 -108.239622,-492.663685 -108.139465,-492.962646 C -108.139465,-492.962646 -107.936882,-493.568126 -107.936882,-493.568126 C -107.804220,-493.962709 -108.018520,-494.392819 -108.413102,-494.525102 C -108.413102,-494.525102 -114.862488,-496.688882 -114.862488,-496.688882 C -124.787528,-500.018646 -130.098142,-510.690898 -126.768756,-520.616693 C -126.768756,-520.616693 -105.130961,-585.115465 -105.130961,-585.115465 C -102.627402,-592.577008 -95.973921,-597.430677 -88.608756,-597.965480 C -88.244031,-597.991937 -87.955276,-598.265575 -87.909543,-598.628409 C -87.864189,-598.991244 -88.075465,-599.327244 -88.422047,-599.443276 C -88.422047,-599.443276 -138.482646,-616.237606 -138.482646,-616.237606 C -138.829228,-616.353638 -139.200378,-616.213417 -139.382551,-615.895937 C -139.565102,-615.579213 -139.500094,-615.187276 -139.224945,-614.946142 C -133.672819,-610.077732 -131.293606,-602.193638 -133.796787,-594.732094 C -133.796787,-594.732094 -169.859528,-487.234772 -169.859528,-487.234772 C -173.189291,-477.308976 -183.860031,-471.998362 -193.785449,-475.327748 C -193.785449,-475.327748 -200.234835,-477.491906 -200.234835,-477.491906 C -200.629795,-477.624189 -201.059528,-477.410646 -201.191811,-477.015685 C -201.260220,-476.811969 -201.333165,-476.595024 -201.395906,-476.407937 C -201.496063,-476.108976 -201.408756,-475.796031 -201.168378,-475.591937 C -197.510929,-472.483276 -195.893291,-469.090394 -196.791307,-466.369512 C -197.587654,-463.993701 -200.239748,-462.346961 -204.163654,-461.795528 C -208.087559,-461.242583 -212.961638,-461.827654 -217.713260,-463.421480 C -222.464882,-465.016063 -226.704756,-467.489008 -229.501984,-470.295685 C -232.297701,-473.103496 -233.420220,-476.014866 -232.623118,-478.390299 C -231.699024,-481.103244 -228.362835,-482.834646 -223.568504,-483.108661 C -223.253669,-483.126425 -222.995528,-483.323717 -222.894992,-483.622677 C -222.894992,-483.622677 -222.692031,-484.228157 -222.692031,-484.228157 C -222.559370,-484.622740 -222.773291,-485.052472 -223.168252,-485.185134 C -223.168252,-485.185134 -229.617638,-487.348913 -229.617638,-487.348913 C -239.543433,-490.679055 -244.854047,-501.350929 -241.524283,-511.276724 C -241.524283,-511.276724 -205.461165,-618.773669 -205.461165,-618.773669 C -202.958362,-626.235969 -196.304504,-631.089260 -188.938583,-631.624441 C -188.573858,-631.650520 -188.285480,-631.924157 -188.239748,-632.287370 C -188.194394,-632.649827 -188.405291,-632.985827 -188.751874,-633.101858 z" />
      <path
         id="path101"
         style="stroke:#333333;stroke-width:0.5;fill:none"
         d="M -747.666520,-832.566047 C -748.328693,-830.592378 -747.259087,-828.442205 -745.285417,-827.780031 C -745.285417,-827.780031 -741.702047,-826.578142 -741.702047,-826.578142 C -739.728378,-825.915969 -737.578961,-826.986331 -736.917165,-828.959244 C -736.917165,-828.959244 -720.087685,-879.124913 -720.087685,-879.124913 C -719.425890,-881.097827 -720.494740,-883.248000 -722.468409,-883.910173 C -722.468409,-883.910173 -726.051780,-885.112441 -726.051780,-885.112441 C -728.025449,-885.774614 -730.175244,-884.704630 -730.837417,-882.730961 C -730.837417,-882.730961 -747.666520,-832.566047 -747.666520,-832.566047 z" />
      <path
         id="path103"
         style="stroke:#333333;stroke-width:0.5;fill:none"
         d="M -719.000693,-822.948661 C -719.662866,-820.974992 -718.592504,-818.825953 -716.619213,-818.163780 C -716.619213,-818.163780 -713.035843,-816.961134 -713.035843,-816.961134 C -711.062551,-816.298583 -708.912378,-817.369701 -708.250583,-819.342614 C -708.250583,-819.342614 -691.421102,-869.507528 -691.421102,-869.507528 C -690.759307,-871.480819 -691.828535,-873.631748 -693.802205,-874.293543 C -693.802205,-874.293543 -697.385575,-875.495055 -697.385575,-875.495055 C -699.359622,-876.156850 -701.509039,-875.088000 -702.171213,-873.114331 C -702.171213,-873.114331 -719.000693,-822.948661 -719.000693,-822.948661 z" />
      <path
         id="path105"
         style="stroke:#333333;stroke-width:0.5;fill:none"
         d="M -690.334110,-813.332031 C -690.996283,-811.358362 -689.927055,-809.208567 -687.953008,-808.546394 C -687.953008,-808.546394 -684.369638,-807.344504 -684.369638,-807.344504 C -682.395969,-806.682331 -680.246173,-807.752693 -679.584378,-809.725606 C -679.584378,-809.725606 -662.754898,-859.891276 -662.754898,-859.891276 C -662.093102,-861.864189 -663.162709,-864.014362 -665.136378,-864.676535 C -665.136378,-864.676535 -668.719370,-865.878803 -668.719370,-865.878803 C -670.693417,-866.540976 -672.842835,-865.471370 -673.505008,-863.497701 C -673.505008,-863.497701 -690.334110,-813.332031 -690.334110,-813.332031 z" />
      <path
         id="path107"
         style="stroke:#333333;stroke-width:0.5;fill:none"
         d="M -661.668661,-803.715024 C -662.330457,-801.741732 -661.260850,-799.592315 -659.287181,-798.930142 C -659.287181,-798.930142 -655.703433,-797.727874 -655.703433,-797.727874 C -653.729764,-797.065701 -651.579969,-798.136441 -650.918173,-800.108598 C -650.918173,-800.108598 -634.089071,-850.274646 -634.089071,-850.274646 C -633.427276,-852.246803 -634.496504,-854.397354 -636.470173,-855.059528 C -636.470173,-855.059528 -640.053921,-856.261795 -640.053921,-856.261795 C -642.027591,-856.923969 -644.177008,-855.854362 -644.839181,-853.881071 C -644.839181,-853.881071 -661.668661,-803.715024 -661.668661,-803.715024 z" />
      <path
         id="path109"
         style="stroke:#333333;stroke-width:0.5;fill:none"
         d="M 173.231622,-523.625953 C 172.569827,-521.652661 173.639433,-519.503244 175.612724,-518.841071 C 175.612724,-518.841071 179.196094,-517.638425 179.196094,-517.638425 C 181.169764,-516.975874 183.319559,-518.046236 183.981732,-520.019528 C 183.981732,-520.019528 200.810835,-570.185197 200.810835,-570.185197 C 201.473008,-572.158488 200.403402,-574.309039 198.429732,-574.970835 C 198.429732,-574.970835 194.845984,-576.172724 194.845984,-576.172724 C 192.872693,-576.834142 190.723276,-575.764913 190.061102,-573.791622 C 190.061102,-573.791622 173.231622,-523.625953 173.231622,-523.625953 z" />
      <path
         id="path111"
         style="stroke:#333333;stroke-width:0.5;fill:none"
         d="M 201.897827,-514.009323 C 201.236031,-512.035654 202.306016,-509.886236 204.279685,-509.224063 C 204.279685,-509.224063 207.862299,-508.022173 207.862299,-508.022173 C 209.835969,-507.360000 211.985764,-508.429984 212.647937,-510.403276 C 212.647937,-510.403276 229.477039,-560.568189 229.477039,-560.568189 C 230.138835,-562.541480 229.069606,-564.691276 227.095937,-565.353449 C 227.095937,-565.353449 223.512945,-566.555339 223.512945,-566.555339 C 221.539276,-567.217512 219.389102,-566.148283 218.727307,-564.174614 C 218.727307,-564.174614 201.897827,-514.009323 201.897827,-514.009323 z" />
      <path
         id="path113"
         style="stroke:#333333;stroke-width:0.5;fill:none"
         d="M 230.564031,-504.392315 C 229.901858,-502.418646 230.971465,-500.269228 232.945134,-499.607055 C 232.945134,-499.607055 236.528504,-498.404787 236.528504,-498.404787 C 238.502173,-497.742614 240.651969,-498.812598 241.313764,-500.785890 C 241.313764,-500.785890 258.143244,-550.951559 258.143244,-550.951559 C 258.805039,-552.924850 257.735811,-555.075024 255.762142,-555.737197 C 255.762142,-555.737197 252.178772,-556.939087 252.178772,-556.939087 C 250.205102,-557.601260 248.055685,-556.531654 247.393512,-554.557984 C 247.393512,-554.557984 230.564031,-504.392315 230.564031,-504.392315 z" />
      <path
         id="path115"
         style="stroke:#333333;stroke-width:0.5;fill:none"
         d="M 259.229858,-494.775307 C 258.568063,-492.802016 259.637669,-490.652598 261.610961,-489.990425 C 261.610961,-489.990425 265.193953,-488.787780 265.193953,-488.787780 C 267.167622,-488.125228 269.317795,-489.195591 269.979591,-491.168882 C 269.979591,-491.168882 286.809449,-541.335307 286.809449,-541.335307 C 287.471244,-543.308598 286.401638,-545.459150 284.427969,-546.120945 C 284.427969,-546.120945 280.844598,-547.322457 280.844598,-547.322457 C 278.870929,-547.984252 276.721512,-546.915024 276.059717,-544.941732 C 276.059717,-544.941732 259.229858,-494.775307 259.229858,-494.775307 z" />
    </g>
    <path
       d="m 437.3159,-846.31181 c -21.5142,34.10683 -50.3403,63.00661 -84.3927,84.60737 -0.3417,0.21694 -0.4524,0.66444 -0.2502,1.01518 0,0 0.081,0.14135 0.081,0.14135 0.1572,0.27289 0.4486,0.415 0.7604,0.37115 4.2516,-0.60018 7.4839,0.33109 8.7791,2.54892 2.3497,4.06677 -2.3407,11.17228 -10.4765,15.86948 -8.1354,4.69757 -16.6348,5.20705 -18.9827,1.13877 -1.2748,-2.23106 -0.4641,-5.49694 2.1823,-8.88 0.1939,-0.24756 0.2166,-0.57071 0.06,-0.84321 0,0 -0.1705,-0.29556 -0.1705,-0.29556 -0.2026,-0.3515 -0.6463,-0.48 -1.0057,-0.29178 -35.69691,18.71357 -75.10642,29.26601 -115.3788,30.89083 -0.40517,0.0163 -0.72529,0.34961 -0.72529,0.75515 0,0 0,0.36624 0,0.36624 0,0.31483 0.18142,0.58318 0.4732,0.7011 3.98248,1.60706 6.31596,4.03049 6.32768,6.59943 3.8e-4,4.69682 -7.61423,8.5047 -17.00863,8.5047 -9.39401,-3.8e-4 -17.00901,-3.8075 -17.00825,-8.50432 0.0147,-2.5697 2.34595,-4.99313 6.32957,-6.59943 0.29178,-0.11754 0.47282,-0.38589 0.4732,-0.70072 0,0 3.8e-4,-0.47887 3.8e-4,-0.47887 3.8e-4,-0.40592 -0.31975,-0.73928 -0.72529,-0.75553 -40.10873,-1.62935 -79.75975,-12.20787 -115.3629,-30.80693 -0.35905,-0.18784 -0.80202,-0.059 -1.0046,0.29216 0,0 -0.18784,0.32504 -0.18784,0.32504 -0.15723,0.2725 -0.13455,0.59565 0.0593,0.84359 2.64453,3.38154 3.45524,6.64592 2.18192,8.8766 -2.34709,4.06866 -10.84687,3.55842 -18.9823,-1.13915 -8.1343,-4.69607 -12.82545,-11.80006 -10.47798,-15.86797 1.29486,-2.21896 4.52787,-3.15061 8.78059,-2.55043 0.31181,0.0438 0.60322,-0.0979 0.76044,-0.37039 0,0 0.22527,-0.39043 0.22527,-0.39043 0.20295,-0.35149 0.0922,-0.8005 -0.25097,-1.01707 -34.08037,-21.50966 -62.9571,-50.32251 -84.545,-84.35376 -0.21695,-0.34205 -0.66558,-0.45241 -1.01632,-0.24983 0,0 -0.26872,0.15534 -0.26872,0.15534 -0.27251,0.15723 -0.41424,0.44863 -0.3704,0.76007 0.59981,4.25045 -0.33146,7.4827 -2.54853,8.77833 -4.06677,2.34973 -11.17266,-2.34104 -15.86948,-10.47685 -4.69758,-8.13468 -5.20857,-16.6337 -1.14066,-18.9823 2.23067,-1.27484 5.49656,-0.46451 8.88,2.18192 0.24756,0.19389 0.5707,0.21657 0.84321,0.0597 0,0 0.14513,-0.0835 0.14513,-0.0835 0.34847,-0.2007 0.47887,-0.63836 0.29707,-0.99704 -0.39722,-0.7835 -0.79143,-1.56926 -1.1811,-2.35616 -4.17298,-8.42646 -1.61461,-18.4611 6.08428,-23.85978 0,0 0.35566,-0.24945 0.35566,-0.24945 7.34324,-5.1496 17.00938,-4.51842 23.62053,1.54243 0,0 39.13361,35.87603 39.13361,35.87603 14.49676,13.28995 31.41468,19.87086 51.08107,19.87086 0,0 243.38005,0 243.38005,0 19.6664,0 36.5843,-6.58129 51.0811,-19.87086 0,0 39.1056,-35.85033 39.1056,-35.85033 6.6233,-6.07219 16.3147,-6.69279 23.6587,-1.51559 0,0 0.2877,0.20258 0.2877,0.20258 7.663,5.40208 10.207,15.39553 6.0601,23.80422 -0.3893,0.78954 -0.7828,1.57758 -1.18,2.36334 -0.1811,0.35868 -0.051,0.79483 0.2971,0.99553 0,0 0.226,0.13039 0.226,0.13039 0.2725,0.15723 0.5956,0.13455 0.8436,-0.0593 3.3823,-2.64567 6.6474,-3.45449 8.8785,-2.18003 4.0675,2.34822 3.5572,10.84611 -1.1396,18.98116 -4.6972,8.13544 -11.8023,12.82621 -15.8691,10.47648 -2.2193,-1.29487 -3.151,-4.52825 -2.5508,-8.78136 0.044,-0.31181 -0.098,-0.60321 -0.3708,-0.76044 0,0 -0.2751,-0.15874 -0.2751,-0.15874 -0.3515,-0.20296 -0.8001,-0.0915 -1.0167,0.25172 z"
       style="fill:none;stroke:#333333;stroke-width:0.5"
       id="path117"
       inkscape:connector-curvature="0" />
  </g>
</svg>
