  0
SECTION
  2
HEADER
  9
$ACADVER
  1
AC1009
  0
ENDSEC
  0
SECTION
  2
ENTITIES
  0
POLYLINE
  5
90
  8
Layer_0
  70
1
  66
1
  10
0
  20
0
  30
0
  0
VERTEX
  5
90
  8
Layer_0
  10
339.25171
  20
256.36023
  0
VERTEX
  5
91
  8
Layer_0
  10
339.26331
  20
255.90009
  0
VERTEX
  5
92
  8
Layer_0
  10
339.29742
  20
255.45325
  0
VERTEX
  5
93
  8
Layer_0
  10
339.35284
  20
255.02197
  0
VERTEX
  5
94
  8
Layer_0
  10
339.42853
  20
254.60852
  0
VERTEX
  5
95
  8
Layer_0
  10
339.52332
  20
254.21509
  0
VERTEX
  5
96
  8
Layer_0
  10
339.63599
  20
253.84406
  0
VERTEX
  5
97
  8
Layer_0
  10
339.7655
  20
253.49762
  0
VERTEX
  5
98
  8
Layer_0
  10
339.91077
  20
253.17804
  0
VERTEX
  5
99
  8
Layer_0
  10
340.07056
  20
252.88763
  0
VERTEX
  5
9a
  8
Layer_0
  10
340.24377
  20
252.62854
  0
VERTEX
  5
9b
  8
Layer_0
  10
340.42932
  20
252.40314
  0
VERTEX
  5
9c
  8
Layer_0
  10
340.62598
  20
252.21362
  0
VERTEX
  5
9d
  8
Layer_0
  10
340.83276
  20
252.06226
  0
VERTEX
  5
9e
  8
Layer_0
  10
341.04834
  20
251.95142
  0
VERTEX
  5
9f
  8
Layer_0
  10
341.27173
  20
251.88318
  0
VERTEX
  5
a0
  8
Layer_0
  10
341.50183
  20
251.85999
  0
VERTEX
  5
a1
  8
Layer_0
  10
341.76434
  20
251.89209
  0
VERTEX
  5
a2
  8
Layer_0
  10
342.02063
  20
251.98395
  0
VERTEX
  5
a3
  8
Layer_0
  10
342.26831
  20
252.13324
  0
VERTEX
  5
a4
  8
Layer_0
  10
342.50519
  20
252.33765
  0
VERTEX
  5
a5
  8
Layer_0
  10
342.72876
  20
252.59485
  0
VERTEX
  5
a6
  8
Layer_0
  10
342.93677
  20
252.90247
  0
VERTEX
  5
a7
  8
Layer_0
  10
343.12683
  20
253.2583
  0
VERTEX
  5
a8
  8
Layer_0
  10
343.29663
  20
253.65991
  0
VERTEX
  5
a9
  8
Layer_0
  10
343.75238
  20
253.6604
  0
VERTEX
  5
aa
  8
Layer_0
  10
343.75238
  20
254.11011
  0
VERTEX
  5
ab
  8
Layer_0
  10
343.75189
  20
254.37939
  0
VERTEX
  5
ac
  8
Layer_0
  10
343.83618
  20
252.31451
  0
VERTEX
  5
ad
  8
Layer_0
  10
343.97949
  20
250.25586
  0
VERTEX
  5
ae
  8
Layer_0
  10
344.18146
  20
248.20459
  0
VERTEX
  5
af
  8
Layer_0
  10
344.44177
  20
246.16211
  0
VERTEX
  5
b0
  8
Layer_0
  10
344.76013
  20
244.12952
  0
VERTEX
  5
b1
  8
Layer_0
  10
345.13617
  20
242.10803
  0
VERTEX
  5
b2
  8
Layer_0
  10
345.56958
  20
240.099
  0
VERTEX
  5
b3
  8
Layer_0
  10
346.06
  20
238.10345
  0
VERTEX
  5
b4
  8
Layer_0
  10
346.60718
  20
236.1228
  0
VERTEX
  5
b5
  8
Layer_0
  10
347.21082
  20
234.15808
  0
VERTEX
  5
b6
  8
Layer_0
  10
347.87061
  20
232.21069
  0
VERTEX
  5
b7
  8
Layer_0
  10
348.58618
  20
230.28174
  0
VERTEX
  5
b8
  8
Layer_0
  10
349.35718
  20
228.3725
  0
VERTEX
  5
b9
  8
Layer_0
  10
350.18335
  20
226.48425
  0
VERTEX
  5
ba
  8
Layer_0
  10
351.06433
  20
224.61804
  0
VERTEX
  5
bb
  8
Layer_0
  10
351.99976
  20
222.77527
  0
VERTEX
  5
bc
  8
Layer_0
  10
351.62909
  20
222.56128
  0
VERTEX
  5
bd
  8
Layer_0
  10
351.28125
  20
222.8241
  0
VERTEX
  5
be
  8
Layer_0
  10
350.9389
  20
223.03711
  0
VERTEX
  5
bf
  8
Layer_0
  10
350.6051
  20
223.19958
  0
VERTEX
  5
c0
  8
Layer_0
  10
350.28296
  20
223.31055
  0
VERTEX
  5
c1
  8
Layer_0
  10
349.97583
  20
223.36914
  0
VERTEX
  5
c2
  8
Layer_0
  10
349.68677
  20
223.37463
  0
VERTEX
  5
c3
  8
Layer_0
  10
349.41907
  20
223.32611
  0
VERTEX
  5
c4
  8
Layer_0
  10
349.17578
  20
223.22266
  0
VERTEX
  5
c5
  8
Layer_0
  10
348.98816
  20
223.08752
  0
VERTEX
  5
c6
  8
Layer_0
  10
348.82874
  20
222.91675
  0
VERTEX
  5
c7
  8
Layer_0
  10
348.69739
  20
222.71295
  0
VERTEX
  5
c8
  8
Layer_0
  10
348.59399
  20
222.47858
  0
VERTEX
  5
c9
  8
Layer_0
  10
348.51831
  20
222.21606
  0
VERTEX
  5
ca
  8
Layer_0
  10
348.47034
  20
221.92816
  0
VERTEX
  5
cb
  8
Layer_0
  10
348.44983
  20
221.61719
  0
VERTEX
  5
cc
  8
Layer_0
  10
348.45667
  20
221.28577
  0
VERTEX
  5
cd
  8
Layer_0
  10
348.49072
  20
220.9364
  0
VERTEX
  5
ce
  8
Layer_0
  10
348.55176
  20
220.57153
  0
VERTEX
  5
cf
  8
Layer_0
  10
348.63971
  20
220.19385
  0
VERTEX
  5
d0
  8
Layer_0
  10
348.75433
  20
219.80573
  0
VERTEX
  5
d1
  8
Layer_0
  10
348.89551
  20
219.40979
  0
VERTEX
  5
d2
  8
Layer_0
  10
349.06317
  20
219.00854
  0
VERTEX
  5
d3
  8
Layer_0
  10
349.25708
  20
218.60449
  0
VERTEX
  5
d4
  8
Layer_0
  10
349.47711
  20
218.2002
  0
VERTEX
  5
d5
  8
Layer_0
  10
349.71722
  20
217.80756
  0
VERTEX
  5
d6
  8
Layer_0
  10
349.97009
  20
217.43768
  0
VERTEX
  5
d7
  8
Layer_0
  10
350.23376
  20
217.09192
  0
VERTEX
  5
d8
  8
Layer_0
  10
350.50598
  20
216.77173
  0
VERTEX
  5
d9
  8
Layer_0
  10
350.78467
  20
216.47852
  0
VERTEX
  5
da
  8
Layer_0
  10
351.06775
  20
216.2135
  0
VERTEX
  5
db
  8
Layer_0
  10
351.35315
  20
215.97821
  0
VERTEX
  5
dc
  8
Layer_0
  10
351.63867
  20
215.77405
  0
VERTEX
  5
dd
  8
Layer_0
  10
351.92224
  20
215.60242
  0
VERTEX
  5
de
  8
Layer_0
  10
352.20172
  20
215.4646
  0
VERTEX
  5
df
  8
Layer_0
  10
352.4751
  20
215.36218
  0
VERTEX
  5
e0
  8
Layer_0
  10
352.74011
  20
215.29639
  0
VERTEX
  5
e1
  8
Layer_0
  10
352.99475
  20
215.26868
  0
VERTEX
  5
e2
  8
Layer_0
  10
353.23694
  20
215.2804
  0
VERTEX
  5
e3
  8
Layer_0
  10
353.46454
  20
215.33301
  0
VERTEX
  5
e4
  8
Layer_0
  10
353.67548
  20
215.42786
  0
VERTEX
  5
e5
  8
Layer_0
  10
353.8869
  20
215.58679
  0
VERTEX
  5
e6
  8
Layer_0
  10
354.06293
  20
215.79437
  0
VERTEX
  5
e7
  8
Layer_0
  10
354.20276
  20
216.04749
  0
VERTEX
  5
e8
  8
Layer_0
  10
354.30566
  20
216.3429
  0
VERTEX
  5
e9
  8
Layer_0
  10
354.37061
  20
216.67749
  0
VERTEX
  5
ea
  8
Layer_0
  10
354.39697
  20
217.04791
  0
VERTEX
  5
eb
  8
Layer_0
  10
354.38367
  20
217.45111
  0
VERTEX
  5
ec
  8
Layer_0
  10
354.32983
  20
217.88391
  0
VERTEX
  5
ed
  8
Layer_0
  10
354.7182
  20
218.10815
  0
VERTEX
  5
ee
  8
Layer_0
  10
355.81677
  20
216.41064
  0
VERTEX
  5
ef
  8
Layer_0
  10
356.96106
  20
214.74695
  0
VERTEX
  5
f0
  8
Layer_0
  10
358.15002
  20
213.11786
  0
VERTEX
  5
f1
  8
Layer_0
  10
359.383
  20
211.52429
  0
VERTEX
  5
f2
  8
Layer_0
  10
360.65906
  20
209.96704
  0
VERTEX
  5
f3
  8
Layer_0
  10
361.97736
  20
208.4469
  0
VERTEX
  5
f4
  8
Layer_0
  10
363.3371
  20
206.96478
  0
VERTEX
  5
f5
  8
Layer_0
  10
364.73749
  20
205.52148
  0
VERTEX
  5
f6
  8
Layer_0
  10
366.17761
  20
204.1178
  0
VERTEX
  5
f7
  8
Layer_0
  10
367.65668
  20
202.75476
  0
VERTEX
  5
f8
  8
Layer_0
  10
369.17383
  20
201.43304
  0
VERTEX
  5
f9
  8
Layer_0
  10
370.72815
  20
200.15344
  0
VERTEX
  5
fa
  8
Layer_0
  10
372.31897
  20
198.91687
  0
VERTEX
  5
fb
  8
Layer_0
  10
373.94531
  20
197.72412
  0
VERTEX
  5
fc
  8
Layer_0
  10
375.60638
  20
196.57605
  0
VERTEX
  5
fd
  8
Layer_0
  10
377.30145
  20
195.47363
  0
VERTEX
  5
fe
  8
Layer_0
  10
377.09595
  20
195.11792
  0
VERTEX
  5
ff
  8
Layer_0
  10
376.66339
  20
195.17163
  0
VERTEX
  5
100
  8
Layer_0
  10
376.26038
  20
195.18488
  0
VERTEX
  5
101
  8
Layer_0
  10
375.89001
  20
195.15857
  0
VERTEX
  5
102
  8
Layer_0
  10
375.5556
  20
195.09369
  0
VERTEX
  5
103
  8
Layer_0
  10
375.26025
  20
194.99091
  0
VERTEX
  5
104
  8
Layer_0
  10
375.0072
  20
194.8512
  0
VERTEX
  5
105
  8
Layer_0
  10
374.79968
  20
194.67529
  0
VERTEX
  5
106
  8
Layer_0
  10
374.64075
  20
194.46399
  0
VERTEX
  5
107
  8
Layer_0
  10
374.54578
  20
194.25311
  0
VERTEX
  5
108
  8
Layer_0
  10
374.49304
  20
194.02557
  0
VERTEX
  5
109
  8
Layer_0
  10
374.4812
  20
193.78345
  0
VERTEX
  5
10a
  8
Layer_0
  10
374.50879
  20
193.52875
  0
VERTEX
  5
10b
  8
Layer_0
  10
374.57446
  20
193.26367
  0
VERTEX
  5
10c
  8
Layer_0
  10
374.677
  20
192.99023
  0
VERTEX
  5
10d
  8
Layer_0
  10
374.8147
  20
192.71069
  0
VERTEX
  5
10e
  8
Layer_0
  10
374.98633
  20
192.42712
  0
VERTEX
  5
10f
  8
Layer_0
  10
375.19043
  20
192.14154
  0
VERTEX
  5
110
  8
Layer_0
  10
375.42566
  20
191.85614
  0
VERTEX
  5
111
  8
Layer_0
  10
375.69067
  20
191.573
  0
VERTEX
  5
112
  8
Layer_0
  10
375.98395
  20
191.29419
  0
VERTEX
  5
113
  8
Layer_0
  10
376.3042
  20
191.02191
  0
VERTEX
  5
114
  8
Layer_0
  10
376.65002
  20
190.75824
  0
VERTEX
  5
115
  8
Layer_0
  10
377.0199
  20
190.50525
  0
VERTEX
  5
116
  8
Layer_0
  10
377.4126
  20
190.26514
  0
VERTEX
  5
117
  8
Layer_0
  10
377.81689
  20
190.04517
  0
VERTEX
  5
118
  8
Layer_0
  10
378.22095
  20
189.85126
  0
VERTEX
  5
119
  8
Layer_0
  10
378.62213
  20
189.68359
  0
VERTEX
  5
11a
  8
Layer_0
  10
379.01801
  20
189.54236
  0
VERTEX
  5
11b
  8
Layer_0
  10
379.40613
  20
189.42767
  0
VERTEX
  5
11c
  8
Layer_0
  10
379.78375
  20
189.33972
  0
VERTEX
  5
11d
  8
Layer_0
  10
380.14856
  20
189.27869
  0
VERTEX
  5
11e
  8
Layer_0
  10
380.49792
  20
189.24463
  0
VERTEX
  5
11f
  8
Layer_0
  10
380.82935
  20
189.23773
  0
VERTEX
  5
120
  8
Layer_0
  10
381.14038
  20
189.25824
  0
VERTEX
  5
121
  8
Layer_0
  10
381.42834
  20
189.30621
  0
VERTEX
  5
122
  8
Layer_0
  10
381.69086
  20
189.38171
  0
VERTEX
  5
123
  8
Layer_0
  10
381.92529
  20
189.48511
  0
VERTEX
  5
124
  8
Layer_0
  10
382.12915
  20
189.61639
  0
VERTEX
  5
125
  8
Layer_0
  10
382.29993
  20
189.77576
  0
VERTEX
  5
126
  8
Layer_0
  10
382.43512
  20
189.96332
  0
VERTEX
  5
127
  8
Layer_0
  10
382.53876
  20
190.20667
  0
VERTEX
  5
128
  8
Layer_0
  10
382.58746
  20
190.47449
  0
VERTEX
  5
129
  8
Layer_0
  10
382.58203
  20
190.76367
  0
VERTEX
  5
12a
  8
Layer_0
  10
382.52344
  20
191.07092
  0
VERTEX
  5
12b
  8
Layer_0
  10
382.41248
  20
191.39319
  0
VERTEX
  5
12c
  8
Layer_0
  10
382.24994
  20
191.72717
  0
VERTEX
  5
12d
  8
Layer_0
  10
382.03674
  20
192.0697
  0
VERTEX
  5
12e
  8
Layer_0
  10
381.7738
  20
192.4176
  0
VERTEX
  5
12f
  8
Layer_0
  10
381.95886
  20
192.73901
  0
VERTEX
  5
130
  8
Layer_0
  10
383.12256
  20
192.15784
  0
VERTEX
  5
131
  8
Layer_0
  10
384.29651
  20
191.59784
  0
VERTEX
  5
132
  8
Layer_0
  10
385.48047
  20
191.05908
  0
VERTEX
  5
133
  8
Layer_0
  10
386.67395
  20
190.54187
  0
VERTEX
  5
134
  8
Layer_0
  10
391.4364
  20
197.33313
  0
VERTEX
  5
135
  8
Layer_0
  10
373.97241
  20
216.38306
  0
VERTEX
  5
136
  8
Layer_0
  10
373.97241
  20
296.33783
  0
VERTEX
  5
137
  8
Layer_0
  10
391.4364
  20
315.38782
  0
VERTEX
  5
138
  8
Layer_0
  10
386.67395
  20
322.14371
  0
VERTEX
  5
139
  8
Layer_0
  10
385.48352
  20
321.62988
  0
VERTEX
  5
13a
  8
Layer_0
  10
384.30261
  20
321.09473
  0
VERTEX
  5
13b
  8
Layer_0
  10
383.13147
  20
320.53839
  0
VERTEX
  5
13c
  8
Layer_0
  10
381.97046
  20
319.96106
  0
VERTEX
  5
13d
  8
Layer_0
  10
381.77283
  20
320.30334
  0
VERTEX
  5
13e
  8
Layer_0
  10
382.03571
  20
320.65121
  0
VERTEX
  5
13f
  8
Layer_0
  10
382.24878
  20
320.99371
  0
VERTEX
  5
140
  8
Layer_0
  10
382.41119
  20
321.32764
  0
VERTEX
  5
141
  8
Layer_0
  10
382.52209
  20
321.64978
  0
VERTEX
  5
142
  8
Layer_0
  10
382.58069
  20
321.957
  0
VERTEX
  5
143
  8
Layer_0
  10
382.58606
  20
322.24609
  0
VERTEX
  5
144
  8
Layer_0
  10
382.53735
  20
322.51385
  0
VERTEX
  5
145
  8
Layer_0
  10
382.43372
  20
322.75714
  0
VERTEX
  5
146
  8
Layer_0
  10
382.29858
  20
322.94476
  0
VERTEX
  5
147
  8
Layer_0
  10
382.12781
  20
323.10413
  0
VERTEX
  5
148
  8
Layer_0
  10
381.92401
  20
323.23544
  0
VERTEX
  5
149
  8
Layer_0
  10
381.68958
  20
323.33881
  0
VERTEX
  5
14a
  8
Layer_0
  10
381.42712
  20
323.4144
  0
VERTEX
  5
14b
  8
Layer_0
  10
381.13916
  20
323.46237
  0
VERTEX
  5
14c
  8
Layer_0
  10
380.82825
  20
323.48285
  0
VERTEX
  5
14d
  8
Layer_0
  10
380.49683
  20
323.47601
  0
VERTEX
  5
14e
  8
Layer_0
  10
380.14746
  20
323.44196
  0
VERTEX
  5
14f
  8
Layer_0
  10
379.78271
  20
323.38095
  0
VERTEX
  5
150
  8
Layer_0
  10
379.40503
  20
323.29303
  0
VERTEX
  5
151
  8
Layer_0
  10
379.01703
  20
323.17841
  0
VERTEX
  5
152
  8
Layer_0
  10
378.62115
  20
323.03723
  0
VERTEX
  5
153
  8
Layer_0
  10
378.21997
  20
322.86963
  0
VERTEX
  5
154
  8
Layer_0
  10
377.81598
  20
322.67578
  0
VERTEX
  5
155
  8
Layer_0
  10
377.41168
  20
322.45578
  0
VERTEX
  5
156
  8
Layer_0
  10
377.01892
  20
322.21564
  0
VERTEX
  5
157
  8
Layer_0
  10
376.64905
  20
321.96268
  0
VERTEX
  5
158
  8
Layer_0
  10
376.30334
  20
321.69901
  0
VERTEX
  5
159
  8
Layer_0
  10
375.98303
  20
321.42673
  0
VERTEX
  5
15a
  8
Layer_0
  10
375.68982
  20
321.14795
  0
VERTEX
  5
15b
  8
Layer_0
  10
375.4248
  20
320.86481
  0
VERTEX
  5
15c
  8
Layer_0
  10
375.18958
  20
320.57944
  0
VERTEX
  5
15d
  8
Layer_0
  10
374.98541
  20
320.29385
  0
VERTEX
  5
15e
  8
Layer_0
  10
374.81378
  20
320.01022
  0
VERTEX
  5
15f
  8
Layer_0
  10
374.67609
  20
319.73068
  0
VERTEX
  5
160
  8
Layer_0
  10
374.57361
  20
319.45731
  0
VERTEX
  5
161
  8
Layer_0
  10
374.50793
  20
319.1922
  0
VERTEX
  5
162
  8
Layer_0
  10
374.48035
  20
318.93753
  0
VERTEX
  5
163
  8
Layer_0
  10
374.49207
  20
318.69537
  0
VERTEX
  5
164
  8
Layer_0
  10
374.5448
  20
318.4678
  0
VERTEX
  5
165
  8
Layer_0
  10
374.63977
  20
318.25696
  0
VERTEX
  5
166
  8
Layer_0
  10
374.79871
  20
318.04553
  0
VERTEX
  5
167
  8
Layer_0
  10
375.00629
  20
317.86945
  0
VERTEX
  5
168
  8
Layer_0
  10
375.2594
  20
317.72955
  0
VERTEX
  5
169
  8
Layer_0
  10
375.55487
  20
317.62671
  0
VERTEX
  5
16a
  8
Layer_0
  10
375.88947
  20
317.56174
  0
VERTEX
  5
16b
  8
Layer_0
  10
376.25995
  20
317.53546
  0
VERTEX
  5
16c
  8
Layer_0
  10
376.66315
  20
317.5488
  0
VERTEX
  5
16d
  8
Layer_0
  10
377.09595
  20
317.60257
  0
VERTEX
  5
16e
  8
Layer_0
  10
377.30243
  20
317.24445
  0
VERTEX
  5
16f
  8
Layer_0
  10
375.60364
  20
316.14563
  0
VERTEX
  5
170
  8
Layer_0
  10
373.93866
  20
315.00116
  0
VERTEX
  5
171
  8
Layer_0
  10
372.30835
  20
313.81183
  0
VERTEX
  5
172
  8
Layer_0
  10
370.71356
  20
312.57849
  0
VERTEX
  5
173
  8
Layer_0
  10
369.15515
  20
311.302
  0
VERTEX
  5
174
  8
Layer_0
  10
367.63391
  20
309.98315
  0
VERTEX
  5
175
  8
Layer_0
  10
366.1507
  20
308.62286
  0
VERTEX
  5
176
  8
Layer_0
  10
364.70636
  20
307.22189
  0
VERTEX
  5
177
  8
Layer_0
  10
363.3017
  20
305.78113
  0
VERTEX
  5
178
  8
Layer_0
  10
361.93762
  20
304.30136
  0
VERTEX
  5
179
  8
Layer_0
  10
360.61493
  20
302.78351
  0
VERTEX
  5
17a
  8
Layer_0
  10
359.33447
  20
301.22833
  0
VERTEX
  5
17b
  8
Layer_0
  10
358.09711
  20
299.63672
  0
VERTEX
  5
17c
  8
Layer_0
  10
356.90363
  20
298.00946
  0
VERTEX
  5
17d
  8
Layer_0
  10
355.75488
  20
296.34741
  0
VERTEX
  5
17e
  8
Layer_0
  10
354.65173
  20
294.6514
  0
VERTEX
  5
17f
  8
Layer_0
  10
354.32941
  20
294.83698
  0
VERTEX
  5
180
  8
Layer_0
  10
354.38318
  20
295.26959
  0
VERTEX
  5
181
  8
Layer_0
  10
354.39648
  20
295.67273
  0
VERTEX
  5
182
  8
Layer_0
  10
354.37024
  20
296.04312
  0
VERTEX
  5
183
  8
Layer_0
  10
354.3053
  20
296.37759
  0
VERTEX
  5
184
  8
Layer_0
  10
354.20245
  20
296.67297
  0
VERTEX
  5
185
  8
Layer_0
  10
354.06274
  20
296.92609
  0
VERTEX
  5
186
  8
Layer_0
  10
353.88684
  20
297.1337
  0
VERTEX
  5
187
  8
Layer_0
  10
353.67554
  20
297.29263
  0
VERTEX
  5
188
  8
Layer_0
  10
353.46466
  20
297.3876
  0
VERTEX
  5
189
  8
Layer_0
  10
353.23712
  20
297.44031
  0
VERTEX
  5
18a
  8
Layer_0
  10
352.995
  20
297.45215
  0
VERTEX
  5
18b
  8
Layer_0
  10
352.7403
  20
297.4245
  0
VERTEX
  5
18c
  8
Layer_0
  10
352.47522
  20
297.3588
  0
VERTEX
  5
18d
  8
Layer_0
  10
352.20178
  20
297.25638
  0
VERTEX
  5
18e
  8
Layer_0
  10
351.92224
  20
297.11865
  0
VERTEX
  5
18f
  8
Layer_0
  10
351.63867
  20
296.94702
  0
VERTEX
  5
190
  8
Layer_0
  10
351.35309
  20
296.74292
  0
VERTEX
  5
191
  8
Layer_0
  10
351.06769
  20
296.50766
  0
VERTEX
  5
192
  8
Layer_0
  10
350.78455
  20
296.24268
  0
VERTEX
  5
193
  8
Layer_0
  10
350.50574
  20
295.94934
  0
VERTEX
  5
194
  8
Layer_0
  10
350.23346
  20
295.62909
  0
VERTEX
  5
195
  8
Layer_0
  10
349.96979
  20
295.28333
  0
VERTEX
  5
196
  8
Layer_0
  10
349.7168
  20
294.91342
  0
VERTEX
  5
197
  8
Layer_0
  10
349.47668
  20
294.52072
  0
VERTEX
  5
198
  8
Layer_0
  10
349.25659
  20
294.11642
  0
VERTEX
  5
199
  8
Layer_0
  10
349.06268
  20
293.71237
  0
VERTEX
  5
19a
  8
Layer_0
  10
348.89502
  20
293.3111
  0
VERTEX
  5
19b
  8
Layer_0
  10
348.75385
  20
292.91516
  0
VERTEX
  5
19c
  8
Layer_0
  10
348.63922
  20
292.52707
  0
VERTEX
  5
19d
  8
Layer_0
  10
348.55127
  20
292.14935
  0
VERTEX
  5
19e
  8
Layer_0
  10
348.49023
  20
291.78452
  0
VERTEX
  5
19f
  8
Layer_0
  10
348.45624
  20
291.43515
  0
VERTEX
  5
1a0
  8
Layer_0
  10
348.4494
  20
291.10373
  0
VERTEX
  5
1a1
  8
Layer_0
  10
348.46985
  20
290.79272
  0
VERTEX
  5
1a2
  8
Layer_0
  10
348.51782
  20
290.50476
  0
VERTEX
  5
1a3
  8
Layer_0
  10
348.59351
  20
290.24231
  0
VERTEX
  5
1a4
  8
Layer_0
  10
348.6969
  20
290.0079
  0
VERTEX
  5
1a5
  8
Layer_0
  10
348.82825
  20
289.80408
  0
VERTEX
  5
1a6
  8
Layer_0
  10
348.98767
  20
289.63333
  0
VERTEX
  5
1a7
  8
Layer_0
  10
349.17529
  20
289.49823
  0
VERTEX
  5
1a8
  8
Layer_0
  10
349.41858
  20
289.39459
  0
VERTEX
  5
1a9
  8
Layer_0
  10
349.6864
  20
289.34589
  0
VERTEX
  5
1aa
  8
Layer_0
  10
349.97559
  20
289.35129
  0
VERTEX
  5
1ab
  8
Layer_0
  10
350.28284
  20
289.40991
  0
VERTEX
  5
1ac
  8
Layer_0
  10
350.6051
  20
289.52094
  0
VERTEX
  5
1ad
  8
Layer_0
  10
350.93909
  20
289.68344
  0
VERTEX
  5
1ae
  8
Layer_0
  10
351.28162
  20
289.89661
  0
VERTEX
  5
1af
  8
Layer_0
  10
351.62958
  20
290.15958
  0
VERTEX
  5
1b0
  8
Layer_0
  10
351.9928
  20
289.95029
  0
VERTEX
  5
1b1
  8
Layer_0
  10
351.07434
  20
288.14871
  0
VERTEX
  5
1b2
  8
Layer_0
  10
350.20789
  20
286.32458
  0
VERTEX
  5
1b3
  8
Layer_0
  10
349.39392
  20
284.47906
  0
VERTEX
  5
1b4
  8
Layer_0
  10
348.63269
  20
282.61328
  0
VERTEX
  5
1b5
  8
Layer_0
  10
347.92444
  20
280.72839
  0
VERTEX
  5
1b6
  8
Layer_0
  10
347.26965
  20
278.82556
  0
VERTEX
  5
1b7
  8
Layer_0
  10
346.66846
  20
276.90588
  0
VERTEX
  5
1b8
  8
Layer_0
  10
346.12122
  20
274.97058
  0
VERTEX
  5
1b9
  8
Layer_0
  10
345.62823
  20
273.02075
  0
VERTEX
  5
1ba
  8
Layer_0
  10
345.18988
  20
271.0575
  0
VERTEX
  5
1bb
  8
Layer_0
  10
344.8064
  20
269.08203
  0
VERTEX
  5
1bc
  8
Layer_0
  10
344.47803
  20
267.09546
  0
VERTEX
  5
1bd
  8
Layer_0
  10
344.2052
  20
265.09888
  0
VERTEX
  5
1be
  8
Layer_0
  10
343.9881
  20
263.09351
  0
VERTEX
  5
1bf
  8
Layer_0
  10
343.82715
  20
261.08057
  0
VERTEX
  5
1c0
  8
Layer_0
  10
343.7226
  20
259.06104
  0
VERTEX
  5
1c1
  8
Layer_0
  10
343.29657
  20
259.06104
  0
VERTEX
  5
1c2
  8
Layer_0
  10
343.12671
  20
259.46265
  0
VERTEX
  5
1c3
  8
Layer_0
  10
342.93665
  20
259.81848
  0
VERTEX
  5
1c4
  8
Layer_0
  10
342.72864
  20
260.1261
  0
VERTEX
  5
1c5
  8
Layer_0
  10
342.50513
  20
260.3833
  0
VERTEX
  5
1c6
  8
Layer_0
  10
342.26831
  20
260.58765
  0
VERTEX
  5
1c7
  8
Layer_0
  10
342.02063
  20
260.73682
  0
VERTEX
  5
1c8
  8
Layer_0
  10
341.76434
  20
260.82849
  0
VERTEX
  5
1c9
  8
Layer_0
  10
341.50183
  20
260.86041
  0
VERTEX
  5
1ca
  8
Layer_0
  10
341.27173
  20
260.83728
  0
VERTEX
  5
1cb
  8
Layer_0
  10
341.04834
  20
260.76904
  0
VERTEX
  5
1cc
  8
Layer_0
  10
340.83276
  20
260.6582
  0
VERTEX
  5
1cd
  8
Layer_0
  10
340.62598
  20
260.50684
  0
VERTEX
  5
1ce
  8
Layer_0
  10
340.42932
  20
260.31732
  0
VERTEX
  5
1cf
  8
Layer_0
  10
340.24377
  20
260.09192
  0
VERTEX
  5
1d0
  8
Layer_0
  10
340.07056
  20
259.83282
  0
VERTEX
  5
1d1
  8
Layer_0
  10
339.91077
  20
259.54242
  0
VERTEX
  5
1d2
  8
Layer_0
  10
339.7655
  20
259.22284
  0
VERTEX
  5
1d3
  8
Layer_0
  10
339.63599
  20
258.8764
  0
VERTEX
  5
1d4
  8
Layer_0
  10
339.52332
  20
258.50537
  0
VERTEX
  5
1d5
  8
Layer_0
  10
339.42853
  20
258.11194
  0
VERTEX
  5
1d6
  8
Layer_0
  10
339.35284
  20
257.69849
  0
VERTEX
  5
1d7
  8
Layer_0
  10
339.29742
  20
257.26721
  0
VERTEX
  5
1d8
  8
Layer_0
  10
339.26331
  20
256.82037
  0
VERTEX
  5
1d9
  8
Layer_0
  10
339.25171
  20
256.36023
  0
SEQEND
  0
POLYLINE
  5
1db
  8
Layer_1
  70
1
  66
1
  10
0
  20
0
  30
0
  0
VERTEX
  5
1db
  8
Layer_1
  10
94.097839
  20
492.09537
  0
VERTEX
  5
1dc
  8
Layer_1
  10
93.065674
  20
492.06946
  0
VERTEX
  5
1dd
  8
Layer_1
  10
92.047363
  20
491.99249
  0
VERTEX
  5
1de
  8
Layer_1
  10
91.044128
  20
491.86572
  0
VERTEX
  5
1df
  8
Layer_1
  10
90.057373
  20
491.69043
  0
VERTEX
  5
1e0
  8
Layer_1
  10
89.088135
  20
491.46777
  0
VERTEX
  5
1e1
  8
Layer_1
  10
88.137756
  20
491.1991
  0
VERTEX
  5
1e2
  8
Layer_1
  10
87.207458
  20
490.88556
  0
VERTEX
  5
1e3
  8
Layer_1
  10
86.298462
  20
490.52844
  0
VERTEX
  5
1e4
  8
Layer_1
  10
85.412048
  20
490.12894
  0
VERTEX
  5
1e5
  8
Layer_1
  10
84.549438
  20
489.68829
  0
VERTEX
  5
1e6
  8
Layer_1
  10
83.711792
  20
489.20779
  0
VERTEX
  5
1e7
  8
Layer_1
  10
82.900513
  20
488.68863
  0
VERTEX
  5
1e8
  8
Layer_1
  10
82.116699
  20
488.13202
  0
VERTEX
  5
1e9
  8
Layer_1
  10
81.361694
  20
487.53928
  0
VERTEX
  5
1ea
  8
Layer_1
  10
80.636597
  20
486.91159
  0
VERTEX
  5
1eb
  8
Layer_1
  10
79.942749
  20
486.25021
  0
VERTEX
  5
1ec
  8
Layer_1
  10
79.281372
  20
485.5564
  0
VERTEX
  5
1ed
  8
Layer_1
  10
78.653687
  20
484.8313
  0
VERTEX
  5
1ee
  8
Layer_1
  10
78.060913
  20
484.07623
  0
VERTEX
  5
1ef
  8
Layer_1
  10
77.504272
  20
483.29242
  0
VERTEX
  5
1f0
  8
Layer_1
  10
76.985107
  20
482.48108
  0
VERTEX
  5
1f1
  8
Layer_1
  10
76.504578
  20
481.64352
  0
VERTEX
  5
1f2
  8
Layer_1
  10
76.063965
  20
480.78088
  0
VERTEX
  5
1f3
  8
Layer_1
  10
75.664429
  20
479.89447
  0
VERTEX
  5
1f4
  8
Layer_1
  10
75.307312
  20
478.9855
  0
VERTEX
  5
1f5
  8
Layer_1
  10
74.993774
  20
478.05524
  0
VERTEX
  5
1f6
  8
Layer_1
  10
74.725098
  20
477.10486
  0
VERTEX
  5
1f7
  8
Layer_1
  10
74.502441
  20
476.13562
  0
VERTEX
  5
1f8
  8
Layer_1
  10
74.327148
  20
475.1488
  0
VERTEX
  5
1f9
  8
Layer_1
  10
74.200439
  20
474.1456
  0
VERTEX
  5
1fa
  8
Layer_1
  10
74.123474
  20
473.12726
  0
VERTEX
  5
1fb
  8
Layer_1
  10
74.097534
  20
472.09503
  0
VERTEX
  5
1fc
  8
Layer_1
  10
74.097534
  20
433.80331
  0
VERTEX
  5
1fd
  8
Layer_1
  10
74.103088
  20
432.74402
  0
VERTEX
  5
1fe
  8
Layer_1
  10
74.119751
  20
431.64404
  0
VERTEX
  5
1ff
  8
Layer_1
  10
74.1474
  20
430.50421
  0
VERTEX
  5
200
  8
Layer_1
  10
74.186035
  20
429.32532
  0
VERTEX
  5
201
  8
Layer_1
  10
74.235657
  20
428.10809
  0
VERTEX
  5
202
  8
Layer_1
  10
74.296143
  20
426.85336
  0
VERTEX
  5
203
  8
Layer_1
  10
74.367493
  20
425.56186
  0
VERTEX
  5
204
  8
Layer_1
  10
74.449646
  20
424.23431
  0
VERTEX
  5
205
  8
Layer_1
  10
74.542542
  20
422.87158
  0
VERTEX
  5
206
  8
Layer_1
  10
74.646118
  20
421.47443
  0
VERTEX
  5
207
  8
Layer_1
  10
74.760376
  20
420.04358
  0
VERTEX
  5
208
  8
Layer_1
  10
74.885254
  20
418.57983
  0
VERTEX
  5
209
  8
Layer_1
  10
75.02063
  20
417.08398
  0
VERTEX
  5
20a
  8
Layer_1
  10
75.166626
  20
415.55679
  0
VERTEX
  5
20b
  8
Layer_1
  10
75.322998
  20
413.99905
  0
VERTEX
  5
20c
  8
Layer_1
  10
75.489868
  20
412.41147
  0
VERTEX
  5
20d
  8
Layer_1
  10
75.667114
  20
410.79489
  0
VERTEX
  5
20e
  8
Layer_1
  10
75.854614
  20
409.15005
  0
VERTEX
  5
20f
  8
Layer_1
  10
76.05249
  20
407.47772
  0
VERTEX
  5
210
  8
Layer_1
  10
76.260498
  20
405.77866
  0
VERTEX
  5
211
  8
Layer_1
  10
76.47876
  20
404.05368
  0
VERTEX
  5
212
  8
Layer_1
  10
76.707153
  20
402.30356
  0
VERTEX
  5
213
  8
Layer_1
  10
76.945679
  20
400.52905
  0
VERTEX
  5
214
  8
Layer_1
  10
77.194153
  20
398.73093
  0
VERTEX
  5
215
  8
Layer_1
  10
77.721191
  20
395.06696
  0
VERTEX
  5
216
  8
Layer_1
  10
78.28772
  20
391.31784
  0
VERTEX
  5
217
  8
Layer_1
  10
78.893555
  20
387.48975
  0
VERTEX
  5
218
  8
Layer_1
  10
79.538269
  20
383.5889
  0
VERTEX
  5
219
  8
Layer_1
  10
80.221436
  20
379.62146
  0
VERTEX
  5
21a
  8
Layer_1
  10
80.942749
  20
375.59363
  0
VERTEX
  5
21b
  8
Layer_1
  10
81.701782
  20
371.5116
  0
VERTEX
  5
21c
  8
Layer_1
  10
82.49823
  20
367.38153
  0
VERTEX
  5
21d
  8
Layer_1
  10
83.331665
  20
363.20966
  0
VERTEX
  5
21e
  8
Layer_1
  10
84.20166
  20
359.00214
  0
VERTEX
  5
21f
  8
Layer_1
  10
85.10791
  20
354.7652
  0
VERTEX
  5
220
  8
Layer_1
  10
86.049927
  20
350.505
  0
VERTEX
  5
221
  8
Layer_1
  10
87.027466
  20
346.22772
  0
VERTEX
  5
222
  8
Layer_1
  10
88.0401
  20
341.93964
  0
VERTEX
  5
223
  8
Layer_1
  10
89.087402
  20
337.64679
  0
VERTEX
  5
224
  8
Layer_1
  10
90.169189
  20
333.3555
  0
VERTEX
  5
225
  8
Layer_1
  10
91.284851
  20
329.0719
  0
VERTEX
  5
226
  8
Layer_1
  10
92.434082
  20
324.80219
  0
VERTEX
  5
227
  8
Layer_1
  10
93.616455
  20
320.55258
  0
VERTEX
  5
228
  8
Layer_1
  10
94.831848
  20
316.32919
  0
VERTEX
  5
229
  8
Layer_1
  10
96.079712
  20
312.13831
  0
VERTEX
  5
22a
  8
Layer_1
  10
97.359497
  20
307.98605
  0
VERTEX
  5
22b
  8
Layer_1
  10
98.671021
  20
303.87863
  0
VERTEX
  5
22c
  8
Layer_1
  10
100.01392
  20
299.82227
  0
VERTEX
  5
22d
  8
Layer_1
  10
101.38776
  20
295.82312
  0
VERTEX
  5
22e
  8
Layer_1
  10
102.79224
  20
291.88739
  0
VERTEX
  5
22f
  8
Layer_1
  10
104.22687
  20
288.02124
  0
VERTEX
  5
230
  8
Layer_1
  10
105.69128
  20
284.2309
  0
VERTEX
  5
231
  8
Layer_1
  10
107.18524
  20
280.52252
  0
VERTEX
  5
232
  8
Layer_1
  10
108.70825
  20
276.90234
  0
VERTEX
  5
233
  8
Layer_1
  10
109.48053
  20
275.1272
  0
VERTEX
  5
234
  8
Layer_1
  10
110.25989
  20
273.37653
  0
VERTEX
  5
235
  8
Layer_1
  10
111.04639
  20
271.65094
  0
VERTEX
  5
236
  8
Layer_1
  10
111.83984
  20
269.95129
  0
VERTEX
  5
237
  8
Layer_1
  10
112.64038
  20
268.27832
  0
VERTEX
  5
238
  8
Layer_1
  10
113.44781
  20
266.63275
  0
VERTEX
  5
239
  8
Layer_1
  10
114.26208
  20
265.01544
  0
VERTEX
  5
23a
  8
Layer_1
  10
115.08325
  20
263.42712
  0
VERTEX
  5
23b
  8
Layer_1
  10
115.91113
  20
261.86865
  0
VERTEX
  5
23c
  8
Layer_1
  10
116.74591
  20
260.3407
  0
VERTEX
  5
23d
  8
Layer_1
  10
117.58728
  20
258.84406
  0
VERTEX
  5
23e
  8
Layer_1
  10
118.43542
  20
257.37952
  0
VERTEX
  5
23f
  8
Layer_1
  10
119.29016
  20
255.94788
  0
VERTEX
  5
240
  8
Layer_1
  10
120.15137
  20
254.5498
  0
VERTEX
  5
241
  8
Layer_1
  10
121.0191
  20
253.18628
  0
VERTEX
  5
242
  8
Layer_1
  10
121.89331
  20
251.85791
  0
VERTEX
  5
243
  8
Layer_1
  10
122.77399
  20
250.56549
  0
VERTEX
  5
244
  8
Layer_1
  10
123.66101
  20
249.30981
  0
VERTEX
  5
245
  8
Layer_1
  10
124.55438
  20
248.09167
  0
VERTEX
  5
246
  8
Layer_1
  10
125.45398
  20
246.91187
  0
VERTEX
  5
247
  8
Layer_1
  10
126.3598
  20
245.77106
  0
VERTEX
  5
248
  8
Layer_1
  10
127.27185
  20
244.6701
  0
VERTEX
  5
249
  8
Layer_1
  10
128.19
  20
243.60974
  0
VERTEX
  5
24a
  8
Layer_1
  10
129.11426
  20
242.59082
  0
VERTEX
  5
24b
  8
Layer_1
  10
130.04456
  20
241.61407
  0
VERTEX
  5
24c
  8
Layer_1
  10
130.98096
  20
240.68024
  0
VERTEX
  5
24d
  8
Layer_1
  10
131.92322
  20
239.79016
  0
VERTEX
  5
24e
  8
Layer_1
  10
132.87134
  20
238.94446
  0
VERTEX
  5
24f
  8
Layer_1
  10
133.82532
  20
238.14404
  0
VERTEX
  5
250
  8
Layer_1
  10
134.78516
  20
237.38965
  0
VERTEX
  5
251
  8
Layer_1
  10
135.75079
  20
236.68213
  0
VERTEX
  5
252
  8
Layer_1
  10
136.72205
  20
236.02209
  0
VERTEX
  5
253
  8
Layer_1
  10
137.69904
  20
235.41046
  0
VERTEX
  5
254
  8
Layer_1
  10
138.68158
  20
234.84796
  0
VERTEX
  5
255
  8
Layer_1
  10
139.66974
  20
234.33533
  0
VERTEX
  5
256
  8
Layer_1
  10
140.66345
  20
233.87347
  0
VERTEX
  5
257
  8
Layer_1
  10
141.6626
  20
233.46295
  0
VERTEX
  5
258
  8
Layer_1
  10
142.66724
  20
233.10468
  0
VERTEX
  5
259
  8
Layer_1
  10
143.67712
  20
232.79938
  0
VERTEX
  5
25a
  8
Layer_1
  10
144.6925
  20
232.54791
  0
VERTEX
  5
25b
  8
Layer_1
  10
145.71301
  20
232.35095
  0
VERTEX
  5
25c
  8
Layer_1
  10
146.73889
  20
232.20935
  0
VERTEX
  5
25d
  8
Layer_1
  10
147.76996
  20
232.12378
  0
VERTEX
  5
25e
  8
Layer_1
  10
148.80615
  20
232.09509
  0
VERTEX
  5
25f
  8
Layer_1
  10
299.38922
  20
232.09509
  0
VERTEX
  5
260
  8
Layer_1
  10
300.42535
  20
232.12378
  0
VERTEX
  5
261
  8
Layer_1
  10
301.45642
  20
232.20935
  0
VERTEX
  5
262
  8
Layer_1
  10
302.4823
  20
232.35095
  0
VERTEX
  5
263
  8
Layer_1
  10
303.50281
  20
232.54791
  0
VERTEX
  5
264
  8
Layer_1
  10
304.51819
  20
232.79938
  0
VERTEX
  5
265
  8
Layer_1
  10
305.52808
  20
233.10468
  0
VERTEX
  5
266
  8
Layer_1
  10
306.53271
  20
233.46295
  0
VERTEX
  5
267
  8
Layer_1
  10
307.53186
  20
233.87347
  0
VERTEX
  5
268
  8
Layer_1
  10
308.52557
  20
234.33533
  0
VERTEX
  5
269
  8
Layer_1
  10
309.51373
  20
234.84796
  0
VERTEX
  5
26a
  8
Layer_1
  10
310.49628
  20
235.41046
  0
VERTEX
  5
26b
  8
Layer_1
  10
311.47327
  20
236.02209
  0
VERTEX
  5
26c
  8
Layer_1
  10
312.44452
  20
236.68213
  0
VERTEX
  5
26d
  8
Layer_1
  10
313.41016
  20
237.38965
  0
VERTEX
  5
26e
  8
Layer_1
  10
314.37
  20
238.14404
  0
VERTEX
  5
26f
  8
Layer_1
  10
315.32397
  20
238.94446
  0
VERTEX
  5
270
  8
Layer_1
  10
316.27209
  20
239.79016
  0
VERTEX
  5
271
  8
Layer_1
  10
317.21436
  20
240.68024
  0
VERTEX
  5
272
  8
Layer_1
  10
318.15076
  20
241.61407
  0
VERTEX
  5
273
  8
Layer_1
  10
319.08105
  20
242.59082
  0
VERTEX
  5
274
  8
Layer_1
  10
320.00531
  20
243.60974
  0
VERTEX
  5
275
  8
Layer_1
  10
320.92346
  20
244.6701
  0
VERTEX
  5
276
  8
Layer_1
  10
321.83551
  20
245.77106
  0
VERTEX
  5
277
  8
Layer_1
  10
322.74133
  20
246.91187
  0
VERTEX
  5
278
  8
Layer_1
  10
323.64093
  20
248.09167
  0
VERTEX
  5
279
  8
Layer_1
  10
324.5343
  20
249.30981
  0
VERTEX
  5
27a
  8
Layer_1
  10
325.42133
  20
250.56549
  0
VERTEX
  5
27b
  8
Layer_1
  10
326.302
  20
251.85791
  0
VERTEX
  5
27c
  8
Layer_1
  10
327.17621
  20
253.18628
  0
VERTEX
  5
27d
  8
Layer_1
  10
328.04395
  20
254.5498
  0
VERTEX
  5
27e
  8
Layer_1
  10
328.90515
  20
255.94788
  0
VERTEX
  5
27f
  8
Layer_1
  10
329.75989
  20
257.37952
  0
VERTEX
  5
280
  8
Layer_1
  10
330.60803
  20
258.84406
  0
VERTEX
  5
281
  8
Layer_1
  10
331.4494
  20
260.3407
  0
VERTEX
  5
282
  8
Layer_1
  10
332.28418
  20
261.86865
  0
VERTEX
  5
283
  8
Layer_1
  10
333.11206
  20
263.42712
  0
VERTEX
  5
284
  8
Layer_1
  10
333.93323
  20
265.01544
  0
VERTEX
  5
285
  8
Layer_1
  10
334.7475
  20
266.63275
  0
VERTEX
  5
286
  8
Layer_1
  10
335.55493
  20
268.27832
  0
VERTEX
  5
287
  8
Layer_1
  10
336.35547
  20
269.95129
  0
VERTEX
  5
288
  8
Layer_1
  10
337.14893
  20
271.65094
  0
VERTEX
  5
289
  8
Layer_1
  10
337.93542
  20
273.37653
  0
VERTEX
  5
28a
  8
Layer_1
  10
338.71478
  20
275.1272
  0
VERTEX
  5
28b
  8
Layer_1
  10
339.48706
  20
276.90234
  0
VERTEX
  5
28c
  8
Layer_1
  10
341.01007
  20
280.52252
  0
VERTEX
  5
28d
  8
Layer_1
  10
342.50403
  20
284.2309
  0
VERTEX
  5
28e
  8
Layer_1
  10
343.96844
  20
288.02124
  0
VERTEX
  5
28f
  8
Layer_1
  10
345.40308
  20
291.88739
  0
VERTEX
  5
290
  8
Layer_1
  10
346.80756
  20
295.82312
  0
VERTEX
  5
291
  8
Layer_1
  10
348.1814
  20
299.82227
  0
VERTEX
  5
292
  8
Layer_1
  10
349.52429
  20
303.87863
  0
VERTEX
  5
293
  8
Layer_1
  10
350.83582
  20
307.98608
  0
VERTEX
  5
294
  8
Layer_1
  10
352.1156
  20
312.13834
  0
VERTEX
  5
295
  8
Layer_1
  10
353.36346
  20
316.32922
  0
VERTEX
  5
296
  8
Layer_1
  10
354.57886
  20
320.55261
  0
VERTEX
  5
297
  8
Layer_1
  10
355.76123
  20
324.80225
  0
VERTEX
  5
298
  8
Layer_1
  10
356.91046
  20
329.07196
  0
VERTEX
  5
299
  8
Layer_1
  10
358.02612
  20
333.35553
  0
VERTEX
  5
29a
  8
Layer_1
  10
359.10791
  20
337.64685
  0
VERTEX
  5
29b
  8
Layer_1
  10
360.15521
  20
341.93964
  0
VERTEX
  5
29c
  8
Layer_1
  10
361.16785
  20
346.22775
  0
VERTEX
  5
29d
  8
Layer_1
  10
362.14539
  20
350.50504
  0
VERTEX
  5
29e
  8
Layer_1
  10
363.0874
  20
354.76526
  0
VERTEX
  5
29f
  8
Layer_1
  10
363.99365
  20
359.0022
  0
VERTEX
  5
2a0
  8
Layer_1
  10
364.86365
  20
363.20972
  0
VERTEX
  5
2a1
  8
Layer_1
  10
365.69708
  20
367.38156
  0
VERTEX
  5
2a2
  8
Layer_1
  10
366.49353
  20
371.5116
  0
VERTEX
  5
2a3
  8
Layer_1
  10
367.25256
  20
375.59363
  0
VERTEX
  5
2a4
  8
Layer_1
  10
367.97388
  20
379.62146
  0
VERTEX
  5
2a5
  8
Layer_1
  10
368.65704
  20
383.58893
  0
VERTEX
  5
2a6
  8
Layer_1
  10
369.30176
  20
387.48981
  0
VERTEX
  5
2a7
  8
Layer_1
  10
369.90759
  20
391.31787
  0
VERTEX
  5
2a8
  8
Layer_1
  10
370.47412
  20
395.06699
  0
VERTEX
  5
2a9
  8
Layer_1
  10
371.00116
  20
398.73096
  0
VERTEX
  5
2aa
  8
Layer_1
  10
371.24963
  20
400.52908
  0
VERTEX
  5
2ab
  8
Layer_1
  10
371.48816
  20
402.30359
  0
VERTEX
  5
2ac
  8
Layer_1
  10
371.71655
  20
404.05371
  0
VERTEX
  5
2ad
  8
Layer_1
  10
371.93481
  20
405.77869
  0
VERTEX
  5
2ae
  8
Layer_1
  10
372.14282
  20
407.47772
  0
VERTEX
  5
2af
  8
Layer_1
  10
372.3407
  20
409.15005
  0
VERTEX
  5
2b0
  8
Layer_1
  10
372.5282
  20
410.79492
  0
VERTEX
  5
2b1
  8
Layer_1
  10
372.70544
  20
412.4115
  0
VERTEX
  5
2b2
  8
Layer_1
  10
372.87231
  20
413.99908
  0
VERTEX
  5
2b3
  8
Layer_1
  10
373.02869
  20
415.55685
  0
VERTEX
  5
2b4
  8
Layer_1
  10
373.17468
  20
417.08405
  0
VERTEX
  5
2b5
  8
Layer_1
  10
373.31006
  20
418.5799
  0
VERTEX
  5
2b6
  8
Layer_1
  10
373.43494
  20
420.04358
  0
VERTEX
  5
2b7
  8
Layer_1
  10
373.54919
  20
421.47443
  0
VERTEX
  5
2b8
  8
Layer_1
  10
373.65277
  20
422.87164
  0
VERTEX
  5
2b9
  8
Layer_1
  10
373.74567
  20
424.23434
  0
VERTEX
  5
2ba
  8
Layer_1
  10
373.82782
  20
425.56186
  0
VERTEX
  5
2bb
  8
Layer_1
  10
373.89917
  20
426.85336
  0
VERTEX
  5
2bc
  8
Layer_1
  10
373.95966
  20
428.10809
  0
VERTEX
  5
2bd
  8
Layer_1
  10
374.00928
  20
429.32532
  0
VERTEX
  5
2be
  8
Layer_1
  10
374.04791
  20
430.50421
  0
VERTEX
  5
2bf
  8
Layer_1
  10
374.07556
  20
431.64404
  0
VERTEX
  5
2c0
  8
Layer_1
  10
374.09222
  20
432.74402
  0
VERTEX
  5
2c1
  8
Layer_1
  10
374.09778
  20
433.80334
  0
VERTEX
  5
2c2
  8
Layer_1
  10
374.09778
  20
472.09503
  0
VERTEX
  5
2c3
  8
Layer_1
  10
374.07184
  20
473.12726
  0
VERTEX
  5
2c4
  8
Layer_1
  10
373.99487
  20
474.1456
  0
VERTEX
  5
2c5
  8
Layer_1
  10
373.86816
  20
475.1488
  0
VERTEX
  5
2c6
  8
Layer_1
  10
373.69287
  20
476.13562
  0
VERTEX
  5
2c7
  8
Layer_1
  10
373.47021
  20
477.10486
  0
VERTEX
  5
2c8
  8
Layer_1
  10
373.20154
  20
478.05524
  0
VERTEX
  5
2c9
  8
Layer_1
  10
372.888
  20
478.9855
  0
VERTEX
  5
2ca
  8
Layer_1
  10
372.53088
  20
479.89447
  0
VERTEX
  5
2cb
  8
Layer_1
  10
372.13141
  20
480.78088
  0
VERTEX
  5
2cc
  8
Layer_1
  10
371.69073
  20
481.64352
  0
VERTEX
  5
2cd
  8
Layer_1
  10
371.21021
  20
482.48108
  0
VERTEX
  5
2ce
  8
Layer_1
  10
370.69104
  20
483.29242
  0
VERTEX
  5
2cf
  8
Layer_1
  10
370.13452
  20
484.07623
  0
VERTEX
  5
2d0
  8
Layer_1
  10
369.54175
  20
484.8313
  0
VERTEX
  5
2d1
  8
Layer_1
  10
368.914
  20
485.5564
  0
VERTEX
  5
2d2
  8
Layer_1
  10
368.25262
  20
486.25021
  0
VERTEX
  5
2d3
  8
Layer_1
  10
367.55884
  20
486.91159
  0
VERTEX
  5
2d4
  8
Layer_1
  10
366.83374
  20
487.53928
  0
VERTEX
  5
2d5
  8
Layer_1
  10
366.07861
  20
488.13202
  0
VERTEX
  5
2d6
  8
Layer_1
  10
365.2948
  20
488.68863
  0
VERTEX
  5
2d7
  8
Layer_1
  10
364.48352
  20
489.20779
  0
VERTEX
  5
2d8
  8
Layer_1
  10
363.64587
  20
489.68829
  0
VERTEX
  5
2d9
  8
Layer_1
  10
362.78326
  20
490.12894
  0
VERTEX
  5
2da
  8
Layer_1
  10
361.89685
  20
490.52844
  0
VERTEX
  5
2db
  8
Layer_1
  10
360.98785
  20
490.88556
  0
VERTEX
  5
2dc
  8
Layer_1
  10
360.05756
  20
491.1991
  0
VERTEX
  5
2dd
  8
Layer_1
  10
359.10718
  20
491.46777
  0
VERTEX
  5
2de
  8
Layer_1
  10
358.13794
  20
491.69043
  0
VERTEX
  5
2df
  8
Layer_1
  10
357.15118
  20
491.86572
  0
VERTEX
  5
2e0
  8
Layer_1
  10
356.14795
  20
491.99249
  0
VERTEX
  5
2e1
  8
Layer_1
  10
355.12964
  20
492.06946
  0
VERTEX
  5
2e2
  8
Layer_1
  10
354.09747
  20
492.09537
  0
VERTEX
  5
2e3
  8
Layer_1
  10
94.097839
  20
492.09537
  0
SEQEND
  0
POLYLINE
  5
2e5
  8
Layer_2
  70
1
  66
1
  10
0
  20
0
  30
0
  0
VERTEX
  5
2e5
  8
Layer_2
  10
220.39587
  20
452.2821
  0
VERTEX
  5
2e6
  8
Layer_2
  10
220.18347
  20
452.49451
  0
VERTEX
  5
2e7
  8
Layer_2
  10
221.5979
  20
453.90839
  0
VERTEX
  5
2e8
  8
Layer_2
  10
226.59753
  20
453.90839
  0
VERTEX
  5
2e9
  8
Layer_2
  10
228.01196
  20
452.49451
  0
VERTEX
  5
2ea
  8
Layer_2
  10
227.80005
  20
452.2821
  0
VERTEX
  5
2eb
  8
Layer_2
  10
226.47351
  20
453.60864
  0
VERTEX
  5
2ec
  8
Layer_2
  10
221.72192
  20
453.60864
  0
VERTEX
  5
2ed
  8
Layer_2
  10
220.39587
  20
452.2821
  0
SEQEND
  0
POLYLINE
  5
2ef
  8
Layer_2
  70
1
  66
1
  10
0
  20
0
  30
0
  0
VERTEX
  5
2ef
  8
Layer_2
  10
180.39587
  20
452.2821
  0
VERTEX
  5
2f0
  8
Layer_2
  10
180.18347
  20
452.49451
  0
VERTEX
  5
2f1
  8
Layer_2
  10
181.5979
  20
453.90839
  0
VERTEX
  5
2f2
  8
Layer_2
  10
186.59753
  20
453.90839
  0
VERTEX
  5
2f3
  8
Layer_2
  10
188.01196
  20
452.49451
  0
VERTEX
  5
2f4
  8
Layer_2
  10
187.80005
  20
452.2821
  0
VERTEX
  5
2f5
  8
Layer_2
  10
186.47351
  20
453.60864
  0
VERTEX
  5
2f6
  8
Layer_2
  10
181.72192
  20
453.60864
  0
VERTEX
  5
2f7
  8
Layer_2
  10
180.39587
  20
452.2821
  0
SEQEND
  0
POLYLINE
  5
2f9
  8
Layer_2
  70
1
  66
1
  10
0
  20
0
  30
0
  0
VERTEX
  5
2f9
  8
Layer_2
  10
134.39587
  20
452.2821
  0
VERTEX
  5
2fa
  8
Layer_2
  10
134.18347
  20
452.49451
  0
VERTEX
  5
2fb
  8
Layer_2
  10
135.5979
  20
453.90839
  0
VERTEX
  5
2fc
  8
Layer_2
  10
140.59753
  20
453.90839
  0
VERTEX
  5
2fd
  8
Layer_2
  10
142.01196
  20
452.49451
  0
VERTEX
  5
2fe
  8
Layer_2
  10
141.80005
  20
452.2821
  0
VERTEX
  5
2ff
  8
Layer_2
  10
140.47351
  20
453.60864
  0
VERTEX
  5
300
  8
Layer_2
  10
135.72186
  20
453.60864
  0
VERTEX
  5
301
  8
Layer_2
  10
134.39587
  20
452.2821
  0
SEQEND
  0
POLYLINE
  5
303
  8
Layer_2
  70
1
  66
1
  10
0
  20
0
  30
0
  0
VERTEX
  5
303
  8
Layer_2
  10
85.395874
  20
452.2821
  0
VERTEX
  5
304
  8
Layer_2
  10
85.183472
  20
452.49451
  0
VERTEX
  5
305
  8
Layer_2
  10
86.5979
  20
453.90839
  0
VERTEX
  5
306
  8
Layer_2
  10
91.597534
  20
453.90839
  0
VERTEX
  5
307
  8
Layer_2
  10
93.011963
  20
452.49451
  0
VERTEX
  5
308
  8
Layer_2
  10
92.800049
  20
452.2821
  0
VERTEX
  5
309
  8
Layer_2
  10
91.473511
  20
453.60864
  0
VERTEX
  5
30a
  8
Layer_2
  10
86.721863
  20
453.60864
  0
VERTEX
  5
30b
  8
Layer_2
  10
85.395874
  20
452.2821
  0
SEQEND
  0
POLYLINE
  5
30d
  8
Layer_2
  70
1
  66
1
  10
0
  20
0
  30
0
  0
VERTEX
  5
30d
  8
Layer_2
  10
260.39587
  20
452.2821
  0
VERTEX
  5
30e
  8
Layer_2
  10
260.18347
  20
452.49451
  0
VERTEX
  5
30f
  8
Layer_2
  10
261.5979
  20
453.90839
  0
VERTEX
  5
310
  8
Layer_2
  10
266.59753
  20
453.90839
  0
VERTEX
  5
311
  8
Layer_2
  10
268.01196
  20
452.49451
  0
VERTEX
  5
312
  8
Layer_2
  10
267.80005
  20
452.2821
  0
VERTEX
  5
313
  8
Layer_2
  10
266.47351
  20
453.60864
  0
VERTEX
  5
314
  8
Layer_2
  10
261.72192
  20
453.60864
  0
VERTEX
  5
315
  8
Layer_2
  10
260.39587
  20
452.2821
  0
SEQEND
  0
POLYLINE
  5
317
  8
Layer_2
  70
1
  66
1
  10
0
  20
0
  30
0
  0
VERTEX
  5
317
  8
Layer_2
  10
306.39587
  20
452.2821
  0
VERTEX
  5
318
  8
Layer_2
  10
306.18347
  20
452.49451
  0
VERTEX
  5
319
  8
Layer_2
  10
307.5979
  20
453.90839
  0
VERTEX
  5
31a
  8
Layer_2
  10
312.59753
  20
453.90839
  0
VERTEX
  5
31b
  8
Layer_2
  10
314.01196
  20
452.49451
  0
VERTEX
  5
31c
  8
Layer_2
  10
313.80005
  20
452.2821
  0
VERTEX
  5
31d
  8
Layer_2
  10
312.47357
  20
453.60864
  0
VERTEX
  5
31e
  8
Layer_2
  10
307.72192
  20
453.60864
  0
VERTEX
  5
31f
  8
Layer_2
  10
306.39587
  20
452.2821
  0
SEQEND
  0
POLYLINE
  5
321
  8
Layer_2
  70
1
  66
1
  10
0
  20
0
  30
0
  0
VERTEX
  5
321
  8
Layer_2
  10
355.39587
  20
452.2821
  0
VERTEX
  5
322
  8
Layer_2
  10
355.18347
  20
452.49451
  0
VERTEX
  5
323
  8
Layer_2
  10
356.59784
  20
453.90839
  0
VERTEX
  5
324
  8
Layer_2
  10
361.59753
  20
453.90839
  0
VERTEX
  5
325
  8
Layer_2
  10
363.01196
  20
452.49451
  0
VERTEX
  5
326
  8
Layer_2
  10
362.80005
  20
452.2821
  0
VERTEX
  5
327
  8
Layer_2
  10
361.47351
  20
453.60864
  0
VERTEX
  5
328
  8
Layer_2
  10
356.72186
  20
453.60864
  0
VERTEX
  5
329
  8
Layer_2
  10
355.39587
  20
452.2821
  0
SEQEND
  0
POLYLINE
  5
32b
  8
Layer_2
  70
1
  66
1
  10
0
  20
0
  30
0
  0
VERTEX
  5
32b
  8
Layer_2
  10
182.06604
  20
244.46008
  0
VERTEX
  5
32c
  8
Layer_2
  10
181.87488
  20
244.26892
  0
VERTEX
  5
32d
  8
Layer_2
  10
183.14783
  20
242.99646
  0
VERTEX
  5
32e
  8
Layer_2
  10
187.64752
  20
242.99646
  0
VERTEX
  5
32f
  8
Layer_2
  10
188.92047
  20
244.26892
  0
VERTEX
  5
330
  8
Layer_2
  10
188.7298
  20
244.46008
  0
VERTEX
  5
331
  8
Layer_2
  10
187.53589
  20
243.26624
  0
VERTEX
  5
332
  8
Layer_2
  10
183.2594
  20
243.26624
  0
VERTEX
  5
333
  8
Layer_2
  10
182.06604
  20
244.46008
  0
SEQEND
  0
POLYLINE
  5
335
  8
Layer_2
  70
1
  66
1
  10
0
  20
0
  30
0
  0
VERTEX
  5
335
  8
Layer_2
  10
143.36603
  20
244.46008
  0
VERTEX
  5
336
  8
Layer_2
  10
143.17487
  20
244.26892
  0
VERTEX
  5
337
  8
Layer_2
  10
144.44781
  20
242.99646
  0
VERTEX
  5
338
  8
Layer_2
  10
148.94751
  20
242.99646
  0
VERTEX
  5
339
  8
Layer_2
  10
150.22046
  20
244.26892
  0
VERTEX
  5
33a
  8
Layer_2
  10
150.02979
  20
244.46008
  0
VERTEX
  5
33b
  8
Layer_2
  10
148.83594
  20
243.26624
  0
VERTEX
  5
33c
  8
Layer_2
  10
144.55945
  20
243.26624
  0
VERTEX
  5
33d
  8
Layer_2
  10
143.36603
  20
244.46008
  0
SEQEND
  0
POLYLINE
  5
33f
  8
Layer_2
  70
1
  66
1
  10
0
  20
0
  30
0
  0
VERTEX
  5
33f
  8
Layer_2
  10
220.76599
  20
244.46008
  0
VERTEX
  5
340
  8
Layer_2
  10
220.57483
  20
244.26892
  0
VERTEX
  5
341
  8
Layer_2
  10
221.84778
  20
242.99646
  0
VERTEX
  5
342
  8
Layer_2
  10
226.34753
  20
242.99646
  0
VERTEX
  5
343
  8
Layer_2
  10
227.62048
  20
244.26892
  0
VERTEX
  5
344
  8
Layer_2
  10
227.42981
  20
244.46008
  0
VERTEX
  5
345
  8
Layer_2
  10
226.2359
  20
243.26624
  0
VERTEX
  5
346
  8
Layer_2
  10
221.95941
  20
243.26624
  0
VERTEX
  5
347
  8
Layer_2
  10
220.76599
  20
244.46008
  0
SEQEND
  0
POLYLINE
  5
349
  8
Layer_2
  70
1
  66
1
  10
0
  20
0
  30
0
  0
VERTEX
  5
349
  8
Layer_2
  10
298.16602
  20
244.46008
  0
VERTEX
  5
34a
  8
Layer_2
  10
297.97485
  20
244.26892
  0
VERTEX
  5
34b
  8
Layer_2
  10
299.2478
  20
242.99646
  0
VERTEX
  5
34c
  8
Layer_2
  10
303.74756
  20
242.99646
  0
VERTEX
  5
34d
  8
Layer_2
  10
305.02051
  20
244.26892
  0
VERTEX
  5
34e
  8
Layer_2
  10
304.82977
  20
244.46008
  0
VERTEX
  5
34f
  8
Layer_2
  10
303.63593
  20
243.26624
  0
VERTEX
  5
350
  8
Layer_2
  10
299.35938
  20
243.26624
  0
VERTEX
  5
351
  8
Layer_2
  10
298.16602
  20
244.46008
  0
SEQEND
  0
POLYLINE
  5
353
  8
Layer_2
  70
1
  66
1
  10
0
  20
0
  30
0
  0
VERTEX
  5
353
  8
Layer_2
  10
259.466
  20
244.46008
  0
VERTEX
  5
354
  8
Layer_2
  10
259.2749
  20
244.26892
  0
VERTEX
  5
355
  8
Layer_2
  10
260.54785
  20
242.99646
  0
VERTEX
  5
356
  8
Layer_2
  10
265.04749
  20
242.99646
  0
VERTEX
  5
357
  8
Layer_2
  10
266.32043
  20
244.26892
  0
VERTEX
  5
358
  8
Layer_2
  10
266.12976
  20
244.46008
  0
VERTEX
  5
359
  8
Layer_2
  10
264.93591
  20
243.26624
  0
VERTEX
  5
35a
  8
Layer_2
  10
260.65942
  20
243.26624
  0
VERTEX
  5
35b
  8
Layer_2
  10
259.466
  20
244.46008
  0
SEQEND
  0
POLYLINE
  5
35d
  8
Layer_1
  70
1
  66
1
  10
0
  20
0
  30
0
  0
VERTEX
  5
35d
  8
Layer_1
  10
224.09717
  20
228.09546
  0
VERTEX
  5
35e
  8
Layer_1
  10
223.58594
  20
228.08252
  0
VERTEX
  5
35f
  8
Layer_1
  10
223.08948
  20
228.04462
  0
VERTEX
  5
360
  8
Layer_1
  10
222.61035
  20
227.98297
  0
VERTEX
  5
361
  8
Layer_1
  10
222.15094
  20
227.89893
  0
VERTEX
  5
362
  8
Layer_1
  10
221.71387
  20
227.7937
  0
VERTEX
  5
363
  8
Layer_1
  10
221.30164
  20
227.66846
  0
VERTEX
  5
364
  8
Layer_1
  10
220.91675
  20
227.52448
  0
VERTEX
  5
365
  8
Layer_1
  10
220.56171
  20
227.3631
  0
VERTEX
  5
366
  8
Layer_1
  10
220.23907
  20
227.18555
  0
VERTEX
  5
367
  8
Layer_1
  10
219.95129
  20
226.99304
  0
VERTEX
  5
368
  8
Layer_1
  10
219.70087
  20
226.78687
  0
VERTEX
  5
369
  8
Layer_1
  10
219.4903
  20
226.56836
  0
VERTEX
  5
36a
  8
Layer_1
  10
219.32214
  20
226.33868
  0
VERTEX
  5
36b
  8
Layer_1
  10
219.19897
  20
226.09912
  0
VERTEX
  5
36c
  8
Layer_1
  10
219.12317
  20
225.85095
  0
VERTEX
  5
36d
  8
Layer_1
  10
219.09747
  20
225.59534
  0
VERTEX
  5
36e
  8
Layer_1
  10
219.13293
  20
225.30359
  0
VERTEX
  5
36f
  8
Layer_1
  10
219.23486
  20
225.0188
  0
VERTEX
  5
370
  8
Layer_1
  10
219.4007
  20
224.74353
  0
VERTEX
  5
371
  8
Layer_1
  10
219.62781
  20
224.48047
  0
VERTEX
  5
372
  8
Layer_1
  10
219.91364
  20
224.23206
  0
VERTEX
  5
373
  8
Layer_1
  10
220.25562
  20
224.00098
  0
VERTEX
  5
374
  8
Layer_1
  10
220.65106
  20
223.78979
  0
VERTEX
  5
375
  8
Layer_1
  10
221.09735
  20
223.60107
  0
VERTEX
  5
376
  8
Layer_1
  10
221.09735
  20
223.09521
  0
VERTEX
  5
377
  8
Layer_1
  10
219.09747
  20
223.09521
  0
VERTEX
  5
378
  8
Layer_1
  10
218.58484
  20
223.06946
  0
VERTEX
  5
379
  8
Layer_1
  10
218.08728
  20
222.99402
  0
VERTEX
  5
37a
  8
Layer_1
  10
217.60742
  20
222.87122
  0
VERTEX
  5
37b
  8
Layer_1
  10
217.14764
  20
222.70355
  0
VERTEX
  5
37c
  8
Layer_1
  10
216.71045
  20
222.49353
  0
VERTEX
  5
37d
  8
Layer_1
  10
216.29822
  20
222.24365
  0
VERTEX
  5
37e
  8
Layer_1
  10
215.91357
  20
221.9563
  0
VERTEX
  5
37f
  8
Layer_1
  10
215.55884
  20
221.63409
  0
VERTEX
  5
380
  8
Layer_1
  10
215.23663
  20
221.27942
  0
VERTEX
  5
381
  8
Layer_1
  10
214.94934
  20
220.89478
  0
VERTEX
  5
382
  8
Layer_1
  10
214.69946
  20
220.48254
  0
VERTEX
  5
383
  8
Layer_1
  10
214.48944
  20
220.04529
  0
VERTEX
  5
384
  8
Layer_1
  10
214.32178
  20
219.58545
  0
VERTEX
  5
385
  8
Layer_1
  10
214.19897
  20
219.10559
  0
VERTEX
  5
386
  8
Layer_1
  10
214.12354
  20
218.60815
  0
VERTEX
  5
387
  8
Layer_1
  10
214.09778
  20
218.09552
  0
VERTEX
  5
388
  8
Layer_1
  10
214.09778
  20
186.0954
  0
VERTEX
  5
389
  8
Layer_1
  10
214.12354
  20
185.58276
  0
VERTEX
  5
38a
  8
Layer_1
  10
214.19897
  20
185.08521
  0
VERTEX
  5
38b
  8
Layer_1
  10
214.32178
  20
184.60535
  0
VERTEX
  5
38c
  8
Layer_1
  10
214.48944
  20
184.14551
  0
VERTEX
  5
38d
  8
Layer_1
  10
214.69946
  20
183.70825
  0
VERTEX
  5
38e
  8
Layer_1
  10
214.94934
  20
183.29596
  0
VERTEX
  5
38f
  8
Layer_1
  10
215.23663
  20
182.91125
  0
VERTEX
  5
390
  8
Layer_1
  10
215.55884
  20
182.55652
  0
VERTEX
  5
391
  8
Layer_1
  10
215.91357
  20
182.23425
  0
VERTEX
  5
392
  8
Layer_1
  10
216.29822
  20
181.9469
  0
VERTEX
  5
393
  8
Layer_1
  10
216.71045
  20
181.69702
  0
VERTEX
  5
394
  8
Layer_1
  10
217.14764
  20
181.48694
  0
VERTEX
  5
395
  8
Layer_1
  10
217.60742
  20
181.31921
  0
VERTEX
  5
396
  8
Layer_1
  10
218.08728
  20
181.19641
  0
VERTEX
  5
397
  8
Layer_1
  10
218.58484
  20
181.12097
  0
VERTEX
  5
398
  8
Layer_1
  10
219.09747
  20
181.09521
  0
VERTEX
  5
399
  8
Layer_1
  10
207.09766
  20
181.09521
  0
VERTEX
  5
39a
  8
Layer_1
  10
207.61029
  20
181.12097
  0
VERTEX
  5
39b
  8
Layer_1
  10
208.10779
  20
181.19641
  0
VERTEX
  5
39c
  8
Layer_1
  10
208.58765
  20
181.31921
  0
VERTEX
  5
39d
  8
Layer_1
  10
209.04749
  20
181.48694
  0
VERTEX
  5
39e
  8
Layer_1
  10
209.48474
  20
181.69702
  0
VERTEX
  5
39f
  8
Layer_1
  10
209.89697
  20
181.9469
  0
VERTEX
  5
3a0
  8
Layer_1
  10
210.28162
  20
182.23425
  0
VERTEX
  5
3a1
  8
Layer_1
  10
210.63623
  20
182.55652
  0
VERTEX
  5
3a2
  8
Layer_1
  10
210.9585
  20
182.91125
  0
VERTEX
  5
3a3
  8
Layer_1
  10
211.24585
  20
183.29596
  0
VERTEX
  5
3a4
  8
Layer_1
  10
211.49573
  20
183.70825
  0
VERTEX
  5
3a5
  8
Layer_1
  10
211.70569
  20
184.14551
  0
VERTEX
  5
3a6
  8
Layer_1
  10
211.87341
  20
184.60535
  0
VERTEX
  5
3a7
  8
Layer_1
  10
211.99615
  20
185.08521
  0
VERTEX
  5
3a8
  8
Layer_1
  10
212.07166
  20
185.58276
  0
VERTEX
  5
3a9
  8
Layer_1
  10
212.09735
  20
186.0954
  0
VERTEX
  5
3aa
  8
Layer_1
  10
212.09735
  20
216.09509
  0
VERTEX
  5
3ab
  8
Layer_1
  10
212.07166
  20
216.60773
  0
VERTEX
  5
3ac
  8
Layer_1
  10
211.99615
  20
217.10522
  0
VERTEX
  5
3ad
  8
Layer_1
  10
211.87341
  20
217.58508
  0
VERTEX
  5
3ae
  8
Layer_1
  10
211.70569
  20
218.04492
  0
VERTEX
  5
3af
  8
Layer_1
  10
211.49573
  20
218.48218
  0
VERTEX
  5
3b0
  8
Layer_1
  10
211.24585
  20
218.89447
  0
VERTEX
  5
3b1
  8
Layer_1
  10
210.9585
  20
219.27917
  0
VERTEX
  5
3b2
  8
Layer_1
  10
210.63623
  20
219.63397
  0
VERTEX
  5
3b3
  8
Layer_1
  10
210.28162
  20
219.95624
  0
VERTEX
  5
3b4
  8
Layer_1
  10
209.89697
  20
220.24359
  0
VERTEX
  5
3b5
  8
Layer_1
  10
209.48474
  20
220.49353
  0
VERTEX
  5
3b6
  8
Layer_1
  10
209.04749
  20
220.70355
  0
VERTEX
  5
3b7
  8
Layer_1
  10
208.58765
  20
220.87122
  0
VERTEX
  5
3b8
  8
Layer_1
  10
208.10779
  20
220.99408
  0
VERTEX
  5
3b9
  8
Layer_1
  10
207.61029
  20
221.06958
  0
VERTEX
  5
3ba
  8
Layer_1
  10
207.09766
  20
221.09534
  0
VERTEX
  5
3bb
  8
Layer_1
  10
205.09778
  20
221.09534
  0
VERTEX
  5
3bc
  8
Layer_1
  10
205.09778
  20
221.60175
  0
VERTEX
  5
3bd
  8
Layer_1
  10
205.54395
  20
221.79041
  0
VERTEX
  5
3be
  8
Layer_1
  10
205.93933
  20
222.00159
  0
VERTEX
  5
3bf
  8
Layer_1
  10
206.28125
  20
222.2326
  0
VERTEX
  5
3c0
  8
Layer_1
  10
206.56702
  20
222.4809
  0
VERTEX
  5
3c1
  8
Layer_1
  10
206.79419
  20
222.7439
  0
VERTEX
  5
3c2
  8
Layer_1
  10
206.96008
  20
223.0191
  0
VERTEX
  5
3c3
  8
Layer_1
  10
207.06213
  20
223.30383
  0
VERTEX
  5
3c4
  8
Layer_1
  10
207.09766
  20
223.59546
  0
VERTEX
  5
3c5
  8
Layer_1
  10
207.07318
  20
223.84259
  0
VERTEX
  5
3c6
  8
Layer_1
  10
207.00067
  20
224.08557
  0
VERTEX
  5
3c7
  8
Layer_1
  10
206.88147
  20
224.32275
  0
VERTEX
  5
3c8
  8
Layer_1
  10
206.71704
  20
224.55237
  0
VERTEX
  5
3c9
  8
Layer_1
  10
206.50854
  20
224.77295
  0
VERTEX
  5
3ca
  8
Layer_1
  10
206.25751
  20
224.98267
  0
VERTEX
  5
3cb
  8
Layer_1
  10
205.96521
  20
225.18005
  0
VERTEX
  5
3cc
  8
Layer_1
  10
205.633
  20
225.3634
  0
VERTEX
  5
3cd
  8
Layer_1
  10
205.26617
  20
225.52948
  0
VERTEX
  5
3ce
  8
Layer_1
  10
204.87134
  20
225.6756
  0
VERTEX
  5
3cf
  8
Layer_1
  10
204.45172
  20
225.80115
  0
VERTEX
  5
3d0
  8
Layer_1
  10
204.01074
  20
225.90533
  0
VERTEX
  5
3d1
  8
Layer_1
  10
203.55151
  20
225.98755
  0
VERTEX
  5
3d2
  8
Layer_1
  10
203.07739
  20
226.04712
  0
VERTEX
  5
3d3
  8
Layer_1
  10
202.59161
  20
226.08331
  0
VERTEX
  5
3d4
  8
Layer_1
  10
202.09747
  20
226.09558
  0
VERTEX
  5
3d5
  8
Layer_1
  10
201.5863
  20
226.08264
  0
VERTEX
  5
3d6
  8
Layer_1
  10
201.08978
  20
226.04474
  0
VERTEX
  5
3d7
  8
Layer_1
  10
200.6106
  20
225.98309
  0
VERTEX
  5
3d8
  8
Layer_1
  10
200.15125
  20
225.89905
  0
VERTEX
  5
3d9
  8
Layer_1
  10
199.71423
  20
225.79382
  0
VERTEX
  5
3da
  8
Layer_1
  10
199.302
  20
225.66858
  0
VERTEX
  5
3db
  8
Layer_1
  10
198.91705
  20
225.5246
  0
VERTEX
  5
3dc
  8
Layer_1
  10
198.56201
  20
225.36322
  0
VERTEX
  5
3dd
  8
Layer_1
  10
198.23932
  20
225.18567
  0
VERTEX
  5
3de
  8
Layer_1
  10
197.95154
  20
224.99316
  0
VERTEX
  5
3df
  8
Layer_1
  10
197.70111
  20
224.78699
  0
VERTEX
  5
3e0
  8
Layer_1
  10
197.49054
  20
224.56848
  0
VERTEX
  5
3e1
  8
Layer_1
  10
197.32239
  20
224.33881
  0
VERTEX
  5
3e2
  8
Layer_1
  10
197.19922
  20
224.09924
  0
VERTEX
  5
3e3
  8
Layer_1
  10
197.12354
  20
223.85107
  0
VERTEX
  5
3e4
  8
Layer_1
  10
197.09778
  20
223.59546
  0
VERTEX
  5
3e5
  8
Layer_1
  10
197.1333
  20
223.30371
  0
VERTEX
  5
3e6
  8
Layer_1
  10
197.23523
  20
223.01892
  0
VERTEX
  5
3e7
  8
Layer_1
  10
197.40106
  20
222.74365
  0
VERTEX
  5
3e8
  8
Layer_1
  10
197.62817
  20
222.48059
  0
VERTEX
  5
3e9
  8
Layer_1
  10
197.91394
  20
222.23218
  0
VERTEX
  5
3ea
  8
Layer_1
  10
198.25586
  20
222.0011
  0
VERTEX
  5
3eb
  8
Layer_1
  10
198.65131
  20
221.78992
  0
VERTEX
  5
3ec
  8
Layer_1
  10
199.09766
  20
221.6012
  0
VERTEX
  5
3ed
  8
Layer_1
  10
199.09766
  20
221.09534
  0
VERTEX
  5
3ee
  8
Layer_1
  10
197.09778
  20
221.09534
  0
VERTEX
  5
3ef
  8
Layer_1
  10
196.58514
  20
221.06958
  0
VERTEX
  5
3f0
  8
Layer_1
  10
196.08765
  20
220.99408
  0
VERTEX
  5
3f1
  8
Layer_1
  10
195.60779
  20
220.87122
  0
VERTEX
  5
3f2
  8
Layer_1
  10
195.14795
  20
220.70355
  0
VERTEX
  5
3f3
  8
Layer_1
  10
194.71069
  20
220.49353
  0
VERTEX
  5
3f4
  8
Layer_1
  10
194.2984
  20
220.24359
  0
VERTEX
  5
3f5
  8
Layer_1
  10
193.9137
  20
219.95624
  0
VERTEX
  5
3f6
  8
Layer_1
  10
193.5589
  20
219.63397
  0
VERTEX
  5
3f7
  8
Layer_1
  10
193.23663
  20
219.27917
  0
VERTEX
  5
3f8
  8
Layer_1
  10
192.94928
  20
218.89447
  0
VERTEX
  5
3f9
  8
Layer_1
  10
192.69934
  20
218.48218
  0
VERTEX
  5
3fa
  8
Layer_1
  10
192.48932
  20
218.04492
  0
VERTEX
  5
3fb
  8
Layer_1
  10
192.32166
  20
217.58508
  0
VERTEX
  5
3fc
  8
Layer_1
  10
192.19879
  20
217.10522
  0
VERTEX
  5
3fd
  8
Layer_1
  10
192.12329
  20
216.60773
  0
VERTEX
  5
3fe
  8
Layer_1
  10
192.09753
  20
216.09509
  0
VERTEX
  5
3ff
  8
Layer_1
  10
192.09753
  20
186.0954
  0
VERTEX
  5
400
  8
Layer_1
  10
192.12329
  20
185.58276
  0
VERTEX
  5
401
  8
Layer_1
  10
192.19879
  20
185.08521
  0
VERTEX
  5
402
  8
Layer_1
  10
192.32166
  20
184.60535
  0
VERTEX
  5
403
  8
Layer_1
  10
192.48932
  20
184.14551
  0
VERTEX
  5
404
  8
Layer_1
  10
192.69934
  20
183.70825
  0
VERTEX
  5
405
  8
Layer_1
  10
192.94928
  20
183.29596
  0
VERTEX
  5
406
  8
Layer_1
  10
193.23663
  20
182.91125
  0
VERTEX
  5
407
  8
Layer_1
  10
193.5589
  20
182.55652
  0
VERTEX
  5
408
  8
Layer_1
  10
193.9137
  20
182.23425
  0
VERTEX
  5
409
  8
Layer_1
  10
194.2984
  20
181.9469
  0
VERTEX
  5
40a
  8
Layer_1
  10
194.71069
  20
181.69702
  0
VERTEX
  5
40b
  8
Layer_1
  10
195.14795
  20
181.48694
  0
VERTEX
  5
40c
  8
Layer_1
  10
195.60779
  20
181.31921
  0
VERTEX
  5
40d
  8
Layer_1
  10
196.08765
  20
181.19641
  0
VERTEX
  5
40e
  8
Layer_1
  10
196.58514
  20
181.12097
  0
VERTEX
  5
40f
  8
Layer_1
  10
197.09778
  20
181.09521
  0
VERTEX
  5
410
  8
Layer_1
  10
179.09729
  20
181.09521
  0
VERTEX
  5
411
  8
Layer_1
  10
179.60992
  20
181.12097
  0
VERTEX
  5
412
  8
Layer_1
  10
180.10742
  20
181.19641
  0
VERTEX
  5
413
  8
Layer_1
  10
180.58728
  20
181.31921
  0
VERTEX
  5
414
  8
Layer_1
  10
181.04712
  20
181.48694
  0
VERTEX
  5
415
  8
Layer_1
  10
181.48438
  20
181.69702
  0
VERTEX
  5
416
  8
Layer_1
  10
181.89667
  20
181.9469
  0
VERTEX
  5
417
  8
Layer_1
  10
182.28137
  20
182.23425
  0
VERTEX
  5
418
  8
Layer_1
  10
182.63617
  20
182.55652
  0
VERTEX
  5
419
  8
Layer_1
  10
182.95844
  20
182.91125
  0
VERTEX
  5
41a
  8
Layer_1
  10
183.24579
  20
183.29596
  0
VERTEX
  5
41b
  8
Layer_1
  10
183.49573
  20
183.70825
  0
VERTEX
  5
41c
  8
Layer_1
  10
183.70575
  20
184.14551
  0
VERTEX
  5
41d
  8
Layer_1
  10
183.87341
  20
184.60535
  0
VERTEX
  5
41e
  8
Layer_1
  10
183.99628
  20
185.08521
  0
VERTEX
  5
41f
  8
Layer_1
  10
184.07178
  20
185.58276
  0
VERTEX
  5
420
  8
Layer_1
  10
184.09753
  20
186.0954
  0
VERTEX
  5
421
  8
Layer_1
  10
184.09753
  20
204.09534
  0
VERTEX
  5
422
  8
Layer_1
  10
184.07178
  20
204.60797
  0
VERTEX
  5
423
  8
Layer_1
  10
183.99628
  20
205.10547
  0
VERTEX
  5
424
  8
Layer_1
  10
183.87341
  20
205.58533
  0
VERTEX
  5
425
  8
Layer_1
  10
183.70575
  20
206.04517
  0
VERTEX
  5
426
  8
Layer_1
  10
183.49573
  20
206.48242
  0
VERTEX
  5
427
  8
Layer_1
  10
183.24579
  20
206.89471
  0
VERTEX
  5
428
  8
Layer_1
  10
182.95844
  20
207.27942
  0
VERTEX
  5
429
  8
Layer_1
  10
182.63617
  20
207.63422
  0
VERTEX
  5
42a
  8
Layer_1
  10
182.28137
  20
207.95648
  0
VERTEX
  5
42b
  8
Layer_1
  10
181.89667
  20
208.24384
  0
VERTEX
  5
42c
  8
Layer_1
  10
181.48438
  20
208.49377
  0
VERTEX
  5
42d
  8
Layer_1
  10
181.04712
  20
208.7038
  0
VERTEX
  5
42e
  8
Layer_1
  10
180.58728
  20
208.87146
  0
VERTEX
  5
42f
  8
Layer_1
  10
180.10742
  20
208.99432
  0
VERTEX
  5
430
  8
Layer_1
  10
179.60992
  20
209.06982
  0
VERTEX
  5
431
  8
Layer_1
  10
179.09729
  20
209.09558
  0
VERTEX
  5
432
  8
Layer_1
  10
177.09741
  20
209.09558
  0
VERTEX
  5
433
  8
Layer_1
  10
177.09741
  20
209.60193
  0
VERTEX
  5
434
  8
Layer_1
  10
177.54358
  20
209.79065
  0
VERTEX
  5
435
  8
Layer_1
  10
177.93896
  20
210.00177
  0
VERTEX
  5
436
  8
Layer_1
  10
178.28088
  20
210.23285
  0
VERTEX
  5
437
  8
Layer_1
  10
178.56665
  20
210.48114
  0
VERTEX
  5
438
  8
Layer_1
  10
178.79382
  20
210.74414
  0
VERTEX
  5
439
  8
Layer_1
  10
178.95972
  20
211.01935
  0
VERTEX
  5
43a
  8
Layer_1
  10
179.06177
  20
211.30408
  0
VERTEX
  5
43b
  8
Layer_1
  10
179.09729
  20
211.59564
  0
VERTEX
  5
43c
  8
Layer_1
  10
179.07281
  20
211.84277
  0
VERTEX
  5
43d
  8
Layer_1
  10
179.00031
  20
212.08575
  0
VERTEX
  5
43e
  8
Layer_1
  10
178.8811
  20
212.32288
  0
VERTEX
  5
43f
  8
Layer_1
  10
178.71667
  20
212.55255
  0
VERTEX
  5
440
  8
Layer_1
  10
178.50818
  20
212.77307
  0
VERTEX
  5
441
  8
Layer_1
  10
178.2572
  20
212.98285
  0
VERTEX
  5
442
  8
Layer_1
  10
177.9649
  20
213.1803
  0
VERTEX
  5
443
  8
Layer_1
  10
177.63269
  20
213.36365
  0
VERTEX
  5
444
  8
Layer_1
  10
177.26587
  20
213.52972
  0
VERTEX
  5
445
  8
Layer_1
  10
176.87109
  20
213.67578
  0
VERTEX
  5
446
  8
Layer_1
  10
176.45148
  20
213.80127
  0
VERTEX
  5
447
  8
Layer_1
  10
176.01038
  20
213.90552
  0
VERTEX
  5
448
  8
Layer_1
  10
175.55115
  20
213.98779
  0
VERTEX
  5
449
  8
Layer_1
  10
175.07703
  20
214.04736
  0
VERTEX
  5
44a
  8
Layer_1
  10
174.59125
  20
214.08356
  0
VERTEX
  5
44b
  8
Layer_1
  10
174.09711
  20
214.09576
  0
VERTEX
  5
44c
  8
Layer_1
  10
173.58594
  20
214.08276
  0
VERTEX
  5
44d
  8
Layer_1
  10
173.08942
  20
214.04492
  0
VERTEX
  5
44e
  8
Layer_1
  10
172.61023
  20
213.98334
  0
VERTEX
  5
44f
  8
Layer_1
  10
172.15088
  20
213.89923
  0
VERTEX
  5
450
  8
Layer_1
  10
171.71387
  20
213.79395
  0
VERTEX
  5
451
  8
Layer_1
  10
171.30164
  20
213.6687
  0
VERTEX
  5
452
  8
Layer_1
  10
170.91669
  20
213.52478
  0
VERTEX
  5
453
  8
Layer_1
  10
170.56165
  20
213.3634
  0
VERTEX
  5
454
  8
Layer_1
  10
170.23895
  20
213.18591
  0
VERTEX
  5
455
  8
Layer_1
  10
169.95117
  20
212.99341
  0
VERTEX
  5
456
  8
Layer_1
  10
169.70074
  20
212.78723
  0
VERTEX
  5
457
  8
Layer_1
  10
169.49017
  20
212.56873
  0
VERTEX
  5
458
  8
Layer_1
  10
169.32202
  20
212.33905
  0
VERTEX
  5
459
  8
Layer_1
  10
169.19885
  20
212.09949
  0
VERTEX
  5
45a
  8
Layer_1
  10
169.12317
  20
211.8512
  0
VERTEX
  5
45b
  8
Layer_1
  10
169.09741
  20
211.59564
  0
VERTEX
  5
45c
  8
Layer_1
  10
169.13293
  20
211.30396
  0
VERTEX
  5
45d
  8
Layer_1
  10
169.23486
  20
211.01917
  0
VERTEX
  5
45e
  8
Layer_1
  10
169.4007
  20
210.7439
  0
VERTEX
  5
45f
  8
Layer_1
  10
169.62781
  20
210.48083
  0
VERTEX
  5
460
  8
Layer_1
  10
169.91357
  20
210.23242
  0
VERTEX
  5
461
  8
Layer_1
  10
170.25549
  20
210.00134
  0
VERTEX
  5
462
  8
Layer_1
  10
170.65094
  20
209.79016
  0
VERTEX
  5
463
  8
Layer_1
  10
171.09729
  20
209.60144
  0
VERTEX
  5
464
  8
Layer_1
  10
171.09729
  20
209.09558
  0
VERTEX
  5
465
  8
Layer_1
  10
169.09741
  20
209.09558
  0
VERTEX
  5
466
  8
Layer_1
  10
168.58478
  20
209.06982
  0
VERTEX
  5
467
  8
Layer_1
  10
168.08728
  20
208.99432
  0
VERTEX
  5
468
  8
Layer_1
  10
167.60742
  20
208.87146
  0
VERTEX
  5
469
  8
Layer_1
  10
167.14758
  20
208.7038
  0
VERTEX
  5
46a
  8
Layer_1
  10
166.71033
  20
208.49377
  0
VERTEX
  5
46b
  8
Layer_1
  10
166.2981
  20
208.24384
  0
VERTEX
  5
46c
  8
Layer_1
  10
165.91345
  20
207.95648
  0
VERTEX
  5
46d
  8
Layer_1
  10
165.55884
  20
207.63422
  0
VERTEX
  5
46e
  8
Layer_1
  10
165.23657
  20
207.27942
  0
VERTEX
  5
46f
  8
Layer_1
  10
164.94922
  20
206.89471
  0
VERTEX
  5
470
  8
Layer_1
  10
164.69934
  20
206.48242
  0
VERTEX
  5
471
  8
Layer_1
  10
164.48938
  20
206.04517
  0
VERTEX
  5
472
  8
Layer_1
  10
164.32166
  20
205.58533
  0
VERTEX
  5
473
  8
Layer_1
  10
164.19891
  20
205.10547
  0
VERTEX
  5
474
  8
Layer_1
  10
164.12341
  20
204.60797
  0
VERTEX
  5
475
  8
Layer_1
  10
164.09772
  20
204.09534
  0
VERTEX
  5
476
  8
Layer_1
  10
164.09772
  20
186.09534
  0
VERTEX
  5
477
  8
Layer_1
  10
164.12341
  20
185.5827
  0
VERTEX
  5
478
  8
Layer_1
  10
164.19891
  20
185.08521
  0
VERTEX
  5
479
  8
Layer_1
  10
164.32166
  20
184.60535
  0
VERTEX
  5
47a
  8
Layer_1
  10
164.48938
  20
184.14551
  0
VERTEX
  5
47b
  8
Layer_1
  10
164.69934
  20
183.70825
  0
VERTEX
  5
47c
  8
Layer_1
  10
164.94922
  20
183.29596
  0
VERTEX
  5
47d
  8
Layer_1
  10
165.23657
  20
182.91125
  0
VERTEX
  5
47e
  8
Layer_1
  10
165.55884
  20
182.55652
  0
VERTEX
  5
47f
  8
Layer_1
  10
165.91345
  20
182.23419
  0
VERTEX
  5
480
  8
Layer_1
  10
166.2981
  20
181.94684
  0
VERTEX
  5
481
  8
Layer_1
  10
166.71033
  20
181.6969
  0
VERTEX
  5
482
  8
Layer_1
  10
167.14758
  20
181.48688
  0
VERTEX
  5
483
  8
Layer_1
  10
167.60742
  20
181.31921
  0
VERTEX
  5
484
  8
Layer_1
  10
168.08728
  20
181.19641
  0
VERTEX
  5
485
  8
Layer_1
  10
168.58478
  20
181.12085
  0
VERTEX
  5
486
  8
Layer_1
  10
169.09741
  20
181.09515
  0
VERTEX
  5
487
  8
Layer_1
  10
139.09772
  20
181.09515
  0
VERTEX
  5
488
  8
Layer_1
  10
139.61035
  20
181.12085
  0
VERTEX
  5
489
  8
Layer_1
  10
140.10779
  20
181.19641
  0
VERTEX
  5
48a
  8
Layer_1
  10
140.58765
  20
181.31921
  0
VERTEX
  5
48b
  8
Layer_1
  10
141.04749
  20
181.48688
  0
VERTEX
  5
48c
  8
Layer_1
  10
141.48474
  20
181.6969
  0
VERTEX
  5
48d
  8
Layer_1
  10
141.89697
  20
181.94684
  0
VERTEX
  5
48e
  8
Layer_1
  10
142.28162
  20
182.23419
  0
VERTEX
  5
48f
  8
Layer_1
  10
142.63629
  20
182.55652
  0
VERTEX
  5
490
  8
Layer_1
  10
142.9585
  20
182.91125
  0
VERTEX
  5
491
  8
Layer_1
  10
143.24585
  20
183.29596
  0
VERTEX
  5
492
  8
Layer_1
  10
143.49573
  20
183.70825
  0
VERTEX
  5
493
  8
Layer_1
  10
143.70575
  20
184.14551
  0
VERTEX
  5
494
  8
Layer_1
  10
143.87341
  20
184.60535
  0
VERTEX
  5
495
  8
Layer_1
  10
143.99622
  20
185.08521
  0
VERTEX
  5
496
  8
Layer_1
  10
144.07166
  20
185.5827
  0
VERTEX
  5
497
  8
Layer_1
  10
144.09741
  20
186.09534
  0
VERTEX
  5
498
  8
Layer_1
  10
144.09741
  20
190.09509
  0
VERTEX
  5
499
  8
Layer_1
  10
144.07166
  20
190.60773
  0
VERTEX
  5
49a
  8
Layer_1
  10
143.99622
  20
191.10522
  0
VERTEX
  5
49b
  8
Layer_1
  10
143.87341
  20
191.58508
  0
VERTEX
  5
49c
  8
Layer_1
  10
143.70575
  20
192.04492
  0
VERTEX
  5
49d
  8
Layer_1
  10
143.49573
  20
192.48218
  0
VERTEX
  5
49e
  8
Layer_1
  10
143.24585
  20
192.89447
  0
VERTEX
  5
49f
  8
Layer_1
  10
142.9585
  20
193.27917
  0
VERTEX
  5
4a0
  8
Layer_1
  10
142.63629
  20
193.63397
  0
VERTEX
  5
4a1
  8
Layer_1
  10
142.28162
  20
193.95624
  0
VERTEX
  5
4a2
  8
Layer_1
  10
141.89697
  20
194.24359
  0
VERTEX
  5
4a3
  8
Layer_1
  10
141.48474
  20
194.49353
  0
VERTEX
  5
4a4
  8
Layer_1
  10
141.04749
  20
194.70355
  0
VERTEX
  5
4a5
  8
Layer_1
  10
140.58765
  20
194.87122
  0
VERTEX
  5
4a6
  8
Layer_1
  10
140.10779
  20
194.99408
  0
VERTEX
  5
4a7
  8
Layer_1
  10
139.61035
  20
195.06958
  0
VERTEX
  5
4a8
  8
Layer_1
  10
139.09772
  20
195.09534
  0
VERTEX
  5
4a9
  8
Layer_1
  10
137.09784
  20
195.09534
  0
VERTEX
  5
4aa
  8
Layer_1
  10
137.09784
  20
195.60181
  0
VERTEX
  5
4ab
  8
Layer_1
  10
137.54407
  20
195.79041
  0
VERTEX
  5
4ac
  8
Layer_1
  10
137.93945
  20
196.00159
  0
VERTEX
  5
4ad
  8
Layer_1
  10
138.28137
  20
196.2326
  0
VERTEX
  5
4ae
  8
Layer_1
  10
138.56714
  20
196.4809
  0
VERTEX
  5
4af
  8
Layer_1
  10
138.79425
  20
196.7439
  0
VERTEX
  5
4b0
  8
Layer_1
  10
138.96008
  20
197.0191
  0
VERTEX
  5
4b1
  8
Layer_1
  10
139.06213
  20
197.30383
  0
VERTEX
  5
4b2
  8
Layer_1
  10
139.09772
  20
197.59546
  0
VERTEX
  5
4b3
  8
Layer_1
  10
139.07324
  20
197.84259
  0
VERTEX
  5
4b4
  8
Layer_1
  10
139.00073
  20
198.08557
  0
VERTEX
  5
4b5
  8
Layer_1
  10
138.88147
  20
198.32275
  0
VERTEX
  5
4b6
  8
Layer_1
  10
138.71704
  20
198.55237
  0
VERTEX
  5
4b7
  8
Layer_1
  10
138.50854
  20
198.77295
  0
VERTEX
  5
4b8
  8
Layer_1
  10
138.25751
  20
198.98267
  0
VERTEX
  5
4b9
  8
Layer_1
  10
137.96521
  20
199.18005
  0
VERTEX
  5
4ba
  8
Layer_1
  10
137.633
  20
199.36346
  0
VERTEX
  5
4bb
  8
Layer_1
  10
137.26617
  20
199.5296
  0
VERTEX
  5
4bc
  8
Layer_1
  10
136.87134
  20
199.67566
  0
VERTEX
  5
4bd
  8
Layer_1
  10
136.45172
  20
199.80115
  0
VERTEX
  5
4be
  8
Layer_1
  10
136.01074
  20
199.9054
  0
VERTEX
  5
4bf
  8
Layer_1
  10
135.55151
  20
199.98755
  0
VERTEX
  5
4c0
  8
Layer_1
  10
135.07739
  20
200.04712
  0
VERTEX
  5
4c1
  8
Layer_1
  10
134.59161
  20
200.08331
  0
VERTEX
  5
4c2
  8
Layer_1
  10
134.09747
  20
200.09558
  0
VERTEX
  5
4c3
  8
Layer_1
  10
133.60333
  20
200.08331
  0
VERTEX
  5
4c4
  8
Layer_1
  10
133.11749
  20
200.04706
  0
VERTEX
  5
4c5
  8
Layer_1
  10
132.64331
  20
199.98743
  0
VERTEX
  5
4c6
  8
Layer_1
  10
132.18408
  20
199.90521
  0
VERTEX
  5
4c7
  8
Layer_1
  10
131.74304
  20
199.80103
  0
VERTEX
  5
4c8
  8
Layer_1
  10
131.32349
  20
199.67548
  0
VERTEX
  5
4c9
  8
Layer_1
  10
130.92871
  20
199.52936
  0
VERTEX
  5
4ca
  8
Layer_1
  10
130.56201
  20
199.36322
  0
VERTEX
  5
4cb
  8
Layer_1
  10
130.22986
  20
199.17981
  0
VERTEX
  5
4cc
  8
Layer_1
  10
129.93762
  20
198.98242
  0
VERTEX
  5
4cd
  8
Layer_1
  10
129.68665
  20
198.77271
  0
VERTEX
  5
4ce
  8
Layer_1
  10
129.47827
  20
198.55212
  0
VERTEX
  5
4cf
  8
Layer_1
  10
129.31384
  20
198.32251
  0
VERTEX
  5
4d0
  8
Layer_1
  10
129.1947
  20
198.08545
  0
VERTEX
  5
4d1
  8
Layer_1
  10
129.12225
  20
197.84253
  0
VERTEX
  5
4d2
  8
Layer_1
  10
129.09778
  20
197.59546
  0
VERTEX
  5
4d3
  8
Layer_1
  10
129.1333
  20
197.30371
  0
VERTEX
  5
4d4
  8
Layer_1
  10
129.23523
  20
197.01892
  0
VERTEX
  5
4d5
  8
Layer_1
  10
129.40106
  20
196.74365
  0
VERTEX
  5
4d6
  8
Layer_1
  10
129.62817
  20
196.48059
  0
VERTEX
  5
4d7
  8
Layer_1
  10
129.91394
  20
196.23218
  0
VERTEX
  5
4d8
  8
Layer_1
  10
130.25586
  20
196.0011
  0
VERTEX
  5
4d9
  8
Layer_1
  10
130.65131
  20
195.78992
  0
VERTEX
  5
4da
  8
Layer_1
  10
131.09766
  20
195.60126
  0
VERTEX
  5
4db
  8
Layer_1
  10
131.09766
  20
195.09534
  0
VERTEX
  5
4dc
  8
Layer_1
  10
129.09729
  20
195.09534
  0
VERTEX
  5
4dd
  8
Layer_1
  10
128.58466
  20
195.06958
  0
VERTEX
  5
4de
  8
Layer_1
  10
128.08716
  20
194.99408
  0
VERTEX
  5
4df
  8
Layer_1
  10
127.6073
  20
194.87122
  0
VERTEX
  5
4e0
  8
Layer_1
  10
127.14746
  20
194.70355
  0
VERTEX
  5
4e1
  8
Layer_1
  10
126.71021
  20
194.49353
  0
VERTEX
  5
4e2
  8
Layer_1
  10
126.29797
  20
194.24359
  0
VERTEX
  5
4e3
  8
Layer_1
  10
125.91333
  20
193.95624
  0
VERTEX
  5
4e4
  8
Layer_1
  10
125.55872
  20
193.63397
  0
VERTEX
  5
4e5
  8
Layer_1
  10
125.23645
  20
193.27917
  0
VERTEX
  5
4e6
  8
Layer_1
  10
124.9491
  20
192.89447
  0
VERTEX
  5
4e7
  8
Layer_1
  10
124.69922
  20
192.48218
  0
VERTEX
  5
4e8
  8
Layer_1
  10
124.48926
  20
192.04492
  0
VERTEX
  5
4e9
  8
Layer_1
  10
124.32153
  20
191.58508
  0
VERTEX
  5
4ea
  8
Layer_1
  10
124.19879
  20
191.10522
  0
VERTEX
  5
4eb
  8
Layer_1
  10
124.12329
  20
190.60773
  0
VERTEX
  5
4ec
  8
Layer_1
  10
124.0976
  20
190.09509
  0
VERTEX
  5
4ed
  8
Layer_1
  10
124.0976
  20
186.09534
  0
VERTEX
  5
4ee
  8
Layer_1
  10
124.12329
  20
185.5827
  0
VERTEX
  5
4ef
  8
Layer_1
  10
124.19879
  20
185.08521
  0
VERTEX
  5
4f0
  8
Layer_1
  10
124.32153
  20
184.60535
  0
VERTEX
  5
4f1
  8
Layer_1
  10
124.48926
  20
184.14551
  0
VERTEX
  5
4f2
  8
Layer_1
  10
124.69922
  20
183.70825
  0
VERTEX
  5
4f3
  8
Layer_1
  10
124.9491
  20
183.29596
  0
VERTEX
  5
4f4
  8
Layer_1
  10
125.23645
  20
182.91125
  0
VERTEX
  5
4f5
  8
Layer_1
  10
125.55872
  20
182.55652
  0
VERTEX
  5
4f6
  8
Layer_1
  10
125.91333
  20
182.23419
  0
VERTEX
  5
4f7
  8
Layer_1
  10
126.29797
  20
181.94684
  0
VERTEX
  5
4f8
  8
Layer_1
  10
126.71021
  20
181.6969
  0
VERTEX
  5
4f9
  8
Layer_1
  10
127.14746
  20
181.48688
  0
VERTEX
  5
4fa
  8
Layer_1
  10
127.6073
  20
181.31921
  0
VERTEX
  5
4fb
  8
Layer_1
  10
128.08716
  20
181.19641
  0
VERTEX
  5
4fc
  8
Layer_1
  10
128.58466
  20
181.12085
  0
VERTEX
  5
4fd
  8
Layer_1
  10
129.09729
  20
181.09515
  0
VERTEX
  5
4fe
  8
Layer_1
  10
114.09766
  20
181.09515
  0
VERTEX
  5
4ff
  8
Layer_1
  10
114.0719
  20
181.60779
  0
VERTEX
  5
500
  8
Layer_1
  10
113.9964
  20
182.10535
  0
VERTEX
  5
501
  8
Layer_1
  10
113.87354
  20
182.58521
  0
VERTEX
  5
502
  8
Layer_1
  10
113.70587
  20
183.04498
  0
VERTEX
  5
503
  8
Layer_1
  10
113.49585
  20
183.48218
  0
VERTEX
  5
504
  8
Layer_1
  10
113.24591
  20
183.89441
  0
VERTEX
  5
505
  8
Layer_1
  10
112.95856
  20
184.27905
  0
VERTEX
  5
506
  8
Layer_1
  10
112.63629
  20
184.63379
  0
VERTEX
  5
507
  8
Layer_1
  10
112.28149
  20
184.95599
  0
VERTEX
  5
508
  8
Layer_1
  10
111.89679
  20
185.24329
  0
VERTEX
  5
509
  8
Layer_1
  10
111.4845
  20
185.49316
  0
VERTEX
  5
50a
  8
Layer_1
  10
111.04724
  20
185.70319
  0
VERTEX
  5
50b
  8
Layer_1
  10
110.5874
  20
185.87085
  0
VERTEX
  5
50c
  8
Layer_1
  10
110.10754
  20
185.99365
  0
VERTEX
  5
50d
  8
Layer_1
  10
109.61011
  20
186.06909
  0
VERTEX
  5
50e
  8
Layer_1
  10
109.09747
  20
186.09485
  0
VERTEX
  5
50f
  8
Layer_1
  10
79.097717
  20
186.09485
  0
VERTEX
  5
510
  8
Layer_1
  10
78.585083
  20
186.06921
  0
VERTEX
  5
511
  8
Layer_1
  10
78.087646
  20
185.99377
  0
VERTEX
  5
512
  8
Layer_1
  10
77.607788
  20
185.87103
  0
VERTEX
  5
513
  8
Layer_1
  10
77.147949
  20
185.70349
  0
VERTEX
  5
514
  8
Layer_1
  10
76.710693
  20
185.49353
  0
VERTEX
  5
515
  8
Layer_1
  10
76.298401
  20
185.24377
  0
VERTEX
  5
516
  8
Layer_1
  10
75.913696
  20
184.95648
  0
VERTEX
  5
517
  8
Layer_1
  10
75.558899
  20
184.63428
  0
VERTEX
  5
518
  8
Layer_1
  10
75.236633
  20
184.27966
  0
VERTEX
  5
519
  8
Layer_1
  10
74.94928
  20
183.89502
  0
VERTEX
  5
51a
  8
Layer_1
  10
74.699341
  20
183.48279
  0
VERTEX
  5
51b
  8
Layer_1
  10
74.489319
  20
183.04553
  0
VERTEX
  5
51c
  8
Layer_1
  10
74.321655
  20
182.58569
  0
VERTEX
  5
51d
  8
Layer_1
  10
74.198792
  20
182.10583
  0
VERTEX
  5
51e
  8
Layer_1
  10
74.123291
  20
181.60834
  0
VERTEX
  5
51f
  8
Layer_1
  10
74.097534
  20
181.0957
  0
VERTEX
  5
520
  8
Layer_1
  10
74.097534
  20
161.09534
  0
VERTEX
  5
521
  8
Layer_1
  10
74.123291
  20
160.5827
  0
VERTEX
  5
522
  8
Layer_1
  10
74.198792
  20
160.08521
  0
VERTEX
  5
523
  8
Layer_1
  10
74.321655
  20
159.60535
  0
VERTEX
  5
524
  8
Layer_1
  10
74.489319
  20
159.14557
  0
VERTEX
  5
525
  8
Layer_1
  10
74.699341
  20
158.70837
  0
VERTEX
  5
526
  8
Layer_1
  10
74.94928
  20
158.29614
  0
VERTEX
  5
527
  8
Layer_1
  10
75.236633
  20
157.9115
  0
VERTEX
  5
528
  8
Layer_1
  10
75.558899
  20
157.55676
  0
VERTEX
  5
529
  8
Layer_1
  10
75.913696
  20
157.2345
  0
VERTEX
  5
52a
  8
Layer_1
  10
76.298401
  20
156.94714
  0
VERTEX
  5
52b
  8
Layer_1
  10
76.710693
  20
156.69727
  0
VERTEX
  5
52c
  8
Layer_1
  10
77.147949
  20
156.4873
  0
VERTEX
  5
52d
  8
Layer_1
  10
77.607788
  20
156.3197
  0
VERTEX
  5
52e
  8
Layer_1
  10
78.087646
  20
156.1969
  0
VERTEX
  5
52f
  8
Layer_1
  10
78.585083
  20
156.12146
  0
VERTEX
  5
530
  8
Layer_1
  10
79.097717
  20
156.0957
  0
VERTEX
  5
531
  8
Layer_1
  10
109.09747
  20
156.0957
  0
VERTEX
  5
532
  8
Layer_1
  10
109.61011
  20
156.12146
  0
VERTEX
  5
533
  8
Layer_1
  10
110.10754
  20
156.1969
  0
VERTEX
  5
534
  8
Layer_1
  10
110.5874
  20
156.3197
  0
VERTEX
  5
535
  8
Layer_1
  10
111.04724
  20
156.48737
  0
VERTEX
  5
536
  8
Layer_1
  10
111.4845
  20
156.69739
  0
VERTEX
  5
537
  8
Layer_1
  10
111.89679
  20
156.94727
  0
VERTEX
  5
538
  8
Layer_1
  10
112.28149
  20
157.23456
  0
VERTEX
  5
539
  8
Layer_1
  10
112.63629
  20
157.55676
  0
VERTEX
  5
53a
  8
Layer_1
  10
112.95856
  20
157.9115
  0
VERTEX
  5
53b
  8
Layer_1
  10
113.24591
  20
158.29614
  0
VERTEX
  5
53c
  8
Layer_1
  10
113.49585
  20
158.70837
  0
VERTEX
  5
53d
  8
Layer_1
  10
113.70587
  20
159.14557
  0
VERTEX
  5
53e
  8
Layer_1
  10
113.87354
  20
159.60535
  0
VERTEX
  5
53f
  8
Layer_1
  10
113.9964
  20
160.08521
  0
VERTEX
  5
540
  8
Layer_1
  10
114.0719
  20
160.5827
  0
VERTEX
  5
541
  8
Layer_1
  10
114.09766
  20
161.09534
  0
VERTEX
  5
542
  8
Layer_1
  10
129.09729
  20
161.09534
  0
VERTEX
  5
543
  8
Layer_1
  10
128.58466
  20
161.06958
  0
VERTEX
  5
544
  8
Layer_1
  10
128.08716
  20
160.99414
  0
VERTEX
  5
545
  8
Layer_1
  10
127.6073
  20
160.87134
  0
VERTEX
  5
546
  8
Layer_1
  10
127.14746
  20
160.70361
  0
VERTEX
  5
547
  8
Layer_1
  10
126.71021
  20
160.49353
  0
VERTEX
  5
548
  8
Layer_1
  10
126.29797
  20
160.24365
  0
VERTEX
  5
549
  8
Layer_1
  10
125.91333
  20
159.9563
  0
VERTEX
  5
54a
  8
Layer_1
  10
125.55872
  20
159.63403
  0
VERTEX
  5
54b
  8
Layer_1
  10
125.23645
  20
159.2793
  0
VERTEX
  5
54c
  8
Layer_1
  10
124.9491
  20
158.89459
  0
VERTEX
  5
54d
  8
Layer_1
  10
124.69922
  20
158.4823
  0
VERTEX
  5
54e
  8
Layer_1
  10
124.48926
  20
158.04504
  0
VERTEX
  5
54f
  8
Layer_1
  10
124.32153
  20
157.58521
  0
VERTEX
  5
550
  8
Layer_1
  10
124.19879
  20
157.10535
  0
VERTEX
  5
551
  8
Layer_1
  10
124.12329
  20
156.60779
  0
VERTEX
  5
552
  8
Layer_1
  10
124.0976
  20
156.09515
  0
VERTEX
  5
553
  8
Layer_1
  10
124.0976
  20
152.0954
  0
VERTEX
  5
554
  8
Layer_1
  10
124.12329
  20
151.58276
  0
VERTEX
  5
555
  8
Layer_1
  10
124.19879
  20
151.08521
  0
VERTEX
  5
556
  8
Layer_1
  10
124.32153
  20
150.60535
  0
VERTEX
  5
557
  8
Layer_1
  10
124.48926
  20
150.14551
  0
VERTEX
  5
558
  8
Layer_1
  10
124.69922
  20
149.70825
  0
VERTEX
  5
559
  8
Layer_1
  10
124.9491
  20
149.29596
  0
VERTEX
  5
55a
  8
Layer_1
  10
125.23645
  20
148.91125
  0
VERTEX
  5
55b
  8
Layer_1
  10
125.55872
  20
148.55652
  0
VERTEX
  5
55c
  8
Layer_1
  10
125.91333
  20
148.23425
  0
VERTEX
  5
55d
  8
Layer_1
  10
126.29797
  20
147.9469
  0
VERTEX
  5
55e
  8
Layer_1
  10
126.71021
  20
147.69702
  0
VERTEX
  5
55f
  8
Layer_1
  10
127.14746
  20
147.48694
  0
VERTEX
  5
560
  8
Layer_1
  10
127.6073
  20
147.31921
  0
VERTEX
  5
561
  8
Layer_1
  10
128.08716
  20
147.19641
  0
VERTEX
  5
562
  8
Layer_1
  10
128.58466
  20
147.12097
  0
VERTEX
  5
563
  8
Layer_1
  10
129.09729
  20
147.09521
  0
VERTEX
  5
564
  8
Layer_1
  10
131.09766
  20
147.09521
  0
VERTEX
  5
565
  8
Layer_1
  10
131.09766
  20
146.58923
  0
VERTEX
  5
566
  8
Layer_1
  10
130.65131
  20
146.40051
  0
VERTEX
  5
567
  8
Layer_1
  10
130.25586
  20
146.18933
  0
VERTEX
  5
568
  8
Layer_1
  10
129.91394
  20
145.95825
  0
VERTEX
  5
569
  8
Layer_1
  10
129.62817
  20
145.70984
  0
VERTEX
  5
56a
  8
Layer_1
  10
129.40106
  20
145.44678
  0
VERTEX
  5
56b
  8
Layer_1
  10
129.23523
  20
145.17151
  0
VERTEX
  5
56c
  8
Layer_1
  10
129.1333
  20
144.88672
  0
VERTEX
  5
56d
  8
Layer_1
  10
129.09778
  20
144.59509
  0
VERTEX
  5
56e
  8
Layer_1
  10
129.12354
  20
144.33948
  0
VERTEX
  5
56f
  8
Layer_1
  10
129.19934
  20
144.09119
  0
VERTEX
  5
570
  8
Layer_1
  10
129.32257
  20
143.85162
  0
VERTEX
  5
571
  8
Layer_1
  10
129.49072
  20
143.62195
  0
VERTEX
  5
572
  8
Layer_1
  10
129.70129
  20
143.40344
  0
VERTEX
  5
573
  8
Layer_1
  10
129.95178
  20
143.19727
  0
VERTEX
  5
574
  8
Layer_1
  10
130.23956
  20
143.00476
  0
VERTEX
  5
575
  8
Layer_1
  10
130.56226
  20
142.82721
  0
VERTEX
  5
576
  8
Layer_1
  10
130.9173
  20
142.66583
  0
VERTEX
  5
577
  8
Layer_1
  10
131.30225
  20
142.52185
  0
VERTEX
  5
578
  8
Layer_1
  10
131.71448
  20
142.39661
  0
VERTEX
  5
579
  8
Layer_1
  10
132.15149
  20
142.29138
  0
VERTEX
  5
57a
  8
Layer_1
  10
132.61084
  20
142.20734
  0
VERTEX
  5
57b
  8
Layer_1
  10
133.08997
  20
142.14575
  0
VERTEX
  5
57c
  8
Layer_1
  10
133.5863
  20
142.10791
  0
VERTEX
  5
57d
  8
Layer_1
  10
134.09747
  20
142.09497
  0
VERTEX
  5
57e
  8
Layer_1
  10
134.59174
  20
142.10724
  0
VERTEX
  5
57f
  8
Layer_1
  10
135.07758
  20
142.14343
  0
VERTEX
  5
580
  8
Layer_1
  10
135.55176
  20
142.203
  0
VERTEX
  5
581
  8
Layer_1
  10
136.01099
  20
142.28522
  0
VERTEX
  5
582
  8
Layer_1
  10
136.45209
  20
142.3894
  0
VERTEX
  5
583
  8
Layer_1
  10
136.8717
  20
142.51495
  0
VERTEX
  5
584
  8
Layer_1
  10
137.26654
  20
142.66107
  0
VERTEX
  5
585
  8
Layer_1
  10
137.6333
  20
142.82721
  0
VERTEX
  5
586
  8
Layer_1
  10
137.96545
  20
143.01062
  0
VERTEX
  5
587
  8
Layer_1
  10
138.25769
  20
143.20801
  0
VERTEX
  5
588
  8
Layer_1
  10
138.50879
  20
143.41772
  0
VERTEX
  5
589
  8
Layer_1
  10
138.71716
  20
143.63831
  0
VERTEX
  5
58a
  8
Layer_1
  10
138.88159
  20
143.86792
  0
VERTEX
  5
58b
  8
Layer_1
  10
139.00079
  20
144.1051
  0
VERTEX
  5
58c
  8
Layer_1
  10
139.0733
  20
144.34802
  0
VERTEX
  5
58d
  8
Layer_1
  10
139.09772
  20
144.59509
  0
VERTEX
  5
58e
  8
Layer_1
  10
139.06213
  20
144.88672
  0
VERTEX
  5
58f
  8
Layer_1
  10
138.96008
  20
145.17139
  0
VERTEX
  5
590
  8
Layer_1
  10
138.79425
  20
145.44653
  0
VERTEX
  5
591
  8
Layer_1
  10
138.56714
  20
145.70959
  0
VERTEX
  5
592
  8
Layer_1
  10
138.28137
  20
145.95789
  0
VERTEX
  5
593
  8
Layer_1
  10
137.93945
  20
146.18896
  0
VERTEX
  5
594
  8
Layer_1
  10
137.54407
  20
146.40009
  0
VERTEX
  5
595
  8
Layer_1
  10
137.09784
  20
146.58875
  0
VERTEX
  5
596
  8
Layer_1
  10
137.09784
  20
147.09515
  0
VERTEX
  5
597
  8
Layer_1
  10
139.09772
  20
147.09515
  0
VERTEX
  5
598
  8
Layer_1
  10
139.61035
  20
147.12085
  0
VERTEX
  5
599
  8
Layer_1
  10
140.10779
  20
147.19641
  0
VERTEX
  5
59a
  8
Layer_1
  10
140.58765
  20
147.31921
  0
VERTEX
  5
59b
  8
Layer_1
  10
141.04749
  20
147.48688
  0
VERTEX
  5
59c
  8
Layer_1
  10
141.48474
  20
147.6969
  0
VERTEX
  5
59d
  8
Layer_1
  10
141.89697
  20
147.94684
  0
VERTEX
  5
59e
  8
Layer_1
  10
142.28162
  20
148.23419
  0
VERTEX
  5
59f
  8
Layer_1
  10
142.63629
  20
148.55652
  0
VERTEX
  5
5a0
  8
Layer_1
  10
142.9585
  20
148.91125
  0
VERTEX
  5
5a1
  8
Layer_1
  10
143.24585
  20
149.29596
  0
VERTEX
  5
5a2
  8
Layer_1
  10
143.49573
  20
149.70825
  0
VERTEX
  5
5a3
  8
Layer_1
  10
143.70575
  20
150.14551
  0
VERTEX
  5
5a4
  8
Layer_1
  10
143.87341
  20
150.60535
  0
VERTEX
  5
5a5
  8
Layer_1
  10
143.99622
  20
151.08521
  0
VERTEX
  5
5a6
  8
Layer_1
  10
144.07166
  20
151.5827
  0
VERTEX
  5
5a7
  8
Layer_1
  10
144.09741
  20
152.09534
  0
VERTEX
  5
5a8
  8
Layer_1
  10
144.09741
  20
156.09509
  0
VERTEX
  5
5a9
  8
Layer_1
  10
144.07166
  20
156.60773
  0
VERTEX
  5
5aa
  8
Layer_1
  10
143.99622
  20
157.10522
  0
VERTEX
  5
5ab
  8
Layer_1
  10
143.87341
  20
157.58508
  0
VERTEX
  5
5ac
  8
Layer_1
  10
143.70575
  20
158.04492
  0
VERTEX
  5
5ad
  8
Layer_1
  10
143.49573
  20
158.48218
  0
VERTEX
  5
5ae
  8
Layer_1
  10
143.24585
  20
158.89447
  0
VERTEX
  5
5af
  8
Layer_1
  10
142.9585
  20
159.27917
  0
VERTEX
  5
5b0
  8
Layer_1
  10
142.63629
  20
159.63397
  0
VERTEX
  5
5b1
  8
Layer_1
  10
142.28162
  20
159.95624
  0
VERTEX
  5
5b2
  8
Layer_1
  10
141.89697
  20
160.24359
  0
VERTEX
  5
5b3
  8
Layer_1
  10
141.48474
  20
160.49353
  0
VERTEX
  5
5b4
  8
Layer_1
  10
141.04749
  20
160.70355
  0
VERTEX
  5
5b5
  8
Layer_1
  10
140.58765
  20
160.87122
  0
VERTEX
  5
5b6
  8
Layer_1
  10
140.10779
  20
160.99408
  0
VERTEX
  5
5b7
  8
Layer_1
  10
139.61035
  20
161.06958
  0
VERTEX
  5
5b8
  8
Layer_1
  10
139.09772
  20
161.09534
  0
VERTEX
  5
5b9
  8
Layer_1
  10
169.09741
  20
161.09534
  0
VERTEX
  5
5ba
  8
Layer_1
  10
168.58478
  20
161.06958
  0
VERTEX
  5
5bb
  8
Layer_1
  10
168.08728
  20
160.99408
  0
VERTEX
  5
5bc
  8
Layer_1
  10
167.60742
  20
160.87122
  0
VERTEX
  5
5bd
  8
Layer_1
  10
167.14758
  20
160.70355
  0
VERTEX
  5
5be
  8
Layer_1
  10
166.71033
  20
160.49353
  0
VERTEX
  5
5bf
  8
Layer_1
  10
166.2981
  20
160.24359
  0
VERTEX
  5
5c0
  8
Layer_1
  10
165.91345
  20
159.95624
  0
VERTEX
  5
5c1
  8
Layer_1
  10
165.55884
  20
159.63397
  0
VERTEX
  5
5c2
  8
Layer_1
  10
165.23657
  20
159.27917
  0
VERTEX
  5
5c3
  8
Layer_1
  10
164.94922
  20
158.89447
  0
VERTEX
  5
5c4
  8
Layer_1
  10
164.69934
  20
158.48218
  0
VERTEX
  5
5c5
  8
Layer_1
  10
164.48938
  20
158.04492
  0
VERTEX
  5
5c6
  8
Layer_1
  10
164.32166
  20
157.58508
  0
VERTEX
  5
5c7
  8
Layer_1
  10
164.19891
  20
157.10522
  0
VERTEX
  5
5c8
  8
Layer_1
  10
164.12341
  20
156.60773
  0
VERTEX
  5
5c9
  8
Layer_1
  10
164.09772
  20
156.09509
  0
VERTEX
  5
5ca
  8
Layer_1
  10
164.09772
  20
138.09521
  0
VERTEX
  5
5cb
  8
Layer_1
  10
164.12341
  20
137.58258
  0
VERTEX
  5
5cc
  8
Layer_1
  10
164.19891
  20
137.08508
  0
VERTEX
  5
5cd
  8
Layer_1
  10
164.32166
  20
136.60522
  0
VERTEX
  5
5ce
  8
Layer_1
  10
164.48938
  20
136.14539
  0
VERTEX
  5
5cf
  8
Layer_1
  10
164.69934
  20
135.70813
  0
VERTEX
  5
5d0
  8
Layer_1
  10
164.94922
  20
135.2959
  0
VERTEX
  5
5d1
  8
Layer_1
  10
165.23657
  20
134.91125
  0
VERTEX
  5
5d2
  8
Layer_1
  10
165.55884
  20
134.55658
  0
VERTEX
  5
5d3
  8
Layer_1
  10
165.91345
  20
134.23438
  0
VERTEX
  5
5d4
  8
Layer_1
  10
166.2981
  20
133.94702
  0
VERTEX
  5
5d5
  8
Layer_1
  10
166.71033
  20
133.69714
  0
VERTEX
  5
5d6
  8
Layer_1
  10
167.14758
  20
133.48712
  0
VERTEX
  5
5d7
  8
Layer_1
  10
167.60742
  20
133.31946
  0
VERTEX
  5
5d8
  8
Layer_1
  10
168.08728
  20
133.19666
  0
VERTEX
  5
5d9
  8
Layer_1
  10
168.58478
  20
133.12122
  0
VERTEX
  5
5da
  8
Layer_1
  10
169.09741
  20
133.09546
  0
VERTEX
  5
5db
  8
Layer_1
  10
171.09729
  20
133.09546
  0
VERTEX
  5
5dc
  8
Layer_1
  10
171.09729
  20
132.5896
  0
VERTEX
  5
5dd
  8
Layer_1
  10
170.65094
  20
132.40088
  0
VERTEX
  5
5de
  8
Layer_1
  10
170.25549
  20
132.1897
  0
VERTEX
  5
5df
  8
Layer_1
  10
169.91357
  20
131.95862
  0
VERTEX
  5
5e0
  8
Layer_1
  10
169.62781
  20
131.71021
  0
VERTEX
  5
5e1
  8
Layer_1
  10
169.4007
  20
131.44714
  0
VERTEX
  5
5e2
  8
Layer_1
  10
169.23486
  20
131.17188
  0
VERTEX
  5
5e3
  8
Layer_1
  10
169.13293
  20
130.88708
  0
VERTEX
  5
5e4
  8
Layer_1
  10
169.09741
  20
130.5954
  0
VERTEX
  5
5e5
  8
Layer_1
  10
169.1217
  20
130.34839
  0
VERTEX
  5
5e6
  8
Layer_1
  10
169.19409
  20
130.10547
  0
VERTEX
  5
5e7
  8
Layer_1
  10
169.31317
  20
129.86829
  0
VERTEX
  5
5e8
  8
Layer_1
  10
169.47754
  20
129.63867
  0
VERTEX
  5
5e9
  8
Layer_1
  10
169.68585
  20
129.41809
  0
VERTEX
  5
5ea
  8
Layer_1
  10
169.93683
  20
129.20825
  0
VERTEX
  5
5eb
  8
Layer_1
  10
170.22906
  20
129.0108
  0
VERTEX
  5
5ec
  8
Layer_1
  10
170.56116
  20
128.82739
  0
VERTEX
  5
5ed
  8
Layer_1
  10
170.92786
  20
128.66125
  0
VERTEX
  5
5ee
  8
Layer_1
  10
171.32263
  20
128.51508
  0
VERTEX
  5
5ef
  8
Layer_1
  10
171.74225
  20
128.38953
  0
VERTEX
  5
5f0
  8
Layer_1
  10
172.18335
  20
128.28528
  0
VERTEX
  5
5f1
  8
Layer_1
  10
172.64264
  20
128.203
  0
VERTEX
  5
5f2
  8
Layer_1
  10
173.11682
  20
128.14337
  0
VERTEX
  5
5f3
  8
Layer_1
  10
173.60278
  20
128.10712
  0
VERTEX
  5
5f4
  8
Layer_1
  10
174.09711
  20
128.09479
  0
VERTEX
  5
5f5
  8
Layer_1
  10
174.59143
  20
128.10699
  0
VERTEX
  5
5f6
  8
Layer_1
  10
175.07727
  20
128.14319
  0
VERTEX
  5
5f7
  8
Layer_1
  10
175.55151
  20
128.20276
  0
VERTEX
  5
5f8
  8
Layer_1
  10
176.01086
  20
128.28503
  0
VERTEX
  5
5f9
  8
Layer_1
  10
176.45203
  20
128.38928
  0
VERTEX
  5
5fa
  8
Layer_1
  10
176.87164
  20
128.51483
  0
VERTEX
  5
5fb
  8
Layer_1
  10
177.26648
  20
128.66101
  0
VERTEX
  5
5fc
  8
Layer_1
  10
177.63324
  20
128.82715
  0
VERTEX
  5
5fd
  8
Layer_1
  10
177.96545
  20
129.01056
  0
VERTEX
  5
5fe
  8
Layer_1
  10
178.25769
  20
129.20801
  0
VERTEX
  5
5ff
  8
Layer_1
  10
178.50867
  20
129.41785
  0
VERTEX
  5
600
  8
Layer_1
  10
178.7171
  20
129.63843
  0
VERTEX
  5
601
  8
Layer_1
  10
178.88153
  20
129.86816
  0
VERTEX
  5
602
  8
Layer_1
  10
179.00061
  20
130.10529
  0
VERTEX
  5
603
  8
Layer_1
  10
179.073
  20
130.34827
  0
VERTEX
  5
604
  8
Layer_1
  10
179.09729
  20
130.5954
  0
VERTEX
  5
605
  8
Layer_1
  10
179.06177
  20
130.88696
  0
VERTEX
  5
606
  8
Layer_1
  10
178.95972
  20
131.17169
  0
VERTEX
  5
607
  8
Layer_1
  10
178.79382
  20
131.4469
  0
VERTEX
  5
608
  8
Layer_1
  10
178.56665
  20
131.7099
  0
VERTEX
  5
609
  8
Layer_1
  10
178.28088
  20
131.95819
  0
VERTEX
  5
60a
  8
Layer_1
  10
177.93896
  20
132.18921
  0
VERTEX
  5
60b
  8
Layer_1
  10
177.54358
  20
132.40039
  0
VERTEX
  5
60c
  8
Layer_1
  10
177.09741
  20
132.58911
  0
VERTEX
  5
60d
  8
Layer_1
  10
177.09741
  20
133.09546
  0
VERTEX
  5
60e
  8
Layer_1
  10
179.09729
  20
133.09546
  0
VERTEX
  5
60f
  8
Layer_1
  10
179.60992
  20
133.12122
  0
VERTEX
  5
610
  8
Layer_1
  10
180.10742
  20
133.19666
  0
VERTEX
  5
611
  8
Layer_1
  10
180.58728
  20
133.31946
  0
VERTEX
  5
612
  8
Layer_1
  10
181.04712
  20
133.48712
  0
VERTEX
  5
613
  8
Layer_1
  10
181.48438
  20
133.69714
  0
VERTEX
  5
614
  8
Layer_1
  10
181.89667
  20
133.94702
  0
VERTEX
  5
615
  8
Layer_1
  10
182.28137
  20
134.23438
  0
VERTEX
  5
616
  8
Layer_1
  10
182.63617
  20
134.55658
  0
VERTEX
  5
617
  8
Layer_1
  10
182.95844
  20
134.91125
  0
VERTEX
  5
618
  8
Layer_1
  10
183.24579
  20
135.2959
  0
VERTEX
  5
619
  8
Layer_1
  10
183.49573
  20
135.70813
  0
VERTEX
  5
61a
  8
Layer_1
  10
183.70575
  20
136.14539
  0
VERTEX
  5
61b
  8
Layer_1
  10
183.87341
  20
136.60522
  0
VERTEX
  5
61c
  8
Layer_1
  10
183.99628
  20
137.08508
  0
VERTEX
  5
61d
  8
Layer_1
  10
184.07178
  20
137.58252
  0
VERTEX
  5
61e
  8
Layer_1
  10
184.09753
  20
138.09515
  0
VERTEX
  5
61f
  8
Layer_1
  10
184.09753
  20
156.09509
  0
VERTEX
  5
620
  8
Layer_1
  10
184.07178
  20
156.60773
  0
VERTEX
  5
621
  8
Layer_1
  10
183.99628
  20
157.10522
  0
VERTEX
  5
622
  8
Layer_1
  10
183.87341
  20
157.58508
  0
VERTEX
  5
623
  8
Layer_1
  10
183.70575
  20
158.04492
  0
VERTEX
  5
624
  8
Layer_1
  10
183.49573
  20
158.48218
  0
VERTEX
  5
625
  8
Layer_1
  10
183.24579
  20
158.89447
  0
VERTEX
  5
626
  8
Layer_1
  10
182.95844
  20
159.27917
  0
VERTEX
  5
627
  8
Layer_1
  10
182.63617
  20
159.63397
  0
VERTEX
  5
628
  8
Layer_1
  10
182.28137
  20
159.95624
  0
VERTEX
  5
629
  8
Layer_1
  10
181.89667
  20
160.24359
  0
VERTEX
  5
62a
  8
Layer_1
  10
181.48438
  20
160.49353
  0
VERTEX
  5
62b
  8
Layer_1
  10
181.04712
  20
160.70355
  0
VERTEX
  5
62c
  8
Layer_1
  10
180.58728
  20
160.87122
  0
VERTEX
  5
62d
  8
Layer_1
  10
180.10742
  20
160.99408
  0
VERTEX
  5
62e
  8
Layer_1
  10
179.60992
  20
161.06958
  0
VERTEX
  5
62f
  8
Layer_1
  10
179.09729
  20
161.09534
  0
VERTEX
  5
630
  8
Layer_1
  10
197.09778
  20
161.09534
  0
VERTEX
  5
631
  8
Layer_1
  10
196.58514
  20
161.06958
  0
VERTEX
  5
632
  8
Layer_1
  10
196.08765
  20
160.99408
  0
VERTEX
  5
633
  8
Layer_1
  10
195.60779
  20
160.87122
  0
VERTEX
  5
634
  8
Layer_1
  10
195.14795
  20
160.70355
  0
VERTEX
  5
635
  8
Layer_1
  10
194.71069
  20
160.49353
  0
VERTEX
  5
636
  8
Layer_1
  10
194.2984
  20
160.24359
  0
VERTEX
  5
637
  8
Layer_1
  10
193.9137
  20
159.95624
  0
VERTEX
  5
638
  8
Layer_1
  10
193.5589
  20
159.63397
  0
VERTEX
  5
639
  8
Layer_1
  10
193.23663
  20
159.27917
  0
VERTEX
  5
63a
  8
Layer_1
  10
192.94928
  20
158.89447
  0
VERTEX
  5
63b
  8
Layer_1
  10
192.69934
  20
158.48218
  0
VERTEX
  5
63c
  8
Layer_1
  10
192.48932
  20
158.04492
  0
VERTEX
  5
63d
  8
Layer_1
  10
192.32166
  20
157.58508
  0
VERTEX
  5
63e
  8
Layer_1
  10
192.19879
  20
157.10522
  0
VERTEX
  5
63f
  8
Layer_1
  10
192.12329
  20
156.60773
  0
VERTEX
  5
640
  8
Layer_1
  10
192.09753
  20
156.09509
  0
VERTEX
  5
641
  8
Layer_1
  10
192.09753
  20
126.09534
  0
VERTEX
  5
642
  8
Layer_1
  10
192.12329
  20
125.5827
  0
VERTEX
  5
643
  8
Layer_1
  10
192.19879
  20
125.08521
  0
VERTEX
  5
644
  8
Layer_1
  10
192.32166
  20
124.60535
  0
VERTEX
  5
645
  8
Layer_1
  10
192.48932
  20
124.14551
  0
VERTEX
  5
646
  8
Layer_1
  10
192.69934
  20
123.70825
  0
VERTEX
  5
647
  8
Layer_1
  10
192.94928
  20
123.29596
  0
VERTEX
  5
648
  8
Layer_1
  10
193.23663
  20
122.91125
  0
VERTEX
  5
649
  8
Layer_1
  10
193.5589
  20
122.55652
  0
VERTEX
  5
64a
  8
Layer_1
  10
193.9137
  20
122.23425
  0
VERTEX
  5
64b
  8
Layer_1
  10
194.2984
  20
121.9469
  0
VERTEX
  5
64c
  8
Layer_1
  10
194.71069
  20
121.69702
  0
VERTEX
  5
64d
  8
Layer_1
  10
195.14795
  20
121.48694
  0
VERTEX
  5
64e
  8
Layer_1
  10
195.60779
  20
121.31921
  0
VERTEX
  5
64f
  8
Layer_1
  10
196.08765
  20
121.19641
  0
VERTEX
  5
650
  8
Layer_1
  10
196.58514
  20
121.12097
  0
VERTEX
  5
651
  8
Layer_1
  10
197.09778
  20
121.09521
  0
VERTEX
  5
652
  8
Layer_1
  10
199.09766
  20
121.09521
  0
VERTEX
  5
653
  8
Layer_1
  10
199.09766
  20
120.58923
  0
VERTEX
  5
654
  8
Layer_1
  10
198.65131
  20
120.40051
  0
VERTEX
  5
655
  8
Layer_1
  10
198.25586
  20
120.18933
  0
VERTEX
  5
656
  8
Layer_1
  10
197.91394
  20
119.95825
  0
VERTEX
  5
657
  8
Layer_1
  10
197.62817
  20
119.70984
  0
VERTEX
  5
658
  8
Layer_1
  10
197.40106
  20
119.44678
  0
VERTEX
  5
659
  8
Layer_1
  10
197.23523
  20
119.17151
  0
VERTEX
  5
65a
  8
Layer_1
  10
197.1333
  20
118.88672
  0
VERTEX
  5
65b
  8
Layer_1
  10
197.09778
  20
118.59509
  0
VERTEX
  5
65c
  8
Layer_1
  10
197.12225
  20
118.3479
  0
VERTEX
  5
65d
  8
Layer_1
  10
197.19476
  20
118.10498
  0
VERTEX
  5
65e
  8
Layer_1
  10
197.31396
  20
117.8678
  0
VERTEX
  5
65f
  8
Layer_1
  10
197.47839
  20
117.63818
  0
VERTEX
  5
660
  8
Layer_1
  10
197.68677
  20
117.4176
  0
VERTEX
  5
661
  8
Layer_1
  10
197.93787
  20
117.20789
  0
VERTEX
  5
662
  8
Layer_1
  10
198.2301
  20
117.0105
  0
VERTEX
  5
663
  8
Layer_1
  10
198.56226
  20
116.82715
  0
VERTEX
  5
664
  8
Layer_1
  10
198.92896
  20
116.66107
  0
VERTEX
  5
665
  8
Layer_1
  10
199.32379
  20
116.51495
  0
VERTEX
  5
666
  8
Layer_1
  10
199.74335
  20
116.3894
  0
VERTEX
  5
667
  8
Layer_1
  10
200.18439
  20
116.28522
  0
VERTEX
  5
668
  8
Layer_1
  10
200.64355
  20
116.203
  0
VERTEX
  5
669
  8
Layer_1
  10
201.11768
  20
116.14343
  0
VERTEX
  5
66a
  8
Layer_1
  10
201.60339
  20
116.10724
  0
VERTEX
  5
66b
  8
Layer_1
  10
202.09747
  20
116.09497
  0
VERTEX
  5
66c
  8
Layer_1
  10
202.59174
  20
116.10724
  0
VERTEX
  5
66d
  8
Layer_1
  10
203.07758
  20
116.14343
  0
VERTEX
  5
66e
  8
Layer_1
  10
203.55176
  20
116.203
  0
VERTEX
  5
66f
  8
Layer_1
  10
204.01099
  20
116.28522
  0
VERTEX
  5
670
  8
Layer_1
  10
204.45209
  20
116.3894
  0
VERTEX
  5
671
  8
Layer_1
  10
204.8717
  20
116.51495
  0
VERTEX
  5
672
  8
Layer_1
  10
205.26654
  20
116.66107
  0
VERTEX
  5
673
  8
Layer_1
  10
205.6333
  20
116.82715
  0
VERTEX
  5
674
  8
Layer_1
  10
205.96545
  20
117.0105
  0
VERTEX
  5
675
  8
Layer_1
  10
206.25769
  20
117.20795
  0
VERTEX
  5
676
  8
Layer_1
  10
206.50879
  20
117.41772
  0
VERTEX
  5
677
  8
Layer_1
  10
206.71716
  20
117.63831
  0
VERTEX
  5
678
  8
Layer_1
  10
206.88159
  20
117.86792
  0
VERTEX
  5
679
  8
Layer_1
  10
207.00073
  20
118.1051
  0
VERTEX
  5
67a
  8
Layer_1
  10
207.07318
  20
118.34802
  0
VERTEX
  5
67b
  8
Layer_1
  10
207.09766
  20
118.59509
  0
VERTEX
  5
67c
  8
Layer_1
  10
207.06213
  20
118.88672
  0
VERTEX
  5
67d
  8
Layer_1
  10
206.96008
  20
119.17139
  0
VERTEX
  5
67e
  8
Layer_1
  10
206.79419
  20
119.44653
  0
VERTEX
  5
67f
  8
Layer_1
  10
206.56702
  20
119.70959
  0
VERTEX
  5
680
  8
Layer_1
  10
206.28125
  20
119.95789
  0
VERTEX
  5
681
  8
Layer_1
  10
205.93933
  20
120.18896
  0
VERTEX
  5
682
  8
Layer_1
  10
205.54395
  20
120.40009
  0
VERTEX
  5
683
  8
Layer_1
  10
205.09778
  20
120.58875
  0
VERTEX
  5
684
  8
Layer_1
  10
205.09778
  20
121.09521
  0
VERTEX
  5
685
  8
Layer_1
  10
207.09766
  20
121.09521
  0
VERTEX
  5
686
  8
Layer_1
  10
207.61029
  20
121.12097
  0
VERTEX
  5
687
  8
Layer_1
  10
208.10779
  20
121.19641
  0
VERTEX
  5
688
  8
Layer_1
  10
208.58765
  20
121.31921
  0
VERTEX
  5
689
  8
Layer_1
  10
209.04749
  20
121.48694
  0
VERTEX
  5
68a
  8
Layer_1
  10
209.48474
  20
121.69702
  0
VERTEX
  5
68b
  8
Layer_1
  10
209.89697
  20
121.9469
  0
VERTEX
  5
68c
  8
Layer_1
  10
210.28162
  20
122.23425
  0
VERTEX
  5
68d
  8
Layer_1
  10
210.63623
  20
122.55652
  0
VERTEX
  5
68e
  8
Layer_1
  10
210.9585
  20
122.91125
  0
VERTEX
  5
68f
  8
Layer_1
  10
211.24585
  20
123.29596
  0
VERTEX
  5
690
  8
Layer_1
  10
211.49573
  20
123.70825
  0
VERTEX
  5
691
  8
Layer_1
  10
211.70569
  20
124.14551
  0
VERTEX
  5
692
  8
Layer_1
  10
211.87341
  20
124.60535
  0
VERTEX
  5
693
  8
Layer_1
  10
211.99615
  20
125.08521
  0
VERTEX
  5
694
  8
Layer_1
  10
212.07166
  20
125.5827
  0
VERTEX
  5
695
  8
Layer_1
  10
212.09735
  20
126.09534
  0
VERTEX
  5
696
  8
Layer_1
  10
212.09735
  20
156.09509
  0
VERTEX
  5
697
  8
Layer_1
  10
212.07166
  20
156.60773
  0
VERTEX
  5
698
  8
Layer_1
  10
211.99615
  20
157.10522
  0
VERTEX
  5
699
  8
Layer_1
  10
211.87341
  20
157.58508
  0
VERTEX
  5
69a
  8
Layer_1
  10
211.70569
  20
158.04492
  0
VERTEX
  5
69b
  8
Layer_1
  10
211.49573
  20
158.48218
  0
VERTEX
  5
69c
  8
Layer_1
  10
211.24585
  20
158.89447
  0
VERTEX
  5
69d
  8
Layer_1
  10
210.9585
  20
159.27917
  0
VERTEX
  5
69e
  8
Layer_1
  10
210.63623
  20
159.63397
  0
VERTEX
  5
69f
  8
Layer_1
  10
210.28162
  20
159.95624
  0
VERTEX
  5
6a0
  8
Layer_1
  10
209.89697
  20
160.24359
  0
VERTEX
  5
6a1
  8
Layer_1
  10
209.48474
  20
160.49353
  0
VERTEX
  5
6a2
  8
Layer_1
  10
209.04749
  20
160.70355
  0
VERTEX
  5
6a3
  8
Layer_1
  10
208.58765
  20
160.87122
  0
VERTEX
  5
6a4
  8
Layer_1
  10
208.10779
  20
160.99408
  0
VERTEX
  5
6a5
  8
Layer_1
  10
207.61029
  20
161.06958
  0
VERTEX
  5
6a6
  8
Layer_1
  10
207.09766
  20
161.09534
  0
VERTEX
  5
6a7
  8
Layer_1
  10
219.09747
  20
161.09534
  0
VERTEX
  5
6a8
  8
Layer_1
  10
218.58484
  20
161.06958
  0
VERTEX
  5
6a9
  8
Layer_1
  10
218.08728
  20
160.99408
  0
VERTEX
  5
6aa
  8
Layer_1
  10
217.60742
  20
160.87122
  0
VERTEX
  5
6ab
  8
Layer_1
  10
217.14764
  20
160.70355
  0
VERTEX
  5
6ac
  8
Layer_1
  10
216.71045
  20
160.49353
  0
VERTEX
  5
6ad
  8
Layer_1
  10
216.29822
  20
160.24359
  0
VERTEX
  5
6ae
  8
Layer_1
  10
215.91357
  20
159.95624
  0
VERTEX
  5
6af
  8
Layer_1
  10
215.55884
  20
159.63397
  0
VERTEX
  5
6b0
  8
Layer_1
  10
215.23663
  20
159.27917
  0
VERTEX
  5
6b1
  8
Layer_1
  10
214.94934
  20
158.89447
  0
VERTEX
  5
6b2
  8
Layer_1
  10
214.69946
  20
158.48218
  0
VERTEX
  5
6b3
  8
Layer_1
  10
214.48944
  20
158.04492
  0
VERTEX
  5
6b4
  8
Layer_1
  10
214.32178
  20
157.58508
  0
VERTEX
  5
6b5
  8
Layer_1
  10
214.19897
  20
157.10522
  0
VERTEX
  5
6b6
  8
Layer_1
  10
214.12354
  20
156.60773
  0
VERTEX
  5
6b7
  8
Layer_1
  10
214.09778
  20
156.09509
  0
VERTEX
  5
6b8
  8
Layer_1
  10
214.09778
  20
124.09497
  0
VERTEX
  5
6b9
  8
Layer_1
  10
214.12354
  20
123.58234
  0
VERTEX
  5
6ba
  8
Layer_1
  10
214.19897
  20
123.08484
  0
VERTEX
  5
6bb
  8
Layer_1
  10
214.32178
  20
122.60498
  0
VERTEX
  5
6bc
  8
Layer_1
  10
214.48944
  20
122.1452
  0
VERTEX
  5
6bd
  8
Layer_1
  10
214.69946
  20
121.70801
  0
VERTEX
  5
6be
  8
Layer_1
  10
214.94934
  20
121.29578
  0
VERTEX
  5
6bf
  8
Layer_1
  10
215.23663
  20
120.91113
  0
VERTEX
  5
6c0
  8
Layer_1
  10
215.55884
  20
120.5564
  0
VERTEX
  5
6c1
  8
Layer_1
  10
215.91357
  20
120.23413
  0
VERTEX
  5
6c2
  8
Layer_1
  10
216.29822
  20
119.94678
  0
VERTEX
  5
6c3
  8
Layer_1
  10
216.71045
  20
119.6969
  0
VERTEX
  5
6c4
  8
Layer_1
  10
217.14764
  20
119.48694
  0
VERTEX
  5
6c5
  8
Layer_1
  10
217.60742
  20
119.31934
  0
VERTEX
  5
6c6
  8
Layer_1
  10
218.08728
  20
119.19653
  0
VERTEX
  5
6c7
  8
Layer_1
  10
218.58484
  20
119.12109
  0
VERTEX
  5
6c8
  8
Layer_1
  10
219.09747
  20
119.09534
  0
VERTEX
  5
6c9
  8
Layer_1
  10
221.09735
  20
119.09534
  0
VERTEX
  5
6ca
  8
Layer_1
  10
221.09735
  20
118.58936
  0
VERTEX
  5
6cb
  8
Layer_1
  10
220.65106
  20
118.40063
  0
VERTEX
  5
6cc
  8
Layer_1
  10
220.25562
  20
118.18945
  0
VERTEX
  5
6cd
  8
Layer_1
  10
219.91364
  20
117.95837
  0
VERTEX
  5
6ce
  8
Layer_1
  10
219.62781
  20
117.70996
  0
VERTEX
  5
6cf
  8
Layer_1
  10
219.4007
  20
117.4469
  0
VERTEX
  5
6d0
  8
Layer_1
  10
219.23486
  20
117.17163
  0
VERTEX
  5
6d1
  8
Layer_1
  10
219.13293
  20
116.88684
  0
VERTEX
  5
6d2
  8
Layer_1
  10
219.09747
  20
116.59521
  0
VERTEX
  5
6d3
  8
Layer_1
  10
219.12195
  20
116.34802
  0
VERTEX
  5
6d4
  8
Layer_1
  10
219.1944
  20
116.1051
  0
VERTEX
  5
6d5
  8
Layer_1
  10
219.3136
  20
115.86792
  0
VERTEX
  5
6d6
  8
Layer_1
  10
219.47803
  20
115.63831
  0
VERTEX
  5
6d7
  8
Layer_1
  10
219.68652
  20
115.41772
  0
VERTEX
  5
6d8
  8
Layer_1
  10
219.9375
  20
115.20801
  0
VERTEX
  5
6d9
  8
Layer_1
  10
220.22974
  20
115.01062
  0
VERTEX
  5
6da
  8
Layer_1
  10
220.56195
  20
114.82727
  0
VERTEX
  5
6db
  8
Layer_1
  10
220.92871
  20
114.66119
  0
VERTEX
  5
6dc
  8
Layer_1
  10
221.32349
  20
114.51508
  0
VERTEX
  5
6dd
  8
Layer_1
  10
221.7431
  20
114.38953
  0
VERTEX
  5
6de
  8
Layer_1
  10
222.18408
  20
114.28534
  0
VERTEX
  5
6df
  8
Layer_1
  10
222.64325
  20
114.20313
  0
VERTEX
  5
6e0
  8
Layer_1
  10
223.11737
  20
114.14355
  0
VERTEX
  5
6e1
  8
Layer_1
  10
223.60309
  20
114.10736
  0
VERTEX
  5
6e2
  8
Layer_1
  10
224.09717
  20
114.09509
  0
VERTEX
  5
6e3
  8
Layer_1
  10
224.59137
  20
114.10736
  0
VERTEX
  5
6e4
  8
Layer_1
  10
225.07727
  20
114.14355
  0
VERTEX
  5
6e5
  8
Layer_1
  10
225.55145
  20
114.20313
  0
VERTEX
  5
6e6
  8
Layer_1
  10
226.01074
  20
114.28534
  0
VERTEX
  5
6e7
  8
Layer_1
  10
226.45184
  20
114.38953
  0
VERTEX
  5
6e8
  8
Layer_1
  10
226.87134
  20
114.51508
  0
VERTEX
  5
6e9
  8
Layer_1
  10
227.26617
  20
114.66119
  0
VERTEX
  5
6ea
  8
Layer_1
  10
227.63293
  20
114.82727
  0
VERTEX
  5
6eb
  8
Layer_1
  10
227.96515
  20
115.01062
  0
VERTEX
  5
6ec
  8
Layer_1
  10
228.25745
  20
115.20807
  0
VERTEX
  5
6ed
  8
Layer_1
  10
228.50842
  20
115.41785
  0
VERTEX
  5
6ee
  8
Layer_1
  10
228.71686
  20
115.63843
  0
VERTEX
  5
6ef
  8
Layer_1
  10
228.88135
  20
115.86804
  0
VERTEX
  5
6f0
  8
Layer_1
  10
229.00049
  20
116.10522
  0
VERTEX
  5
6f1
  8
Layer_1
  10
229.07294
  20
116.34814
  0
VERTEX
  5
6f2
  8
Layer_1
  10
229.09735
  20
116.59521
  0
VERTEX
  5
6f3
  8
Layer_1
  10
229.06177
  20
116.88684
  0
VERTEX
  5
6f4
  8
Layer_1
  10
228.95972
  20
117.17151
  0
VERTEX
  5
6f5
  8
Layer_1
  10
228.79388
  20
117.44666
  0
VERTEX
  5
6f6
  8
Layer_1
  10
228.56677
  20
117.70972
  0
VERTEX
  5
6f7
  8
Layer_1
  10
228.28101
  20
117.95801
  0
VERTEX
  5
6f8
  8
Layer_1
  10
227.93909
  20
118.18909
  0
VERTEX
  5
6f9
  8
Layer_1
  10
227.5437
  20
118.40021
  0
VERTEX
  5
6fa
  8
Layer_1
  10
227.09747
  20
118.58887
  0
VERTEX
  5
6fb
  8
Layer_1
  10
227.09747
  20
119.09534
  0
VERTEX
  5
6fc
  8
Layer_1
  10
229.09735
  20
119.09534
  0
VERTEX
  5
6fd
  8
Layer_1
  10
229.60999
  20
119.12109
  0
VERTEX
  5
6fe
  8
Layer_1
  10
230.10754
  20
119.19653
  0
VERTEX
  5
6ff
  8
Layer_1
  10
230.5874
  20
119.31934
  0
VERTEX
  5
700
  8
Layer_1
  10
231.04724
  20
119.487
  0
VERTEX
  5
701
  8
Layer_1
  10
231.4845
  20
119.69702
  0
VERTEX
  5
702
  8
Layer_1
  10
231.89679
  20
119.9469
  0
VERTEX
  5
703
  8
Layer_1
  10
232.28149
  20
120.23419
  0
VERTEX
  5
704
  8
Layer_1
  10
232.63623
  20
120.5564
  0
VERTEX
  5
705
  8
Layer_1
  10
232.95856
  20
120.91113
  0
VERTEX
  5
706
  8
Layer_1
  10
233.24591
  20
121.29578
  0
VERTEX
  5
707
  8
Layer_1
  10
233.49585
  20
121.70801
  0
VERTEX
  5
708
  8
Layer_1
  10
233.70587
  20
122.1452
  0
VERTEX
  5
709
  8
Layer_1
  10
233.87354
  20
122.60498
  0
VERTEX
  5
70a
  8
Layer_1
  10
233.99634
  20
123.08484
  0
VERTEX
  5
70b
  8
Layer_1
  10
234.0719
  20
123.58234
  0
VERTEX
  5
70c
  8
Layer_1
  10
234.0976
  20
124.09497
  0
VERTEX
  5
70d
  8
Layer_1
  10
234.0976
  20
156.09509
  0
VERTEX
  5
70e
  8
Layer_1
  10
234.0719
  20
156.60773
  0
VERTEX
  5
70f
  8
Layer_1
  10
233.99634
  20
157.10522
  0
VERTEX
  5
710
  8
Layer_1
  10
233.87354
  20
157.58508
  0
VERTEX
  5
711
  8
Layer_1
  10
233.70587
  20
158.04492
  0
VERTEX
  5
712
  8
Layer_1
  10
233.49585
  20
158.48218
  0
VERTEX
  5
713
  8
Layer_1
  10
233.24591
  20
158.89447
  0
VERTEX
  5
714
  8
Layer_1
  10
232.95856
  20
159.27917
  0
VERTEX
  5
715
  8
Layer_1
  10
232.63623
  20
159.63397
  0
VERTEX
  5
716
  8
Layer_1
  10
232.28149
  20
159.95624
  0
VERTEX
  5
717
  8
Layer_1
  10
231.89679
  20
160.24359
  0
VERTEX
  5
718
  8
Layer_1
  10
231.4845
  20
160.49353
  0
VERTEX
  5
719
  8
Layer_1
  10
231.04724
  20
160.70355
  0
VERTEX
  5
71a
  8
Layer_1
  10
230.5874
  20
160.87122
  0
VERTEX
  5
71b
  8
Layer_1
  10
230.10754
  20
160.99408
  0
VERTEX
  5
71c
  8
Layer_1
  10
229.60999
  20
161.06958
  0
VERTEX
  5
71d
  8
Layer_1
  10
229.09735
  20
161.09534
  0
VERTEX
  5
71e
  8
Layer_1
  10
241.09766
  20
161.09534
  0
VERTEX
  5
71f
  8
Layer_1
  10
240.58502
  20
161.06958
  0
VERTEX
  5
720
  8
Layer_1
  10
240.08752
  20
160.99408
  0
VERTEX
  5
721
  8
Layer_1
  10
239.60767
  20
160.87122
  0
VERTEX
  5
722
  8
Layer_1
  10
239.14783
  20
160.70355
  0
VERTEX
  5
723
  8
Layer_1
  10
238.71057
  20
160.49353
  0
VERTEX
  5
724
  8
Layer_1
  10
238.29828
  20
160.24359
  0
VERTEX
  5
725
  8
Layer_1
  10
237.91357
  20
159.95624
  0
VERTEX
  5
726
  8
Layer_1
  10
237.55884
  20
159.63397
  0
VERTEX
  5
727
  8
Layer_1
  10
237.23651
  20
159.27917
  0
VERTEX
  5
728
  8
Layer_1
  10
236.94916
  20
158.89447
  0
VERTEX
  5
729
  8
Layer_1
  10
236.69922
  20
158.48218
  0
VERTEX
  5
72a
  8
Layer_1
  10
236.4892
  20
158.04492
  0
VERTEX
  5
72b
  8
Layer_1
  10
236.32153
  20
157.58508
  0
VERTEX
  5
72c
  8
Layer_1
  10
236.19873
  20
157.10522
  0
VERTEX
  5
72d
  8
Layer_1
  10
236.12317
  20
156.60773
  0
VERTEX
  5
72e
  8
Layer_1
  10
236.09747
  20
156.09509
  0
VERTEX
  5
72f
  8
Layer_1
  10
236.09747
  20
126.09534
  0
VERTEX
  5
730
  8
Layer_1
  10
236.12317
  20
125.5827
  0
VERTEX
  5
731
  8
Layer_1
  10
236.19873
  20
125.08521
  0
VERTEX
  5
732
  8
Layer_1
  10
236.32153
  20
124.60535
  0
VERTEX
  5
733
  8
Layer_1
  10
236.4892
  20
124.14551
  0
VERTEX
  5
734
  8
Layer_1
  10
236.69922
  20
123.70825
  0
VERTEX
  5
735
  8
Layer_1
  10
236.94916
  20
123.29596
  0
VERTEX
  5
736
  8
Layer_1
  10
237.23651
  20
122.91125
  0
VERTEX
  5
737
  8
Layer_1
  10
237.55884
  20
122.55652
  0
VERTEX
  5
738
  8
Layer_1
  10
237.91357
  20
122.23425
  0
VERTEX
  5
739
  8
Layer_1
  10
238.29828
  20
121.9469
  0
VERTEX
  5
73a
  8
Layer_1
  10
238.71057
  20
121.69702
  0
VERTEX
  5
73b
  8
Layer_1
  10
239.14783
  20
121.48694
  0
VERTEX
  5
73c
  8
Layer_1
  10
239.60767
  20
121.31921
  0
VERTEX
  5
73d
  8
Layer_1
  10
240.08752
  20
121.19641
  0
VERTEX
  5
73e
  8
Layer_1
  10
240.58502
  20
121.12097
  0
VERTEX
  5
73f
  8
Layer_1
  10
241.09766
  20
121.09521
  0
VERTEX
  5
740
  8
Layer_1
  10
243.09753
  20
121.09521
  0
VERTEX
  5
741
  8
Layer_1
  10
243.09753
  20
120.58923
  0
VERTEX
  5
742
  8
Layer_1
  10
242.65118
  20
120.40051
  0
VERTEX
  5
743
  8
Layer_1
  10
242.25574
  20
120.18933
  0
VERTEX
  5
744
  8
Layer_1
  10
241.91382
  20
119.95825
  0
VERTEX
  5
745
  8
Layer_1
  10
241.62805
  20
119.70984
  0
VERTEX
  5
746
  8
Layer_1
  10
241.40094
  20
119.44678
  0
VERTEX
  5
747
  8
Layer_1
  10
241.23511
  20
119.17151
  0
VERTEX
  5
748
  8
Layer_1
  10
241.13318
  20
118.88672
  0
VERTEX
  5
749
  8
Layer_1
  10
241.09766
  20
118.59509
  0
VERTEX
  5
74a
  8
Layer_1
  10
241.12213
  20
118.3479
  0
VERTEX
  5
74b
  8
Layer_1
  10
241.19464
  20
118.10498
  0
VERTEX
  5
74c
  8
Layer_1
  10
241.31384
  20
117.8678
  0
VERTEX
  5
74d
  8
Layer_1
  10
241.47827
  20
117.63818
  0
VERTEX
  5
74e
  8
Layer_1
  10
241.68665
  20
117.4176
  0
VERTEX
  5
74f
  8
Layer_1
  10
241.93774
  20
117.20789
  0
VERTEX
  5
750
  8
Layer_1
  10
242.22998
  20
117.0105
  0
VERTEX
  5
751
  8
Layer_1
  10
242.56219
  20
116.82715
  0
VERTEX
  5
752
  8
Layer_1
  10
242.92896
  20
116.66107
  0
VERTEX
  5
753
  8
Layer_1
  10
243.32367
  20
116.51495
  0
VERTEX
  5
754
  8
Layer_1
  10
243.74323
  20
116.3894
  0
VERTEX
  5
755
  8
Layer_1
  10
244.18427
  20
116.28522
  0
VERTEX
  5
756
  8
Layer_1
  10
244.64343
  20
116.203
  0
VERTEX
  5
757
  8
Layer_1
  10
245.11755
  20
116.14343
  0
VERTEX
  5
758
  8
Layer_1
  10
245.60327
  20
116.10724
  0
VERTEX
  5
759
  8
Layer_1
  10
246.09735
  20
116.09497
  0
VERTEX
  5
75a
  8
Layer_1
  10
246.59161
  20
116.10724
  0
VERTEX
  5
75b
  8
Layer_1
  10
247.07751
  20
116.14343
  0
VERTEX
  5
75c
  8
Layer_1
  10
247.5517
  20
116.203
  0
VERTEX
  5
75d
  8
Layer_1
  10
248.01099
  20
116.28522
  0
VERTEX
  5
75e
  8
Layer_1
  10
248.45209
  20
116.3894
  0
VERTEX
  5
75f
  8
Layer_1
  10
248.87158
  20
116.51495
  0
VERTEX
  5
760
  8
Layer_1
  10
249.26642
  20
116.66107
  0
VERTEX
  5
761
  8
Layer_1
  10
249.63318
  20
116.82715
  0
VERTEX
  5
762
  8
Layer_1
  10
249.96533
  20
117.0105
  0
VERTEX
  5
763
  8
Layer_1
  10
250.25757
  20
117.20795
  0
VERTEX
  5
764
  8
Layer_1
  10
250.50867
  20
117.41772
  0
VERTEX
  5
765
  8
Layer_1
  10
250.71704
  20
117.63831
  0
VERTEX
  5
766
  8
Layer_1
  10
250.88147
  20
117.86792
  0
VERTEX
  5
767
  8
Layer_1
  10
251.00067
  20
118.1051
  0
VERTEX
  5
768
  8
Layer_1
  10
251.07318
  20
118.34802
  0
VERTEX
  5
769
  8
Layer_1
  10
251.0976
  20
118.59509
  0
VERTEX
  5
76a
  8
Layer_1
  10
251.06201
  20
118.88672
  0
VERTEX
  5
76b
  8
Layer_1
  10
250.95996
  20
119.17139
  0
VERTEX
  5
76c
  8
Layer_1
  10
250.79407
  20
119.44653
  0
VERTEX
  5
76d
  8
Layer_1
  10
250.56696
  20
119.70959
  0
VERTEX
  5
76e
  8
Layer_1
  10
250.28113
  20
119.95789
  0
VERTEX
  5
76f
  8
Layer_1
  10
249.93933
  20
120.18896
  0
VERTEX
  5
770
  8
Layer_1
  10
249.54395
  20
120.40009
  0
VERTEX
  5
771
  8
Layer_1
  10
249.09772
  20
120.58875
  0
VERTEX
  5
772
  8
Layer_1
  10
249.09772
  20
121.09521
  0
VERTEX
  5
773
  8
Layer_1
  10
251.0976
  20
121.09521
  0
VERTEX
  5
774
  8
Layer_1
  10
251.61023
  20
121.12097
  0
VERTEX
  5
775
  8
Layer_1
  10
252.10767
  20
121.19641
  0
VERTEX
  5
776
  8
Layer_1
  10
252.58752
  20
121.31921
  0
VERTEX
  5
777
  8
Layer_1
  10
253.04736
  20
121.48694
  0
VERTEX
  5
778
  8
Layer_1
  10
253.48462
  20
121.69702
  0
VERTEX
  5
779
  8
Layer_1
  10
253.89685
  20
121.9469
  0
VERTEX
  5
77a
  8
Layer_1
  10
254.28149
  20
122.23425
  0
VERTEX
  5
77b
  8
Layer_1
  10
254.63617
  20
122.55652
  0
VERTEX
  5
77c
  8
Layer_1
  10
254.95837
  20
122.91125
  0
VERTEX
  5
77d
  8
Layer_1
  10
255.24573
  20
123.29596
  0
VERTEX
  5
77e
  8
Layer_1
  10
255.49561
  20
123.70825
  0
VERTEX
  5
77f
  8
Layer_1
  10
255.70563
  20
124.14551
  0
VERTEX
  5
780
  8
Layer_1
  10
255.87329
  20
124.60535
  0
VERTEX
  5
781
  8
Layer_1
  10
255.99609
  20
125.08521
  0
VERTEX
  5
782
  8
Layer_1
  10
256.07153
  20
125.5827
  0
VERTEX
  5
783
  8
Layer_1
  10
256.09729
  20
126.09534
  0
VERTEX
  5
784
  8
Layer_1
  10
256.09729
  20
156.09509
  0
VERTEX
  5
785
  8
Layer_1
  10
256.07153
  20
156.60773
  0
VERTEX
  5
786
  8
Layer_1
  10
255.99609
  20
157.10522
  0
VERTEX
  5
787
  8
Layer_1
  10
255.87329
  20
157.58508
  0
VERTEX
  5
788
  8
Layer_1
  10
255.70563
  20
158.04492
  0
VERTEX
  5
789
  8
Layer_1
  10
255.49561
  20
158.48218
  0
VERTEX
  5
78a
  8
Layer_1
  10
255.24573
  20
158.89447
  0
VERTEX
  5
78b
  8
Layer_1
  10
254.95837
  20
159.27917
  0
VERTEX
  5
78c
  8
Layer_1
  10
254.63617
  20
159.63397
  0
VERTEX
  5
78d
  8
Layer_1
  10
254.28149
  20
159.95624
  0
VERTEX
  5
78e
  8
Layer_1
  10
253.89685
  20
160.24359
  0
VERTEX
  5
78f
  8
Layer_1
  10
253.48462
  20
160.49353
  0
VERTEX
  5
790
  8
Layer_1
  10
253.04736
  20
160.70355
  0
VERTEX
  5
791
  8
Layer_1
  10
252.58752
  20
160.87122
  0
VERTEX
  5
792
  8
Layer_1
  10
252.10767
  20
160.99408
  0
VERTEX
  5
793
  8
Layer_1
  10
251.61023
  20
161.06958
  0
VERTEX
  5
794
  8
Layer_1
  10
251.0976
  20
161.09534
  0
VERTEX
  5
795
  8
Layer_1
  10
269.09753
  20
161.09534
  0
VERTEX
  5
796
  8
Layer_1
  10
268.5849
  20
161.06958
  0
VERTEX
  5
797
  8
Layer_1
  10
268.0874
  20
160.99408
  0
VERTEX
  5
798
  8
Layer_1
  10
267.60754
  20
160.87122
  0
VERTEX
  5
799
  8
Layer_1
  10
267.14771
  20
160.70355
  0
VERTEX
  5
79a
  8
Layer_1
  10
266.71045
  20
160.49353
  0
VERTEX
  5
79b
  8
Layer_1
  10
266.29816
  20
160.24359
  0
VERTEX
  5
79c
  8
Layer_1
  10
265.91345
  20
159.95624
  0
VERTEX
  5
79d
  8
Layer_1
  10
265.55865
  20
159.63397
  0
VERTEX
  5
79e
  8
Layer_1
  10
265.23639
  20
159.27917
  0
VERTEX
  5
79f
  8
Layer_1
  10
264.94904
  20
158.89447
  0
VERTEX
  5
7a0
  8
Layer_1
  10
264.6991
  20
158.48218
  0
VERTEX
  5
7a1
  8
Layer_1
  10
264.48907
  20
158.04492
  0
VERTEX
  5
7a2
  8
Layer_1
  10
264.32141
  20
157.58508
  0
VERTEX
  5
7a3
  8
Layer_1
  10
264.19855
  20
157.10522
  0
VERTEX
  5
7a4
  8
Layer_1
  10
264.12305
  20
156.60773
  0
VERTEX
  5
7a5
  8
Layer_1
  10
264.09729
  20
156.09509
  0
VERTEX
  5
7a6
  8
Layer_1
  10
264.09729
  20
138.09515
  0
VERTEX
  5
7a7
  8
Layer_1
  10
264.12305
  20
137.58252
  0
VERTEX
  5
7a8
  8
Layer_1
  10
264.19855
  20
137.08508
  0
VERTEX
  5
7a9
  8
Layer_1
  10
264.32141
  20
136.60522
  0
VERTEX
  5
7aa
  8
Layer_1
  10
264.48907
  20
136.14539
  0
VERTEX
  5
7ab
  8
Layer_1
  10
264.6991
  20
135.70813
  0
VERTEX
  5
7ac
  8
Layer_1
  10
264.94904
  20
135.2959
  0
VERTEX
  5
7ad
  8
Layer_1
  10
265.23639
  20
134.91125
  0
VERTEX
  5
7ae
  8
Layer_1
  10
265.55865
  20
134.55658
  0
VERTEX
  5
7af
  8
Layer_1
  10
265.91345
  20
134.23438
  0
VERTEX
  5
7b0
  8
Layer_1
  10
266.29816
  20
133.94702
  0
VERTEX
  5
7b1
  8
Layer_1
  10
266.71045
  20
133.69714
  0
VERTEX
  5
7b2
  8
Layer_1
  10
267.14771
  20
133.48712
  0
VERTEX
  5
7b3
  8
Layer_1
  10
267.60754
  20
133.31946
  0
VERTEX
  5
7b4
  8
Layer_1
  10
268.0874
  20
133.19666
  0
VERTEX
  5
7b5
  8
Layer_1
  10
268.5849
  20
133.12122
  0
VERTEX
  5
7b6
  8
Layer_1
  10
269.09753
  20
133.09546
  0
VERTEX
  5
7b7
  8
Layer_1
  10
271.09741
  20
133.09546
  0
VERTEX
  5
7b8
  8
Layer_1
  10
271.09741
  20
132.5896
  0
VERTEX
  5
7b9
  8
Layer_1
  10
270.65106
  20
132.40088
  0
VERTEX
  5
7ba
  8
Layer_1
  10
270.25562
  20
132.1897
  0
VERTEX
  5
7bb
  8
Layer_1
  10
269.91364
  20
131.95862
  0
VERTEX
  5
7bc
  8
Layer_1
  10
269.62781
  20
131.71021
  0
VERTEX
  5
7bd
  8
Layer_1
  10
269.4007
  20
131.44714
  0
VERTEX
  5
7be
  8
Layer_1
  10
269.23486
  20
131.17188
  0
VERTEX
  5
7bf
  8
Layer_1
  10
269.13293
  20
130.88708
  0
VERTEX
  5
7c0
  8
Layer_1
  10
269.09753
  20
130.59534
  0
VERTEX
  5
7c1
  8
Layer_1
  10
269.12183
  20
130.34827
  0
VERTEX
  5
7c2
  8
Layer_1
  10
269.19421
  20
130.10535
  0
VERTEX
  5
7c3
  8
Layer_1
  10
269.31329
  20
129.86823
  0
VERTEX
  5
7c4
  8
Layer_1
  10
269.47766
  20
129.63861
  0
VERTEX
  5
7c5
  8
Layer_1
  10
269.68597
  20
129.41809
  0
VERTEX
  5
7c6
  8
Layer_1
  10
269.93695
  20
129.20825
  0
VERTEX
  5
7c7
  8
Layer_1
  10
270.22919
  20
129.01074
  0
VERTEX
  5
7c8
  8
Layer_1
  10
270.56128
  20
128.82733
  0
VERTEX
  5
7c9
  8
Layer_1
  10
270.92798
  20
128.66119
  0
VERTEX
  5
7ca
  8
Layer_1
  10
271.32275
  20
128.51508
  0
VERTEX
  5
7cb
  8
Layer_1
  10
271.74225
  20
128.38953
  0
VERTEX
  5
7cc
  8
Layer_1
  10
272.18335
  20
128.28528
  0
VERTEX
  5
7cd
  8
Layer_1
  10
272.6427
  20
128.203
  0
VERTEX
  5
7ce
  8
Layer_1
  10
273.11694
  20
128.14331
  0
VERTEX
  5
7cf
  8
Layer_1
  10
273.60291
  20
128.10699
  0
VERTEX
  5
7d0
  8
Layer_1
  10
274.09717
  20
128.09473
  0
VERTEX
  5
7d1
  8
Layer_1
  10
274.59143
  20
128.10699
  0
VERTEX
  5
7d2
  8
Layer_1
  10
275.07739
  20
128.14319
  0
VERTEX
  5
7d3
  8
Layer_1
  10
275.55164
  20
128.20276
  0
VERTEX
  5
7d4
  8
Layer_1
  10
276.01099
  20
128.28503
  0
VERTEX
  5
7d5
  8
Layer_1
  10
276.45209
  20
128.38928
  0
VERTEX
  5
7d6
  8
Layer_1
  10
276.8717
  20
128.51483
  0
VERTEX
  5
7d7
  8
Layer_1
  10
277.26654
  20
128.66101
  0
VERTEX
  5
7d8
  8
Layer_1
  10
277.63336
  20
128.82715
  0
VERTEX
  5
7d9
  8
Layer_1
  10
277.96558
  20
129.01056
  0
VERTEX
  5
7da
  8
Layer_1
  10
278.25781
  20
129.20801
  0
VERTEX
  5
7db
  8
Layer_1
  10
278.50879
  20
129.41785
  0
VERTEX
  5
7dc
  8
Layer_1
  10
278.71722
  20
129.63843
  0
VERTEX
  5
7dd
  8
Layer_1
  10
278.88165
  20
129.86816
  0
VERTEX
  5
7de
  8
Layer_1
  10
279.00073
  20
130.10529
  0
VERTEX
  5
7df
  8
Layer_1
  10
279.07312
  20
130.34827
  0
VERTEX
  5
7e0
  8
Layer_1
  10
279.09741
  20
130.59534
  0
VERTEX
  5
7e1
  8
Layer_1
  10
279.06189
  20
130.88696
  0
VERTEX
  5
7e2
  8
Layer_1
  10
278.95984
  20
131.17169
  0
VERTEX
  5
7e3
  8
Layer_1
  10
278.79395
  20
131.4469
  0
VERTEX
  5
7e4
  8
Layer_1
  10
278.56677
  20
131.7099
  0
VERTEX
  5
7e5
  8
Layer_1
  10
278.28101
  20
131.95819
  0
VERTEX
  5
7e6
  8
Layer_1
  10
277.93909
  20
132.18921
  0
VERTEX
  5
7e7
  8
Layer_1
  10
277.5437
  20
132.40039
  0
VERTEX
  5
7e8
  8
Layer_1
  10
277.09753
  20
132.58905
  0
VERTEX
  5
7e9
  8
Layer_1
  10
277.09753
  20
133.09546
  0
VERTEX
  5
7ea
  8
Layer_1
  10
279.09741
  20
133.09546
  0
VERTEX
  5
7eb
  8
Layer_1
  10
279.61005
  20
133.12122
  0
VERTEX
  5
7ec
  8
Layer_1
  10
280.10754
  20
133.19666
  0
VERTEX
  5
7ed
  8
Layer_1
  10
280.5874
  20
133.31946
  0
VERTEX
  5
7ee
  8
Layer_1
  10
281.04724
  20
133.48712
  0
VERTEX
  5
7ef
  8
Layer_1
  10
281.4845
  20
133.69714
  0
VERTEX
  5
7f0
  8
Layer_1
  10
281.89679
  20
133.94702
  0
VERTEX
  5
7f1
  8
Layer_1
  10
282.28149
  20
134.23431
  0
VERTEX
  5
7f2
  8
Layer_1
  10
282.63629
  20
134.55652
  0
VERTEX
  5
7f3
  8
Layer_1
  10
282.95856
  20
134.91125
  0
VERTEX
  5
7f4
  8
Layer_1
  10
283.24591
  20
135.2959
  0
VERTEX
  5
7f5
  8
Layer_1
  10
283.49585
  20
135.70813
  0
VERTEX
  5
7f6
  8
Layer_1
  10
283.70587
  20
136.14532
  0
VERTEX
  5
7f7
  8
Layer_1
  10
283.87354
  20
136.6051
  0
VERTEX
  5
7f8
  8
Layer_1
  10
283.9964
  20
137.08496
  0
VERTEX
  5
7f9
  8
Layer_1
  10
284.0719
  20
137.58246
  0
VERTEX
  5
7fa
  8
Layer_1
  10
284.09766
  20
138.09509
  0
VERTEX
  5
7fb
  8
Layer_1
  10
284.09766
  20
156.09509
  0
VERTEX
  5
7fc
  8
Layer_1
  10
284.0719
  20
156.60773
  0
VERTEX
  5
7fd
  8
Layer_1
  10
283.9964
  20
157.10522
  0
VERTEX
  5
7fe
  8
Layer_1
  10
283.87354
  20
157.58508
  0
VERTEX
  5
7ff
  8
Layer_1
  10
283.70587
  20
158.04492
  0
VERTEX
  5
800
  8
Layer_1
  10
283.49585
  20
158.48218
  0
VERTEX
  5
801
  8
Layer_1
  10
283.24591
  20
158.89447
  0
VERTEX
  5
802
  8
Layer_1
  10
282.95856
  20
159.27917
  0
VERTEX
  5
803
  8
Layer_1
  10
282.63629
  20
159.63391
  0
VERTEX
  5
804
  8
Layer_1
  10
282.28149
  20
159.95624
  0
VERTEX
  5
805
  8
Layer_1
  10
281.89679
  20
160.24359
  0
VERTEX
  5
806
  8
Layer_1
  10
281.4845
  20
160.49353
  0
VERTEX
  5
807
  8
Layer_1
  10
281.04724
  20
160.70355
  0
VERTEX
  5
808
  8
Layer_1
  10
280.5874
  20
160.87122
  0
VERTEX
  5
809
  8
Layer_1
  10
280.10754
  20
160.99402
  0
VERTEX
  5
80a
  8
Layer_1
  10
279.61005
  20
161.06958
  0
VERTEX
  5
80b
  8
Layer_1
  10
279.09741
  20
161.09528
  0
VERTEX
  5
80c
  8
Layer_1
  10
309.09766
  20
161.09528
  0
VERTEX
  5
80d
  8
Layer_1
  10
308.58502
  20
161.06958
  0
VERTEX
  5
80e
  8
Layer_1
  10
308.08752
  20
160.99402
  0
VERTEX
  5
80f
  8
Layer_1
  10
307.60767
  20
160.87122
  0
VERTEX
  5
810
  8
Layer_1
  10
307.14783
  20
160.70355
  0
VERTEX
  5
811
  8
Layer_1
  10
306.71057
  20
160.49353
  0
VERTEX
  5
812
  8
Layer_1
  10
306.29828
  20
160.24359
  0
VERTEX
  5
813
  8
Layer_1
  10
305.91357
  20
159.95624
  0
VERTEX
  5
814
  8
Layer_1
  10
305.55878
  20
159.63391
  0
VERTEX
  5
815
  8
Layer_1
  10
305.23651
  20
159.27917
  0
VERTEX
  5
816
  8
Layer_1
  10
304.94916
  20
158.89447
  0
VERTEX
  5
817
  8
Layer_1
  10
304.69922
  20
158.48218
  0
VERTEX
  5
818
  8
Layer_1
  10
304.4892
  20
158.04492
  0
VERTEX
  5
819
  8
Layer_1
  10
304.32153
  20
157.58508
  0
VERTEX
  5
81a
  8
Layer_1
  10
304.19867
  20
157.10522
  0
VERTEX
  5
81b
  8
Layer_1
  10
304.12317
  20
156.60773
  0
VERTEX
  5
81c
  8
Layer_1
  10
304.09741
  20
156.09509
  0
VERTEX
  5
81d
  8
Layer_1
  10
304.09741
  20
152.09534
  0
VERTEX
  5
81e
  8
Layer_1
  10
304.12317
  20
151.5827
  0
VERTEX
  5
81f
  8
Layer_1
  10
304.19867
  20
151.08521
  0
VERTEX
  5
820
  8
Layer_1
  10
304.32153
  20
150.60535
  0
VERTEX
  5
821
  8
Layer_1
  10
304.4892
  20
150.14551
  0
VERTEX
  5
822
  8
Layer_1
  10
304.69922
  20
149.70825
  0
VERTEX
  5
823
  8
Layer_1
  10
304.94916
  20
149.29596
  0
VERTEX
  5
824
  8
Layer_1
  10
305.23651
  20
148.91125
  0
VERTEX
  5
825
  8
Layer_1
  10
305.55878
  20
148.55646
  0
VERTEX
  5
826
  8
Layer_1
  10
305.91357
  20
148.23419
  0
VERTEX
  5
827
  8
Layer_1
  10
306.29828
  20
147.94684
  0
VERTEX
  5
828
  8
Layer_1
  10
306.71057
  20
147.6969
  0
VERTEX
  5
829
  8
Layer_1
  10
307.14783
  20
147.48688
  0
VERTEX
  5
82a
  8
Layer_1
  10
307.60767
  20
147.31921
  0
VERTEX
  5
82b
  8
Layer_1
  10
308.08752
  20
147.19635
  0
VERTEX
  5
82c
  8
Layer_1
  10
308.58502
  20
147.12085
  0
VERTEX
  5
82d
  8
Layer_1
  10
309.09766
  20
147.09509
  0
VERTEX
  5
82e
  8
Layer_1
  10
311.09753
  20
147.09509
  0
VERTEX
  5
82f
  8
Layer_1
  10
311.09753
  20
146.58911
  0
VERTEX
  5
830
  8
Layer_1
  10
310.65118
  20
146.40039
  0
VERTEX
  5
831
  8
Layer_1
  10
310.25574
  20
146.18921
  0
VERTEX
  5
832
  8
Layer_1
  10
309.91382
  20
145.95813
  0
VERTEX
  5
833
  8
Layer_1
  10
309.62805
  20
145.70972
  0
VERTEX
  5
834
  8
Layer_1
  10
309.40088
  20
145.44666
  0
VERTEX
  5
835
  8
Layer_1
  10
309.23505
  20
145.17139
  0
VERTEX
  5
836
  8
Layer_1
  10
309.13306
  20
144.8866
  0
VERTEX
  5
837
  8
Layer_1
  10
309.09766
  20
144.59497
  0
VERTEX
  5
838
  8
Layer_1
  10
309.12341
  20
144.33936
  0
VERTEX
  5
839
  8
Layer_1
  10
309.19922
  20
144.09106
  0
VERTEX
  5
83a
  8
Layer_1
  10
309.32239
  20
143.8515
  0
VERTEX
  5
83b
  8
Layer_1
  10
309.49054
  20
143.62183
  0
VERTEX
  5
83c
  8
Layer_1
  10
309.70111
  20
143.40332
  0
VERTEX
  5
83d
  8
Layer_1
  10
309.95154
  20
143.19714
  0
VERTEX
  5
83e
  8
Layer_1
  10
310.23938
  20
143.00464
  0
VERTEX
  5
83f
  8
Layer_1
  10
310.56207
  20
142.82709
  0
VERTEX
  5
840
  8
Layer_1
  10
310.91711
  20
142.66571
  0
VERTEX
  5
841
  8
Layer_1
  10
311.302
  20
142.52173
  0
VERTEX
  5
842
  8
Layer_1
  10
311.71423
  20
142.39648
  0
VERTEX
  5
843
  8
Layer_1
  10
312.15125
  20
142.29126
  0
VERTEX
  5
844
  8
Layer_1
  10
312.6106
  20
142.20721
  0
VERTEX
  5
845
  8
Layer_1
  10
313.08972
  20
142.14563
  0
VERTEX
  5
846
  8
Layer_1
  10
313.58618
  20
142.10779
  0
VERTEX
  5
847
  8
Layer_1
  10
314.09735
  20
142.09485
  0
VERTEX
  5
848
  8
Layer_1
  10
314.59161
  20
142.10712
  0
VERTEX
  5
849
  8
Layer_1
  10
315.07745
  20
142.14331
  0
VERTEX
  5
84a
  8
Layer_1
  10
315.55164
  20
142.20288
  0
VERTEX
  5
84b
  8
Layer_1
  10
316.01086
  20
142.28516
  0
VERTEX
  5
84c
  8
Layer_1
  10
316.45197
  20
142.3894
  0
VERTEX
  5
84d
  8
Layer_1
  10
316.87158
  20
142.51495
  0
VERTEX
  5
84e
  8
Layer_1
  10
317.26642
  20
142.66107
  0
VERTEX
  5
84f
  8
Layer_1
  10
317.63318
  20
142.82715
  0
VERTEX
  5
850
  8
Layer_1
  10
317.96533
  20
143.0105
  0
VERTEX
  5
851
  8
Layer_1
  10
318.25757
  20
143.20795
  0
VERTEX
  5
852
  8
Layer_1
  10
318.50867
  20
143.41772
  0
VERTEX
  5
853
  8
Layer_1
  10
318.71704
  20
143.63824
  0
VERTEX
  5
854
  8
Layer_1
  10
318.88147
  20
143.86786
  0
VERTEX
  5
855
  8
Layer_1
  10
319.00061
  20
144.10498
  0
VERTEX
  5
856
  8
Layer_1
  10
319.07306
  20
144.3479
  0
VERTEX
  5
857
  8
Layer_1
  10
319.09753
  20
144.59497
  0
VERTEX
  5
858
  8
Layer_1
  10
319.06201
  20
144.8866
  0
VERTEX
  5
859
  8
Layer_1
  10
318.95996
  20
145.17126
  0
VERTEX
  5
85a
  8
Layer_1
  10
318.79407
  20
145.44647
  0
VERTEX
  5
85b
  8
Layer_1
  10
318.56689
  20
145.70947
  0
VERTEX
  5
85c
  8
Layer_1
  10
318.28113
  20
145.95782
  0
VERTEX
  5
85d
  8
Layer_1
  10
317.93921
  20
146.18884
  0
VERTEX
  5
85e
  8
Layer_1
  10
317.54382
  20
146.40002
  0
VERTEX
  5
85f
  8
Layer_1
  10
317.09766
  20
146.58862
  0
VERTEX
  5
860
  8
Layer_1
  10
317.09766
  20
147.09509
  0
VERTEX
  5
861
  8
Layer_1
  10
319.09753
  20
147.09509
  0
VERTEX
  5
862
  8
Layer_1
  10
319.61017
  20
147.12085
  0
VERTEX
  5
863
  8
Layer_1
  10
320.10767
  20
147.19629
  0
VERTEX
  5
864
  8
Layer_1
  10
320.58752
  20
147.31909
  0
VERTEX
  5
865
  8
Layer_1
  10
321.04736
  20
147.48682
  0
VERTEX
  5
866
  8
Layer_1
  10
321.48462
  20
147.6969
  0
VERTEX
  5
867
  8
Layer_1
  10
321.89691
  20
147.94678
  0
VERTEX
  5
868
  8
Layer_1
  10
322.28162
  20
148.23413
  0
VERTEX
  5
869
  8
Layer_1
  10
322.63641
  20
148.5564
  0
VERTEX
  5
86a
  8
Layer_1
  10
322.95868
  20
148.91113
  0
VERTEX
  5
86b
  8
Layer_1
  10
323.24603
  20
149.29584
  0
VERTEX
  5
86c
  8
Layer_1
  10
323.49597
  20
149.70813
  0
VERTEX
  5
86d
  8
Layer_1
  10
323.70599
  20
150.14539
  0
VERTEX
  5
86e
  8
Layer_1
  10
323.87366
  20
150.60522
  0
VERTEX
  5
86f
  8
Layer_1
  10
323.99652
  20
151.08508
  0
VERTEX
  5
870
  8
Layer_1
  10
324.07202
  20
151.58264
  0
VERTEX
  5
871
  8
Layer_1
  10
324.09778
  20
152.09528
  0
VERTEX
  5
872
  8
Layer_1
  10
324.09778
  20
156.09503
  0
VERTEX
  5
873
  8
Layer_1
  10
324.07202
  20
156.60767
  0
VERTEX
  5
874
  8
Layer_1
  10
323.99652
  20
157.10522
  0
VERTEX
  5
875
  8
Layer_1
  10
323.87366
  20
157.58508
  0
VERTEX
  5
876
  8
Layer_1
  10
323.70599
  20
158.04492
  0
VERTEX
  5
877
  8
Layer_1
  10
323.49597
  20
158.48218
  0
VERTEX
  5
878
  8
Layer_1
  10
323.24603
  20
158.89447
  0
VERTEX
  5
879
  8
Layer_1
  10
322.95868
  20
159.27917
  0
VERTEX
  5
87a
  8
Layer_1
  10
322.63641
  20
159.63391
  0
VERTEX
  5
87b
  8
Layer_1
  10
322.28162
  20
159.95618
  0
VERTEX
  5
87c
  8
Layer_1
  10
321.89691
  20
160.24353
  0
VERTEX
  5
87d
  8
Layer_1
  10
321.48462
  20
160.49341
  0
VERTEX
  5
87e
  8
Layer_1
  10
321.04736
  20
160.70349
  0
VERTEX
  5
87f
  8
Layer_1
  10
320.58752
  20
160.87122
  0
VERTEX
  5
880
  8
Layer_1
  10
320.10767
  20
160.99402
  0
VERTEX
  5
881
  8
Layer_1
  10
319.61017
  20
161.06946
  0
VERTEX
  5
882
  8
Layer_1
  10
319.09753
  20
161.09521
  0
VERTEX
  5
883
  8
Layer_1
  10
334.09766
  20
161.09521
  0
VERTEX
  5
884
  8
Layer_1
  10
334.12341
  20
160.58258
  0
VERTEX
  5
885
  8
Layer_1
  10
334.19885
  20
160.08508
  0
VERTEX
  5
886
  8
Layer_1
  10
334.32166
  20
159.60522
  0
VERTEX
  5
887
  8
Layer_1
  10
334.48932
  20
159.14545
  0
VERTEX
  5
888
  8
Layer_1
  10
334.69934
  20
158.70825
  0
VERTEX
  5
889
  8
Layer_1
  10
334.94922
  20
158.29602
  0
VERTEX
  5
88a
  8
Layer_1
  10
335.23657
  20
157.91138
  0
VERTEX
  5
88b
  8
Layer_1
  10
335.55878
  20
157.55664
  0
VERTEX
  5
88c
  8
Layer_1
  10
335.91345
  20
157.23438
  0
VERTEX
  5
88d
  8
Layer_1
  10
336.2981
  20
156.94702
  0
VERTEX
  5
88e
  8
Layer_1
  10
336.71033
  20
156.69714
  0
VERTEX
  5
88f
  8
Layer_1
  10
337.14758
  20
156.48718
  0
VERTEX
  5
890
  8
Layer_1
  10
337.60742
  20
156.31958
  0
VERTEX
  5
891
  8
Layer_1
  10
338.08728
  20
156.19678
  0
VERTEX
  5
892
  8
Layer_1
  10
338.58472
  20
156.12134
  0
VERTEX
  5
893
  8
Layer_1
  10
339.09735
  20
156.09558
  0
VERTEX
  5
894
  8
Layer_1
  10
369.0976
  20
156.09558
  0
VERTEX
  5
895
  8
Layer_1
  10
369.61023
  20
156.12134
  0
VERTEX
  5
896
  8
Layer_1
  10
370.10779
  20
156.19678
  0
VERTEX
  5
897
  8
Layer_1
  10
370.58765
  20
156.31958
  0
VERTEX
  5
898
  8
Layer_1
  10
371.04742
  20
156.48724
  0
VERTEX
  5
899
  8
Layer_1
  10
371.48462
  20
156.69727
  0
VERTEX
  5
89a
  8
Layer_1
  10
371.89685
  20
156.94714
  0
VERTEX
  5
89b
  8
Layer_1
  10
372.28149
  20
157.23444
  0
VERTEX
  5
89c
  8
Layer_1
  10
372.63623
  20
157.55664
  0
VERTEX
  5
89d
  8
Layer_1
  10
372.95844
  20
157.91138
  0
VERTEX
  5
89e
  8
Layer_1
  10
373.24573
  20
158.29602
  0
VERTEX
  5
89f
  8
Layer_1
  10
373.49561
  20
158.70825
  0
VERTEX
  5
8a0
  8
Layer_1
  10
373.70563
  20
159.14545
  0
VERTEX
  5
8a1
  8
Layer_1
  10
373.87329
  20
159.60522
  0
VERTEX
  5
8a2
  8
Layer_1
  10
373.99609
  20
160.08508
  0
VERTEX
  5
8a3
  8
Layer_1
  10
374.07153
  20
160.58258
  0
VERTEX
  5
8a4
  8
Layer_1
  10
374.09729
  20
161.09521
  0
VERTEX
  5
8a5
  8
Layer_1
  10
374.09729
  20
181.09558
  0
VERTEX
  5
8a6
  8
Layer_1
  10
374.07153
  20
181.60822
  0
VERTEX
  5
8a7
  8
Layer_1
  10
373.99609
  20
182.10571
  0
VERTEX
  5
8a8
  8
Layer_1
  10
373.87329
  20
182.58557
  0
VERTEX
  5
8a9
  8
Layer_1
  10
373.70563
  20
183.04541
  0
VERTEX
  5
8aa
  8
Layer_1
  10
373.49561
  20
183.48267
  0
VERTEX
  5
8ab
  8
Layer_1
  10
373.24573
  20
183.8949
  0
VERTEX
  5
8ac
  8
Layer_1
  10
372.95837
  20
184.27954
  0
VERTEX
  5
8ad
  8
Layer_1
  10
372.63617
  20
184.63416
  0
VERTEX
  5
8ae
  8
Layer_1
  10
372.28149
  20
184.95642
  0
VERTEX
  5
8af
  8
Layer_1
  10
371.89685
  20
185.24377
  0
VERTEX
  5
8b0
  8
Layer_1
  10
371.48462
  20
185.49365
  0
VERTEX
  5
8b1
  8
Layer_1
  10
371.04736
  20
185.70361
  0
VERTEX
  5
8b2
  8
Layer_1
  10
370.58752
  20
185.87134
  0
VERTEX
  5
8b3
  8
Layer_1
  10
370.10767
  20
185.99408
  0
VERTEX
  5
8b4
  8
Layer_1
  10
369.61023
  20
186.06958
  0
VERTEX
  5
8b5
  8
Layer_1
  10
369.0976
  20
186.09528
  0
VERTEX
  5
8b6
  8
Layer_1
  10
339.09735
  20
186.09528
  0
VERTEX
  5
8b7
  8
Layer_1
  10
338.58472
  20
186.06958
  0
VERTEX
  5
8b8
  8
Layer_1
  10
338.08728
  20
185.99408
  0
VERTEX
  5
8b9
  8
Layer_1
  10
337.60742
  20
185.87134
  0
VERTEX
  5
8ba
  8
Layer_1
  10
337.14758
  20
185.70361
  0
VERTEX
  5
8bb
  8
Layer_1
  10
336.71033
  20
185.49365
  0
VERTEX
  5
8bc
  8
Layer_1
  10
336.2981
  20
185.24377
  0
VERTEX
  5
8bd
  8
Layer_1
  10
335.91345
  20
184.95642
  0
VERTEX
  5
8be
  8
Layer_1
  10
335.55878
  20
184.63416
  0
VERTEX
  5
8bf
  8
Layer_1
  10
335.23657
  20
184.27954
  0
VERTEX
  5
8c0
  8
Layer_1
  10
334.94922
  20
183.8949
  0
VERTEX
  5
8c1
  8
Layer_1
  10
334.69934
  20
183.48267
  0
VERTEX
  5
8c2
  8
Layer_1
  10
334.48932
  20
183.04541
  0
VERTEX
  5
8c3
  8
Layer_1
  10
334.32166
  20
182.58557
  0
VERTEX
  5
8c4
  8
Layer_1
  10
334.19885
  20
182.10571
  0
VERTEX
  5
8c5
  8
Layer_1
  10
334.12341
  20
181.60822
  0
VERTEX
  5
8c6
  8
Layer_1
  10
334.09766
  20
181.09558
  0
VERTEX
  5
8c7
  8
Layer_1
  10
319.09753
  20
181.09558
  0
VERTEX
  5
8c8
  8
Layer_1
  10
319.61017
  20
181.12134
  0
VERTEX
  5
8c9
  8
Layer_1
  10
320.10767
  20
181.19684
  0
VERTEX
  5
8ca
  8
Layer_1
  10
320.58752
  20
181.3197
  0
VERTEX
  5
8cb
  8
Layer_1
  10
321.04736
  20
181.48737
  0
VERTEX
  5
8cc
  8
Layer_1
  10
321.48462
  20
181.69739
  0
VERTEX
  5
8cd
  8
Layer_1
  10
321.89691
  20
181.94733
  0
VERTEX
  5
8ce
  8
Layer_1
  10
322.28162
  20
182.23468
  0
VERTEX
  5
8cf
  8
Layer_1
  10
322.63641
  20
182.55695
  0
VERTEX
  5
8d0
  8
Layer_1
  10
322.95868
  20
182.91174
  0
VERTEX
  5
8d1
  8
Layer_1
  10
323.24603
  20
183.29645
  0
VERTEX
  5
8d2
  8
Layer_1
  10
323.49597
  20
183.70874
  0
VERTEX
  5
8d3
  8
Layer_1
  10
323.70599
  20
184.146
  0
VERTEX
  5
8d4
  8
Layer_1
  10
323.87366
  20
184.60583
  0
VERTEX
  5
8d5
  8
Layer_1
  10
323.99652
  20
185.08569
  0
VERTEX
  5
8d6
  8
Layer_1
  10
324.07202
  20
185.58319
  0
VERTEX
  5
8d7
  8
Layer_1
  10
324.09778
  20
186.09583
  0
VERTEX
  5
8d8
  8
Layer_1
  10
324.09778
  20
190.09558
  0
VERTEX
  5
8d9
  8
Layer_1
  10
324.07202
  20
190.60822
  0
VERTEX
  5
8da
  8
Layer_1
  10
323.99652
  20
191.10571
  0
VERTEX
  5
8db
  8
Layer_1
  10
323.87366
  20
191.58557
  0
VERTEX
  5
8dc
  8
Layer_1
  10
323.70599
  20
192.04541
  0
VERTEX
  5
8dd
  8
Layer_1
  10
323.49597
  20
192.48267
  0
VERTEX
  5
8de
  8
Layer_1
  10
323.24603
  20
192.89496
  0
VERTEX
  5
8df
  8
Layer_1
  10
322.95868
  20
193.27966
  0
VERTEX
  5
8e0
  8
Layer_1
  10
322.63641
  20
193.6344
  0
VERTEX
  5
8e1
  8
Layer_1
  10
322.28162
  20
193.95673
  0
VERTEX
  5
8e2
  8
Layer_1
  10
321.89691
  20
194.24408
  0
VERTEX
  5
8e3
  8
Layer_1
  10
321.48462
  20
194.49402
  0
VERTEX
  5
8e4
  8
Layer_1
  10
321.04736
  20
194.70404
  0
VERTEX
  5
8e5
  8
Layer_1
  10
320.58752
  20
194.8717
  0
VERTEX
  5
8e6
  8
Layer_1
  10
320.10767
  20
194.99451
  0
VERTEX
  5
8e7
  8
Layer_1
  10
319.61017
  20
195.07007
  0
VERTEX
  5
8e8
  8
Layer_1
  10
319.09753
  20
195.09576
  0
VERTEX
  5
8e9
  8
Layer_1
  10
317.09766
  20
195.09576
  0
VERTEX
  5
8ea
  8
Layer_1
  10
317.09766
  20
195.60217
  0
VERTEX
  5
8eb
  8
Layer_1
  10
317.54382
  20
195.79083
  0
VERTEX
  5
8ec
  8
Layer_1
  10
317.93921
  20
196.00195
  0
VERTEX
  5
8ed
  8
Layer_1
  10
318.28113
  20
196.23303
  0
VERTEX
  5
8ee
  8
Layer_1
  10
318.56689
  20
196.48132
  0
VERTEX
  5
8ef
  8
Layer_1
  10
318.79407
  20
196.74438
  0
VERTEX
  5
8f0
  8
Layer_1
  10
318.95996
  20
197.01953
  0
VERTEX
  5
8f1
  8
Layer_1
  10
319.06201
  20
197.3042
  0
VERTEX
  5
8f2
  8
Layer_1
  10
319.09753
  20
197.59583
  0
VERTEX
  5
8f3
  8
Layer_1
  10
319.07306
  20
197.84302
  0
VERTEX
  5
8f4
  8
Layer_1
  10
319.00055
  20
198.086
  0
VERTEX
  5
8f5
  8
Layer_1
  10
318.88135
  20
198.32312
  0
VERTEX
  5
8f6
  8
Layer_1
  10
318.71692
  20
198.5528
  0
VERTEX
  5
8f7
  8
Layer_1
  10
318.50842
  20
198.77332
  0
VERTEX
  5
8f8
  8
Layer_1
  10
318.25739
  20
198.98309
  0
VERTEX
  5
8f9
  8
Layer_1
  10
317.96509
  20
199.18054
  0
VERTEX
  5
8fa
  8
Layer_1
  10
317.63287
  20
199.36389
  0
VERTEX
  5
8fb
  8
Layer_1
  10
317.26605
  20
199.52997
  0
VERTEX
  5
8fc
  8
Layer_1
  10
316.87122
  20
199.67603
  0
VERTEX
  5
8fd
  8
Layer_1
  10
316.4516
  20
199.80151
  0
VERTEX
  5
8fe
  8
Layer_1
  10
316.01062
  20
199.90576
  0
VERTEX
  5
8ff
  8
Layer_1
  10
315.55139
  20
199.98804
  0
VERTEX
  5
900
  8
Layer_1
  10
315.07727
  20
200.04761
  0
VERTEX
  5
901
  8
Layer_1
  10
314.59149
  20
200.0838
  0
VERTEX
  5
902
  8
Layer_1
  10
314.09735
  20
200.09601
  0
VERTEX
  5
903
  8
Layer_1
  10
313.60321
  20
200.08368
  0
VERTEX
  5
904
  8
Layer_1
  10
313.11737
  20
200.04749
  0
VERTEX
  5
905
  8
Layer_1
  10
312.64319
  20
199.98792
  0
VERTEX
  5
906
  8
Layer_1
  10
312.18396
  20
199.90564
  0
VERTEX
  5
907
  8
Layer_1
  10
311.74292
  20
199.80139
  0
VERTEX
  5
908
  8
Layer_1
  10
311.32336
  20
199.67584
  0
VERTEX
  5
909
  8
Layer_1
  10
310.92859
  20
199.52972
  0
VERTEX
  5
90a
  8
Layer_1
  10
310.56189
  20
199.36365
  0
VERTEX
  5
90b
  8
Layer_1
  10
310.22974
  20
199.1803
  0
VERTEX
  5
90c
  8
Layer_1
  10
309.9375
  20
198.98285
  0
VERTEX
  5
90d
  8
Layer_1
  10
309.68652
  20
198.77307
  0
VERTEX
  5
90e
  8
Layer_1
  10
309.47815
  20
198.55255
  0
VERTEX
  5
90f
  8
Layer_1
  10
309.31372
  20
198.32294
  0
VERTEX
  5
910
  8
Layer_1
  10
309.19458
  20
198.08582
  0
VERTEX
  5
911
  8
Layer_1
  10
309.12213
  20
197.8429
  0
VERTEX
  5
912
  8
Layer_1
  10
309.09766
  20
197.59583
  0
VERTEX
  5
913
  8
Layer_1
  10
309.13306
  20
197.3042
  0
VERTEX
  5
914
  8
Layer_1
  10
309.23505
  20
197.01941
  0
VERTEX
  5
915
  8
Layer_1
  10
309.40088
  20
196.74414
  0
VERTEX
  5
916
  8
Layer_1
  10
309.62805
  20
196.48108
  0
VERTEX
  5
917
  8
Layer_1
  10
309.91382
  20
196.23267
  0
VERTEX
  5
918
  8
Layer_1
  10
310.25574
  20
196.00159
  0
VERTEX
  5
919
  8
Layer_1
  10
310.65118
  20
195.79041
  0
VERTEX
  5
91a
  8
Layer_1
  10
311.09753
  20
195.60168
  0
VERTEX
  5
91b
  8
Layer_1
  10
311.09753
  20
195.09576
  0
VERTEX
  5
91c
  8
Layer_1
  10
309.09766
  20
195.09576
  0
VERTEX
  5
91d
  8
Layer_1
  10
308.58502
  20
195.07007
  0
VERTEX
  5
91e
  8
Layer_1
  10
308.08752
  20
194.99451
  0
VERTEX
  5
91f
  8
Layer_1
  10
307.60767
  20
194.8717
  0
VERTEX
  5
920
  8
Layer_1
  10
307.14783
  20
194.70404
  0
VERTEX
  5
921
  8
Layer_1
  10
306.71057
  20
194.49402
  0
VERTEX
  5
922
  8
Layer_1
  10
306.29828
  20
194.24408
  0
VERTEX
  5
923
  8
Layer_1
  10
305.91357
  20
193.95673
  0
VERTEX
  5
924
  8
Layer_1
  10
305.55878
  20
193.6344
  0
VERTEX
  5
925
  8
Layer_1
  10
305.23651
  20
193.27966
  0
VERTEX
  5
926
  8
Layer_1
  10
304.94916
  20
192.89496
  0
VERTEX
  5
927
  8
Layer_1
  10
304.69922
  20
192.48267
  0
VERTEX
  5
928
  8
Layer_1
  10
304.4892
  20
192.04541
  0
VERTEX
  5
929
  8
Layer_1
  10
304.32153
  20
191.58557
  0
VERTEX
  5
92a
  8
Layer_1
  10
304.19867
  20
191.10571
  0
VERTEX
  5
92b
  8
Layer_1
  10
304.12317
  20
190.60822
  0
VERTEX
  5
92c
  8
Layer_1
  10
304.09741
  20
190.09558
  0
VERTEX
  5
92d
  8
Layer_1
  10
304.09741
  20
186.09583
  0
VERTEX
  5
92e
  8
Layer_1
  10
304.12317
  20
185.58319
  0
VERTEX
  5
92f
  8
Layer_1
  10
304.19867
  20
185.08569
  0
VERTEX
  5
930
  8
Layer_1
  10
304.32153
  20
184.60583
  0
VERTEX
  5
931
  8
Layer_1
  10
304.4892
  20
184.146
  0
VERTEX
  5
932
  8
Layer_1
  10
304.69922
  20
183.70874
  0
VERTEX
  5
933
  8
Layer_1
  10
304.94916
  20
183.29645
  0
VERTEX
  5
934
  8
Layer_1
  10
305.23651
  20
182.91174
  0
VERTEX
  5
935
  8
Layer_1
  10
305.55878
  20
182.55695
  0
VERTEX
  5
936
  8
Layer_1
  10
305.91357
  20
182.23468
  0
VERTEX
  5
937
  8
Layer_1
  10
306.29828
  20
181.94733
  0
VERTEX
  5
938
  8
Layer_1
  10
306.71057
  20
181.69739
  0
VERTEX
  5
939
  8
Layer_1
  10
307.14783
  20
181.48737
  0
VERTEX
  5
93a
  8
Layer_1
  10
307.60767
  20
181.3197
  0
VERTEX
  5
93b
  8
Layer_1
  10
308.08752
  20
181.19684
  0
VERTEX
  5
93c
  8
Layer_1
  10
308.58502
  20
181.12134
  0
VERTEX
  5
93d
  8
Layer_1
  10
309.09766
  20
181.09558
  0
VERTEX
  5
93e
  8
Layer_1
  10
279.09741
  20
181.09558
  0
VERTEX
  5
93f
  8
Layer_1
  10
279.61005
  20
181.12134
  0
VERTEX
  5
940
  8
Layer_1
  10
280.10754
  20
181.19684
  0
VERTEX
  5
941
  8
Layer_1
  10
280.5874
  20
181.3197
  0
VERTEX
  5
942
  8
Layer_1
  10
281.04724
  20
181.48737
  0
VERTEX
  5
943
  8
Layer_1
  10
281.4845
  20
181.69739
  0
VERTEX
  5
944
  8
Layer_1
  10
281.89679
  20
181.94733
  0
VERTEX
  5
945
  8
Layer_1
  10
282.28149
  20
182.23468
  0
VERTEX
  5
946
  8
Layer_1
  10
282.63629
  20
182.55695
  0
VERTEX
  5
947
  8
Layer_1
  10
282.95856
  20
182.91174
  0
VERTEX
  5
948
  8
Layer_1
  10
283.24591
  20
183.29645
  0
VERTEX
  5
949
  8
Layer_1
  10
283.49585
  20
183.70874
  0
VERTEX
  5
94a
  8
Layer_1
  10
283.70587
  20
184.146
  0
VERTEX
  5
94b
  8
Layer_1
  10
283.87354
  20
184.60583
  0
VERTEX
  5
94c
  8
Layer_1
  10
283.9964
  20
185.08569
  0
VERTEX
  5
94d
  8
Layer_1
  10
284.0719
  20
185.58319
  0
VERTEX
  5
94e
  8
Layer_1
  10
284.09766
  20
186.09583
  0
VERTEX
  5
94f
  8
Layer_1
  10
284.09766
  20
204.0957
  0
VERTEX
  5
950
  8
Layer_1
  10
284.0719
  20
204.60834
  0
VERTEX
  5
951
  8
Layer_1
  10
283.9964
  20
205.10583
  0
VERTEX
  5
952
  8
Layer_1
  10
283.87354
  20
205.58569
  0
VERTEX
  5
953
  8
Layer_1
  10
283.70587
  20
206.04553
  0
VERTEX
  5
954
  8
Layer_1
  10
283.49585
  20
206.48279
  0
VERTEX
  5
955
  8
Layer_1
  10
283.24591
  20
206.89508
  0
VERTEX
  5
956
  8
Layer_1
  10
282.95856
  20
207.27979
  0
VERTEX
  5
957
  8
Layer_1
  10
282.63629
  20
207.63458
  0
VERTEX
  5
958
  8
Layer_1
  10
282.28149
  20
207.95685
  0
VERTEX
  5
959
  8
Layer_1
  10
281.89679
  20
208.2442
  0
VERTEX
  5
95a
  8
Layer_1
  10
281.4845
  20
208.49414
  0
VERTEX
  5
95b
  8
Layer_1
  10
281.04724
  20
208.70416
  0
VERTEX
  5
95c
  8
Layer_1
  10
280.5874
  20
208.87183
  0
VERTEX
  5
95d
  8
Layer_1
  10
280.10754
  20
208.99469
  0
VERTEX
  5
95e
  8
Layer_1
  10
279.61005
  20
209.07019
  0
VERTEX
  5
95f
  8
Layer_1
  10
279.09741
  20
209.09595
  0
VERTEX
  5
960
  8
Layer_1
  10
277.09753
  20
209.09595
  0
VERTEX
  5
961
  8
Layer_1
  10
277.09753
  20
209.60236
  0
VERTEX
  5
962
  8
Layer_1
  10
277.5437
  20
209.79102
  0
VERTEX
  5
963
  8
Layer_1
  10
277.93909
  20
210.0022
  0
VERTEX
  5
964
  8
Layer_1
  10
278.28101
  20
210.23322
  0
VERTEX
  5
965
  8
Layer_1
  10
278.56677
  20
210.48151
  0
VERTEX
  5
966
  8
Layer_1
  10
278.79395
  20
210.74451
  0
VERTEX
  5
967
  8
Layer_1
  10
278.95984
  20
211.01971
  0
VERTEX
  5
968
  8
Layer_1
  10
279.06189
  20
211.30444
  0
VERTEX
  5
969
  8
Layer_1
  10
279.09741
  20
211.59607
  0
VERTEX
  5
96a
  8
Layer_1
  10
279.07294
  20
211.8432
  0
VERTEX
  5
96b
  8
Layer_1
  10
279.00043
  20
212.08618
  0
VERTEX
  5
96c
  8
Layer_1
  10
278.88123
  20
212.3233
  0
VERTEX
  5
96d
  8
Layer_1
  10
278.7168
  20
212.55292
  0
VERTEX
  5
96e
  8
Layer_1
  10
278.5083
  20
212.77344
  0
VERTEX
  5
96f
  8
Layer_1
  10
278.25726
  20
212.98322
  0
VERTEX
  5
970
  8
Layer_1
  10
277.96497
  20
213.18066
  0
VERTEX
  5
971
  8
Layer_1
  10
277.63275
  20
213.36401
  0
VERTEX
  5
972
  8
Layer_1
  10
277.26593
  20
213.53009
  0
VERTEX
  5
973
  8
Layer_1
  10
276.87109
  20
213.67621
  0
VERTEX
  5
974
  8
Layer_1
  10
276.45148
  20
213.80176
  0
VERTEX
  5
975
  8
Layer_1
  10
276.0105
  20
213.90594
  0
VERTEX
  5
976
  8
Layer_1
  10
275.55127
  20
213.98816
  0
VERTEX
  5
977
  8
Layer_1
  10
275.07709
  20
214.04773
  0
VERTEX
  5
978
  8
Layer_1
  10
274.59131
  20
214.08392
  0
VERTEX
  5
979
  8
Layer_1
  10
274.09717
  20
214.09613
  0
VERTEX
  5
97a
  8
Layer_1
  10
273.58594
  20
214.08313
  0
VERTEX
  5
97b
  8
Layer_1
  10
273.08948
  20
214.04529
  0
VERTEX
  5
97c
  8
Layer_1
  10
272.61035
  20
213.9837
  0
VERTEX
  5
97d
  8
Layer_1
  10
272.151
  20
213.8996
  0
VERTEX
  5
97e
  8
Layer_1
  10
271.71399
  20
213.79431
  0
VERTEX
  5
97f
  8
Layer_1
  10
271.3017
  20
213.66907
  0
VERTEX
  5
980
  8
Layer_1
  10
270.91681
  20
213.52515
  0
VERTEX
  5
981
  8
Layer_1
  10
270.56177
  20
213.36377
  0
VERTEX
  5
982
  8
Layer_1
  10
270.23907
  20
213.18628
  0
VERTEX
  5
983
  8
Layer_1
  10
269.95129
  20
212.99377
  0
VERTEX
  5
984
  8
Layer_1
  10
269.70087
  20
212.7876
  0
VERTEX
  5
985
  8
Layer_1
  10
269.4903
  20
212.56909
  0
VERTEX
  5
986
  8
Layer_1
  10
269.32214
  20
212.33942
  0
VERTEX
  5
987
  8
Layer_1
  10
269.19897
  20
212.09985
  0
VERTEX
  5
988
  8
Layer_1
  10
269.12329
  20
211.85168
  0
VERTEX
  5
989
  8
Layer_1
  10
269.09753
  20
211.59607
  0
VERTEX
  5
98a
  8
Layer_1
  10
269.13293
  20
211.30432
  0
VERTEX
  5
98b
  8
Layer_1
  10
269.23486
  20
211.01953
  0
VERTEX
  5
98c
  8
Layer_1
  10
269.4007
  20
210.74426
  0
VERTEX
  5
98d
  8
Layer_1
  10
269.62781
  20
210.4812
  0
VERTEX
  5
98e
  8
Layer_1
  10
269.91364
  20
210.23279
  0
VERTEX
  5
98f
  8
Layer_1
  10
270.25562
  20
210.00171
  0
VERTEX
  5
990
  8
Layer_1
  10
270.65106
  20
209.79053
  0
VERTEX
  5
991
  8
Layer_1
  10
271.09741
  20
209.60181
  0
VERTEX
  5
992
  8
Layer_1
  10
271.09741
  20
209.09595
  0
VERTEX
  5
993
  8
Layer_1
  10
269.09753
  20
209.09595
  0
VERTEX
  5
994
  8
Layer_1
  10
268.5849
  20
209.07019
  0
VERTEX
  5
995
  8
Layer_1
  10
268.0874
  20
208.99469
  0
VERTEX
  5
996
  8
Layer_1
  10
267.60754
  20
208.87183
  0
VERTEX
  5
997
  8
Layer_1
  10
267.14771
  20
208.70416
  0
VERTEX
  5
998
  8
Layer_1
  10
266.71045
  20
208.49414
  0
VERTEX
  5
999
  8
Layer_1
  10
266.29816
  20
208.2442
  0
VERTEX
  5
99a
  8
Layer_1
  10
265.91345
  20
207.95685
  0
VERTEX
  5
99b
  8
Layer_1
  10
265.55865
  20
207.63458
  0
VERTEX
  5
99c
  8
Layer_1
  10
265.23639
  20
207.27979
  0
VERTEX
  5
99d
  8
Layer_1
  10
264.94904
  20
206.89508
  0
VERTEX
  5
99e
  8
Layer_1
  10
264.6991
  20
206.48279
  0
VERTEX
  5
99f
  8
Layer_1
  10
264.48907
  20
206.04553
  0
VERTEX
  5
9a0
  8
Layer_1
  10
264.32141
  20
205.58569
  0
VERTEX
  5
9a1
  8
Layer_1
  10
264.19855
  20
205.10583
  0
VERTEX
  5
9a2
  8
Layer_1
  10
264.12305
  20
204.60834
  0
VERTEX
  5
9a3
  8
Layer_1
  10
264.09729
  20
204.0957
  0
VERTEX
  5
9a4
  8
Layer_1
  10
264.09729
  20
186.09576
  0
VERTEX
  5
9a5
  8
Layer_1
  10
264.12305
  20
185.58313
  0
VERTEX
  5
9a6
  8
Layer_1
  10
264.19855
  20
185.08557
  0
VERTEX
  5
9a7
  8
Layer_1
  10
264.32141
  20
184.60571
  0
VERTEX
  5
9a8
  8
Layer_1
  10
264.48907
  20
184.14587
  0
VERTEX
  5
9a9
  8
Layer_1
  10
264.6991
  20
183.70862
  0
VERTEX
  5
9aa
  8
Layer_1
  10
264.94904
  20
183.29633
  0
VERTEX
  5
9ab
  8
Layer_1
  10
265.23639
  20
182.91162
  0
VERTEX
  5
9ac
  8
Layer_1
  10
265.55865
  20
182.55688
  0
VERTEX
  5
9ad
  8
Layer_1
  10
265.91345
  20
182.23462
  0
VERTEX
  5
9ae
  8
Layer_1
  10
266.29816
  20
181.94727
  0
VERTEX
  5
9af
  8
Layer_1
  10
266.71045
  20
181.69739
  0
VERTEX
  5
9b0
  8
Layer_1
  10
267.14771
  20
181.4873
  0
VERTEX
  5
9b1
  8
Layer_1
  10
267.60754
  20
181.31958
  0
VERTEX
  5
9b2
  8
Layer_1
  10
268.0874
  20
181.19678
  0
VERTEX
  5
9b3
  8
Layer_1
  10
268.5849
  20
181.12134
  0
VERTEX
  5
9b4
  8
Layer_1
  10
269.09753
  20
181.09558
  0
VERTEX
  5
9b5
  8
Layer_1
  10
251.0976
  20
181.09558
  0
VERTEX
  5
9b6
  8
Layer_1
  10
251.61023
  20
181.12134
  0
VERTEX
  5
9b7
  8
Layer_1
  10
252.10767
  20
181.19678
  0
VERTEX
  5
9b8
  8
Layer_1
  10
252.58752
  20
181.31958
  0
VERTEX
  5
9b9
  8
Layer_1
  10
253.04736
  20
181.4873
  0
VERTEX
  5
9ba
  8
Layer_1
  10
253.48462
  20
181.69739
  0
VERTEX
  5
9bb
  8
Layer_1
  10
253.89685
  20
181.94727
  0
VERTEX
  5
9bc
  8
Layer_1
  10
254.28149
  20
182.23462
  0
VERTEX
  5
9bd
  8
Layer_1
  10
254.63617
  20
182.55688
  0
VERTEX
  5
9be
  8
Layer_1
  10
254.95837
  20
182.91162
  0
VERTEX
  5
9bf
  8
Layer_1
  10
255.24573
  20
183.29633
  0
VERTEX
  5
9c0
  8
Layer_1
  10
255.49561
  20
183.70862
  0
VERTEX
  5
9c1
  8
Layer_1
  10
255.70563
  20
184.14587
  0
VERTEX
  5
9c2
  8
Layer_1
  10
255.87329
  20
184.60571
  0
VERTEX
  5
9c3
  8
Layer_1
  10
255.99609
  20
185.08557
  0
VERTEX
  5
9c4
  8
Layer_1
  10
256.07153
  20
185.58313
  0
VERTEX
  5
9c5
  8
Layer_1
  10
256.09729
  20
186.09576
  0
VERTEX
  5
9c6
  8
Layer_1
  10
256.09729
  20
216.09546
  0
VERTEX
  5
9c7
  8
Layer_1
  10
256.07153
  20
216.60809
  0
VERTEX
  5
9c8
  8
Layer_1
  10
255.99609
  20
217.10559
  0
VERTEX
  5
9c9
  8
Layer_1
  10
255.87329
  20
217.58545
  0
VERTEX
  5
9ca
  8
Layer_1
  10
255.70563
  20
218.04529
  0
VERTEX
  5
9cb
  8
Layer_1
  10
255.49561
  20
218.48254
  0
VERTEX
  5
9cc
  8
Layer_1
  10
255.24573
  20
218.89484
  0
VERTEX
  5
9cd
  8
Layer_1
  10
254.95837
  20
219.27954
  0
VERTEX
  5
9ce
  8
Layer_1
  10
254.63617
  20
219.63434
  0
VERTEX
  5
9cf
  8
Layer_1
  10
254.28149
  20
219.9566
  0
VERTEX
  5
9d0
  8
Layer_1
  10
253.89685
  20
220.24396
  0
VERTEX
  5
9d1
  8
Layer_1
  10
253.48462
  20
220.4939
  0
VERTEX
  5
9d2
  8
Layer_1
  10
253.04736
  20
220.70392
  0
VERTEX
  5
9d3
  8
Layer_1
  10
252.58752
  20
220.87158
  0
VERTEX
  5
9d4
  8
Layer_1
  10
252.10767
  20
220.99445
  0
VERTEX
  5
9d5
  8
Layer_1
  10
251.61023
  20
221.06995
  0
VERTEX
  5
9d6
  8
Layer_1
  10
251.0976
  20
221.0957
  0
VERTEX
  5
9d7
  8
Layer_1
  10
249.09772
  20
221.0957
  0
VERTEX
  5
9d8
  8
Layer_1
  10
249.09772
  20
221.60211
  0
VERTEX
  5
9d9
  8
Layer_1
  10
249.54395
  20
221.79077
  0
VERTEX
  5
9da
  8
Layer_1
  10
249.93933
  20
222.00195
  0
VERTEX
  5
9db
  8
Layer_1
  10
250.28113
  20
222.23297
  0
VERTEX
  5
9dc
  8
Layer_1
  10
250.56696
  20
222.48126
  0
VERTEX
  5
9dd
  8
Layer_1
  10
250.79407
  20
222.74426
  0
VERTEX
  5
9de
  8
Layer_1
  10
250.95996
  20
223.01947
  0
VERTEX
  5
9df
  8
Layer_1
  10
251.06201
  20
223.3042
  0
VERTEX
  5
9e0
  8
Layer_1
  10
251.0976
  20
223.59583
  0
VERTEX
  5
9e1
  8
Layer_1
  10
251.07312
  20
223.84296
  0
VERTEX
  5
9e2
  8
Layer_1
  10
251.00061
  20
224.08594
  0
VERTEX
  5
9e3
  8
Layer_1
  10
250.88135
  20
224.32306
  0
VERTEX
  5
9e4
  8
Layer_1
  10
250.71692
  20
224.55267
  0
VERTEX
  5
9e5
  8
Layer_1
  10
250.50842
  20
224.77319
  0
VERTEX
  5
9e6
  8
Layer_1
  10
250.25745
  20
224.98297
  0
VERTEX
  5
9e7
  8
Layer_1
  10
249.96515
  20
225.18042
  0
VERTEX
  5
9e8
  8
Layer_1
  10
249.63293
  20
225.36377
  0
VERTEX
  5
9e9
  8
Layer_1
  10
249.26611
  20
225.52985
  0
VERTEX
  5
9ea
  8
Layer_1
  10
248.87134
  20
225.67596
  0
VERTEX
  5
9eb
  8
Layer_1
  10
248.45172
  20
225.80151
  0
VERTEX
  5
9ec
  8
Layer_1
  10
248.01062
  20
225.9057
  0
VERTEX
  5
9ed
  8
Layer_1
  10
247.55139
  20
225.98792
  0
VERTEX
  5
9ee
  8
Layer_1
  10
247.07727
  20
226.04749
  0
VERTEX
  5
9ef
  8
Layer_1
  10
246.59149
  20
226.08368
  0
VERTEX
  5
9f0
  8
Layer_1
  10
246.09735
  20
226.09589
  0
VERTEX
  5
9f1
  8
Layer_1
  10
245.58618
  20
226.08289
  0
VERTEX
  5
9f2
  8
Layer_1
  10
245.08966
  20
226.04504
  0
VERTEX
  5
9f3
  8
Layer_1
  10
244.61047
  20
225.98346
  0
VERTEX
  5
9f4
  8
Layer_1
  10
244.15112
  20
225.89935
  0
VERTEX
  5
9f5
  8
Layer_1
  10
243.71411
  20
225.79407
  0
VERTEX
  5
9f6
  8
Layer_1
  10
243.30188
  20
225.66882
  0
VERTEX
  5
9f7
  8
Layer_1
  10
242.91693
  20
225.5249
  0
VERTEX
  5
9f8
  8
Layer_1
  10
242.56189
  20
225.36353
  0
VERTEX
  5
9f9
  8
Layer_1
  10
242.2392
  20
225.18604
  0
VERTEX
  5
9fa
  8
Layer_1
  10
241.95142
  20
224.99353
  0
VERTEX
  5
9fb
  8
Layer_1
  10
241.70099
  20
224.78735
  0
VERTEX
  5
9fc
  8
Layer_1
  10
241.49042
  20
224.56885
  0
VERTEX
  5
9fd
  8
Layer_1
  10
241.32227
  20
224.33917
  0
VERTEX
  5
9fe
  8
Layer_1
  10
241.1991
  20
224.09961
  0
VERTEX
  5
9ff
  8
Layer_1
  10
241.12341
  20
223.85144
  0
VERTEX
  5
a00
  8
Layer_1
  10
241.09766
  20
223.59583
  0
VERTEX
  5
a01
  8
Layer_1
  10
241.13318
  20
223.30408
  0
VERTEX
  5
a02
  8
Layer_1
  10
241.23511
  20
223.01929
  0
VERTEX
  5
a03
  8
Layer_1
  10
241.40094
  20
222.74402
  0
VERTEX
  5
a04
  8
Layer_1
  10
241.62805
  20
222.48096
  0
VERTEX
  5
a05
  8
Layer_1
  10
241.91382
  20
222.23254
  0
VERTEX
  5
a06
  8
Layer_1
  10
242.25574
  20
222.00146
  0
VERTEX
  5
a07
  8
Layer_1
  10
242.65118
  20
221.79028
  0
VERTEX
  5
a08
  8
Layer_1
  10
243.09753
  20
221.60156
  0
VERTEX
  5
a09
  8
Layer_1
  10
243.09753
  20
221.0957
  0
VERTEX
  5
a0a
  8
Layer_1
  10
241.09766
  20
221.0957
  0
VERTEX
  5
a0b
  8
Layer_1
  10
240.58502
  20
221.06995
  0
VERTEX
  5
a0c
  8
Layer_1
  10
240.08752
  20
220.99445
  0
VERTEX
  5
a0d
  8
Layer_1
  10
239.60767
  20
220.87158
  0
VERTEX
  5
a0e
  8
Layer_1
  10
239.14783
  20
220.70392
  0
VERTEX
  5
a0f
  8
Layer_1
  10
238.71057
  20
220.4939
  0
VERTEX
  5
a10
  8
Layer_1
  10
238.29828
  20
220.24396
  0
VERTEX
  5
a11
  8
Layer_1
  10
237.91357
  20
219.9566
  0
VERTEX
  5
a12
  8
Layer_1
  10
237.55884
  20
219.63434
  0
VERTEX
  5
a13
  8
Layer_1
  10
237.23651
  20
219.27954
  0
VERTEX
  5
a14
  8
Layer_1
  10
236.94916
  20
218.89484
  0
VERTEX
  5
a15
  8
Layer_1
  10
236.69922
  20
218.48254
  0
VERTEX
  5
a16
  8
Layer_1
  10
236.4892
  20
218.04529
  0
VERTEX
  5
a17
  8
Layer_1
  10
236.32153
  20
217.58545
  0
VERTEX
  5
a18
  8
Layer_1
  10
236.19873
  20
217.10559
  0
VERTEX
  5
a19
  8
Layer_1
  10
236.12317
  20
216.60809
  0
VERTEX
  5
a1a
  8
Layer_1
  10
236.09747
  20
216.09546
  0
VERTEX
  5
a1b
  8
Layer_1
  10
236.09747
  20
186.09576
  0
VERTEX
  5
a1c
  8
Layer_1
  10
236.12317
  20
185.58313
  0
VERTEX
  5
a1d
  8
Layer_1
  10
236.19873
  20
185.08557
  0
VERTEX
  5
a1e
  8
Layer_1
  10
236.32153
  20
184.60571
  0
VERTEX
  5
a1f
  8
Layer_1
  10
236.4892
  20
184.14587
  0
VERTEX
  5
a20
  8
Layer_1
  10
236.69922
  20
183.70862
  0
VERTEX
  5
a21
  8
Layer_1
  10
236.94916
  20
183.29633
  0
VERTEX
  5
a22
  8
Layer_1
  10
237.23651
  20
182.91162
  0
VERTEX
  5
a23
  8
Layer_1
  10
237.55884
  20
182.55688
  0
VERTEX
  5
a24
  8
Layer_1
  10
237.91357
  20
182.23462
  0
VERTEX
  5
a25
  8
Layer_1
  10
238.29828
  20
181.94727
  0
VERTEX
  5
a26
  8
Layer_1
  10
238.71057
  20
181.69739
  0
VERTEX
  5
a27
  8
Layer_1
  10
239.14783
  20
181.4873
  0
VERTEX
  5
a28
  8
Layer_1
  10
239.60767
  20
181.31958
  0
VERTEX
  5
a29
  8
Layer_1
  10
240.08752
  20
181.19678
  0
VERTEX
  5
a2a
  8
Layer_1
  10
240.58502
  20
181.12134
  0
VERTEX
  5
a2b
  8
Layer_1
  10
241.09766
  20
181.09558
  0
VERTEX
  5
a2c
  8
Layer_1
  10
229.09735
  20
181.09558
  0
VERTEX
  5
a2d
  8
Layer_1
  10
229.60999
  20
181.12134
  0
VERTEX
  5
a2e
  8
Layer_1
  10
230.10754
  20
181.19678
  0
VERTEX
  5
a2f
  8
Layer_1
  10
230.5874
  20
181.31958
  0
VERTEX
  5
a30
  8
Layer_1
  10
231.04724
  20
181.4873
  0
VERTEX
  5
a31
  8
Layer_1
  10
231.4845
  20
181.69739
  0
VERTEX
  5
a32
  8
Layer_1
  10
231.89679
  20
181.94727
  0
VERTEX
  5
a33
  8
Layer_1
  10
232.28149
  20
182.23462
  0
VERTEX
  5
a34
  8
Layer_1
  10
232.63623
  20
182.55688
  0
VERTEX
  5
a35
  8
Layer_1
  10
232.95856
  20
182.91162
  0
VERTEX
  5
a36
  8
Layer_1
  10
233.24591
  20
183.29633
  0
VERTEX
  5
a37
  8
Layer_1
  10
233.49585
  20
183.70862
  0
VERTEX
  5
a38
  8
Layer_1
  10
233.70587
  20
184.14587
  0
VERTEX
  5
a39
  8
Layer_1
  10
233.87354
  20
184.60571
  0
VERTEX
  5
a3a
  8
Layer_1
  10
233.99634
  20
185.08557
  0
VERTEX
  5
a3b
  8
Layer_1
  10
234.0719
  20
185.58313
  0
VERTEX
  5
a3c
  8
Layer_1
  10
234.0976
  20
186.09576
  0
VERTEX
  5
a3d
  8
Layer_1
  10
234.0976
  20
218.09583
  0
VERTEX
  5
a3e
  8
Layer_1
  10
234.0719
  20
218.60846
  0
VERTEX
  5
a3f
  8
Layer_1
  10
233.99634
  20
219.10596
  0
VERTEX
  5
a40
  8
Layer_1
  10
233.87354
  20
219.58582
  0
VERTEX
  5
a41
  8
Layer_1
  10
233.70587
  20
220.04565
  0
VERTEX
  5
a42
  8
Layer_1
  10
233.49585
  20
220.48291
  0
VERTEX
  5
a43
  8
Layer_1
  10
233.24591
  20
220.89514
  0
VERTEX
  5
a44
  8
Layer_1
  10
232.95856
  20
221.27979
  0
VERTEX
  5
a45
  8
Layer_1
  10
232.63623
  20
221.63446
  0
VERTEX
  5
a46
  8
Layer_1
  10
232.28149
  20
221.95667
  0
VERTEX
  5
a47
  8
Layer_1
  10
231.89679
  20
222.24402
  0
VERTEX
  5
a48
  8
Layer_1
  10
231.4845
  20
222.4939
  0
VERTEX
  5
a49
  8
Layer_1
  10
231.04724
  20
222.70392
  0
VERTEX
  5
a4a
  8
Layer_1
  10
230.5874
  20
222.87158
  0
VERTEX
  5
a4b
  8
Layer_1
  10
230.10754
  20
222.99438
  0
VERTEX
  5
a4c
  8
Layer_1
  10
229.60999
  20
223.06982
  0
VERTEX
  5
a4d
  8
Layer_1
  10
229.09735
  20
223.09558
  0
VERTEX
  5
a4e
  8
Layer_1
  10
227.09747
  20
223.09558
  0
VERTEX
  5
a4f
  8
Layer_1
  10
227.09747
  20
223.60199
  0
VERTEX
  5
a50
  8
Layer_1
  10
227.5437
  20
223.79065
  0
VERTEX
  5
a51
  8
Layer_1
  10
227.93909
  20
224.00183
  0
VERTEX
  5
a52
  8
Layer_1
  10
228.28101
  20
224.23285
  0
VERTEX
  5
a53
  8
Layer_1
  10
228.56677
  20
224.48114
  0
VERTEX
  5
a54
  8
Layer_1
  10
228.79388
  20
224.74414
  0
VERTEX
  5
a55
  8
Layer_1
  10
228.95972
  20
225.01935
  0
VERTEX
  5
a56
  8
Layer_1
  10
229.06177
  20
225.30408
  0
VERTEX
  5
a57
  8
Layer_1
  10
229.09735
  20
225.5957
  0
VERTEX
  5
a58
  8
Layer_1
  10
229.07288
  20
225.84283
  0
VERTEX
  5
a59
  8
Layer_1
  10
229.00037
  20
226.08582
  0
VERTEX
  5
a5a
  8
Layer_1
  10
228.88123
  20
226.32294
  0
VERTEX
  5
a5b
  8
Layer_1
  10
228.71667
  20
226.55255
  0
VERTEX
  5
a5c
  8
Layer_1
  10
228.5083
  20
226.77307
  0
VERTEX
  5
a5d
  8
Layer_1
  10
228.2572
  20
226.98285
  0
VERTEX
  5
a5e
  8
Layer_1
  10
227.9649
  20
227.1803
  0
VERTEX
  5
a5f
  8
Layer_1
  10
227.63269
  20
227.36365
  0
VERTEX
  5
a60
  8
Layer_1
  10
227.26593
  20
227.52972
  0
VERTEX
  5
a61
  8
Layer_1
  10
226.87109
  20
227.67584
  0
VERTEX
  5
a62
  8
Layer_1
  10
226.45148
  20
227.80139
  0
VERTEX
  5
a63
  8
Layer_1
  10
226.0105
  20
227.90558
  0
VERTEX
  5
a64
  8
Layer_1
  10
225.55127
  20
227.98779
  0
VERTEX
  5
a65
  8
Layer_1
  10
225.07709
  20
228.04736
  0
VERTEX
  5
a66
  8
Layer_1
  10
224.59125
  20
228.08356
  0
VERTEX
  5
a67
  8
Layer_1
  10
224.09717
  20
228.09546
  0
SEQEND
  0
POLYLINE
  5
a69
  8
Layer_0
  70
1
  66
1
  10
0
  20
0
  30
0
  0
VERTEX
  5
a69
  8
Layer_0
  10
81.597534
  20
179.09521
  0
VERTEX
  5
a6a
  8
Layer_0
  10
81.295227
  20
179.0647
  0
VERTEX
  5
a6b
  8
Layer_0
  10
81.013672
  20
178.97729
  0
VERTEX
  5
a6c
  8
Layer_0
  10
80.758911
  20
178.83905
  0
VERTEX
  5
a6d
  8
Layer_0
  10
80.536865
  20
178.65588
  0
VERTEX
  5
a6e
  8
Layer_0
  10
80.353699
  20
178.43384
  0
VERTEX
  5
a6f
  8
Layer_0
  10
80.215454
  20
178.17908
  0
VERTEX
  5
a70
  8
Layer_0
  10
80.128052
  20
177.89752
  0
VERTEX
  5
a71
  8
Layer_0
  10
80.097534
  20
177.59521
  0
VERTEX
  5
a72
  8
Layer_0
  10
80.097534
  20
164.59521
  0
VERTEX
  5
a73
  8
Layer_0
  10
80.128052
  20
164.29291
  0
VERTEX
  5
a74
  8
Layer_0
  10
80.215454
  20
164.01135
  0
VERTEX
  5
a75
  8
Layer_0
  10
80.353699
  20
163.75659
  0
VERTEX
  5
a76
  8
Layer_0
  10
80.536865
  20
163.53455
  0
VERTEX
  5
a77
  8
Layer_0
  10
80.758911
  20
163.35138
  0
VERTEX
  5
a78
  8
Layer_0
  10
81.013672
  20
163.21313
  0
VERTEX
  5
a79
  8
Layer_0
  10
81.295227
  20
163.12573
  0
VERTEX
  5
a7a
  8
Layer_0
  10
81.597534
  20
163.09521
  0
VERTEX
  5
a7b
  8
Layer_0
  10
81.899841
  20
163.12573
  0
VERTEX
  5
a7c
  8
Layer_0
  10
82.181396
  20
163.21313
  0
VERTEX
  5
a7d
  8
Layer_0
  10
82.436157
  20
163.35138
  0
VERTEX
  5
a7e
  8
Layer_0
  10
82.658203
  20
163.53455
  0
VERTEX
  5
a7f
  8
Layer_0
  10
82.84137
  20
163.75659
  0
VERTEX
  5
a80
  8
Layer_0
  10
82.979614
  20
164.01135
  0
VERTEX
  5
a81
  8
Layer_0
  10
83.067017
  20
164.29291
  0
VERTEX
  5
a82
  8
Layer_0
  10
83.097534
  20
164.59521
  0
VERTEX
  5
a83
  8
Layer_0
  10
83.097534
  20
177.59521
  0
VERTEX
  5
a84
  8
Layer_0
  10
83.067017
  20
177.89752
  0
VERTEX
  5
a85
  8
Layer_0
  10
82.979614
  20
178.17908
  0
VERTEX
  5
a86
  8
Layer_0
  10
82.84137
  20
178.43384
  0
VERTEX
  5
a87
  8
Layer_0
  10
82.658203
  20
178.65588
  0
VERTEX
  5
a88
  8
Layer_0
  10
82.436157
  20
178.83905
  0
VERTEX
  5
a89
  8
Layer_0
  10
82.181396
  20
178.97729
  0
VERTEX
  5
a8a
  8
Layer_0
  10
81.899841
  20
179.0647
  0
VERTEX
  5
a8b
  8
Layer_0
  10
81.597534
  20
179.09521
  0
SEQEND
  0
POLYLINE
  5
a8d
  8
Layer_0
  70
1
  66
1
  10
0
  20
0
  30
0
  0
VERTEX
  5
a8d
  8
Layer_0
  10
89.597534
  20
179.09521
  0
VERTEX
  5
a8e
  8
Layer_0
  10
89.295227
  20
179.0647
  0
VERTEX
  5
a8f
  8
Layer_0
  10
89.013672
  20
178.97729
  0
VERTEX
  5
a90
  8
Layer_0
  10
88.758911
  20
178.83905
  0
VERTEX
  5
a91
  8
Layer_0
  10
88.536865
  20
178.65588
  0
VERTEX
  5
a92
  8
Layer_0
  10
88.353699
  20
178.43384
  0
VERTEX
  5
a93
  8
Layer_0
  10
88.215454
  20
178.17908
  0
VERTEX
  5
a94
  8
Layer_0
  10
88.128052
  20
177.89752
  0
VERTEX
  5
a95
  8
Layer_0
  10
88.097534
  20
177.59521
  0
VERTEX
  5
a96
  8
Layer_0
  10
88.097534
  20
164.59521
  0
VERTEX
  5
a97
  8
Layer_0
  10
88.128052
  20
164.29291
  0
VERTEX
  5
a98
  8
Layer_0
  10
88.215454
  20
164.01135
  0
VERTEX
  5
a99
  8
Layer_0
  10
88.353699
  20
163.75659
  0
VERTEX
  5
a9a
  8
Layer_0
  10
88.536865
  20
163.53455
  0
VERTEX
  5
a9b
  8
Layer_0
  10
88.758911
  20
163.35138
  0
VERTEX
  5
a9c
  8
Layer_0
  10
89.013672
  20
163.21313
  0
VERTEX
  5
a9d
  8
Layer_0
  10
89.295227
  20
163.12573
  0
VERTEX
  5
a9e
  8
Layer_0
  10
89.597534
  20
163.09521
  0
VERTEX
  5
a9f
  8
Layer_0
  10
89.899841
  20
163.12573
  0
VERTEX
  5
aa0
  8
Layer_0
  10
90.181396
  20
163.21313
  0
VERTEX
  5
aa1
  8
Layer_0
  10
90.436157
  20
163.35138
  0
VERTEX
  5
aa2
  8
Layer_0
  10
90.658203
  20
163.53455
  0
VERTEX
  5
aa3
  8
Layer_0
  10
90.84137
  20
163.75659
  0
VERTEX
  5
aa4
  8
Layer_0
  10
90.979614
  20
164.01135
  0
VERTEX
  5
aa5
  8
Layer_0
  10
91.067017
  20
164.29291
  0
VERTEX
  5
aa6
  8
Layer_0
  10
91.097534
  20
164.59521
  0
VERTEX
  5
aa7
  8
Layer_0
  10
91.097534
  20
177.59521
  0
VERTEX
  5
aa8
  8
Layer_0
  10
91.067017
  20
177.89752
  0
VERTEX
  5
aa9
  8
Layer_0
  10
90.979614
  20
178.17908
  0
VERTEX
  5
aaa
  8
Layer_0
  10
90.84137
  20
178.43384
  0
VERTEX
  5
aab
  8
Layer_0
  10
90.658203
  20
178.65588
  0
VERTEX
  5
aac
  8
Layer_0
  10
90.436157
  20
178.83905
  0
VERTEX
  5
aad
  8
Layer_0
  10
90.181396
  20
178.97729
  0
VERTEX
  5
aae
  8
Layer_0
  10
89.899841
  20
179.0647
  0
VERTEX
  5
aaf
  8
Layer_0
  10
89.597534
  20
179.09521
  0
SEQEND
  0
POLYLINE
  5
ab1
  8
Layer_0
  70
1
  66
1
  10
0
  20
0
  30
0
  0
VERTEX
  5
ab1
  8
Layer_0
  10
97.597534
  20
179.09521
  0
VERTEX
  5
ab2
  8
Layer_0
  10
97.295227
  20
179.0647
  0
VERTEX
  5
ab3
  8
Layer_0
  10
97.013672
  20
178.97729
  0
VERTEX
  5
ab4
  8
Layer_0
  10
96.758911
  20
178.83905
  0
VERTEX
  5
ab5
  8
Layer_0
  10
96.536865
  20
178.65588
  0
VERTEX
  5
ab6
  8
Layer_0
  10
96.353699
  20
178.43384
  0
VERTEX
  5
ab7
  8
Layer_0
  10
96.215454
  20
178.17908
  0
VERTEX
  5
ab8
  8
Layer_0
  10
96.128052
  20
177.89752
  0
VERTEX
  5
ab9
  8
Layer_0
  10
96.097534
  20
177.59521
  0
VERTEX
  5
aba
  8
Layer_0
  10
96.097534
  20
164.59521
  0
VERTEX
  5
abb
  8
Layer_0
  10
96.128052
  20
164.29291
  0
VERTEX
  5
abc
  8
Layer_0
  10
96.215454
  20
164.01135
  0
VERTEX
  5
abd
  8
Layer_0
  10
96.353699
  20
163.75659
  0
VERTEX
  5
abe
  8
Layer_0
  10
96.536865
  20
163.53455
  0
VERTEX
  5
abf
  8
Layer_0
  10
96.758911
  20
163.35138
  0
VERTEX
  5
ac0
  8
Layer_0
  10
97.013672
  20
163.21313
  0
VERTEX
  5
ac1
  8
Layer_0
  10
97.295227
  20
163.12573
  0
VERTEX
  5
ac2
  8
Layer_0
  10
97.597534
  20
163.09521
  0
VERTEX
  5
ac3
  8
Layer_0
  10
97.899841
  20
163.12573
  0
VERTEX
  5
ac4
  8
Layer_0
  10
98.181396
  20
163.21313
  0
VERTEX
  5
ac5
  8
Layer_0
  10
98.436157
  20
163.35138
  0
VERTEX
  5
ac6
  8
Layer_0
  10
98.658203
  20
163.53455
  0
VERTEX
  5
ac7
  8
Layer_0
  10
98.84137
  20
163.75659
  0
VERTEX
  5
ac8
  8
Layer_0
  10
98.979614
  20
164.01135
  0
VERTEX
  5
ac9
  8
Layer_0
  10
99.067017
  20
164.29291
  0
VERTEX
  5
aca
  8
Layer_0
  10
99.097534
  20
164.59521
  0
VERTEX
  5
acb
  8
Layer_0
  10
99.097534
  20
177.59521
  0
VERTEX
  5
acc
  8
Layer_0
  10
99.067017
  20
177.89752
  0
VERTEX
  5
acd
  8
Layer_0
  10
98.979614
  20
178.17908
  0
VERTEX
  5
ace
  8
Layer_0
  10
98.84137
  20
178.43384
  0
VERTEX
  5
acf
  8
Layer_0
  10
98.658203
  20
178.65588
  0
VERTEX
  5
ad0
  8
Layer_0
  10
98.436157
  20
178.83905
  0
VERTEX
  5
ad1
  8
Layer_0
  10
98.181396
  20
178.97729
  0
VERTEX
  5
ad2
  8
Layer_0
  10
97.899841
  20
179.0647
  0
VERTEX
  5
ad3
  8
Layer_0
  10
97.597534
  20
179.09521
  0
SEQEND
  0
POLYLINE
  5
ad5
  8
Layer_0
  70
1
  66
1
  10
0
  20
0
  30
0
  0
VERTEX
  5
ad5
  8
Layer_0
  10
105.59753
  20
179.09521
  0
VERTEX
  5
ad6
  8
Layer_0
  10
105.29523
  20
179.0647
  0
VERTEX
  5
ad7
  8
Layer_0
  10
105.01367
  20
178.97729
  0
VERTEX
  5
ad8
  8
Layer_0
  10
104.75891
  20
178.83905
  0
VERTEX
  5
ad9
  8
Layer_0
  10
104.53687
  20
178.65588
  0
VERTEX
  5
ada
  8
Layer_0
  10
104.3537
  20
178.43384
  0
VERTEX
  5
adb
  8
Layer_0
  10
104.21545
  20
178.17908
  0
VERTEX
  5
adc
  8
Layer_0
  10
104.12805
  20
177.89752
  0
VERTEX
  5
add
  8
Layer_0
  10
104.09753
  20
177.59521
  0
VERTEX
  5
ade
  8
Layer_0
  10
104.09753
  20
164.59521
  0
VERTEX
  5
adf
  8
Layer_0
  10
104.12805
  20
164.29291
  0
VERTEX
  5
ae0
  8
Layer_0
  10
104.21545
  20
164.01135
  0
VERTEX
  5
ae1
  8
Layer_0
  10
104.3537
  20
163.75659
  0
VERTEX
  5
ae2
  8
Layer_0
  10
104.53687
  20
163.53455
  0
VERTEX
  5
ae3
  8
Layer_0
  10
104.75891
  20
163.35138
  0
VERTEX
  5
ae4
  8
Layer_0
  10
105.01367
  20
163.21313
  0
VERTEX
  5
ae5
  8
Layer_0
  10
105.29523
  20
163.12573
  0
VERTEX
  5
ae6
  8
Layer_0
  10
105.59753
  20
163.09521
  0
VERTEX
  5
ae7
  8
Layer_0
  10
105.89984
  20
163.12573
  0
VERTEX
  5
ae8
  8
Layer_0
  10
106.1814
  20
163.21313
  0
VERTEX
  5
ae9
  8
Layer_0
  10
106.43616
  20
163.35138
  0
VERTEX
  5
aea
  8
Layer_0
  10
106.6582
  20
163.53455
  0
VERTEX
  5
aeb
  8
Layer_0
  10
106.84137
  20
163.75659
  0
VERTEX
  5
aec
  8
Layer_0
  10
106.97961
  20
164.01135
  0
VERTEX
  5
aed
  8
Layer_0
  10
107.06702
  20
164.29291
  0
VERTEX
  5
aee
  8
Layer_0
  10
107.09753
  20
164.59521
  0
VERTEX
  5
aef
  8
Layer_0
  10
107.09753
  20
177.59521
  0
VERTEX
  5
af0
  8
Layer_0
  10
107.06702
  20
177.89752
  0
VERTEX
  5
af1
  8
Layer_0
  10
106.97961
  20
178.17908
  0
VERTEX
  5
af2
  8
Layer_0
  10
106.84137
  20
178.43384
  0
VERTEX
  5
af3
  8
Layer_0
  10
106.6582
  20
178.65588
  0
VERTEX
  5
af4
  8
Layer_0
  10
106.43616
  20
178.83905
  0
VERTEX
  5
af5
  8
Layer_0
  10
106.1814
  20
178.97729
  0
VERTEX
  5
af6
  8
Layer_0
  10
105.89984
  20
179.0647
  0
VERTEX
  5
af7
  8
Layer_0
  10
105.59753
  20
179.09521
  0
SEQEND
  0
POLYLINE
  5
af9
  8
Layer_0
  70
1
  66
1
  10
0
  20
0
  30
0
  0
VERTEX
  5
af9
  8
Layer_0
  10
342.59729
  20
179.09521
  0
VERTEX
  5
afa
  8
Layer_0
  10
342.29498
  20
179.0647
  0
VERTEX
  5
afb
  8
Layer_0
  10
342.01343
  20
178.97729
  0
VERTEX
  5
afc
  8
Layer_0
  10
341.75867
  20
178.83905
  0
VERTEX
  5
afd
  8
Layer_0
  10
341.53662
  20
178.65588
  0
VERTEX
  5
afe
  8
Layer_0
  10
341.35345
  20
178.43384
  0
VERTEX
  5
aff
  8
Layer_0
  10
341.21521
  20
178.17908
  0
VERTEX
  5
b00
  8
Layer_0
  10
341.12781
  20
177.89752
  0
VERTEX
  5
b01
  8
Layer_0
  10
341.09729
  20
177.59521
  0
VERTEX
  5
b02
  8
Layer_0
  10
341.09729
  20
164.59521
  0
VERTEX
  5
b03
  8
Layer_0
  10
341.12781
  20
164.29291
  0
VERTEX
  5
b04
  8
Layer_0
  10
341.21521
  20
164.01135
  0
VERTEX
  5
b05
  8
Layer_0
  10
341.35345
  20
163.75659
  0
VERTEX
  5
b06
  8
Layer_0
  10
341.53662
  20
163.53455
  0
VERTEX
  5
b07
  8
Layer_0
  10
341.75867
  20
163.35138
  0
VERTEX
  5
b08
  8
Layer_0
  10
342.01343
  20
163.21313
  0
VERTEX
  5
b09
  8
Layer_0
  10
342.29498
  20
163.12573
  0
VERTEX
  5
b0a
  8
Layer_0
  10
342.59729
  20
163.09521
  0
VERTEX
  5
b0b
  8
Layer_0
  10
342.8996
  20
163.12573
  0
VERTEX
  5
b0c
  8
Layer_0
  10
343.18115
  20
163.21313
  0
VERTEX
  5
b0d
  8
Layer_0
  10
343.43591
  20
163.35138
  0
VERTEX
  5
b0e
  8
Layer_0
  10
343.65796
  20
163.53455
  0
VERTEX
  5
b0f
  8
Layer_0
  10
343.84113
  20
163.75659
  0
VERTEX
  5
b10
  8
Layer_0
  10
343.97937
  20
164.01135
  0
VERTEX
  5
b11
  8
Layer_0
  10
344.06677
  20
164.29291
  0
VERTEX
  5
b12
  8
Layer_0
  10
344.09729
  20
164.59521
  0
VERTEX
  5
b13
  8
Layer_0
  10
344.09729
  20
177.59521
  0
VERTEX
  5
b14
  8
Layer_0
  10
344.06677
  20
177.89752
  0
VERTEX
  5
b15
  8
Layer_0
  10
343.97937
  20
178.17908
  0
VERTEX
  5
b16
  8
Layer_0
  10
343.84113
  20
178.43384
  0
VERTEX
  5
b17
  8
Layer_0
  10
343.65796
  20
178.65588
  0
VERTEX
  5
b18
  8
Layer_0
  10
343.43591
  20
178.83905
  0
VERTEX
  5
b19
  8
Layer_0
  10
343.18115
  20
178.97729
  0
VERTEX
  5
b1a
  8
Layer_0
  10
342.8996
  20
179.0647
  0
VERTEX
  5
b1b
  8
Layer_0
  10
342.59729
  20
179.09521
  0
SEQEND
  0
POLYLINE
  5
b1d
  8
Layer_0
  70
1
  66
1
  10
0
  20
0
  30
0
  0
VERTEX
  5
b1d
  8
Layer_0
  10
350.59729
  20
179.09521
  0
VERTEX
  5
b1e
  8
Layer_0
  10
350.29498
  20
179.0647
  0
VERTEX
  5
b1f
  8
Layer_0
  10
350.01343
  20
178.97729
  0
VERTEX
  5
b20
  8
Layer_0
  10
349.75867
  20
178.83905
  0
VERTEX
  5
b21
  8
Layer_0
  10
349.53662
  20
178.65588
  0
VERTEX
  5
b22
  8
Layer_0
  10
349.35345
  20
178.43384
  0
VERTEX
  5
b23
  8
Layer_0
  10
349.21521
  20
178.17908
  0
VERTEX
  5
b24
  8
Layer_0
  10
349.12781
  20
177.89752
  0
VERTEX
  5
b25
  8
Layer_0
  10
349.09729
  20
177.59521
  0
VERTEX
  5
b26
  8
Layer_0
  10
349.09729
  20
164.59521
  0
VERTEX
  5
b27
  8
Layer_0
  10
349.12781
  20
164.29291
  0
VERTEX
  5
b28
  8
Layer_0
  10
349.21521
  20
164.01135
  0
VERTEX
  5
b29
  8
Layer_0
  10
349.35345
  20
163.75659
  0
VERTEX
  5
b2a
  8
Layer_0
  10
349.53662
  20
163.53455
  0
VERTEX
  5
b2b
  8
Layer_0
  10
349.75867
  20
163.35138
  0
VERTEX
  5
b2c
  8
Layer_0
  10
350.01343
  20
163.21313
  0
VERTEX
  5
b2d
  8
Layer_0
  10
350.29498
  20
163.12573
  0
VERTEX
  5
b2e
  8
Layer_0
  10
350.59729
  20
163.09521
  0
VERTEX
  5
b2f
  8
Layer_0
  10
350.8996
  20
163.12573
  0
VERTEX
  5
b30
  8
Layer_0
  10
351.18115
  20
163.21313
  0
VERTEX
  5
b31
  8
Layer_0
  10
351.43591
  20
163.35138
  0
VERTEX
  5
b32
  8
Layer_0
  10
351.65796
  20
163.53455
  0
VERTEX
  5
b33
  8
Layer_0
  10
351.84113
  20
163.75659
  0
VERTEX
  5
b34
  8
Layer_0
  10
351.97937
  20
164.01135
  0
VERTEX
  5
b35
  8
Layer_0
  10
352.06677
  20
164.29291
  0
VERTEX
  5
b36
  8
Layer_0
  10
352.09729
  20
164.59521
  0
VERTEX
  5
b37
  8
Layer_0
  10
352.09729
  20
177.59521
  0
VERTEX
  5
b38
  8
Layer_0
  10
352.06677
  20
177.89752
  0
VERTEX
  5
b39
  8
Layer_0
  10
351.97937
  20
178.17908
  0
VERTEX
  5
b3a
  8
Layer_0
  10
351.84113
  20
178.43384
  0
VERTEX
  5
b3b
  8
Layer_0
  10
351.65796
  20
178.65588
  0
VERTEX
  5
b3c
  8
Layer_0
  10
351.43591
  20
178.83905
  0
VERTEX
  5
b3d
  8
Layer_0
  10
351.18115
  20
178.97729
  0
VERTEX
  5
b3e
  8
Layer_0
  10
350.8996
  20
179.0647
  0
VERTEX
  5
b3f
  8
Layer_0
  10
350.59729
  20
179.09521
  0
SEQEND
  0
POLYLINE
  5
b41
  8
Layer_0
  70
1
  66
1
  10
0
  20
0
  30
0
  0
VERTEX
  5
b41
  8
Layer_0
  10
358.59729
  20
179.09521
  0
VERTEX
  5
b42
  8
Layer_0
  10
358.29498
  20
179.0647
  0
VERTEX
  5
b43
  8
Layer_0
  10
358.01343
  20
178.97729
  0
VERTEX
  5
b44
  8
Layer_0
  10
357.75867
  20
178.83905
  0
VERTEX
  5
b45
  8
Layer_0
  10
357.53662
  20
178.65588
  0
VERTEX
  5
b46
  8
Layer_0
  10
357.35345
  20
178.43384
  0
VERTEX
  5
b47
  8
Layer_0
  10
357.21521
  20
178.17908
  0
VERTEX
  5
b48
  8
Layer_0
  10
357.12781
  20
177.89752
  0
VERTEX
  5
b49
  8
Layer_0
  10
357.09729
  20
177.59521
  0
VERTEX
  5
b4a
  8
Layer_0
  10
357.09729
  20
164.59521
  0
VERTEX
  5
b4b
  8
Layer_0
  10
357.12781
  20
164.29291
  0
VERTEX
  5
b4c
  8
Layer_0
  10
357.21521
  20
164.01135
  0
VERTEX
  5
b4d
  8
Layer_0
  10
357.35345
  20
163.75659
  0
VERTEX
  5
b4e
  8
Layer_0
  10
357.53662
  20
163.53455
  0
VERTEX
  5
b4f
  8
Layer_0
  10
357.75867
  20
163.35138
  0
VERTEX
  5
b50
  8
Layer_0
  10
358.01343
  20
163.21313
  0
VERTEX
  5
b51
  8
Layer_0
  10
358.29498
  20
163.12573
  0
VERTEX
  5
b52
  8
Layer_0
  10
358.59729
  20
163.09521
  0
VERTEX
  5
b53
  8
Layer_0
  10
358.8996
  20
163.12573
  0
VERTEX
  5
b54
  8
Layer_0
  10
359.18115
  20
163.21313
  0
VERTEX
  5
b55
  8
Layer_0
  10
359.43591
  20
163.35138
  0
VERTEX
  5
b56
  8
Layer_0
  10
359.65796
  20
163.53455
  0
VERTEX
  5
b57
  8
Layer_0
  10
359.84113
  20
163.75659
  0
VERTEX
  5
b58
  8
Layer_0
  10
359.97937
  20
164.01135
  0
VERTEX
  5
b59
  8
Layer_0
  10
360.06677
  20
164.29291
  0
VERTEX
  5
b5a
  8
Layer_0
  10
360.09729
  20
164.59521
  0
VERTEX
  5
b5b
  8
Layer_0
  10
360.09729
  20
177.59521
  0
VERTEX
  5
b5c
  8
Layer_0
  10
360.06677
  20
177.89752
  0
VERTEX
  5
b5d
  8
Layer_0
  10
359.97937
  20
178.17908
  0
VERTEX
  5
b5e
  8
Layer_0
  10
359.84113
  20
178.43384
  0
VERTEX
  5
b5f
  8
Layer_0
  10
359.65796
  20
178.65588
  0
VERTEX
  5
b60
  8
Layer_0
  10
359.43591
  20
178.83905
  0
VERTEX
  5
b61
  8
Layer_0
  10
359.18115
  20
178.97729
  0
VERTEX
  5
b62
  8
Layer_0
  10
358.8996
  20
179.0647
  0
VERTEX
  5
b63
  8
Layer_0
  10
358.59729
  20
179.09521
  0
SEQEND
  0
POLYLINE
  5
b65
  8
Layer_0
  70
1
  66
1
  10
0
  20
0
  30
0
  0
VERTEX
  5
b65
  8
Layer_0
  10
366.59729
  20
179.09521
  0
VERTEX
  5
b66
  8
Layer_0
  10
366.29498
  20
179.0647
  0
VERTEX
  5
b67
  8
Layer_0
  10
366.01343
  20
178.97729
  0
VERTEX
  5
b68
  8
Layer_0
  10
365.75867
  20
178.83905
  0
VERTEX
  5
b69
  8
Layer_0
  10
365.53662
  20
178.65588
  0
VERTEX
  5
b6a
  8
Layer_0
  10
365.35345
  20
178.43384
  0
VERTEX
  5
b6b
  8
Layer_0
  10
365.21521
  20
178.17908
  0
VERTEX
  5
b6c
  8
Layer_0
  10
365.12781
  20
177.89752
  0
VERTEX
  5
b6d
  8
Layer_0
  10
365.09729
  20
177.59521
  0
VERTEX
  5
b6e
  8
Layer_0
  10
365.09729
  20
164.59521
  0
VERTEX
  5
b6f
  8
Layer_0
  10
365.12781
  20
164.29291
  0
VERTEX
  5
b70
  8
Layer_0
  10
365.21521
  20
164.01135
  0
VERTEX
  5
b71
  8
Layer_0
  10
365.35345
  20
163.75659
  0
VERTEX
  5
b72
  8
Layer_0
  10
365.53662
  20
163.53455
  0
VERTEX
  5
b73
  8
Layer_0
  10
365.75867
  20
163.35138
  0
VERTEX
  5
b74
  8
Layer_0
  10
366.01343
  20
163.21313
  0
VERTEX
  5
b75
  8
Layer_0
  10
366.29498
  20
163.12573
  0
VERTEX
  5
b76
  8
Layer_0
  10
366.59729
  20
163.09521
  0
VERTEX
  5
b77
  8
Layer_0
  10
366.8996
  20
163.12573
  0
VERTEX
  5
b78
  8
Layer_0
  10
367.18115
  20
163.21313
  0
VERTEX
  5
b79
  8
Layer_0
  10
367.43591
  20
163.35138
  0
VERTEX
  5
b7a
  8
Layer_0
  10
367.65796
  20
163.53455
  0
VERTEX
  5
b7b
  8
Layer_0
  10
367.84113
  20
163.75659
  0
VERTEX
  5
b7c
  8
Layer_0
  10
367.97937
  20
164.01135
  0
VERTEX
  5
b7d
  8
Layer_0
  10
368.06677
  20
164.29291
  0
VERTEX
  5
b7e
  8
Layer_0
  10
368.09729
  20
164.59521
  0
VERTEX
  5
b7f
  8
Layer_0
  10
368.09729
  20
177.59521
  0
VERTEX
  5
b80
  8
Layer_0
  10
368.06677
  20
177.89752
  0
VERTEX
  5
b81
  8
Layer_0
  10
367.97937
  20
178.17908
  0
VERTEX
  5
b82
  8
Layer_0
  10
367.84113
  20
178.43384
  0
VERTEX
  5
b83
  8
Layer_0
  10
367.65796
  20
178.65588
  0
VERTEX
  5
b84
  8
Layer_0
  10
367.43591
  20
178.83905
  0
VERTEX
  5
b85
  8
Layer_0
  10
367.18115
  20
178.97729
  0
VERTEX
  5
b86
  8
Layer_0
  10
366.8996
  20
179.0647
  0
VERTEX
  5
b87
  8
Layer_0
  10
366.59729
  20
179.09521
  0
SEQEND
  0
POLYLINE
  5
b89
  8
Layer_2
  70
1
  66
1
  10
0
  20
0
  30
0
  0
VERTEX
  5
b89
  8
Layer_2
  10
220.39587
  20
477.2821
  0
VERTEX
  5
b8a
  8
Layer_2
  10
220.18347
  20
477.49451
  0
VERTEX
  5
b8b
  8
Layer_2
  10
221.5979
  20
478.90839
  0
VERTEX
  5
b8c
  8
Layer_2
  10
226.59753
  20
478.90839
  0
VERTEX
  5
b8d
  8
Layer_2
  10
228.01196
  20
477.49451
  0
VERTEX
  5
b8e
  8
Layer_2
  10
227.80005
  20
477.28214
  0
VERTEX
  5
b8f
  8
Layer_2
  10
226.47351
  20
478.60864
  0
VERTEX
  5
b90
  8
Layer_2
  10
221.72192
  20
478.60864
  0
VERTEX
  5
b91
  8
Layer_2
  10
220.39587
  20
477.2821
  0
SEQEND
  0
POLYLINE
  5
b93
  8
Layer_2
  70
1
  66
1
  10
0
  20
0
  30
0
  0
VERTEX
  5
b93
  8
Layer_2
  10
180.39587
  20
477.2821
  0
VERTEX
  5
b94
  8
Layer_2
  10
180.18347
  20
477.49451
  0
VERTEX
  5
b95
  8
Layer_2
  10
181.5979
  20
478.90839
  0
VERTEX
  5
b96
  8
Layer_2
  10
186.59753
  20
478.90839
  0
VERTEX
  5
b97
  8
Layer_2
  10
188.01196
  20
477.49451
  0
VERTEX
  5
b98
  8
Layer_2
  10
187.80005
  20
477.28214
  0
VERTEX
  5
b99
  8
Layer_2
  10
186.47351
  20
478.60864
  0
VERTEX
  5
b9a
  8
Layer_2
  10
181.72192
  20
478.60864
  0
VERTEX
  5
b9b
  8
Layer_2
  10
180.39587
  20
477.2821
  0
SEQEND
  0
POLYLINE
  5
b9d
  8
Layer_2
  70
1
  66
1
  10
0
  20
0
  30
0
  0
VERTEX
  5
b9d
  8
Layer_2
  10
134.39587
  20
477.2821
  0
VERTEX
  5
b9e
  8
Layer_2
  10
134.18347
  20
477.49451
  0
VERTEX
  5
b9f
  8
Layer_2
  10
135.5979
  20
478.90839
  0
VERTEX
  5
ba0
  8
Layer_2
  10
140.59753
  20
478.90839
  0
VERTEX
  5
ba1
  8
Layer_2
  10
142.01196
  20
477.49451
  0
VERTEX
  5
ba2
  8
Layer_2
  10
141.80005
  20
477.28214
  0
VERTEX
  5
ba3
  8
Layer_2
  10
140.47351
  20
478.60864
  0
VERTEX
  5
ba4
  8
Layer_2
  10
135.72186
  20
478.60864
  0
VERTEX
  5
ba5
  8
Layer_2
  10
134.39587
  20
477.2821
  0
SEQEND
  0
POLYLINE
  5
ba7
  8
Layer_2
  70
1
  66
1
  10
0
  20
0
  30
0
  0
VERTEX
  5
ba7
  8
Layer_2
  10
85.395874
  20
477.2821
  0
VERTEX
  5
ba8
  8
Layer_2
  10
85.183472
  20
477.49451
  0
VERTEX
  5
ba9
  8
Layer_2
  10
86.5979
  20
478.90839
  0
VERTEX
  5
baa
  8
Layer_2
  10
91.597534
  20
478.90839
  0
VERTEX
  5
bab
  8
Layer_2
  10
93.011963
  20
477.49451
  0
VERTEX
  5
bac
  8
Layer_2
  10
92.800049
  20
477.28214
  0
VERTEX
  5
bad
  8
Layer_2
  10
91.473511
  20
478.60864
  0
VERTEX
  5
bae
  8
Layer_2
  10
86.721863
  20
478.60864
  0
VERTEX
  5
baf
  8
Layer_2
  10
85.395874
  20
477.2821
  0
SEQEND
  0
POLYLINE
  5
bb1
  8
Layer_2
  70
1
  66
1
  10
0
  20
0
  30
0
  0
VERTEX
  5
bb1
  8
Layer_2
  10
260.39587
  20
477.2821
  0
VERTEX
  5
bb2
  8
Layer_2
  10
260.18347
  20
477.49451
  0
VERTEX
  5
bb3
  8
Layer_2
  10
261.5979
  20
478.90839
  0
VERTEX
  5
bb4
  8
Layer_2
  10
266.59753
  20
478.90839
  0
VERTEX
  5
bb5
  8
Layer_2
  10
268.01196
  20
477.49451
  0
VERTEX
  5
bb6
  8
Layer_2
  10
267.80005
  20
477.28214
  0
VERTEX
  5
bb7
  8
Layer_2
  10
266.47351
  20
478.60864
  0
VERTEX
  5
bb8
  8
Layer_2
  10
261.72192
  20
478.60864
  0
VERTEX
  5
bb9
  8
Layer_2
  10
260.39587
  20
477.2821
  0
SEQEND
  0
POLYLINE
  5
bbb
  8
Layer_2
  70
1
  66
1
  10
0
  20
0
  30
0
  0
VERTEX
  5
bbb
  8
Layer_2
  10
306.39587
  20
477.2821
  0
VERTEX
  5
bbc
  8
Layer_2
  10
306.18347
  20
477.49451
  0
VERTEX
  5
bbd
  8
Layer_2
  10
307.5979
  20
478.90839
  0
VERTEX
  5
bbe
  8
Layer_2
  10
312.59753
  20
478.90839
  0
VERTEX
  5
bbf
  8
Layer_2
  10
314.01196
  20
477.49451
  0
VERTEX
  5
bc0
  8
Layer_2
  10
313.80005
  20
477.28214
  0
VERTEX
  5
bc1
  8
Layer_2
  10
312.47357
  20
478.60864
  0
VERTEX
  5
bc2
  8
Layer_2
  10
307.72192
  20
478.60864
  0
VERTEX
  5
bc3
  8
Layer_2
  10
306.39587
  20
477.2821
  0
SEQEND
  0
POLYLINE
  5
bc5
  8
Layer_2
  70
1
  66
1
  10
0
  20
0
  30
0
  0
VERTEX
  5
bc5
  8
Layer_2
  10
355.39587
  20
477.2821
  0
VERTEX
  5
bc6
  8
Layer_2
  10
355.18347
  20
477.49451
  0
VERTEX
  5
bc7
  8
Layer_2
  10
356.59784
  20
478.90839
  0
VERTEX
  5
bc8
  8
Layer_2
  10
361.59753
  20
478.90839
  0
VERTEX
  5
bc9
  8
Layer_2
  10
363.01196
  20
477.49451
  0
VERTEX
  5
bca
  8
Layer_2
  10
362.80005
  20
477.28214
  0
VERTEX
  5
bcb
  8
Layer_2
  10
361.47351
  20
478.60864
  0
VERTEX
  5
bcc
  8
Layer_2
  10
356.72186
  20
478.60864
  0
VERTEX
  5
bcd
  8
Layer_2
  10
355.39587
  20
477.2821
  0
SEQEND
  0
ENDSEC
  0
EOF
