<?xml version="1.0" encoding="UTF-8" standalone="no"?>
<svg
   xmlns:dc="http://purl.org/dc/elements/1.1/"
   xmlns:cc="http://creativecommons.org/ns#"
   xmlns:rdf="http://www.w3.org/1999/02/22-rdf-syntax-ns#"
   xmlns:svg="http://www.w3.org/2000/svg"
   xmlns="http://www.w3.org/2000/svg"
   xmlns:sodipodi="http://sodipodi.sourceforge.net/DTD/sodipodi-0.dtd"
   xmlns:inkscape="http://www.inkscape.org/namespaces/inkscape"
   width="400mm"
   height="400mm"
   id="svg2"
   version="1.1"
   inkscape:version="0.91 r13725"
   sodipodi:docname="Book_Of_Wires.svg">
  <metadata
     id="metadata1654">
    <rdf:RDF>
      <cc:Work
         rdf:about="">
        <dc:format>image/svg+xml</dc:format>
        <dc:type
           rdf:resource="http://purl.org/dc/dcmitype/StillImage" />
        <dc:title></dc:title>
      </cc:Work>
    </rdf:RDF>
  </metadata>
  <sodipodi:namedview
     pagecolor="#ffffff"
     bordercolor="#666666"
     borderopacity="1"
     objecttolerance="10"
     gridtolerance="10"
     guidetolerance="10"
     inkscape:pageopacity="0"
     inkscape:pageshadow="2"
     inkscape:window-width="1344"
     inkscape:window-height="810"
     id="namedview1652"
     showgrid="true"
     units="mm"
     inkscape:zoom="0.89702957"
     inkscape:cx="118.67225"
     inkscape:cy="1264.0353"
     inkscape:window-x="7"
     inkscape:window-y="0"
     inkscape:window-maximized="0"
     inkscape:current-layer="g18"
     inkscape:document-units="mm"
     showguides="false">
    <inkscape:grid
       type="xygrid"
       id="grid5794"
       units="mm" />
  </sodipodi:namedview>
  <desc
     id="desc4">/Users/flop/Desktop/book_Of_Wires.dxf - scale = 1.000000, origin = (0.000000, 0.000000), auto = True</desc>
  <defs
     id="defs6">
    <marker
       id="DistanceX"
       orient="auto"
       refX="0"
       refY="0"
       style="overflow:visible">
      <path
         d="M 3,-3 -3,3 M 0,-5 0,5"
         style="stroke:#000000;stroke-width:0.5"
         id="path9"
         inkscape:connector-curvature="0" />
    </marker>
    <pattern
       height="8"
       id="Hatch"
       patternUnits="userSpaceOnUse"
       width="8"
       x="0"
       y="0">
      <path
         d="M8 4 l-4,4"
         linecap="square"
         stroke="#000000"
         stroke-width="0.25"
         id="path12" />
      <path
         d="M6 2 l-4,4"
         linecap="square"
         stroke="#000000"
         stroke-width="0.25"
         id="path14" />
      <path
         d="M4 0 l-4,4"
         linecap="square"
         stroke="#000000"
         stroke-width="0.25"
         id="path16" />
    </pattern>
    <marker
       style="overflow:visible"
       refY="0.0"
       refX="0.0"
       orient="auto"
       id="DistanceX-2">
      <path
         id="path7390"
         style="stroke:#000000; stroke-width:0.5"
         d="M 3,-3 L -3,3 M 0,-5 L  0,5" />
    </marker>
    <pattern
       y="0"
       x="0"
       width="8"
       patternUnits="userSpaceOnUse"
       id="Hatch-6"
       height="8">
      <path
         id="path7393"
         stroke-width="0.25"
         stroke="#000000"
         linecap="square"
         d="M8 4 l-4,4" />
      <path
         id="path7395"
         stroke-width="0.25"
         stroke="#000000"
         linecap="square"
         d="M6 2 l-4,4" />
      <path
         id="path7397"
         stroke-width="0.25"
         stroke="#000000"
         linecap="square"
         d="M4 0 l-4,4" />
    </pattern>
  </defs>
  <g
     inkscape:groupmode="layer"
     inkscape:label="0"
     id="g18"
     transform="translate(0,364.96061)">
    <g
       id="g5815"
       transform="matrix(0.53681967,-0.84369701,0.84369701,0.53681967,331.7947,930.11856)">
      <path
         inkscape:connector-curvature="0"
         id="path354"
         style="fill:none;stroke:#ff0000;stroke-opacity:1"
         d="m 818.50394,-492.60472 9.56693,0 0,6.74291 99.21259,0.35433 -99.21259,0.35433 0,13.48583 99.21259,0.35433 -99.21259,0.35433 0,13.48583 99.21259,0.35433 -99.21259,0.35433 0,13.48582 99.21259,0.35434 -99.21259,0.35433 0,24.45944 -9.56693,0 0,35.43308 9.56693,0 0,35.43307 -9.56693,0 0,35.43307 9.56693,0 0,35.43307 -9.56693,0 0,35.43307 9.56693,0 0,35.43307 -9.56693,0 0,35.43307 9.56693,0 0,35.43307 -9.56693,0 0,35.433072 9.56693,0 0,35.43307 -9.56693,0 0,35.433071 9.56693,0 0,35.433071 -9.56693,0 0,35.433071 9.56693,0 0,35.433071 -9.56693,0 0,35.433074 9.56693,0 0,35.43307 -9.56693,0 0,35.43307 9.56693,0 0,24.45945 99.21259,0.35433 -99.21259,0.35433 0,13.48583 99.21259,0.35433 -99.21259,0.35433 0,13.48582 99.21259,0.35433 -99.21259,0.35433 0,13.48583 99.21259,0.35433 -99.21259,0.35433 0,6.74292 -9.56693,0 0,35.43307 9.56693,0 0,35.43307 -9.56693,0 0,35.43307 9.56693,0 0,35.43307 -9.56693,0 0,35.43307 9.56693,0 0,35.43307 -9.56693,0 0,35.43307 9.56693,0 0,35.43307 -9.56693,0 0,35.43307 9.56693,0 0,35.43308 -9.56693,0 0,35.43307 9.56693,0 0.30472,4.62401 0.90354,4.54606 1.48819,4.39016 2.05158,4.1563 2.57244,3.85512 3.05787,3.48307 3.48307,3.05787 3.85512,2.57245 4.1563,2.05157 4.39016,1.48819 4.54606,0.90709 4.62402,0.30118 0,9.56693 35.43307,0 0,-9.56693 4.62401,-0.30118 4.54607,-0.90709 4.39015,-1.48819 4.1563,-2.05157 3.85512,-2.57245 3.48307,-3.05787 3.05788,-3.48307 2.57244,-3.85512 2.05157,-4.1563 1.48819,-4.39016 0.90354,-4.54606 0.30473,-4.62401 9.56693,0 0,-35.43307 -9.56693,0 0,-35.43308 9.56693,0 0,-35.43307 -9.56693,0 0,-35.43307 9.56693,0 0,-35.43307 -9.56693,0 0,-35.43307 9.56693,0 0,-35.43307 -9.56693,0 0,-35.43307 9.56693,0 0,-35.43307 -9.56693,0 0,-35.43307 9.56693,0 0,-35.43307 -9.56693,0 0,-13.84016 -99.2126,-0.35433 99.2126,-0.35433 0,-13.48583 -99.2126,-0.35433 99.2126,-0.35433 0,-13.48583 -99.2126,-0.35433 99.2126,-0.35433 0,-31.55669 9.56693,0 0,-35.43307 -9.56693,0 0,-35.43307 9.56693,0 0,-35.433074 -9.56693,0 0,-35.433071 9.56693,0 0,-35.433071 -9.56693,0 0,-35.433071 9.56693,0 0,-35.433071 -9.56693,0 0,-35.43307 9.56693,0 0,-35.433072 -9.56693,0 0,-35.43307 9.56693,0 0,-35.43307 -9.56693,0 0,-35.43307 9.56693,0 0,-35.43307 -9.56693,0 0,-35.43307 9.56693,0 0,-35.43307 -9.56693,0 0,-35.43307 9.56693,0 0,-35.43308 -9.56693,0 0,-31.55669 -99.2126,-0.35433 99.2126,-0.35433 0,-13.48583 -99.2126,-0.35433 99.2126,-0.35433 0,-13.48583 -99.2126,-0.35433 99.2126,-0.35433 0,-13.84015 9.56693,0 0,-35.43307 -9.56693,0 0,-35.43308 9.56693,0 0,-35.43307 -9.56693,0 0,-35.43307 9.56693,0 0,-35.43307 -9.56693,0 0,-35.43307 9.56693,0 0,-35.43307 -9.56693,0 0,-35.43307 9.56693,0 0,-35.43307 -9.56693,0 0,-35.43307 9.56693,0 0,-35.43307 -9.56693,0 -0.30473,-4.62402 -0.90354,-4.54606 -1.48819,-4.39016 -2.05157,-4.1563 -2.57244,-3.85512 -3.05788,-3.48307 -3.48307,-3.05787 -3.85512,-2.57244 -4.1563,-2.05158 -4.39015,-1.48819 -4.54607,-0.90708 -4.62401,-0.30118 0,-9.56693 -35.43307,0 0,9.56693 -4.62402,0.30118 -4.54606,0.90708 -4.39016,1.48819 -4.1563,2.05158 -3.85512,2.57244 -3.48307,3.05787 -3.05787,3.48307 -2.57244,3.85512 -2.05158,4.1563 -1.48819,4.39016 -0.90354,4.54606 -0.30472,4.62402 -9.56693,0 0,35.43307 9.56693,0 0,35.43307 -9.56693,0 0,35.43307 9.56693,0 0,35.43307 -9.56693,0 0,35.43307 9.56693,0 0,35.43307 -9.56693,0 0,35.43307 9.56693,0 0,35.43307 -9.56693,0 0,35.43307 9.56693,0 0,35.43308 -9.56693,0 z"
         sodipodi:nodetypes="ccccccccccccccccccccccccccccccccccccccccccccccccccccccccccccccccccccccccccccccccccccccccccccccccccccccccccccccccccccccccccccccccccccccccccccccccccccccccccccccccccccccccccccccccccccccccccccccccccccccccccccccccccccccccccccccccccccccccccccccccccccccccccccccccccccccc" />
    </g>
    <g
       id="g6655">
      <g
         transform="matrix(0,-1,1,0,0,0)"
         style="font-style:normal;font-weight:normal;font-size:40px;line-height:125%;font-family:sans-serif;letter-spacing:0px;word-spacing:0px;fill:#0000ff;fill-opacity:1;stroke:none;stroke-width:1px;stroke-linecap:butt;stroke-linejoin:miter;stroke-opacity:1"
         id="text6635">
        <path
           d="m -347.28522,542.89093 20.04273,0 0,2.69775 -8.41065,0 0,20.99488 -3.22143,0 0,-20.99488 -8.41065,0 0,-2.69775 z"
           style="font-size:32.5px;fill:#0000ff;fill-opacity:1"
           id="path6668" />
        <path
           d="m -309.42145,555.85602 0,10.72754 -2.91992,0 0,-10.63233 q 0,-2.52319 -0.98389,-3.77685 -0.98388,-1.25366 -2.95166,-1.25366 -2.3645,0 -3.72924,1.50756 -1.36475,1.50757 -1.36475,4.11011 l 0,10.04517 -2.93579,0 0,-24.69239 2.93579,0 0,9.68018 q 1.04736,-1.60278 2.45972,-2.39624 1.42822,-0.79346 3.28491,-0.79346 3.06274,0 4.63379,1.9043 1.57104,1.88843 1.57104,5.57007 z"
           style="font-size:32.5px;fill:#0000ff;fill-opacity:1"
           id="path6670" />
        <path
           d="m -288.3631,556.96686 0,1.42822 -13.42529,0 q 0.19043,3.01514 1.80908,4.60205 1.63452,1.57105 4.53858,1.57105 1.68212,0 3.25317,-0.4126 1.58691,-0.4126 3.14209,-1.23779 l 0,2.76123 q -1.57105,0.6665 -3.22144,1.01562 -1.65039,0.34912 -3.34839,0.34912 -4.25293,0 -6.74438,-2.47558 -2.47559,-2.47559 -2.47559,-6.69678 0,-4.36401 2.34864,-6.91895 2.3645,-2.5708 6.36352,-2.5708 3.58643,0 5.66529,2.3169 2.09472,2.30102 2.09472,6.26831 z m -2.91992,-0.85694 q -0.0317,-2.39624 -1.34888,-3.82446 -1.30127,-1.42822 -3.45947,-1.42822 -2.44385,0 -3.91968,1.38061 -1.45996,1.38062 -1.68213,3.88794 l 10.41016,-0.0159 z"
           style="font-size:32.5px;fill:#0000ff;fill-opacity:1"
           id="path6672" />
        <path
           d="m -269.9549,555.26886 0,8.68042 5.14161,0 q 2.58667,0 3.82446,-1.06323 1.25366,-1.0791 1.25366,-3.28491 0,-2.22168 -1.25366,-3.26905 -1.23779,-1.06323 -3.82446,-1.06323 l -5.14161,0 z m 0,-9.74365 0,7.14111 4.74488,0 q 2.34863,0 3.49121,-0.8728 1.15845,-0.88867 1.15845,-2.69776 0,-1.79321 -1.15845,-2.68188 -1.14258,-0.88867 -3.49121,-0.88867 l -4.74488,0 z m -3.20556,-2.63428 8.18848,0 q 3.66577,0 5.64941,1.52344 1.98364,1.52344 1.98364,4.33227 0,2.17408 -1.01562,3.45948 -1.01563,1.2854 -2.9834,1.60278 2.3645,0.50781 3.66577,2.12646 1.31714,1.60279 1.31714,4.0149 0,3.17382 -2.1582,4.90356 -2.15821,1.72974 -6.14136,1.72974 l -8.50586,0 0,-23.69263 z"
           style="font-size:32.5px;fill:#0000ff;fill-opacity:1"
           id="path6674" />
        <path
           d="m -244.11993,550.85724 q -2.34864,0 -3.71338,1.84082 -1.36475,1.82495 -1.36475,5.01465 0,3.18969 1.34888,5.03052 1.36474,1.82495 3.72925,1.82495 2.33276,0 3.69751,-1.84082 1.36474,-1.84082 1.36474,-5.01465 0,-3.15796 -1.36474,-4.99878 -1.36475,-1.85669 -3.69751,-1.85669 z m 0,-2.47559 q 3.80859,0 5.98266,2.47559 2.17407,2.47558 2.17407,6.85547 0,4.36401 -2.17407,6.85547 -2.17407,2.47558 -5.98266,2.47558 -3.82447,0 -5.99854,-2.47558 -2.1582,-2.49146 -2.1582,-6.85547 0,-4.37989 2.1582,-6.85547 2.17407,-2.47559 5.99854,-2.47559 z"
           style="font-size:32.5px;fill:#0000ff;fill-opacity:1"
           id="path6676" />
        <path
           d="m -224.25177,550.85724 q -2.34863,0 -3.71338,1.84082 -1.36475,1.82495 -1.36475,5.01465 0,3.18969 1.34888,5.03052 1.36475,1.82495 3.72925,1.82495 2.33276,0 3.69751,-1.84082 1.36475,-1.84082 1.36475,-5.01465 0,-3.15796 -1.36475,-4.99878 -1.36475,-1.85669 -3.69751,-1.85669 z m 0,-2.47559 q 3.80859,0 5.98267,2.47559 2.17407,2.47558 2.17407,6.85547 0,4.36401 -2.17407,6.85547 -2.17408,2.47558 -5.98267,2.47558 -3.82446,0 -5.99854,-2.47558 -2.1582,-2.49146 -2.1582,-6.85547 0,-4.37989 2.1582,-6.85547 2.17408,-2.47559 5.99854,-2.47559 z"
           style="font-size:32.5px;fill:#0000ff;fill-opacity:1"
           id="path6678" />
        <path
           d="m -211.3819,541.89117 2.93579,0 0,14.58374 8.71216,-7.66479 3.72925,0 -9.42627,8.31543 9.823,9.45801 -3.80859,0 -9.02955,-8.68042 0,8.68042 -2.93579,0 0,-24.69239 z"
           style="font-size:32.5px;fill:#0000ff;fill-opacity:1"
           id="path6680" />
        <path
           d="m -175.24786,550.85724 q -2.34864,0 -3.71338,1.84082 -1.36475,1.82495 -1.36475,5.01465 0,3.18969 1.34888,5.03052 1.36474,1.82495 3.72925,1.82495 2.33276,0 3.69751,-1.84082 1.36474,-1.84082 1.36474,-5.01465 0,-3.15796 -1.36474,-4.99878 -1.36475,-1.85669 -3.69751,-1.85669 z m 0,-2.47559 q 3.80859,0 5.98266,2.47559 2.17407,2.47558 2.17407,6.85547 0,4.36401 -2.17407,6.85547 -2.17407,2.47558 -5.98266,2.47558 -3.82447,0 -5.99854,-2.47558 -2.1582,-2.49146 -2.1582,-6.85547 0,-4.37989 2.1582,-6.85547 2.17407,-2.47559 5.99854,-2.47559 z"
           style="font-size:32.5px;fill:#0000ff;fill-opacity:1"
           id="path6682" />
        <path
           d="m -153.2691,541.89117 0,2.42798 -2.79297,0 q -1.57105,0 -2.18994,0.63477 -0.60303,0.63476 -0.60303,2.28515 l 0,1.57105 4.80835,0 0,2.26929 -4.80835,0 0,15.50415 -2.93579,0 0,-15.50415 -2.79297,0 0,-2.26929 2.79297,0 0,-1.23779 q 0,-2.96753 1.38061,-4.31641 1.38062,-1.36475 4.37989,-1.36475 l 2.76123,0 z"
           style="font-size:32.5px;fill:#0000ff;fill-opacity:1"
           id="path6684" />
        <path
           d="m -142.41461,542.89093 3.2373,0 4.98291,20.02686 4.96704,-20.02686 3.6023,0 4.98291,20.02686 4.96704,-20.02686 3.25317,0 -5.95092,23.69263 -4.03077,0 -4.99877,-20.56641 -5.04639,20.56641 -4.03076,0 -5.93506,-23.69263 z"
           style="font-size:32.5px;fill:#0000ff;fill-opacity:1"
           id="path6686" />
        <path
           d="m -108.97833,548.81012 2.91992,0 0,17.77344 -2.91992,0 0,-17.77344 z m 0,-6.91895 2.91992,0 0,3.69751 -2.91992,0 0,-3.69751 z"
           style="font-size:32.5px;fill:#0000ff;fill-opacity:1"
           id="path6688" />
        <path
           d="m -89.63385,551.53961 q -0.491943,-0.28564 -1.079102,-0.4126 -0.571289,-0.14282 -1.269531,-0.14282 -2.475586,0 -3.808594,1.61865 -1.317138,1.60279 -1.317138,4.61792 l 0,9.3628 -2.935795,0 0,-17.77344 2.935795,0 0,2.76123 q 0.92041,-1.61865 2.39624,-2.39624 1.47583,-0.79346 3.586426,-0.79346 0.301513,0 0.666504,0.0476 0.36499,0.0317 0.809326,0.11108 l 0.01587,2.99927 z"
           style="font-size:32.5px;fill:#0000ff;fill-opacity:1"
           id="path6690" />
        <path
           d="m -72.003235,556.96686 0,1.42822 -13.425293,0 q 0.19043,3.01514 1.809082,4.60205 1.634522,1.57105 4.538574,1.57105 1.682129,0 3.253174,-0.4126 1.586914,-0.4126 3.14209,-1.23779 l 0,2.76123 q -1.571045,0.6665 -3.221435,1.01562 -1.650391,0.34912 -3.348389,0.34912 -4.25293,0 -6.744385,-2.47558 -2.475586,-2.47559 -2.475586,-6.69678 0,-4.36401 2.348633,-6.91895 2.364502,-2.5708 6.363525,-2.5708 3.586426,0 5.665284,2.3169 2.094726,2.30102 2.094726,6.26831 z m -2.919922,-0.85694 q -0.03174,-2.39624 -1.348877,-3.82446 -1.301269,-1.42822 -3.459472,-1.42822 -2.443848,0 -3.919678,1.38061 -1.459961,1.38062 -1.682129,3.88794 l 10.410156,-0.0159 z"
           style="font-size:32.5px;fill:#0000ff;fill-opacity:1"
           id="path6692" />
        <path
           d="m -55.911926,549.3338 0,2.76123 q -1.237793,-0.63476 -2.570801,-0.95215 -1.333008,-0.31738 -2.761231,-0.31738 -2.174072,0 -3.269042,0.6665 -1.079102,0.66651 -1.079102,1.99952 0,1.01562 0.777588,1.60278 0.777588,0.57129 3.126221,1.09497 l 0.999755,0.22217 q 3.110352,0.6665 4.411621,1.88843 1.317139,1.20605 1.317139,3.38012 0,2.47559 -1.967773,3.91968 -1.951905,1.44409 -5.379639,1.44409 -1.428223,0 -2.983398,-0.28564 -1.539307,-0.26978 -3.253174,-0.8252 l 0,-3.01513 q 1.618652,0.84106 3.189697,1.26953 1.571045,0.41259 3.110352,0.41259 2.062988,0 3.173828,-0.69824 1.11084,-0.71411 1.11084,-1.99951 0,-1.19018 -0.809327,-1.82495 -0.793457,-0.63477 -3.50708,-1.22192 l -1.015625,-0.23804 q -2.713623,-0.57129 -3.919677,-1.74561 -1.206055,-1.19018 -1.206055,-3.25317 0,-2.50732 1.777344,-3.87207 1.777343,-1.36475 5.046386,-1.36475 1.618653,0 3.046875,0.23804 1.428223,0.23804 2.634278,0.71411 z"
           style="font-size:32.5px;fill:#0000ff;fill-opacity:1"
           id="path6694" />
        <path
           d="m 14.197937,557.71271 q 0,-3.22144 -1.333008,-5.04639 -1.317138,-1.84082 -3.634033,-1.84082 -2.3168945,0 -3.6499023,1.84082 -1.3171387,1.82495 -1.3171387,5.04639 0,3.22143 1.3171387,5.06225 1.3330078,1.82495 3.6499023,1.82495 2.316895,0 3.634033,-1.82495 1.333008,-1.84082 1.333008,-5.06225 z m -9.934082,-6.20484 q 0.9204101,-1.58691 2.3168945,-2.34863 1.4123535,-0.77759 3.3642578,-0.77759 3.2373047,0 5.2526857,2.5708 2.03125,2.5708 2.03125,6.76026 0,4.18945 -2.03125,6.76025 -2.015381,2.5708 -5.2526857,2.5708 -1.9519043,0 -3.3642578,-0.76172 -1.3964844,-0.77758 -2.3168945,-2.3645 l 0,2.66602 -2.935791,0 0,-24.69239 2.935791,0 0,9.6167 z"
           style="font-size:32.5px;fill:#0000ff;fill-opacity:1"
           id="path6696" />
        <path
           d="m 29.46405,568.23395 q -1.237793,3.17383 -2.412109,4.14184 -1.174316,0.96802 -3.14209,0.96802 l -2.332764,0 0,-2.44385 1.713868,0 q 1.206054,0 1.872558,-0.57129 0.666504,-0.57128 1.47583,-2.69775 l 0.523682,-1.33301 -7.188721,-17.48779 3.094483,0 5.554199,13.90137 5.554199,-13.90137 3.094482,0 -7.807617,19.42383 z"
           style="font-size:32.5px;fill:#0000ff;fill-opacity:1"
           id="path6698" />
        <path
           d="m 48.49115,542.89093 20.042725,0 0,2.69775 -8.410645,0 0,20.99488 -3.221436,0 0,-20.99488 -8.410644,0 0,-2.69775 z"
           style="font-size:32.5px;fill:#0000ff;fill-opacity:1"
           id="path6700" />
        <path
           d="m 68.153015,562.5528 3.348389,0 0,4.03076 -3.348389,0 0,-4.03076 z"
           style="font-size:32.5px;fill:#0000ff;fill-opacity:1"
           id="path6702" />
        <path
           d="m 102.79535,543.66852 0,3.12622 q -1.82495,-0.8728 -3.443604,-1.30127 -1.618653,-0.42847 -3.126221,-0.42847 -2.618408,0 -4.046631,1.01563 -1.412353,1.01562 -1.412353,2.88818 0,1.57105 0.936279,2.38037 0.952148,0.79346 3.586426,1.2854 l 1.936035,0.39673 q 3.586429,0.68237 5.284419,2.41211 1.71387,1.71387 1.71387,4.60205 0,3.4436 -2.31689,5.22095 -2.301028,1.77734 -6.760257,1.77734 -1.682129,0 -3.586425,-0.38086 -1.888428,-0.38086 -3.919678,-1.12671 l 0,-3.30078 q 1.951904,1.09497 3.824463,1.65039 1.872558,0.55542 3.68164,0.55542 2.745362,0 4.237061,-1.0791 1.491696,-1.0791 1.491696,-3.07861 0,-1.74561 -1.079098,-2.72949 -1.063233,-0.98389 -3.507081,-1.47583 l -1.951904,-0.38086 q -3.586426,-0.71411 -5.189209,-2.23755 -1.602783,-1.52344 -1.602783,-4.23706 0,-3.14209 2.205811,-4.95117 2.221679,-1.80909 6.109619,-1.80909 1.666259,0 3.395996,0.30152 1.729739,0.30151 3.538819,0.90454 z"
           style="font-size:32.5px;fill:#0000ff;fill-opacity:1"
           id="path6704" />
        <path
           d="m 123.93304,555.85602 0,10.72754 -2.91992,0 0,-10.63233 q 0,-2.52319 -0.98388,-3.77685 -0.98389,-1.25366 -2.95166,-1.25366 -2.36451,0 -3.72925,1.50756 -1.36475,1.50757 -1.36475,4.11011 l 0,10.04517 -2.93579,0 0,-24.69239 2.93579,0 0,9.68018 q 1.04736,-1.60278 2.45972,-2.39624 1.42822,-0.79346 3.28491,-0.79346 3.06274,0 4.63379,1.9043 1.57104,1.88843 1.57104,5.57007 z"
           style="font-size:32.5px;fill:#0000ff;fill-opacity:1"
           id="path6706" />
        <path
           d="m 129.48724,559.5694 0,-10.75928 2.91993,0 0,10.64819 q 0,2.5232 0.98388,3.79273 0.98389,1.25366 2.95166,1.25366 2.3645,0 3.72925,-1.50757 1.38062,-1.50757 1.38062,-4.11011 l 0,-10.0769 2.91992,0 0,17.77344 -2.91992,0 0,-2.7295 q -1.06324,1.61866 -2.47559,2.41211 -1.39648,0.77759 -3.25317,0.77759 -3.06275,0 -4.64966,-1.90429 -1.58692,-1.9043 -1.58692,-5.57007 z"
           style="font-size:32.5px;fill:#0000ff;fill-opacity:1"
           id="path6708" />
        <path
           d="m 162.1142,557.49054 q 0,-3.17383 -1.31714,-4.91943 -1.30127,-1.74561 -3.66577,-1.74561 -2.34864,0 -3.66577,1.74561 -1.30127,1.7456 -1.30127,4.91943 0,3.15796 1.30127,4.90356 1.31713,1.74561 3.66577,1.74561 2.3645,0 3.66577,-1.74561 1.31714,-1.7456 1.31714,-4.90356 z m 2.91992,6.88721 q 0,4.53857 -2.01538,6.74438 -2.01538,2.22168 -6.1731,2.22168 -1.5393,0 -2.90405,-0.23804 -1.36475,-0.22216 -2.65015,-0.69824 l 0,-2.84057 q 1.2854,0.69824 2.53907,1.03149 1.25366,0.33325 2.55493,0.33325 2.87231,0 4.30053,-1.50757 1.42823,-1.4917 1.42823,-4.5227 l 0,-1.44409 q -0.90454,1.57104 -2.3169,2.34863 -1.41235,0.77759 -3.38012,0.77759 -3.26905,0 -5.26856,-2.49146 -1.99951,-2.49145 -1.99951,-6.60156 0,-4.12598 1.99951,-6.61743 1.99951,-2.49146 5.26856,-2.49146 1.96777,0 3.38012,0.77759 1.41236,0.77759 2.3169,2.34863 l 0,-2.69775 2.91992,0 0,15.56763 z"
           style="font-size:32.5px;fill:#0000ff;fill-opacity:1"
           id="path6710" />
        <path
           d="m 179.12592,557.64923 q -3.53882,0 -4.90357,0.80933 -1.36475,0.80932 -1.36475,2.76123 0,1.55517 1.01563,2.47558 1.03149,0.90454 2.79297,0.90454 2.42798,0 3.88794,-1.71386 1.47583,-1.72974 1.47583,-4.58618 l 0,-0.65064 -2.90405,0 z m 5.82397,-1.20605 0,10.14038 -2.91992,0 0,-2.69776 q -0.99976,1.61866 -2.49146,2.39624 -1.4917,0.76172 -3.6499,0.76172 -2.72949,0 -4.34814,-1.52344 -1.60279,-1.5393 -1.60279,-4.1101 0,-2.99927 1.99951,-4.52271 2.01539,-1.52344 5.99854,-1.52344 l 4.09424,0 0,-0.28564 q 0,-2.01538 -1.33301,-3.11035 -1.31714,-1.11084 -3.71338,-1.11084 -1.52344,0 -2.96753,0.36499 -1.44409,0.36499 -2.7771,1.09497 l 0,-2.69775 q 1.60279,-0.6189 3.11035,-0.92041 1.50757,-0.31739 2.9358,-0.31739 3.8562,0 5.76049,1.99951 1.9043,1.99952 1.9043,6.06202 z"
           style="font-size:32.5px;fill:#0000ff;fill-opacity:1"
           id="path6712" />
        <path
           d="m 201.34271,551.53961 q -0.49194,-0.28564 -1.0791,-0.4126 -0.57129,-0.14282 -1.26953,-0.14282 -2.47559,0 -3.80859,1.61865 -1.31714,1.60279 -1.31714,4.61792 l 0,9.3628 -2.93579,0 0,-17.77344 2.93579,0 0,2.76123 q 0.92041,-1.61865 2.39624,-2.39624 1.47583,-0.79346 3.58642,-0.79346 0.30152,0 0.66651,0.0476 0.36499,0.0317 0.80932,0.11108 l 0.0159,2.99927 z"
           style="font-size:32.5px;fill:#0000ff;fill-opacity:1"
           id="path6714" />
        <path
           d="m 204.43719,548.81012 2.91993,0 0,17.77344 -2.91993,0 0,-17.77344 z m 0,-6.91895 2.91993,0 0,3.69751 -2.91993,0 0,-3.69751 z"
           style="font-size:32.5px;fill:#0000ff;fill-opacity:1"
           id="path6716" />
        <path
           d="m 225.14642,551.50787 0,-9.6167 2.91993,0 0,24.69239 -2.91993,0 0,-2.66602 q -0.92041,1.58692 -2.33276,2.3645 -1.39648,0.76172 -3.36426,0.76172 -3.22143,0 -5.25268,-2.5708 -2.01538,-2.5708 -2.01538,-6.76025 0,-4.18946 2.01538,-6.76026 2.03125,-2.5708 5.25268,-2.5708 1.96778,0 3.36426,0.77759 1.41235,0.76172 2.33276,2.34863 z m -9.94995,6.20484 q 0,3.22143 1.31714,5.06225 1.33301,1.82495 3.6499,1.82495 2.3169,0 3.64991,-1.82495 1.333,-1.84082 1.333,-5.06225 0,-3.22144 -1.333,-5.04639 -1.33301,-1.84082 -3.64991,-1.84082 -2.31689,0 -3.6499,1.84082 -1.31714,1.82495 -1.31714,5.04639 z"
           style="font-size:32.5px;fill:#0000ff;fill-opacity:1"
           id="path6718" />
        <path
           d="m 232.81122,548.81012 13.86963,0 0,2.66602 -10.98145,12.77465 10.98145,0 0,2.33277 -14.26636,0 0,-2.66602 10.98145,-12.77466 -10.58472,0 0,-2.33276 z"
           style="font-size:32.5px;fill:#0000ff;fill-opacity:1"
           id="path6720" />
        <path
           d="m 266.35858,556.96686 0,1.42822 -13.42529,0 q 0.19043,3.01514 1.80908,4.60205 1.63452,1.57105 4.53857,1.57105 1.68213,0 3.25318,-0.4126 1.58691,-0.4126 3.14209,-1.23779 l 0,2.76123 q -1.57105,0.6665 -3.22144,1.01562 -1.65039,0.34912 -3.34839,0.34912 -4.25293,0 -6.74438,-2.47558 -2.47559,-2.47559 -2.47559,-6.69678 0,-4.36401 2.34864,-6.91895 2.3645,-2.5708 6.36352,-2.5708 3.58643,0 5.66528,2.3169 2.09473,2.30102 2.09473,6.26831 z m -2.91992,-0.85694 q -0.0317,-2.39624 -1.34888,-3.82446 -1.30127,-1.42822 -3.45947,-1.42822 -2.44385,0 -3.91968,1.38061 -1.45996,1.38062 -1.68213,3.88794 l 10.41016,-0.0159 z"
           style="font-size:32.5px;fill:#0000ff;fill-opacity:1"
           id="path6722" />
      </g>
      <g
         style="font-style:normal;font-weight:normal;font-size:40px;line-height:125%;font-family:sans-serif;letter-spacing:0px;word-spacing:0px;fill:#0000ff;fill-opacity:1;stroke:none;stroke-width:1px;stroke-linecap:butt;stroke-linejoin:miter;stroke-opacity:1"
         id="text6639">
        <path
           d="m 751.26471,-203.41084 55.50293,0 0,7.4707 -23.29102,0 0,58.13965 -8.92089,0 0,-58.13965 -23.29102,0 0,-7.4707 z"
           style="font-size:90px;text-align:center;text-anchor:middle;fill:#0000ff;fill-opacity:1"
           id="path6725" />
        <path
           d="m 815.5567,-203.41084 8.87695,0 0,26.89453 32.25586,0 0,-26.89453 8.87696,0 0,65.61035 -8.87696,0 0,-31.24512 -32.25586,0 0,31.24512 -8.87695,0 0,-65.61035 z"
           style="font-size:90px;text-align:center;text-anchor:middle;fill:#0000ff;fill-opacity:1"
           id="path6727" />
        <path
           d="m 883.23248,-203.41084 41.48438,0 0,7.4707 -32.60742,0 0,19.42383 31.24511,0 0,7.4707 -31.24511,0 0,23.77442 33.39843,0 0,7.4707 -42.27539,0 0,-65.61035 z"
           style="font-size:90px;text-align:center;text-anchor:middle;fill:#0000ff;fill-opacity:1"
           id="path6729" />
        <path
           d="m 728.54498,-56.633499 0,24.038086 14.23828,0 q 7.16309,0 10.59082,-2.944336 3.47168,-2.988281 3.47168,-9.09668 0,-6.152344 -3.47168,-9.052734 -3.42773,-2.944336 -10.59082,-2.944336 l -14.23828,0 z m 0,-26.982422 0,19.775391 13.13965,0 q 6.50391,0 9.66797,-2.416993 3.20801,-2.460937 3.20801,-7.470703 0,-4.96582 -3.20801,-7.426758 -3.16406,-2.460937 -9.66797,-2.460937 l -13.13965,0 z m -8.87695,-7.294922 22.67578,0 q 10.15137,0 15.64453,4.21875 5.49317,4.21875 5.49317,11.99707 0,6.020508 -2.8125,9.580079 -2.8125,3.55957 -8.26172,4.438476 6.54785,1.40625 10.15136,5.888672 3.64747,4.438477 3.64747,11.118164 0,8.789063 -5.97657,13.579102 -5.97656,4.790039 -17.00683,4.790039 l -23.55469,0 0,-65.610352 z"
           style="font-size:90px;text-align:center;text-anchor:middle;fill:#0000ff;fill-opacity:1"
           id="path6731" />
        <path
           d="m 806.50397,-84.890335 q -9.66797,0 -15.38086,7.207031 -5.66895,7.207031 -5.66895,19.643555 0,12.392578 5.66895,19.599609 5.71289,7.207031 15.38086,7.207031 9.66797,0 15.29297,-7.207031 5.66894,-7.207031 5.66894,-19.599609 0,-12.436524 -5.66894,-19.643555 -5.625,-7.207031 -15.29297,-7.207031 z m 0,-7.207031 q 13.79883,0 22.06054,9.272461 8.26172,9.228515 8.26172,24.785156 0,15.512695 -8.26172,24.785156 -8.26171,9.228516 -22.06054,9.228516 -13.84278,0 -22.14844,-9.228516 -8.26172,-9.228516 -8.26172,-24.785156 0,-15.556641 8.26172,-24.785156 8.30566,-9.272461 22.14844,-9.272461 z"
           style="font-size:90px;text-align:center;text-anchor:middle;fill:#0000ff;fill-opacity:1"
           id="path6733" />
        <path
           d="m 877.4317,-84.890335 q -9.66797,0 -15.38086,7.207031 -5.66894,7.207031 -5.66894,19.643555 0,12.392578 5.66894,19.599609 5.71289,7.207031 15.38086,7.207031 9.66797,0 15.29297,-7.207031 5.66895,-7.207031 5.66895,-19.599609 0,-12.436524 -5.66895,-19.643555 -5.625,-7.207031 -15.29297,-7.207031 z m 0,-7.207031 q 13.79883,0 22.06055,9.272461 8.26172,9.228515 8.26172,24.785156 0,15.512695 -8.26172,24.785156 -8.26172,9.228516 -22.06055,9.228516 -13.84277,0 -22.14844,-9.228516 -8.26171,-9.228516 -8.26171,-24.785156 0,-15.556641 8.26171,-24.785156 8.30567,-9.272461 22.14844,-9.272461 z"
           style="font-size:90px;text-align:center;text-anchor:middle;fill:#0000ff;fill-opacity:1"
           id="path6735" />
        <path
           d="m 921.64069,-90.910843 8.87695,0 0,27.729492 29.44336,-27.729492 11.42578,0 -32.56348,30.585938 34.89258,35.024414 -11.68945,0 -31.50879,-31.59668 0,31.59668 -8.87695,0 0,-65.610352 z"
           style="font-size:90px;text-align:center;text-anchor:middle;fill:#0000ff;fill-opacity:1"
           id="path6737" />
        <path
           d="m 815.5567,27.609665 q -9.66797,0 -15.38086,7.207031 -5.66894,7.207031 -5.66894,19.643555 0,12.392578 5.66894,19.599609 5.71289,7.207031 15.38086,7.207031 9.66797,0 15.29297,-7.207031 5.66895,-7.207031 5.66895,-19.599609 0,-12.436524 -5.66895,-19.643555 -5.625,-7.207031 -15.29297,-7.207031 z m 0,-7.207031 q 13.79883,0 22.06055,9.272461 8.26172,9.228515 8.26172,24.785156 0,15.512695 -8.26172,24.785156 -8.26172,9.228516 -22.06055,9.228516 -13.84277,0 -22.14844,-9.228516 -8.26171,-9.228516 -8.26171,-24.785156 0,-15.556641 8.26171,-24.785156 8.30567,-9.272461 22.14844,-9.272461 z"
           style="font-size:90px;text-align:center;text-anchor:middle;fill:#0000ff;fill-opacity:1"
           id="path6739" />
        <path
           d="m 859.76569,21.589157 37.70507,0 0,7.470703 -28.82812,0 0,19.335938 26.01562,0 0,7.470703 -26.01562,0 0,31.333008 -8.87695,0 0,-65.610352 z"
           style="font-size:90px;text-align:center;text-anchor:middle;fill:#0000ff;fill-opacity:1"
           id="path6741" />
        <path
           d="m 698.26666,134.08916 8.96485,0 13.79882,55.45898 13.75489,-55.45898 9.97558,0 13.79883,55.45898 13.75488,-55.45898 9.00879,0 -16.47949,65.61035 -11.16211,0 -13.84277,-56.95313 -13.97461,56.95313 -11.16211,0 -16.43555,-65.61035 z"
           style="font-size:90px;text-align:center;text-anchor:middle;fill:#0000ff;fill-opacity:1"
           id="path6743" />
        <path
           d="m 793.0567,134.08916 8.87695,0 0,65.61035 -8.87695,0 0,-65.61035 z"
           style="font-size:90px;text-align:center;text-anchor:middle;fill:#0000ff;fill-opacity:1"
           id="path6745" />
        <path
           d="m 850.71295,168.93779 q 2.85645,0.9668 5.53711,4.13086 2.72461,3.16406 5.44922,8.70117 l 9.00879,17.92969 -9.53613,0 -8.39356,-16.83106 q -3.25195,-6.59179 -6.32812,-8.74511 -3.03223,-2.15332 -8.30567,-2.15332 l -9.66797,0 0,27.72949 -8.87695,0 0,-65.61035 20.03906,0 q 11.25,0 16.78711,4.70215 5.53711,4.70214 5.53711,14.19433 0,6.19629 -2.90039,10.2832 -2.85644,4.08692 -8.34961,5.66895 z m -22.23633,-27.55371 0,23.29101 11.16211,0 q 6.41602,0 9.66797,-2.94433 3.2959,-2.98828 3.2959,-8.74512 0,-5.75683 -3.2959,-8.65723 -3.25195,-2.94433 -9.66797,-2.94433 l -11.16211,0 z"
           style="font-size:90px;text-align:center;text-anchor:middle;fill:#0000ff;fill-opacity:1"
           id="path6747" />
        <path
           d="m 882.1778,134.08916 41.48437,0 0,7.4707 -32.60742,0 0,19.42383 31.24512,0 0,7.4707 -31.24512,0 0,23.77442 33.39844,0 0,7.4707 -42.27539,0 0,-65.61035 z"
           style="font-size:90px;text-align:center;text-anchor:middle;fill:#0000ff;fill-opacity:1"
           id="path6749" />
        <path
           d="m 978.28619,136.24248 0,8.65722 q -5.05371,-2.41699 -9.53613,-3.60351 -4.48242,-1.18653 -8.65723,-1.18653 -7.25097,0 -11.20605,2.8125 -3.91113,2.8125 -3.91113,7.99805 0,4.35059 2.59277,6.5918 2.63672,2.19726 9.93164,3.55957 l 5.36133,1.09863 q 9.93164,1.88965 14.63379,6.67969 4.74609,4.74609 4.74609,12.74414 0,9.53613 -6.41601,14.45801 -6.37207,4.92187 -18.72071,4.92187 -4.6582,0 -9.93164,-1.05468 -5.22949,-1.05469 -10.85449,-3.12012 l 0,-9.14063 q 5.40527,3.03223 10.59082,4.57032 5.18555,1.53808 10.19531,1.53808 7.60254,0 11.7334,-2.98828 4.13086,-2.98828 4.13086,-8.52539 0,-4.83398 -2.98828,-7.55859 -2.94434,-2.72461 -9.71191,-4.08692 l -5.40528,-1.05469 q -9.93164,-1.97753 -14.37011,-6.19628 -4.43848,-4.21875 -4.43848,-11.7334 0,-8.70118 6.1084,-13.71094 6.15234,-5.00977 16.91894,-5.00977 4.61426,0 9.4043,0.83496 4.79004,0.83497 9.7998,2.50489 z"
           style="font-size:90px;text-align:center;text-anchor:middle;fill:#0000ff;fill-opacity:1"
           id="path6751" />
        <path
           d="m 836.29401,251.44408 q 0,-3.96484 -1.64063,-6.21094 -1.62109,-2.26562 -4.47265,-2.26562 -2.85157,0 -4.49219,2.26562 -1.6211,2.2461 -1.6211,6.21094 0,3.96485 1.6211,6.23047 1.64062,2.24609 4.49219,2.24609 2.85156,0 4.47265,-2.24609 1.64063,-2.26562 1.64063,-6.23047 z m -12.22657,-7.63672 q 1.13282,-1.95312 2.85157,-2.89062 1.73828,-0.95703 4.14062,-0.95703 3.98438,0 6.46485,3.16406 2.5,3.16406 2.5,8.32031 0,5.15625 -2.5,8.32031 -2.48047,3.16407 -6.46485,3.16407 -2.40234,0 -4.14062,-0.9375 -1.71875,-0.95703 -2.85157,-2.91016 l 0,3.28125 -3.61328,0 0,-30.39062 3.61328,0 0,11.83593 z"
           style="font-size:40px;text-align:center;text-anchor:middle;fill:#0000ff;fill-opacity:1"
           id="path6753" />
        <path
           d="m 855.08307,264.3933 q -1.52344,3.90625 -2.96875,5.09766 -1.44531,1.1914 -3.86719,1.1914 l -2.87109,0 0,-3.00781 2.10937,0 q 1.48438,0 2.30469,-0.70312 0.82031,-0.70313 1.81641,-3.32032 l 0.64453,-1.64062 -8.84766,-21.52344 3.8086,0 6.83593,17.10938 6.83594,-17.10938 3.80859,0 -9.60937,23.90625 z"
           style="font-size:40px;text-align:center;text-anchor:middle;fill:#0000ff;fill-opacity:1"
           id="path6755" />
        <path
           d="m 718.89166,283.20189 24.66797,0 0,3.32032 -10.35156,0 0,25.83984 -3.96484,0 0,-25.83984 -10.35157,0 0,-3.32032 z"
           style="font-size:40px;text-align:center;text-anchor:middle;fill:#0000ff;fill-opacity:1"
           id="path6757" />
        <path
           d="m 743.09088,307.40111 4.1211,0 0,4.96094 -4.1211,0 0,-4.96094 z"
           style="font-size:40px;text-align:center;text-anchor:middle;fill:#0000ff;fill-opacity:1"
           id="path6759" />
        <path
           d="m 785.7276,284.15893 0,3.84765 q -2.24609,-1.07422 -4.23828,-1.60156 -1.99219,-0.52734 -3.84766,-0.52734 -3.22265,0 -4.98047,1.25 -1.73828,1.25 -1.73828,3.55468 0,1.9336 1.15235,2.92969 1.17187,0.97656 4.41406,1.58203 l 2.38281,0.48828 q 4.41406,0.83985 6.50391,2.96875 2.10937,2.10938 2.10937,5.66407 0,4.23828 -2.85156,6.42578 -2.83203,2.1875 -8.32031,2.1875 -2.07031,0 -4.41406,-0.46875 -2.32422,-0.46875 -4.82422,-1.38672 l 0,-4.0625 q 2.40234,1.34765 4.70703,2.03125 2.30469,0.68359 4.53125,0.68359 3.3789,0 5.21484,-1.32812 1.83594,-1.32813 1.83594,-3.78907 0,-2.14843 -1.32813,-3.35937 -1.30859,-1.21094 -4.3164,-1.81641 l -2.40235,-0.46875 q -4.41406,-0.8789 -6.38671,-2.7539 -1.97266,-1.875 -1.97266,-5.21485 0,-3.86718 2.71484,-6.09375 2.73438,-2.22656 7.51953,-2.22656 2.05079,0 4.17969,0.37109 2.12891,0.3711 4.35547,1.11329 z"
           style="font-size:40px;text-align:center;text-anchor:middle;fill:#0000ff;fill-opacity:1"
           id="path6761" />
        <path
           d="m 793.18854,303.72924 0,-13.24219 3.59375,0 0,13.10547 q 0,3.10547 1.21094,4.66797 1.21093,1.54297 3.63281,1.54297 2.91015,0 4.58984,-1.85547 1.69922,-1.85547 1.69922,-5.0586 l 0,-12.40234 3.59375,0 0,21.875 -3.59375,0 0,-3.35937 q -1.30859,1.99218 -3.04687,2.96875 -1.71875,0.95703 -4.00391,0.95703 -3.76953,0 -5.72266,-2.34375 -1.95312,-2.34375 -1.95312,-6.85547 z"
           style="font-size:40px;text-align:center;text-anchor:middle;fill:#0000ff;fill-opacity:1"
           id="path6763" />
        <path
           d="m 833.34479,301.17064 q 0,-3.90625 -1.6211,-6.05468 -1.60156,-2.14844 -4.51171,-2.14844 -2.89063,0 -4.51172,2.14844 -1.60157,2.14843 -1.60157,6.05468 0,3.88672 1.60157,6.03516 1.62109,2.14844 4.51172,2.14844 2.91015,0 4.51171,-2.14844 1.6211,-2.14844 1.6211,-6.03516 z m 3.59375,8.47657 q 0,5.58593 -2.48047,8.30078 -2.48047,2.73437 -7.59766,2.73437 -1.89453,0 -3.57422,-0.29297 -1.67968,-0.27343 -3.26171,-0.85937 l 0,-3.49609 q 1.58203,0.85937 3.125,1.26953 1.54296,0.41015 3.14453,0.41015 3.53515,0 5.29297,-1.85547 1.75781,-1.83593 1.75781,-5.5664 l 0,-1.77735 q -1.11328,1.9336 -2.85156,2.89063 -1.73829,0.95703 -4.16016,0.95703 -4.02344,0 -6.48438,-3.06641 -2.46093,-3.0664 -2.46093,-8.125 0,-5.07812 2.46093,-8.14453 2.46094,-3.0664 6.48438,-3.0664 2.42187,0 4.16016,0.95703 1.73828,0.95703 2.85156,2.89062 l 0,-3.32031 3.59375,0 0,19.16016 z"
           style="font-size:40px;text-align:center;text-anchor:middle;fill:#0000ff;fill-opacity:1"
           id="path6765" />
        <path
           d="m 854.28229,301.36596 q -4.35547,0 -6.03516,0.99609 -1.67969,0.99609 -1.67969,3.39844 0,1.91406 1.25,3.04687 1.26954,1.11328 3.4375,1.11328 2.98829,0 4.78516,-2.10937 1.81641,-2.12891 1.81641,-5.64453 l 0,-0.80078 -3.57422,0 z m 7.16797,-1.48438 0,12.48047 -3.59375,0 0,-3.32031 q -1.23047,1.99219 -3.06641,2.94922 -1.83594,0.9375 -4.49219,0.9375 -3.35937,0 -5.35156,-1.875 -1.97266,-1.89453 -1.97266,-5.0586 0,-3.6914 2.46094,-5.5664 2.48047,-1.875 7.38281,-1.875 l 5.03907,0 0,-0.35157 q 0,-2.48046 -1.64063,-3.82812 -1.62109,-1.36719 -4.57031,-1.36719 -1.875,0 -3.65234,0.44922 -1.77735,0.44922 -3.41797,1.34766 l 0,-3.32032 q 1.97265,-0.76171 3.82812,-1.13281 1.85547,-0.39062 3.61328,-0.39062 4.7461,0 7.08985,2.46093 2.34375,2.46094 2.34375,7.46094 z"
           style="font-size:40px;text-align:center;text-anchor:middle;fill:#0000ff;fill-opacity:1"
           id="path6767" />
        <path
           d="m 881.62604,293.84643 q -0.60547,-0.35157 -1.32813,-0.50782 -0.70312,-0.17578 -1.5625,-0.17578 -3.04687,0 -4.6875,1.99219 -1.62109,1.97266 -1.62109,5.68359 l 0,11.52344 -3.61328,0 0,-21.875 3.61328,0 0,3.39844 q 1.13281,-1.99219 2.94922,-2.94922 1.8164,-0.97656 4.41406,-0.97656 0.37109,0 0.82031,0.0586 0.44922,0.0391 0.9961,0.13672 l 0.0195,3.69141 z"
           style="font-size:40px;text-align:center;text-anchor:middle;fill:#0000ff;fill-opacity:1"
           id="path6769" />
        <path
           d="m 885.43463,290.48705 3.59375,0 0,21.875 -3.59375,0 0,-21.875 z m 0,-8.51562 3.59375,0 0,4.55078 -3.59375,0 0,-4.55078 z"
           style="font-size:40px;text-align:center;text-anchor:middle;fill:#0000ff;fill-opacity:1"
           id="path6771" />
        <path
           d="m 910.92291,293.80736 0,-11.83593 3.59375,0 0,30.39062 -3.59375,0 0,-3.28125 q -1.13281,1.95313 -2.87109,2.91016 -1.71875,0.9375 -4.14063,0.9375 -3.96484,0 -6.46484,-3.16407 -2.48047,-3.16406 -2.48047,-8.32031 0,-5.15625 2.48047,-8.32031 2.5,-3.16406 6.46484,-3.16406 2.42188,0 4.14063,0.95703 1.73828,0.9375 2.87109,2.89062 z m -12.24609,7.63672 q 0,3.96485 1.62109,6.23047 1.64063,2.24609 4.49219,2.24609 2.85156,0 4.49219,-2.24609 1.64062,-2.26562 1.64062,-6.23047 0,-3.96484 -1.64062,-6.21094 -1.64063,-2.26562 -4.49219,-2.26562 -2.85156,0 -4.49219,2.26562 -1.62109,2.2461 -1.62109,6.21094 z"
           style="font-size:40px;text-align:center;text-anchor:middle;fill:#0000ff;fill-opacity:1"
           id="path6773" />
        <path
           d="m 920.35651,290.48705 17.07031,0 0,3.28125 -13.51563,15.72266 13.51563,0 0,2.87109 -17.55859,0 0,-3.28125 13.51562,-15.72266 -13.02734,0 0,-2.87109 z"
           style="font-size:40px;text-align:center;text-anchor:middle;fill:#0000ff;fill-opacity:1"
           id="path6775" />
        <path
           d="m 961.64557,300.52611 0,1.75782 -16.52344,0 q 0.23438,3.71093 2.22656,5.66406 2.01172,1.93359 5.58594,1.93359 2.07031,0 4.00391,-0.50781 1.95312,-0.50781 3.86719,-1.52344 l 0,3.39844 q -1.9336,0.82031 -3.96485,1.25 -2.03125,0.42969 -4.12109,0.42969 -5.23438,0 -8.30078,-3.04688 -3.04688,-3.04687 -3.04688,-8.24219 0,-5.37109 2.89063,-8.51562 2.91015,-3.16406 7.83203,-3.16406 4.41406,0 6.97265,2.85156 2.57813,2.83203 2.57813,7.71484 z m -3.59375,-1.05468 q -0.0391,-2.94922 -1.66016,-4.70704 -1.60156,-1.75781 -4.25781,-1.75781 -3.00781,0 -4.82422,1.69922 -1.79687,1.69922 -2.07031,4.78516 l 12.8125,-0.0195 z"
           style="font-size:40px;text-align:center;text-anchor:middle;fill:#0000ff;fill-opacity:1"
           id="path6777" />
      </g>
    </g>
    <g
       id="g7399"
       inkscape:label="0"
       transform="translate(1111.8068,356.28581)">
      <g
         id="g9975"
         transform="matrix(0,-1,1,0,-686.06148,459.54379)">
        <path
           sodipodi:nodetypes="cccccccccccccccccccccccccccc"
           inkscape:connector-curvature="0"
           d="m 1148.6918,61.261366 0,-396.506686 -0.4677,-7.12205 -1.3926,-7.00157 -2.2925,-6.76063 -3.1571,-6.39922 -3.9649,-5.93504 -4.7091,-5.36811 -5.3645,-4.70551 -5.9351,-3.96496 -6.4027,-3.15709 -6.7571,-2.29251 -7.0016,-1.39252 -7.1221,-0.46772 -637.79522,0 -7.1224,0.46772 -7.00051,1.39252 -6.75886,2.29251 -6.4017,3.15709 -5.93468,3.96496 -5.36669,4.70551 -4.70587,5.36811 -3.96567,5.93504 -3.15673,6.39922 -2.29465,6.76063 -1.39252,7.00157 -0.46665,7.12205 0,396.506686"
           style="fill:none;stroke:#006400;stroke-opacity:1"
           id="path7967" />
        <path
           sodipodi:nodetypes="cccccccccc"
           inkscape:connector-curvature="0"
           d="m 469.36895,61.615696 -67.6063,0.35433 0,13.48583 67.6063,0.35433 -67.6063,0.35433 0,13.48583 67.6063,0.35433 -67.6063,0.35433 0,13.485834 67.6063,0.35433"
           style="fill:none;stroke:#006400;stroke-opacity:1"
           id="path8021" />
        <path
           sodipodi:nodetypes="cc"
           inkscape:connector-curvature="0"
           d="m 401.76265,104.5535 0,48.91889"
           style="fill:none;stroke:#006400;stroke-opacity:1"
           id="path8051" />
        <path
           sodipodi:nodetypes="cccccccccc"
           inkscape:connector-curvature="0"
           d="m 469.36895,153.82672 -67.6063,0.35433 0,13.48583 67.6063,0.35433 -67.6063,0.35433 0,13.48583 67.6063,0.35433 -67.6063,0.35433 0,13.48583 67.6063,0.35433"
           style="fill:none;stroke:#006400;stroke-opacity:1"
           id="path8053" />
        <path
           sodipodi:nodetypes="cccccccccccccccccccccccccccc"
           inkscape:connector-curvature="0"
           d="m 401.76265,196.76452 0,396.50669 0.46665,7.12205 1.39252,7.00158 2.29465,6.76063 3.15673,6.39921 3.96567,5.93504 4.70587,5.36811 5.36669,4.70551 5.93468,3.96496 6.4017,3.15709 6.75886,2.29252 7.00051,1.39252 7.1224,0.46771 637.79522,0 7.1221,-0.46771 7.0016,-1.39252 6.7571,-2.29252 6.4027,-3.15709 5.9351,-3.96496 5.3645,-4.70551 4.7091,-5.36811 3.9649,-5.93504 3.1571,-6.39921 2.2925,-6.76063 1.3926,-7.00158 0.4677,-7.12205 0,-396.50669"
           style="fill:none;stroke:#006400;stroke-opacity:1"
           id="path8083" />
        <path
           sodipodi:nodetypes="cccccccccc"
           inkscape:connector-curvature="0"
           d="m 1081.0855,196.41019 67.6063,-0.35433 0,-13.48583 -67.6063,-0.35433 67.6063,-0.35433 0,-13.48583 -67.6063,-0.35433 67.6063,-0.35433 0,-13.48583 -67.6063,-0.35433"
           style="fill:none;stroke:#006400;stroke-opacity:1"
           id="path8137" />
        <path
           sodipodi:nodetypes="cc"
           inkscape:connector-curvature="0"
           d="m 1148.6918,153.47239 0,-48.91889"
           style="fill:none;stroke:#006400;stroke-opacity:1"
           id="path8167" />
        <path
           sodipodi:nodetypes="cccccccccc"
           inkscape:connector-curvature="0"
           d="m 1081.0855,104.19917 67.6063,-0.35433 0,-13.48583 -67.61,-0.35433 67.61,-0.35433 0,-13.485834 -67.6063,-0.35433 67.6063,-0.35433 0,-13.48583 -67.6063,-0.35433"
           style="fill:none;stroke:#006400;stroke-opacity:1"
           id="path8169" />
        <path
           sodipodi:nodetypes="ccc"
           inkscape:connector-curvature="0"
           d="m 931.69966,90.020913 135.21264,0 z"
           style="fill:none;stroke:#006400;stroke-opacity:1"
           id="path8185" />
        <path
           sodipodi:nodetypes="ccccc"
           inkscape:connector-curvature="0"
           d="m 411.32958,111.29641 9.56693,0 0,35.43307 -9.56693,0 z"
           style="fill:none;stroke:#006400;stroke-opacity:1"
           id="path8195" />
        <path
           sodipodi:nodetypes="ccccc"
           inkscape:connector-curvature="0"
           d="m 509.47918,-380.42249 0,9.92126 -35.43307,0 0,-9.92126 z"
           style="fill:none;stroke:#006400;stroke-opacity:1"
           id="path8203" />
        <path
           sodipodi:nodetypes="ccccc"
           inkscape:connector-curvature="0"
           d="m 863.80989,-380.42249 0,9.92126 -35.43307,0 0,-9.92126 z"
           style="fill:none;stroke:#006400;stroke-opacity:1"
           id="path8211" />
        <path
           sodipodi:nodetypes="ccccc"
           inkscape:connector-curvature="0"
           d="m 934.67604,-380.42249 0,9.92126 -35.43308,0 0,-9.92126 z"
           style="fill:none;stroke:#006400;stroke-opacity:1"
           id="path8219" />
        <path
           sodipodi:nodetypes="ccccc"
           inkscape:connector-curvature="0"
           d="m 792.94375,-380.42249 0,9.92126 -35.43307,0 0,-9.92126 z"
           style="fill:none;stroke:#006400;stroke-opacity:1"
           id="path8227" />
        <path
           sodipodi:nodetypes="ccccc"
           inkscape:connector-curvature="0"
           d="m 1005.5422,-380.42249 0,9.92126 -35.43309,0 0,-9.92126 z"
           style="fill:none;stroke:#006400;stroke-opacity:1"
           id="path8235" />
        <path
           sodipodi:nodetypes="ccccc"
           inkscape:connector-curvature="0"
           d="m 580.34533,-380.42249 0,9.92126 -35.43307,0 0,-9.92126 z"
           style="fill:none;stroke:#006400;stroke-opacity:1"
           id="path8243" />
        <path
           sodipodi:nodetypes="ccccc"
           inkscape:connector-curvature="0"
           d="m 651.21147,-380.42249 0,9.92126 -35.43307,0 0,-9.92126 z"
           style="fill:none;stroke:#006400;stroke-opacity:1"
           id="path8251" />
        <path
           sodipodi:nodetypes="ccccc"
           inkscape:connector-curvature="0"
           d="m 722.07761,-380.42249 0,9.92126 -35.43307,0 0,-9.92126 z"
           style="fill:none;stroke:#006400;stroke-opacity:1"
           id="path8259" />
        <path
           sodipodi:nodetypes="ccccc"
           inkscape:connector-curvature="0"
           d="m 1076.4083,-380.42249 0,9.92126 -35.4331,0 0,-9.92126 z"
           style="fill:none;stroke:#006400;stroke-opacity:1"
           id="path8267" />
        <path
           sodipodi:nodetypes="ccccc"
           inkscape:connector-curvature="0"
           d="m 411.32958,-335.24532 9.56693,0 0,35.43307 -9.56693,0 z"
           style="fill:none;stroke:#006400;stroke-opacity:1"
           id="path8273" />
        <path
           sodipodi:nodetypes="ccccc"
           inkscape:connector-curvature="0"
           d="m 1139.1248,-335.24532 0,35.43307 -9.5669,0 0,-35.43307 z"
           style="fill:none;stroke:#006400;stroke-opacity:1"
           id="path8285" />
        <path
           sodipodi:nodetypes="ccccc"
           inkscape:connector-curvature="0"
           d="m 1129.5579,-228.94611 0,-35.43307 9.5669,0 0,35.43307 z"
           style="fill:none;stroke:#006400;stroke-opacity:1"
           id="path8295" />
        <path
           sodipodi:nodetypes="ccccc"
           inkscape:connector-curvature="0"
           d="m 411.32958,-264.37918 9.56693,0 0,35.43307 -9.56693,0 z"
           style="fill:none;stroke:#006400;stroke-opacity:1"
           id="path8297" />
        <path
           sodipodi:nodetypes="ccccc"
           inkscape:connector-curvature="0"
           d="m 1139.1248,-158.07997 -9.5669,0 0,-35.43307 9.5669,0 z"
           style="fill:none;stroke:#006400;stroke-opacity:1"
           id="path8309" />
        <path
           sodipodi:nodetypes="ccccc"
           inkscape:connector-curvature="0"
           d="m 411.32958,-193.51304 9.56693,0 0,35.43307 -9.56693,0 z"
           style="fill:none;stroke:#006400;stroke-opacity:1"
           id="path8313" />
        <path
           sodipodi:nodetypes="ccccc"
           inkscape:connector-curvature="0"
           d="m 411.32958,-122.6469 9.56693,0 0,35.433066 -9.56693,0 z"
           style="fill:none;stroke:#006400;stroke-opacity:1"
           id="path8321" />
        <path
           sodipodi:nodetypes="ccccc"
           inkscape:connector-curvature="0"
           d="m 1139.1248,-122.6469 0,35.433066 -9.5669,0 0,-35.433066 z"
           style="fill:none;stroke:#006400;stroke-opacity:1"
           id="path8331" />
        <path
           sodipodi:nodetypes="ccccc"
           inkscape:connector-curvature="0"
           d="m 411.32958,-51.780754 9.56693,0 0,35.43307 -9.56693,0 z"
           style="fill:none;stroke:#006400;stroke-opacity:1"
           id="path8337" />
        <path
           sodipodi:nodetypes="ccccc"
           inkscape:connector-curvature="0"
           d="m 1129.5579,-16.347684 0,-35.43307 9.5669,0 0,35.43307 z"
           style="fill:none;stroke:#006400;stroke-opacity:1"
           id="path8351" />
        <path
           sodipodi:nodetypes="ccccc"
           inkscape:connector-curvature="0"
           d="m 411.32958,19.085386 9.56693,0 0,35.43307 -9.56693,0 z"
           style="fill:none;stroke:#006400;stroke-opacity:1"
           id="path8353" />
        <path
           sodipodi:nodetypes="ccccc"
           inkscape:connector-curvature="0"
           d="m 1139.1248,54.518456 -9.5669,0 0,-35.43307 9.5669,0 z"
           style="fill:none;stroke:#006400;stroke-opacity:1"
           id="path8365" />
        <path
           sodipodi:nodetypes="ccc"
           inkscape:connector-curvature="0"
           d="m 782.31383,61.615696 135.2126,0 z"
           style="fill:none;stroke:#006400;stroke-opacity:1"
           id="path8375" />
        <path
           sodipodi:nodetypes="ccc"
           inkscape:connector-curvature="0"
           d="m 618.75478,61.615696 -135.2126,0 z"
           style="fill:none;stroke:#006400;stroke-opacity:1"
           id="path8379" />
        <path
           sodipodi:nodetypes="ccc"
           inkscape:connector-curvature="0"
           d="m 931.69966,61.615696 135.21264,0 z"
           style="fill:none;stroke:#006400;stroke-opacity:1"
           id="path8391" />
        <path
           sodipodi:nodetypes="ccc"
           inkscape:connector-curvature="0"
           d="m 768.1406,61.615696 -135.2126,0 z"
           style="fill:none;stroke:#006400;stroke-opacity:1"
           id="path8395" />
        <path
           sodipodi:nodetypes="ccc"
           inkscape:connector-curvature="0"
           d="m 1006.3926,68.712946 135.2126,0 z"
           style="fill:none;stroke:#006400;stroke-opacity:1"
           id="path8407" />
        <path
           sodipodi:nodetypes="ccc"
           inkscape:connector-curvature="0"
           d="m 707.62092,68.712946 135.2126,0 z"
           style="fill:none;stroke:#006400;stroke-opacity:1"
           id="path8415" />
        <path
           sodipodi:nodetypes="ccc"
           inkscape:connector-curvature="0"
           d="m 408.84926,68.712946 135.2126,0 z"
           style="fill:none;stroke:#006400;stroke-opacity:1"
           id="path8423" />
        <path
           sodipodi:nodetypes="ccc"
           inkscape:connector-curvature="0"
           d="m 558.23509,68.712946 135.2126,0 z"
           style="fill:none;stroke:#006400;stroke-opacity:1"
           id="path8425" />
        <path
           sodipodi:nodetypes="ccc"
           inkscape:connector-curvature="0"
           d="m 992.21934,68.712946 -135.2126,0 z"
           style="fill:none;stroke:#006400;stroke-opacity:1"
           id="path8437" />
        <path
           sodipodi:nodetypes="ccc"
           inkscape:connector-curvature="0"
           d="m 1066.9123,75.810186 -135.21264,0 z"
           style="fill:none;stroke:#006400;stroke-opacity:1"
           id="path8443" />
        <path
           sodipodi:nodetypes="ccc"
           inkscape:connector-curvature="0"
           d="m 782.31383,75.810186 135.2126,0 z"
           style="fill:none;stroke:#006400;stroke-opacity:1"
           id="path8455" />
        <path
           sodipodi:nodetypes="ccc"
           inkscape:connector-curvature="0"
           d="m 632.928,75.810186 135.2126,0 z"
           style="fill:none;stroke:#006400;stroke-opacity:1"
           id="path8463" />
        <path
           sodipodi:nodetypes="ccc"
           inkscape:connector-curvature="0"
           d="m 483.54218,75.810186 135.2126,0 z"
           style="fill:none;stroke:#006400;stroke-opacity:1"
           id="path8471" />
        <path
           sodipodi:nodetypes="ccc"
           inkscape:connector-curvature="0"
           d="m 408.84926,82.907431 135.2126,0 z"
           style="fill:none;stroke:#006400;stroke-opacity:1"
           id="path8479" />
        <path
           sodipodi:nodetypes="ccc"
           inkscape:connector-curvature="0"
           d="m 842.83352,82.907431 -135.2126,0 z"
           style="fill:none;stroke:#006400;stroke-opacity:1"
           id="path8483" />
        <path
           sodipodi:nodetypes="ccc"
           inkscape:connector-curvature="0"
           d="m 857.00674,82.907431 135.2126,0 z"
           style="fill:none;stroke:#006400;stroke-opacity:1"
           id="path8495" />
        <path
           sodipodi:nodetypes="ccc"
           inkscape:connector-curvature="0"
           d="m 1141.6052,82.907431 -135.2126,0 z"
           style="fill:none;stroke:#006400;stroke-opacity:1"
           id="path8499" />
        <path
           sodipodi:nodetypes="ccc"
           inkscape:connector-curvature="0"
           d="m 558.23509,82.907431 135.2126,0 z"
           style="fill:none;stroke:#006400;stroke-opacity:1"
           id="path8511" />
        <path
           sodipodi:nodetypes="ccc"
           inkscape:connector-curvature="0"
           d="m 618.75478,90.004676 -135.2126,0 z"
           style="fill:none;stroke:#006400;stroke-opacity:1"
           id="path8515" />
        <path
           sodipodi:nodetypes="ccc"
           inkscape:connector-curvature="0"
           d="m 768.1406,90.004676 -135.2126,0 z"
           style="fill:none;stroke:#006400;stroke-opacity:1"
           id="path8523" />
        <path
           sodipodi:nodetypes="ccc"
           inkscape:connector-curvature="0"
           d="m 857.00674,97.101916 135.2126,0 z"
           style="fill:none;stroke:#006400;stroke-opacity:1"
           id="path8535" />
        <path
           sodipodi:nodetypes="ccc"
           inkscape:connector-curvature="0"
           d="m 842.83352,97.101916 -135.2126,0 z"
           style="fill:none;stroke:#006400;stroke-opacity:1"
           id="path8539" />
        <path
           sodipodi:nodetypes="ccc"
           inkscape:connector-curvature="0"
           d="m 544.06186,97.101916 -135.2126,0 z"
           style="fill:none;stroke:#006400;stroke-opacity:1"
           id="path8547" />
        <path
           sodipodi:nodetypes="ccc"
           inkscape:connector-curvature="0"
           d="m 1006.3926,97.101916 135.2126,0 z"
           style="fill:none;stroke:#006400;stroke-opacity:1"
           id="path8559" />
        <path
           sodipodi:nodetypes="ccc"
           inkscape:connector-curvature="0"
           d="m 693.44769,97.101916 -135.2126,0 z"
           style="fill:none;stroke:#006400;stroke-opacity:1"
           id="path8563" />
        <path
           sodipodi:nodetypes="ccc"
           inkscape:connector-curvature="0"
           d="m 1066.9123,104.19917 -135.21264,0 z"
           style="fill:none;stroke:#006400;stroke-opacity:1"
           id="path8571" />
        <path
           sodipodi:nodetypes="ccc"
           inkscape:connector-curvature="0"
           d="m 782.31383,104.19917 135.2126,0 z"
           style="fill:none;stroke:#006400;stroke-opacity:1"
           id="path8583" />
        <path
           sodipodi:nodetypes="ccc"
           inkscape:connector-curvature="0"
           d="m 768.1406,104.19917 -135.2126,0 z"
           style="fill:none;stroke:#006400;stroke-opacity:1"
           id="path8587" />
        <path
           sodipodi:nodetypes="ccc"
           inkscape:connector-curvature="0"
           d="m 483.54218,104.19917 135.2126,0 z"
           style="fill:none;stroke:#006400;stroke-opacity:1"
           id="path8599" />
        <path
           sodipodi:nodetypes="ccccc"
           inkscape:connector-curvature="0"
           d="m 1139.1248,146.72948 -9.5669,0 0,-35.43307 9.5669,0 z"
           style="fill:none;stroke:#006400;stroke-opacity:1"
           id="path8605" />
        <path
           sodipodi:nodetypes="ccc"
           inkscape:connector-curvature="0"
           d="m 1066.9123,153.82672 -135.21264,0 z"
           style="fill:none;stroke:#006400;stroke-opacity:1"
           id="path8611" />
        <path
           sodipodi:nodetypes="ccc"
           inkscape:connector-curvature="0"
           d="m 632.928,153.82672 135.2126,0 z"
           style="fill:none;stroke:#006400;stroke-opacity:1"
           id="path8623" />
        <path
           sodipodi:nodetypes="ccc"
           inkscape:connector-curvature="0"
           d="m 782.31383,153.82672 135.2126,0 z"
           style="fill:none;stroke:#006400;stroke-opacity:1"
           id="path8631" />
        <path
           sodipodi:nodetypes="ccc"
           inkscape:connector-curvature="0"
           d="m 618.75478,153.82672 -135.2126,0 z"
           style="fill:none;stroke:#006400;stroke-opacity:1"
           id="path8635" />
        <path
           sodipodi:nodetypes="ccc"
           inkscape:connector-curvature="0"
           d="m 544.06186,160.92397 -135.2126,0 z"
           style="fill:none;stroke:#006400;stroke-opacity:1"
           id="path8643" />
        <path
           sodipodi:nodetypes="ccc"
           inkscape:connector-curvature="0"
           d="m 1141.6052,160.92397 -135.2126,0 z"
           style="fill:none;stroke:#006400;stroke-opacity:1"
           id="path8651" />
        <path
           sodipodi:nodetypes="ccc"
           inkscape:connector-curvature="0"
           d="m 693.44769,160.92397 -135.2126,0 z"
           style="fill:none;stroke:#006400;stroke-opacity:1"
           id="path8659" />
        <path
           sodipodi:nodetypes="ccc"
           inkscape:connector-curvature="0"
           d="m 707.62092,160.92397 135.2126,0 z"
           style="fill:none;stroke:#006400;stroke-opacity:1"
           id="path8671" />
        <path
           sodipodi:nodetypes="ccc"
           inkscape:connector-curvature="0"
           d="m 857.00674,160.92397 135.2126,0 z"
           style="fill:none;stroke:#006400;stroke-opacity:1"
           id="path8679" />
        <path
           sodipodi:nodetypes="ccc"
           inkscape:connector-curvature="0"
           d="m 1066.9123,168.02121 -135.21264,0 z"
           style="fill:none;stroke:#006400;stroke-opacity:1"
           id="path8683" />
        <path
           sodipodi:nodetypes="ccc"
           inkscape:connector-curvature="0"
           d="m 768.1406,168.02121 -135.2126,0 z"
           style="fill:none;stroke:#006400;stroke-opacity:1"
           id="path8691" />
        <path
           sodipodi:nodetypes="ccc"
           inkscape:connector-curvature="0"
           d="m 917.52643,168.02121 -135.2126,0 z"
           style="fill:none;stroke:#006400;stroke-opacity:1"
           id="path8699" />
        <path
           sodipodi:nodetypes="ccc"
           inkscape:connector-curvature="0"
           d="m 693.44769,175.11846 -135.2126,0 z"
           style="fill:none;stroke:#006400;stroke-opacity:1"
           id="path8707" />
        <path
           sodipodi:nodetypes="ccc"
           inkscape:connector-curvature="0"
           d="m 544.06186,175.11846 -135.2126,0 z"
           style="fill:none;stroke:#006400;stroke-opacity:1"
           id="path8715" />
        <path
           sodipodi:nodetypes="ccc"
           inkscape:connector-curvature="0"
           d="m 707.62092,175.11846 135.2126,0 z"
           style="fill:none;stroke:#006400;stroke-opacity:1"
           id="path8727" />
        <path
           sodipodi:nodetypes="ccc"
           inkscape:connector-curvature="0"
           d="m 857.00674,175.11846 135.2126,0 z"
           style="fill:none;stroke:#006400;stroke-opacity:1"
           id="path8735" />
        <path
           sodipodi:nodetypes="ccc"
           inkscape:connector-curvature="0"
           d="m 1006.3926,175.11846 135.2126,0 z"
           style="fill:none;stroke:#006400;stroke-opacity:1"
           id="path8743" />
        <path
           sodipodi:nodetypes="ccc"
           inkscape:connector-curvature="0"
           d="m 632.928,182.2157 135.2126,0 z"
           style="fill:none;stroke:#006400;stroke-opacity:1"
           id="path8751" />
        <path
           sodipodi:nodetypes="ccc"
           inkscape:connector-curvature="0"
           d="m 483.54218,182.2157 135.2126,0 z"
           style="fill:none;stroke:#006400;stroke-opacity:1"
           id="path8759" />
        <path
           sodipodi:nodetypes="ccc"
           inkscape:connector-curvature="0"
           d="m 782.31383,182.2157 135.2126,0 z"
           style="fill:none;stroke:#006400;stroke-opacity:1"
           id="path8767" />
        <path
           sodipodi:nodetypes="ccc"
           inkscape:connector-curvature="0"
           d="m 1066.9123,182.2157 -135.21264,0 z"
           style="fill:none;stroke:#006400;stroke-opacity:1"
           id="path8771" />
        <path
           sodipodi:nodetypes="ccc"
           inkscape:connector-curvature="0"
           d="m 992.21934,189.31294 -135.2126,0 z"
           style="fill:none;stroke:#006400;stroke-opacity:1"
           id="path8779" />
        <path
           sodipodi:nodetypes="ccc"
           inkscape:connector-curvature="0"
           d="m 408.84926,189.31294 135.2126,0 z"
           style="fill:none;stroke:#006400;stroke-opacity:1"
           id="path8791" />
        <path
           sodipodi:nodetypes="ccc"
           inkscape:connector-curvature="0"
           d="m 842.83352,189.31294 -135.2126,0 z"
           style="fill:none;stroke:#006400;stroke-opacity:1"
           id="path8795" />
        <path
           sodipodi:nodetypes="ccc"
           inkscape:connector-curvature="0"
           d="m 693.44769,189.31294 -135.2126,0 z"
           style="fill:none;stroke:#006400;stroke-opacity:1"
           id="path8805" />
        <path
           sodipodi:nodetypes="ccc"
           inkscape:connector-curvature="0"
           d="m 1141.6052,189.31294 -135.2126,0 z"
           style="fill:none;stroke:#006400;stroke-opacity:1"
           id="path8813" />
        <path
           sodipodi:nodetypes="ccc"
           inkscape:connector-curvature="0"
           d="m 483.54218,196.41019 135.2126,0 z"
           style="fill:none;stroke:#006400;stroke-opacity:1"
           id="path8823" />
        <path
           sodipodi:nodetypes="ccc"
           inkscape:connector-curvature="0"
           d="m 768.1406,196.41019 -135.2126,0 z"
           style="fill:none;stroke:#006400;stroke-opacity:1"
           id="path8827" />
        <path
           sodipodi:nodetypes="ccc"
           inkscape:connector-curvature="0"
           d="m 782.31383,196.41019 135.2126,0 z"
           style="fill:none;stroke:#006400;stroke-opacity:1"
           id="path8839" />
        <path
           sodipodi:nodetypes="ccc"
           inkscape:connector-curvature="0"
           d="m 931.69966,196.41019 135.21264,0 z"
           style="fill:none;stroke:#006400;stroke-opacity:1"
           id="path8847" />
        <path
           sodipodi:nodetypes="ccccc"
           inkscape:connector-curvature="0"
           d="m 411.32958,203.50743 9.56693,0 0,35.43307 -9.56693,0 z"
           style="fill:none;stroke:#006400;stroke-opacity:1"
           id="path8849" />
        <path
           sodipodi:nodetypes="ccccc"
           inkscape:connector-curvature="0"
           d="m 1129.5579,203.50743 9.5669,0 0,35.43307 -9.5669,0 z"
           style="fill:none;stroke:#006400;stroke-opacity:1"
           id="path8859" />
        <path
           sodipodi:nodetypes="ccccc"
           inkscape:connector-curvature="0"
           d="m 1129.5579,309.80664 0,-35.43307 9.5669,0 0,35.43307 z"
           style="fill:none;stroke:#006400;stroke-opacity:1"
           id="path8871" />
        <path
           sodipodi:nodetypes="ccccc"
           inkscape:connector-curvature="0"
           d="m 411.32958,274.37357 9.56693,0 0,35.43307 -9.56693,0 z"
           style="fill:none;stroke:#006400;stroke-opacity:1"
           id="path8873" />
        <path
           sodipodi:nodetypes="ccccc"
           inkscape:connector-curvature="0"
           d="m 1129.5579,345.23971 9.5669,0 0,35.43308 -9.5669,0 z"
           style="fill:none;stroke:#006400;stroke-opacity:1"
           id="path8881" />
        <path
           sodipodi:nodetypes="ccccc"
           inkscape:connector-curvature="0"
           d="m 411.32958,345.23971 9.56693,0 0,35.43308 -9.56693,0 z"
           style="fill:none;stroke:#006400;stroke-opacity:1"
           id="path8889" />
        <path
           sodipodi:nodetypes="ccccc"
           inkscape:connector-curvature="0"
           d="m 411.32958,416.10586 9.56693,0 0,35.43307 -9.56693,0 z"
           style="fill:none;stroke:#006400;stroke-opacity:1"
           id="path8897" />
        <path
           sodipodi:nodetypes="ccccc"
           inkscape:connector-curvature="0"
           d="m 1139.1248,451.53893 -9.5669,0 0,-35.43307 9.5669,0 z"
           style="fill:none;stroke:#006400;stroke-opacity:1"
           id="path8909" />
        <path
           sodipodi:nodetypes="ccccc"
           inkscape:connector-curvature="0"
           d="m 411.32958,486.972 9.56693,0 0,35.43307 -9.56693,0 z"
           style="fill:none;stroke:#006400;stroke-opacity:1"
           id="path8913" />
        <path
           sodipodi:nodetypes="ccccc"
           inkscape:connector-curvature="0"
           d="m 1139.1248,486.972 0,35.43307 -9.5669,0 0,-35.43307 z"
           style="fill:none;stroke:#006400;stroke-opacity:1"
           id="path8923" />
        <path
           sodipodi:nodetypes="ccccc"
           inkscape:connector-curvature="0"
           d="m 1129.5579,593.27121 0,-35.43307 9.5669,0 0,35.43307 z"
           style="fill:none;stroke:#006400;stroke-opacity:1"
           id="path8935" />
        <path
           sodipodi:nodetypes="ccccc"
           inkscape:connector-curvature="0"
           d="m 411.32958,557.83814 9.56693,0 0,35.43307 -9.56693,0 z"
           style="fill:none;stroke:#006400;stroke-opacity:1"
           id="path8937" />
        <path
           sodipodi:nodetypes="ccccc"
           inkscape:connector-curvature="0"
           d="m 863.80989,628.52712 0,9.92126 -35.43307,0 0,-9.92126 z"
           style="fill:none;stroke:#006400;stroke-opacity:1"
           id="path8947" />
        <path
           sodipodi:nodetypes="ccccc"
           inkscape:connector-curvature="0"
           d="m 792.94375,628.52712 0,9.92126 -35.43307,0 0,-9.92126 z"
           style="fill:none;stroke:#006400;stroke-opacity:1"
           id="path8955" />
        <path
           sodipodi:nodetypes="ccccc"
           inkscape:connector-curvature="0"
           d="m 970.10911,638.44838 0,-9.92126 35.43309,0 0,9.92126 z"
           style="fill:none;stroke:#006400;stroke-opacity:1"
           id="path8967" />
        <path
           sodipodi:nodetypes="ccccc"
           inkscape:connector-curvature="0"
           d="m 722.07761,628.52712 0,9.92126 -35.43307,0 0,-9.92126 z"
           style="fill:none;stroke:#006400;stroke-opacity:1"
           id="path8971" />
        <path
           sodipodi:nodetypes="ccccc"
           inkscape:connector-curvature="0"
           d="m 899.24296,628.52712 35.43308,0 0,9.92126 -35.43308,0 z"
           style="fill:none;stroke:#006400;stroke-opacity:1"
           id="path8977" />
        <path
           sodipodi:nodetypes="ccccc"
           inkscape:connector-curvature="0"
           d="m 474.04611,638.44838 0,-9.92126 35.43307,0 0,9.92126 z"
           style="fill:none;stroke:#006400;stroke-opacity:1"
           id="path8991" />
        <path
           sodipodi:nodetypes="ccccc"
           inkscape:connector-curvature="0"
           d="m 615.7784,638.44838 0,-9.92126 35.43307,0 0,9.92126 z"
           style="fill:none;stroke:#006400;stroke-opacity:1"
           id="path8999" />
        <path
           sodipodi:nodetypes="ccccc"
           inkscape:connector-curvature="0"
           d="m 544.91226,638.44838 0,-9.92126 35.43307,0 0,9.92126 z"
           style="fill:none;stroke:#006400;stroke-opacity:1"
           id="path9007" />
        <path
           sodipodi:nodetypes="ccccc"
           inkscape:connector-curvature="0"
           d="m 1076.4083,628.52712 0,9.92126 -35.4331,0 0,-9.92126 z"
           style="fill:none;stroke:#006400;stroke-opacity:1"
           id="path9011" />
        <path
           sodipodi:nodetypes="ccc"
           inkscape:connector-curvature="0"
           d="m 917.52643,90.004676 -135.2126,0 z"
           style="fill:none;stroke:#006400;stroke-opacity:1"
           id="path9019" />
        <path
           sodipodi:nodetypes="ccc"
           inkscape:connector-curvature="0"
           d="m 483.54218,168.02121 135.2126,0 z"
           style="fill:none;stroke:#006400;stroke-opacity:1"
           id="path9025" />
      </g>
    </g>
  </g>
</svg>
