<?xml version="1.0" encoding="UTF-8" standalone="no"?>
<!-- Created with Inkscape (http://www.inkscape.org/) -->

<svg
   xmlns:dc="http://purl.org/dc/elements/1.1/"
   xmlns:cc="http://creativecommons.org/ns#"
   xmlns:rdf="http://www.w3.org/1999/02/22-rdf-syntax-ns#"
   xmlns:svg="http://www.w3.org/2000/svg"
   xmlns="http://www.w3.org/2000/svg"
   xmlns:sodipodi="http://sodipodi.sourceforge.net/DTD/sodipodi-0.dtd"
   xmlns:inkscape="http://www.inkscape.org/namespaces/inkscape"
   width="400mm"
   height="400mm"
   viewBox="0 0 1417.3228 1417.3228"
   id="svg2"
   version="1.1"
   inkscape:version="0.91 r13725"
   sodipodi:docname="flopalitra.svg">
  <defs
     id="defs4" />
  <sodipodi:namedview
     id="base"
     pagecolor="#ffffff"
     bordercolor="#666666"
     borderopacity="1.0"
     inkscape:pageopacity="0.0"
     inkscape:pageshadow="2"
     inkscape:zoom="0.49497475"
     inkscape:cx="865.44369"
     inkscape:cy="783.55291"
     inkscape:document-units="px"
     inkscape:current-layer="g4177"
     showgrid="false"
     inkscape:window-width="1440"
     inkscape:window-height="851"
     inkscape:window-x="0"
     inkscape:window-y="1"
     inkscape:window-maximized="1" />
  <metadata
     id="metadata7">
    <rdf:RDF>
      <cc:Work
         rdf:about="">
        <dc:format>image/svg+xml</dc:format>
        <dc:type
           rdf:resource="http://purl.org/dc/dcmitype/StillImage" />
        <dc:title></dc:title>
      </cc:Work>
    </rdf:RDF>
  </metadata>
  <g
     inkscape:label="Layer 1"
     inkscape:groupmode="layer"
     id="layer1"
     transform="translate(0,364.96063)">
    <g
       id="g4177"
       transform="matrix(3.4093396,0,0,3.4093396,23.625557,-348.91077)"
       style="stroke:#ff0000;stroke-opacity:1">
      <path
         sodipodi:nodetypes="ssssscs"
         inkscape:connector-curvature="0"
         id="palitra"
         d="M 192.51432,2.5763469 C 353.23292,1.572754 413.49996,114.95255 394.66597,145.08697 c -18.83401,30.1344 -66.54682,-9.41699 -83.49742,21.34519 -7.90074,14.33838 13.8116,22.60081 -10e-6,43.94603 -14.06199,21.73214 -43.94599,37.66799 -130.5824,32.6456 C 107.49539,238.78664 3.4016469,194.84815 2.9187044,124.99737 2.3579933,43.89835 73.657437,3.3185386 192.51432,2.5763469 Z"
         style="fill:none;fill-rule:evenodd;stroke:#ff0000;stroke-width:0.87892014px;stroke-linecap:butt;stroke-linejoin:miter;stroke-opacity:1"
         inkscape:label="palitra" />
      <ellipse
         transform="scale(1,-1)"
         ry="19.461802"
         rx="31.390005"
         cy="-193.85921"
         cx="246.04082"
         id="dira"
         style="opacity:1;fill:none;fill-opacity:1;stroke:#00ff00;stroke-width:0.87892014;stroke-opacity:1"
         inkscape:label="#dira" />
      <g
         style="font-style:normal;font-weight:normal;font-size:medium;line-height:125%;font-family:sans-serif;letter-spacing:0px;word-spacing:0px;fill:#000000;fill-opacity:1;stroke:#0000ff;stroke-width:1px;stroke-linecap:butt;stroke-linejoin:miter;stroke-opacity:1"
         inkscape:label="text"
         id="text"
         transform="translate(-5.866238,-5.866238)">
        <path
           id="path4157"
           style="font-style:normal;font-variant:normal;font-weight:normal;font-stretch:normal;font-size:37.5px;font-family:'Savoye LET';-inkscape-font-specification:'Savoye LET';stroke:#0000ff;stroke-opacity:1"
           d="m 199.03485,191.36859 -0.36099,1.75775 -0.58405,-0.2508 0.36468,-1.77568 -7.52774,-3.30309 q -1.86664,-0.83197 -2.94041,-1.51981 -1.07376,-0.68784 -1.78784,-1.48873 -1.74588,-1.96613 -1.27438,-4.26196 0.15839,-0.77126 0.54211,-1.36539 l 1.49958,0.98091 q -1.15177,0.51117 -1.38015,1.62321 -0.17312,0.843 0.38001,1.51738 0.53888,0.65276 1.96816,1.33884 l 10.80797,5.07962 0.59306,-2.88773 0.58404,0.25079 -0.59673,2.90567 9.68311,4.54952 q 1.94528,0.9042 2.85761,1.55889 0.90866,0.67262 1.60752,1.63862 1.26577,1.75537 0.91583,3.45931 -0.16945,0.82506 -0.58903,1.41183 l -1.11092,-1.14409 q 0.76454,-0.62808 0.94504,-1.50695 0.27258,-1.32728 -0.99015,-2.27824 -0.94084,-0.69792 -3.23379,-1.72961 l -10.37254,-4.56026 z"
           inkscape:connector-curvature="0" />
        <path
           id="path4159"
           style="font-style:normal;font-variant:normal;font-weight:normal;font-stretch:normal;font-size:37.5px;font-family:'Savoye LET';-inkscape-font-specification:'Savoye LET';stroke:#0000ff;stroke-opacity:1"
           d="m 190.71606,170.45842 15.63913,14.97757 0.52801,0.50825 q 0.74173,0.7216 1.3387,1.07905 0.48699,0.29161 0.90466,0.30694 0.41136,-0.01 0.57127,-0.27685 0.29161,-0.48699 -0.23124,-2.25134 l 0.37045,-0.11966 0.0787,0.26057 q 0.51636,1.5257 0.63941,2.17561 0.10733,0.64052 -0.10902,1.00184 -0.2822,0.47128 -1.01697,0.52218 -0.74108,0.0258 -1.41659,-0.37871 -0.47128,-0.2822 -1.37011,-1.09786 l -16.11295,-14.57834 0.18652,-2.12925 z"
           inkscape:connector-curvature="0" />
        <path
           id="path4161"
           style="font-style:normal;font-variant:normal;font-weight:normal;font-stretch:normal;font-size:37.5px;font-family:'Savoye LET';-inkscape-font-specification:'Savoye LET';stroke:#0000ff;stroke-opacity:1"
           d="m 209.54278,181.88606 q -1.05488,-1.26608 -1.42281,-3.08069 -0.36558,-1.84041 0.0612,-3.5307 0.42682,-1.6903 1.55222,-2.62798 1.18167,-0.98456 2.55549,-0.79455 1.37617,0.16422 2.40761,1.40216 1.12522,1.35048 1.50487,3.17917 0.39371,1.81696 -0.0237,3.54711 -0.4151,1.70436 -1.52643,2.63032 -1.19574,0.99629 -2.59535,0.80393 -1.41132,-0.20643 -2.5131,-1.52877 z m 3.44228,-8.11143 q -0.70326,-0.84405 -1.5824,-1.04106 -0.86508,-0.20872 -1.51218,0.33044 -0.59084,0.49229 -0.82301,1.32923 -0.21809,0.82522 -0.0588,1.9318 0.19683,1.266 0.79688,2.67271 0.61413,1.39498 1.34083,2.26717 0.86735,1.04099 1.74415,1.26378 0.8768,0.2228 1.63644,-0.41014 1.22388,-1.01972 0.73409,-3.49548 -0.2484,-1.27069 -0.86957,-2.58831 -0.62116,-1.31762 -1.40647,-2.26014 z"
           inkscape:connector-curvature="0" />
        <path
           id="path4163"
           style="font-style:normal;font-variant:normal;font-weight:normal;font-stretch:normal;font-size:37.5px;font-family:'Savoye LET';-inkscape-font-specification:'Savoye LET';stroke:#0000ff;stroke-opacity:1"
           d="m 221.92541,184.69567 -3.42115,-17.23812 1.33476,-1.36819 0.90216,5.31629 q 0.20342,-3.03942 0.84532,-4.59539 0.65177,-1.57991 1.97049,-2.12836 1.0144,-0.42188 1.91551,0.0759 0.90112,0.49779 1.44253,1.79961 0.54845,1.31872 0.58401,2.93007 0.0525,1.60432 -0.44012,3.13786 -0.8695,2.82066 -2.96593,3.69255 -1.31872,0.54844 -2.45234,0.20684 l 1.19773,7.79122 -0.91297,0.3797 z m -0.49523,-9.39223 q 1.28666,1.09103 2.57156,0.55664 1.85974,-0.77345 1.98747,-4.37632 0.12023,-2.90566 -0.56884,-4.56252 -0.37266,-0.89605 -0.91471,-1.24572 -0.54204,-0.34966 -1.16759,-0.0895 -1.0144,0.42188 -1.57476,2.22158 -0.51668,1.76169 -0.58556,3.69412 -0.0202,0.76198 0.0285,1.59444 0.0657,0.82543 0.16228,1.67764 l 0.0616,0.52964 z"
           inkscape:connector-curvature="0" />
        <path
           id="path4165"
           style="font-style:normal;font-variant:normal;font-weight:normal;font-stretch:normal;font-size:37.5px;font-family:'Savoye LET';-inkscape-font-specification:'Savoye LET';stroke:#0000ff;stroke-opacity:1"
           d="m 239.57617,160.43461 -0.52776,6.899 q -0.0791,1.12968 0.0293,1.74272 0.0957,0.54092 0.40022,0.89614 0.30456,0.35522 0.64714,0.29464 0.52289,-0.0925 1.50454,-1.58632 l 0.29707,0.20779 -0.15688,0.26948 q -0.76111,1.26888 -1.20428,1.81213 -0.42832,0.52202 -0.80697,0.58899 -0.57698,0.10204 -1.11495,-0.41644 -0.52313,-0.5397 -0.66344,-1.33305 -0.10204,-0.57699 -0.0297,-2.69099 l 0.0231,-0.71068 q -0.39289,1.66863 -1.25888,3.29077 -1.45426,2.7117 -3.16718,3.01464 -1.02776,0.18177 -1.75351,-0.45226 -0.72576,-0.63403 -0.94579,-1.87815 -0.29976,-1.69489 0.32742,-3.72106 0.6452,-2.02937 1.85917,-3.47132 1.2288,-1.46317 2.58111,-1.70233 1.42442,-0.25192 2.31258,0.6695 l 0.0772,-0.72025 1.57052,-1.00295 z m -1.66536,2.67465 q -0.33754,-0.6469 -0.9274,-0.93307 -0.57502,-0.30739 -1.24215,-0.1894 -0.79336,0.14031 -1.54612,1.03583 -0.75595,0.87748 -1.26561,2.30644 -0.39522,1.12979 -0.57186,2.44407 -0.15862,1.31108 -0.0151,2.12247 0.16264,0.91956 0.5977,1.38187 0.45309,0.45911 1.10219,0.34431 0.82942,-0.14669 1.59383,-1.08145 0.76442,-0.93477 1.39281,-2.53348 0.39424,-0.92508 0.55407,-1.8087 0.15984,-0.88363 0.277,-2.42911 l 0.0507,-0.65978 z"
           inkscape:connector-curvature="0" />
        <path
           id="path4167"
           style="font-style:normal;font-variant:normal;font-weight:normal;font-stretch:normal;font-size:37.5px;font-family:'Savoye LET';-inkscape-font-specification:'Savoye LET';stroke:#0000ff;stroke-opacity:1"
           d="m 249.21329,144.88609 -3.97942,21.28554 -0.13651,0.72005 q -0.19814,1.01569 -0.1707,1.71094 0.0224,0.56719 0.23808,0.92517 0.23328,0.33897 0.54431,0.32669 0.56719,-0.0224 1.75791,-1.4254 l 0.30285,0.24459 -0.17502,0.20848 q -0.99452,1.26701 -1.47119,1.72562 -0.47739,0.44031 -0.89821,0.45691 -0.54888,0.0217 -0.99353,-0.56551 -0.42707,-0.60619 -0.45811,-1.39293 -0.0217,-0.54889 0.16926,-1.74753 l 3.38599,-21.46369 1.88429,-1.00893 z"
           inkscape:connector-curvature="0" />
        <path
           id="path4169"
           style="font-style:normal;font-variant:normal;font-weight:normal;font-stretch:normal;font-size:37.5px;font-family:'Savoye LET';-inkscape-font-specification:'Savoye LET';stroke:#0000ff;stroke-opacity:1"
           d="m 253.67722,152.97213 q 0.47571,0.0186 0.75702,0.32278 0.28131,0.30418 0.26272,0.77989 -0.0179,0.45742 -0.34107,0.75631 -0.3232,0.29888 -0.76232,0.28172 -0.42082,-0.0164 -0.73729,-0.35865 -0.31647,-0.34221 -0.30002,-0.76303 0.0172,-0.43911 0.34035,-0.738 0.3232,-0.29889 0.78061,-0.28102 z m -0.81086,7.15153 -1.84532,5.95666 q -0.46043,1.4663 -0.49547,2.36283 -0.0229,0.58549 0.16409,0.95929 0.18696,0.37379 0.5163,0.38666 0.5672,0.0222 1.86427,-1.28317 l 0.28274,0.26759 -0.19083,0.19412 q -1.09081,1.18512 -1.60198,1.60493 -0.51045,0.40152 -0.93127,0.38507 -0.56719,-0.0222 -0.94756,-0.60508 -0.36135,-0.60051 -0.32774,-1.46045 0.0215,-0.54889 0.28748,-1.72959 l 1.40291,-6.35876 1.82238,-0.6801 z"
           inkscape:connector-curvature="0" />
        <path
           id="path4171"
           style="font-style:normal;font-variant:normal;font-weight:normal;font-stretch:normal;font-size:37.5px;font-family:'Savoye LET';-inkscape-font-specification:'Savoye LET';stroke:#0000ff;stroke-opacity:1"
           d="m 258.95394,161.5753 -2.17216,5.86487 q -0.34874,0.96999 -0.40346,1.38756 -0.0857,0.65359 0.17063,1.09346 0.25629,0.43986 0.76464,0.50649 0.49019,0.0642 0.9253,-0.15574 0.45564,-0.23575 1.40738,-1.01591 l 0.24641,-0.18931 0.23664,0.30802 q -1.24248,1.1668 -2.04008,1.61628 -0.77706,0.4337 -1.46696,0.34328 -0.87145,-0.11421 -1.32419,-0.74603 -0.43221,-0.6476 -0.31085,-1.57352 0.0904,-0.6899 0.53407,-1.96138 l 1.9439,-5.67319 -1.74291,-0.22842 0.20799,-0.60063 1.74291,0.22843 1.65915,-4.76868 1.83332,-0.46147 -2.00374,5.42527 2.94115,0.38547 -0.20798,0.60062 -2.94116,-0.38547 z"
           inkscape:connector-curvature="0" />
        <path
           id="path4173"
           style="font-style:normal;font-variant:normal;font-weight:normal;font-stretch:normal;font-size:37.5px;font-family:'Savoye LET';-inkscape-font-specification:'Savoye LET';stroke:#0000ff;stroke-opacity:1"
           d="m 262.29302,166.55551 q 1.99877,-1.45292 2.92288,-2.91707 -1.23168,-1.16689 -0.84922,-2.65667 0.18212,-0.70942 0.63292,-1.06629 0.4508,-0.35688 0.96513,-0.22484 0.53206,0.13659 0.74155,0.7197 0.21404,0.56536 0.0137,1.34572 -0.14114,0.5498 -0.50925,1.17366 0.44698,0.24708 0.83716,0.34725 1.0996,0.28229 1.97293,-0.17406 l 0.8513,0.21855 -0.18789,0.21643 q -1.87797,2.01325 -3.29433,4.06939 -1.39407,2.04295 -1.68092,3.16028 -0.10472,0.40792 0.0353,0.74632 0.14453,0.32067 0.44603,0.39807 0.72716,0.18668 2.7372,-0.94197 l 0.20181,0.39209 q -0.63774,0.42231 -1.89357,0.96951 -1.13121,0.50357 -1.94704,0.29413 -0.69168,-0.17757 -0.98121,-0.74342 -0.2718,-0.56129 -0.0669,-1.35938 0.34148,-1.33016 1.89374,-3.10565 0.56823,-0.66701 1.40392,-1.4922 0.83569,-0.8252 2.0685,-1.94544 l 0.2411,-0.20276 q -0.72186,0.38181 -1.33085,0.47122 -0.5867,0.0762 -1.27838,-0.10134 -0.31924,-0.082 -0.65118,-0.26169 -1.01374,1.59237 -3.04798,3.03618 l -0.24639,-0.36572 z m 3.58624,-3.88102 q 0.18477,-0.42518 0.26217,-0.72668 0.15936,-0.62074 0.0376,-1.03009 -0.10403,-0.40479 -0.42327,-0.48674 -0.17735,-0.0455 -0.36476,0.0954 -0.16513,0.12775 -0.22887,0.37605 -0.214,0.83356 0.71713,1.77207 z"
           inkscape:connector-curvature="0" />
        <path
           id="path4175"
           style="font-style:normal;font-variant:normal;font-weight:normal;font-stretch:normal;font-size:37.5px;font-family:'Savoye LET';-inkscape-font-specification:'Savoye LET';stroke:#0000ff;stroke-opacity:1"
           d="m 283.05058,168.04281 -4.47333,5.27864 q -0.72658,0.86863 -0.99827,1.42877 -0.23973,0.49425 -0.20136,0.96058 0.0384,0.46633 0.3514,0.61815 0.47777,0.23174 2.14894,-0.40258 l 0.11877,0.34252 -0.2851,0.12628 q -1.36062,0.58144 -2.03816,0.76157 -0.65308,0.17165 -0.99905,0.004 -0.5272,-0.25571 -0.65889,-0.99116 -0.10723,-0.74394 0.24437,-1.46883 0.25571,-0.5272 1.55409,-2.19707 l 0.43545,-0.56212 q -1.29679,1.12117 -2.94952,1.92725 -2.76819,1.34362 -4.3333,0.58448 -0.93907,-0.45549 -1.15511,-1.39466 -0.21604,-0.93917 0.33534,-2.07593 0.75115,-1.54864 2.44739,-2.82203 1.71271,-1.2654 3.54162,-1.72145 1.85338,-0.46454 3.089,0.13478 1.30151,0.63129 1.48056,1.89848 l 0.48488,-0.53815 1.86028,0.10864 z m -2.91745,1.18982 q 0.10596,-0.72194 -0.204,-1.29965 -0.2855,-0.58619 -0.89507,-0.88186 -0.72489,-0.3516 -1.85979,-0.0677 -1.12691,0.26744 -2.37772,1.126 -0.98268,0.68335 -1.89651,1.64432 -0.89734,0.96895 -1.25694,1.71032 -0.40754,0.84022 -0.32625,1.46982 0.0978,0.63759 0.69085,0.92526 0.75784,0.36758 1.9252,0.0587 1.16735,-0.30887 2.6139,-1.2353 0.86183,-0.51811 1.50948,-1.14011 0.64766,-0.622 1.64889,-1.80512 l 0.42796,-0.5047 z"
           inkscape:connector-curvature="0" />
      </g>
    </g>
  </g>
</svg>
