<?xml version="1.0" encoding="UTF-8" standalone="no"?>
<!-- Created with Inkscape (http://www.inkscape.org/) -->

<svg
   xmlns:dc="http://purl.org/dc/elements/1.1/"
   xmlns:cc="http://creativecommons.org/ns#"
   xmlns:rdf="http://www.w3.org/1999/02/22-rdf-syntax-ns#"
   xmlns:svg="http://www.w3.org/2000/svg"
   xmlns="http://www.w3.org/2000/svg"
   xmlns:sodipodi="http://sodipodi.sourceforge.net/DTD/sodipodi-0.dtd"
   xmlns:inkscape="http://www.inkscape.org/namespaces/inkscape"
   width="400mm"
   height="400mm"
   viewBox="0 0 1417.3228 1417.3228"
   id="svg2"
   version="1.1"
   inkscape:version="0.91 r13725"
   sodipodi:docname="khanuka.svg">
  <defs
     id="defs4" />
  <sodipodi:namedview
     id="base"
     pagecolor="#ffffff"
     bordercolor="#666666"
     borderopacity="1.0"
     inkscape:pageopacity="0.0"
     inkscape:pageshadow="2"
     inkscape:zoom="0.47742529"
     inkscape:cx="1039.3251"
     inkscape:cy="605.951"
     inkscape:document-units="px"
     inkscape:current-layer="layer1"
     showgrid="false"
     inkscape:window-width="1920"
     inkscape:window-height="1031"
     inkscape:window-x="1440"
     inkscape:window-y="1"
     inkscape:window-maximized="1" />
  <metadata
     id="metadata7">
    <rdf:RDF>
      <cc:Work
         rdf:about="">
        <dc:format>image/svg+xml</dc:format>
        <dc:type
           rdf:resource="http://purl.org/dc/dcmitype/StillImage" />
        <dc:title />
      </cc:Work>
    </rdf:RDF>
  </metadata>
  <g
     inkscape:label="Layer 1"
     inkscape:groupmode="layer"
     id="layer1"
     transform="translate(0,364.96063)">
    <g
       id="g4408">
      <path
         id="rect4154"
         d="m 329.52903,-297.63901 0,42.51953 -3.54492,0 c -3.92599,0 -7.08594,3.15996 -7.08594,7.08594 l 0,14.17382 c 0,3.92598 3.15995,7.08595 7.08594,7.08595 l 3.54492,0 0,103.95703 a 70.866142,70.866142 0 0 1 -53.14844,-68.52148 l 3.54102,0 c 3.92598,0 7.08789,-3.15996 7.08789,-7.08594 l 0,-14.17383 c 0,-3.92598 -3.16191,-7.08593 -7.08789,-7.08593 l -3.54297,0 0,-42.51954 -35.43164,0 0,42.51954 -3.54492,0 c -3.92599,0 -7.08594,3.15995 -7.08594,7.08593 l 0,14.17383 c 0,3.92598 3.15995,7.08594 7.08594,7.08594 l 3.54492,0 a 106.29921,106.29921 0 0 0 88.58203,104.792973 l 0,35.68944 A 141.73228,141.73228 0 0 1 205.51341,-191.33822 l 3.54101,0 c 3.92598,0 7.08789,-3.15996 7.08789,-7.08594 l 0,-14.17383 c 0,-3.92598 -3.16191,-7.08593 -7.08789,-7.08593 l -3.54297,0 0,-42.51954 -35.43164,0 0,42.51954 -3.54492,0 c -3.92599,0 -7.08594,3.15995 -7.08594,7.08593 l 0,14.17383 c 0,3.92598 3.15995,7.08594 7.08594,7.08594 l 3.54492,0 a 177.16536,177.16536 0 0 0 159.44922,176.091798 l 0,35.61914 A 212.59842,212.59842 0 0 1 134.64817,-191.33822 l 3.54102,0 c 3.92598,0 7.08789,-3.15996 7.08789,-7.08594 l 0,-14.17383 c 0,-3.92598 -3.16191,-7.08593 -7.08789,-7.08593 l -3.54297,0 0,-42.51954 -35.43164,0 0,42.51954 -3.544922,0 c -3.92599,0 -7.085937,3.15995 -7.085937,7.08593 l 0,14.17383 c 0,3.92598 3.159947,7.08594 7.085937,7.08594 l 3.544922,0 A 248.03149,248.03149 0 0 0 329.52903,56.048497 l 0,35.189451 A 283.46457,283.46457 0 0 1 63.779033,-191.33822 l 3.542969,0 c 3.92598,0 7.087891,-3.15996 7.087891,-7.08594 l 0,-14.17383 c 0,-3.92598 -3.161911,-7.08593 -7.087891,-7.08593 l -3.542969,0 0,-42.51954 -35.431641,0 0,42.51954 -3.544921,0 c -3.925991,0 -7.085938,3.15995 -7.085938,7.08593 l 0,14.17383 c 0,3.92598 3.159947,7.08594 7.085938,7.08594 l 3.544921,0 A 318.89764,318.89764 0 0 0 329.52903,126.93131 l 0,142.35938 -3.54492,0 c -3.92599,0 -7.08594,3.15995 -7.08594,7.08593 l 0,35.78907 10.63086,0 0,13.81836 35.43164,0 0,-13.81836 10.63086,0 0,-35.78907 c 0,-3.92598 -3.15995,-7.08593 -7.08594,-7.08593 l -3.54296,0 0,-142.61914 a 318.89764,318.89764 0 0 0 301.18164,-318.00977 l 3.54101,0 c 3.92598,0 7.08789,-3.15996 7.08789,-7.08594 l 0,-14.17383 c 0,-3.92598 -3.16191,-7.08593 -7.08789,-7.08593 l -3.54297,0 0,-42.51954 -35.43164,0 0,42.51954 -3.54492,0 c -3.92599,0 -7.08594,3.15995 -7.08594,7.08593 l 0,14.17383 c 0,3.92598 3.15995,7.08594 7.08594,7.08594 l 3.54297,0 A 283.46457,283.46457 0 0 1 364.96263,91.495758 l 0,-35.691401 A 248.03149,248.03149 0 0 0 595.27708,-191.33822 l 3.54101,0 c 3.92598,0 7.08789,-3.15996 7.08789,-7.08594 l 0,-14.17383 c 0,-3.92598 -3.16191,-7.08593 -7.08789,-7.08593 l -3.54296,0 0,-42.51954 -35.43165,0 0,42.51954 -3.54492,0 c -3.92599,0 -7.08594,3.15995 -7.08593,7.08593 l 0,14.17383 c 0,3.92598 3.15994,7.08594 7.08593,7.08594 l 3.54492,0 0.004,0 A 212.59842,212.59842 0 0 1 364.96263,20.402008 l 0,-35.46484 A 177.16536,177.16536 0 0 0 524.41184,-191.33822 l 3.54297,0 c 3.92598,0 7.08789,-3.15996 7.08789,-7.08594 l 0,-14.17383 c 0,-3.92598 -3.16191,-7.08593 -7.08789,-7.08593 l -3.54297,0 0,-42.51954 -35.43164,0 0,42.51954 -3.54492,0 c -3.92599,0 -7.08594,3.15995 -7.08594,7.08593 l 0,14.17383 c 0,3.92598 3.15995,7.08594 7.08594,7.08594 l 3.54297,0 A 141.73228,141.73228 0 0 1 364.96263,-50.896817 l 0,-35.74999 a 106.29921,106.29921 0 0 0 88.58203,-104.691413 l 3.54297,0 c 3.92597,0 7.08792,-3.15996 7.08789,-7.08594 l 0,-14.17383 c 0,-3.92598 -3.16192,-7.08593 -7.08789,-7.08593 l -3.54297,0 0,-42.51954 -35.43164,0 0,42.51954 -3.54493,0 c -3.92599,0 -7.08593,3.15995 -7.08593,7.08593 l 0,14.17383 c 0,3.92598 3.15994,7.08594 7.08593,7.08594 l 3.54493,0 a 70.866142,70.866142 0 0 1 -53.15039,68.55859 l 0,-103.99414 3.54101,0 c 3.92598,0 7.08789,-3.15997 7.08789,-7.08595 l 0,-14.17382 c 0,-3.92598 -3.16191,-7.08594 -7.08789,-7.08594 l -3.54101,0 0,-42.51953 -0.002,0 -35.43164,0 z"
         style="opacity:1;fill:#a2244e;fill-opacity:0.16666667;stroke:#2b336d;stroke-width:0.56637627;stroke-miterlimit:4;stroke-dasharray:none;stroke-opacity:0.84803922" />
      <path
         id="path4221"
         transform="translate(0,-364.96063)"
         d="M 683.01953 300.35938 A 132.98546 73.833543 45 0 0 649.10938 313.81055 A 132.98546 73.833543 45 0 0 690.93555 460.05469 A 132.98546 73.833543 45 0 0 837.17969 501.87891 A 132.98546 73.833543 45 0 0 795.34961 355.63672 A 132.98546 73.833543 45 0 0 683.01953 300.35938 z M 740.63867 385.29688 L 765.69336 410.35156 L 745.65039 430.39648 L 720.59375 405.33984 L 740.63867 385.29688 z "
         style="opacity:1;fill:#a2244e;fill-opacity:0.16666667;stroke:#2b336d;stroke-width:0.57063723;stroke-miterlimit:4;stroke-dasharray:none;stroke-opacity:0.84803922" />
      <path
         id="path4138"
         transform="translate(0,-364.96063)"
         d="M 633.54883 465.13086 A 85.353678 170.70736 60 0 0 505.29102 504.11523 A 85.353678 170.70736 60 0 0 400.13086 663.38672 A 85.353678 170.70736 60 0 0 590.64453 651.95117 A 85.353678 170.70736 60 0 0 695.80664 492.67773 A 85.353678 170.70736 60 0 0 633.54883 465.13086 z M 604.7207 492.07812 L 650.7832 571.86133 L 491.2168 663.98633 L 445.1543 584.20312 L 604.7207 492.07812 z "
         style="opacity:1;fill:#a2244e;fill-opacity:0.16666667;stroke:#2b336d;stroke-width:0.40000001;stroke-miterlimit:4;stroke-dasharray:none;stroke-opacity:0.84803922" />
      <path
         id="path4198"
         transform="translate(0,-364.96063)"
         d="M 72.472656 421.03516 A 170.70736 85.353678 45 0 0 31.964844 435.2793 A 170.70736 85.353678 45 0 0 92.318359 616.3418 A 170.70736 85.353678 45 0 0 273.38086 676.69727 A 170.70736 85.353678 45 0 0 213.02539 495.63281 A 170.70736 85.353678 45 0 0 72.472656 421.03516 z M 120.10156 458.27344 L 250.38672 588.56055 L 185.24414 653.70312 L 54.958984 523.41602 L 120.10156 458.27344 z "
         style="opacity:1;fill:#a2244e;fill-opacity:0.16666667;stroke:#2b336d;stroke-width:0.40000001;stroke-miterlimit:4;stroke-dasharray:none;stroke-opacity:0.84803922" />
      <path
         id="path4200"
         transform="translate(0,-364.96063)"
         d="M 1344.9805 421.12109 A 85.353678 170.70736 45 0 0 1207.6289 495.63477 A 85.353678 170.70736 45 0 0 1147.2734 676.69727 A 85.353678 170.70736 45 0 0 1328.3359 616.34375 A 85.353678 170.70736 45 0 0 1388.6914 435.2793 A 85.353678 170.70736 45 0 0 1344.9805 421.12109 z M 1300.5547 458.27539 L 1365.6973 523.41602 L 1235.4121 653.70312 L 1170.2695 588.56055 L 1300.5547 458.27539 z "
         style="opacity:1;fill:#a2244e;fill-opacity:0.16666667;stroke:#2b336d;stroke-width:0.40000001;stroke-miterlimit:4;stroke-dasharray:none;stroke-opacity:0.84803922" />
      <path
         id="path4204"
         transform="translate(0,-364.96063)"
         d="M 1055.6973 67.322266 L 1055.6973 109.8418 L 1052.1562 109.8418 C 1048.2303 109.8418 1045.0684 113.00173 1045.0684 116.92773 L 1045.0684 131.10156 C 1045.0684 135.02756 1048.2303 138.1875 1052.1562 138.1875 L 1055.6973 138.1875 L 1055.6973 242.18164 A 70.86615 70.86615 0 0 1 1002.5469 173.62305 L 1006.0918 173.62305 C 1010.0178 173.62305 1013.1777 170.46311 1013.1777 166.53711 L 1013.1777 152.36328 C 1013.1777 148.43728 1010.0178 145.27734 1006.0918 145.27734 L 1002.5469 145.27734 L 1002.5469 102.75781 L 967.11523 102.75781 L 967.11523 145.27734 L 963.57227 145.27734 C 959.64627 145.27734 956.48438 148.43728 956.48438 152.36328 L 956.48438 166.53711 C 956.48427 170.46311 959.64627 173.62305 963.57227 173.62305 L 967.11523 173.62305 A 106.29922 106.29922 0 0 0 1055.6973 278.31445 L 1055.6973 314.06445 A 141.7323 141.7323 0 0 1 931.68164 173.62305 L 935.22461 173.62305 C 939.15061 173.62305 942.31055 170.46311 942.31055 166.53711 L 942.31055 152.36328 C 942.31055 148.43728 939.15061 145.27734 935.22461 145.27734 L 931.67969 145.27734 L 931.67969 102.75781 L 896.24805 102.75781 L 896.24805 145.27734 L 892.70508 145.27734 C 888.77908 145.27734 885.61719 148.43728 885.61719 152.36328 L 885.61719 166.53711 C 885.61719 170.46311 888.77908 173.62305 892.70508 173.62305 L 896.24805 173.62305 A 177.16538 177.16538 0 0 0 1055.6973 349.89844 L 1055.6973 385.36328 A 212.59845 212.59845 0 0 1 860.8125 173.62305 L 864.35742 173.62305 C 868.28342 173.62305 871.44336 170.46311 871.44336 166.53711 L 871.44336 152.36328 C 871.44336 148.43728 868.28342 145.27734 864.35742 145.27734 L 860.8125 145.27734 L 860.8125 102.75781 L 825.38086 102.75781 L 825.38086 145.27734 L 821.83789 145.27734 C 817.91189 145.27734 814.75 148.43728 814.75 152.36328 L 814.75 166.53711 C 814.75 170.46311 817.91189 173.62305 821.83789 173.62305 L 825.37891 173.62305 A 248.03152 248.03152 0 0 0 1055.6934 420.76562 L 1055.6934 456.45703 A 283.4646 283.4646 0 0 1 789.94727 173.62305 L 793.49023 173.62305 C 797.41623 173.62305 800.57617 170.46311 800.57617 166.53711 L 800.57617 152.36328 C 800.57617 148.43728 797.41623 145.27734 793.49023 145.27734 L 789.94531 145.27734 L 789.94531 102.75781 L 754.51367 102.75781 L 754.51367 145.27734 L 750.9707 145.27734 C 747.0447 145.27734 743.88281 148.43728 743.88281 152.36328 L 743.88281 166.53711 C 743.88281 170.46311 747.0447 173.62305 750.9707 173.62305 L 754.51172 173.62305 A 318.89768 318.89768 0 0 0 1055.6934 491.63281 L 1055.6934 634.25195 L 1052.1504 634.25195 C 1048.2244 634.25195 1045.0645 637.41189 1045.0645 641.33789 L 1045.0645 677.12695 L 1055.6953 677.12695 L 1055.6953 690.94531 L 1091.127 690.94531 L 1091.127 677.12695 L 1101.7578 677.12695 L 1101.7578 641.33789 C 1101.7578 637.41189 1098.5979 634.25195 1094.6719 634.25195 L 1091.127 634.25195 L 1091.127 491.89258 A 318.89768 318.89768 0 0 0 1392.3086 173.62305 L 1395.8535 173.62305 C 1399.7795 173.62305 1402.9395 170.46311 1402.9395 166.53711 L 1402.9395 152.36328 C 1402.9395 148.43728 1399.7795 145.27734 1395.8535 145.27734 L 1392.3086 145.27734 L 1392.3086 102.75781 L 1356.877 102.75781 L 1356.877 145.27734 L 1353.334 145.27734 C 1349.408 145.27734 1346.2461 148.43728 1346.2461 152.36328 L 1346.2461 166.53711 C 1346.2461 170.46311 1349.408 173.62305 1353.334 173.62305 L 1356.877 173.62305 A 283.4646 283.4646 0 0 1 1091.127 456.19922 L 1091.127 421.00977 A 248.03152 248.03152 0 0 0 1321.4414 173.62305 L 1324.9863 173.62305 C 1328.9123 173.62305 1332.0723 170.46311 1332.0723 166.53711 L 1332.0723 152.36328 C 1332.0723 148.43728 1328.9123 145.27734 1324.9863 145.27734 L 1321.4414 145.27734 L 1321.4414 102.75781 L 1286.0098 102.75781 L 1286.0098 145.27734 L 1282.4668 145.27734 C 1278.5408 145.27734 1275.3789 148.43728 1275.3789 152.36328 L 1275.3789 166.53711 C 1275.3789 170.46311 1278.5408 173.62305 1282.4668 173.62305 L 1286.0078 173.62305 A 212.59845 212.59845 0 0 1 1091.127 385.33398 L 1091.127 349.71484 A 177.16538 177.16538 0 0 0 1250.5762 173.62305 L 1254.1211 173.62305 C 1258.0471 173.62305 1261.207 170.46311 1261.207 166.53711 L 1261.207 152.36328 C 1261.207 148.43728 1258.0471 145.27734 1254.1211 145.27734 L 1250.5762 145.27734 L 1250.5762 102.75781 L 1215.1445 102.75781 L 1215.1445 145.27734 L 1211.6016 145.27734 C 1207.6756 145.27734 1204.5137 148.43728 1204.5137 152.36328 L 1204.5137 166.53711 C 1204.5137 170.46311 1207.6756 173.62305 1211.6016 173.62305 L 1215.1426 173.62305 A 141.7323 141.7323 0 0 1 1091.127 314.10547 L 1091.127 278.41602 A 106.29922 106.29922 0 0 0 1179.709 173.62305 L 1183.2539 173.62305 C 1187.1799 173.62305 1190.3398 170.46311 1190.3398 166.53711 L 1190.3398 152.36328 C 1190.3398 148.43728 1187.1799 145.27734 1183.2539 145.27734 L 1179.709 145.27734 L 1179.709 102.75781 L 1144.2773 102.75781 L 1144.2773 145.27734 L 1140.7344 145.27734 C 1136.8084 145.27734 1133.6465 148.43728 1133.6465 152.36328 L 1133.6465 166.53711 C 1133.6465 170.46311 1136.8084 173.62305 1140.7344 173.62305 L 1144.2754 173.62305 A 70.86615 70.86615 0 0 1 1091.127 242.14453 L 1091.127 138.1875 L 1094.6719 138.1875 C 1098.5979 138.1875 1101.7578 135.02756 1101.7578 131.10156 L 1101.7578 116.92773 C 1101.7578 113.00173 1098.5979 109.8418 1094.6719 109.8418 L 1091.127 109.8418 L 1091.127 67.322266 L 1055.6973 67.322266 z "
         style="opacity:1;fill:#a2244e;fill-opacity:0.16666667;stroke:#2b336d;stroke-width:0.56637627;stroke-miterlimit:4;stroke-dasharray:none;stroke-opacity:0.84803922" />
      <path
         id="path4206"
         transform="translate(0,-364.96063)"
         d="M 866.3418 520.23828 A 170.70736 85.353678 0 0 0 695.63477 605.5918 A 170.70736 85.353678 0 0 0 866.3418 690.94531 A 170.70736 85.353678 0 0 0 1037.0508 605.5918 A 170.70736 85.353678 0 0 0 866.3418 520.23828 z M 774.2168 559.5293 L 958.46875 559.5293 L 958.46875 651.6543 L 774.2168 651.6543 L 774.2168 559.5293 z "
         style="opacity:1;fill:#a2244e;fill-opacity:0.16666667;stroke:#2b336d;stroke-width:0.40000001;stroke-miterlimit:4;stroke-dasharray:none;stroke-opacity:0.84803922" />
      <path
         id="path4234"
         transform="translate(0,-364.96063)"
         d="M 710.43164 44.802734 A 31.889767 31.889767 0 0 0 678.54297 76.693359 A 31.889767 31.889767 0 0 0 710.43164 108.58203 A 31.889767 31.889767 0 0 0 742.32227 76.693359 A 31.889767 31.889767 0 0 0 710.43164 44.802734 z M 692.71484 62.519531 L 728.14844 62.519531 L 728.14844 90.867188 L 692.71484 90.867188 L 692.71484 62.519531 z "
         style="opacity:1;fill:#a2244e;fill-opacity:0.16666667;stroke:#2b336d;stroke-width:0.28708494;stroke-miterlimit:4;stroke-dasharray:none;stroke-opacity:0.84803922" />
      <path
         id="path4241"
         transform="translate(0,-364.96063)"
         d="M 60.234375 14.173828 A 31.889767 31.889767 0 0 0 28.345703 46.064453 A 31.889767 31.889767 0 0 0 60.234375 77.953125 A 31.889767 31.889767 0 0 0 92.125 46.064453 A 31.889767 31.889767 0 0 0 60.234375 14.173828 z M 42.517578 31.890625 L 77.951172 31.890625 L 77.951172 60.238281 L 42.517578 60.238281 L 42.517578 31.890625 z "
         style="opacity:1;fill:#a2244e;fill-opacity:0.16666667;stroke:#2b336d;stroke-width:0.28708494;stroke-miterlimit:4;stroke-dasharray:none;stroke-opacity:0.84803922" />
      <path
         id="path4243"
         transform="translate(0,-364.96063)"
         d="M 131.10156 24.802734 A 31.889767 31.889767 0 0 0 99.212891 56.693359 A 31.889767 31.889767 0 0 0 131.10156 88.582031 A 31.889767 31.889767 0 0 0 162.99219 56.693359 A 31.889767 31.889767 0 0 0 131.10156 24.802734 z M 113.38477 42.519531 L 148.81836 42.519531 L 148.81836 70.867188 L 113.38477 70.867188 L 113.38477 42.519531 z "
         style="opacity:1;fill:#a2244e;fill-opacity:0.16666667;stroke:#2b336d;stroke-width:0.28708494;stroke-miterlimit:4;stroke-dasharray:none;stroke-opacity:0.84803922" />
      <path
         style="opacity:1;fill:#a2244e;fill-opacity:0.16666667;stroke:#2b336d;stroke-width:0.28708494;stroke-miterlimit:4;stroke-dasharray:none;stroke-opacity:0.84803922"
         d="m 201.9674,-350.78718 a 31.889763,31.889763 0 0 0 -31.88867,31.89062 31.889763,31.889763 0 0 0 31.88867,31.88867 31.889763,31.889763 0 0 0 31.89063,-31.88867 31.889763,31.889763 0 0 0 -31.89063,-31.89062 z m -17.71679,17.71679 35.43359,0 0,28.34766 -35.43359,0 0,-28.34766 z"
         id="path4251"
         inkscape:connector-curvature="0" />
      <path
         inkscape:connector-curvature="0"
         id="path4253"
         d="m 272.83353,-340.15726 a 31.889763,31.889763 0 0 0 -31.88867,31.89062 31.889763,31.889763 0 0 0 31.88867,31.88867 31.889763,31.889763 0 0 0 31.89063,-31.88867 31.889763,31.889763 0 0 0 -31.89063,-31.89062 z m -17.71679,17.71679 35.43359,0 0,28.34766 -35.43359,0 0,-28.34766 z"
         style="opacity:1;fill:#a2244e;fill-opacity:0.16666667;stroke:#2b336d;stroke-width:0.28708494;stroke-miterlimit:4;stroke-dasharray:none;stroke-opacity:0.84803922" />
      <path
         id="path4267"
         transform="translate(0,-364.96063)"
         d="M 634.25195 14.173828 A 31.889767 31.889767 0 0 0 602.36133 46.064453 A 31.889767 31.889767 0 0 0 634.25195 77.953125 A 31.889767 31.889767 0 0 0 666.14062 46.064453 A 31.889767 31.889767 0 0 0 634.25195 14.173828 z M 616.53516 31.890625 L 651.96875 31.890625 L 651.96875 60.238281 L 616.53516 60.238281 L 616.53516 31.890625 z "
         style="opacity:1;fill:#a2244e;fill-opacity:0.16666667;stroke:#2b336d;stroke-width:0.28708494;stroke-miterlimit:4;stroke-dasharray:none;stroke-opacity:0.84803922" />
      <path
         id="path4269"
         transform="translate(0,-364.96063)"
         d="M 563.38672 24.802734 A 31.889767 31.889767 0 0 0 531.49609 56.693359 A 31.889767 31.889767 0 0 0 563.38672 88.582031 A 31.889767 31.889767 0 0 0 595.27539 56.693359 A 31.889767 31.889767 0 0 0 563.38672 24.802734 z M 545.66992 42.519531 L 581.10352 42.519531 L 581.10352 70.867188 L 545.66992 70.867188 L 545.66992 42.519531 z "
         style="opacity:1;fill:#a2244e;fill-opacity:0.16666667;stroke:#2b336d;stroke-width:0.28708494;stroke-miterlimit:4;stroke-dasharray:none;stroke-opacity:0.84803922" />
      <path
         id="path4271"
         transform="translate(0,-364.96063)"
         d="M 492.52148 14.173828 A 31.889767 31.889767 0 0 0 460.63086 46.064453 A 31.889767 31.889767 0 0 0 492.52148 77.953125 A 31.889767 31.889767 0 0 0 524.41016 46.064453 A 31.889767 31.889767 0 0 0 492.52148 14.173828 z M 474.80469 31.890625 L 510.23828 31.890625 L 510.23828 60.238281 L 474.80469 60.238281 L 474.80469 31.890625 z "
         style="opacity:1;fill:#a2244e;fill-opacity:0.16666667;stroke:#2b336d;stroke-width:0.28708494;stroke-miterlimit:4;stroke-dasharray:none;stroke-opacity:0.84803922" />
      <path
         id="path4273"
         transform="translate(0,-364.96063)"
         d="M 421.6543 24.802734 A 31.889767 31.889767 0 0 0 389.76367 56.693359 A 31.889767 31.889767 0 0 0 421.6543 88.582031 A 31.889767 31.889767 0 0 0 453.54297 56.693359 A 31.889767 31.889767 0 0 0 421.6543 24.802734 z M 403.9375 42.519531 L 439.37109 42.519531 L 439.37109 70.867188 L 403.9375 70.867188 L 403.9375 42.519531 z "
         style="opacity:1;fill:#a2244e;fill-opacity:0.16666667;stroke:#2b336d;stroke-width:0.28708494;stroke-miterlimit:4;stroke-dasharray:none;stroke-opacity:0.84803922" />
      <path
         id="path4296"
         transform="translate(0,-364.96063)"
         d="M 710.43164 205.31055 A 31.889767 31.889767 0 0 0 678.54297 237.20117 A 31.889767 31.889767 0 0 0 710.43164 269.08984 A 31.889767 31.889767 0 0 0 742.32227 237.20117 A 31.889767 31.889767 0 0 0 710.43164 205.31055 z M 692.71484 223.02734 L 728.14844 223.02734 L 728.14844 251.375 L 692.71484 251.375 L 692.71484 223.02734 z "
         style="opacity:1;fill:#a2244e;fill-opacity:0.16666667;stroke:#2b336d;stroke-width:0.28708494;stroke-miterlimit:4;stroke-dasharray:none;stroke-opacity:0.84803922" />
      <path
         id="path4298"
         transform="translate(0,-364.96063)"
         d="M 783.07031 14.173828 A 31.889767 31.889767 0 0 0 751.18164 46.064453 A 31.889767 31.889767 0 0 0 783.07031 77.953125 A 31.889767 31.889767 0 0 0 814.96094 46.064453 A 31.889767 31.889767 0 0 0 783.07031 14.173828 z M 765.35352 31.890625 L 800.78711 31.890625 L 800.78711 60.238281 L 765.35352 60.238281 L 765.35352 31.890625 z "
         style="opacity:1;fill:#a2244e;fill-opacity:0.16666667;stroke:#2b336d;stroke-width:0.28708494;stroke-miterlimit:4;stroke-dasharray:none;stroke-opacity:0.84803922" />
      <path
         id="path4300"
         transform="translate(0,-364.96063)"
         d="M 853.93555 24.802734 A 31.889767 31.889767 0 0 0 822.04688 56.693359 A 31.889767 31.889767 0 0 0 853.93555 88.582031 A 31.889767 31.889767 0 0 0 885.82617 56.693359 A 31.889767 31.889767 0 0 0 853.93555 24.802734 z M 836.21875 42.519531 L 871.65234 42.519531 L 871.65234 70.867188 L 836.21875 70.867188 L 836.21875 42.519531 z "
         style="opacity:1;fill:#a2244e;fill-opacity:0.16666667;stroke:#2b336d;stroke-width:0.28708494;stroke-miterlimit:4;stroke-dasharray:none;stroke-opacity:0.84803922" />
      <path
         id="path4302"
         transform="translate(0,-364.96063)"
         d="M 924.80273 14.173828 A 31.889767 31.889767 0 0 0 892.91406 46.064453 A 31.889767 31.889767 0 0 0 924.80273 77.953125 A 31.889767 31.889767 0 0 0 956.69336 46.064453 A 31.889767 31.889767 0 0 0 924.80273 14.173828 z M 907.08594 31.890625 L 942.51953 31.890625 L 942.51953 60.238281 L 907.08594 60.238281 L 907.08594 31.890625 z "
         style="opacity:1;fill:#a2244e;fill-opacity:0.16666667;stroke:#2b336d;stroke-width:0.28708494;stroke-miterlimit:4;stroke-dasharray:none;stroke-opacity:0.84803922" />
      <path
         id="path4304"
         transform="translate(0,-364.96063)"
         d="M 995.66797 24.802734 A 31.889767 31.889767 0 0 0 963.7793 56.693359 A 31.889767 31.889767 0 0 0 995.66797 88.582031 A 31.889767 31.889767 0 0 0 1027.5586 56.693359 A 31.889767 31.889767 0 0 0 995.66797 24.802734 z M 977.95117 42.519531 L 1013.3848 42.519531 L 1013.3848 70.867188 L 977.95117 70.867188 L 977.95117 42.519531 z "
         style="opacity:1;fill:#a2244e;fill-opacity:0.16666667;stroke:#2b336d;stroke-width:0.28708494;stroke-miterlimit:4;stroke-dasharray:none;stroke-opacity:0.84803922" />
      <path
         id="path4306"
         transform="translate(0,-364.96063)"
         d="M 1357.0879 14.173828 A 31.889767 31.889767 0 0 0 1325.1973 46.064453 A 31.889767 31.889767 0 0 0 1357.0879 77.953125 A 31.889767 31.889767 0 0 0 1388.9766 46.064453 A 31.889767 31.889767 0 0 0 1357.0879 14.173828 z M 1339.3711 31.890625 L 1374.8047 31.890625 L 1374.8047 60.238281 L 1339.3711 60.238281 L 1339.3711 31.890625 z "
         style="opacity:1;fill:#a2244e;fill-opacity:0.16666667;stroke:#2b336d;stroke-width:0.28708494;stroke-miterlimit:4;stroke-dasharray:none;stroke-opacity:0.84803922" />
      <path
         id="path4308"
         transform="translate(0,-364.96063)"
         d="M 1286.2207 24.802734 A 31.889767 31.889767 0 0 0 1254.3301 56.693359 A 31.889767 31.889767 0 0 0 1286.2207 88.582031 A 31.889767 31.889767 0 0 0 1318.1094 56.693359 A 31.889767 31.889767 0 0 0 1286.2207 24.802734 z M 1268.5039 42.519531 L 1303.9375 42.519531 L 1303.9375 70.867188 L 1268.5039 70.867188 L 1268.5039 42.519531 z "
         style="opacity:1;fill:#a2244e;fill-opacity:0.16666667;stroke:#2b336d;stroke-width:0.28708494;stroke-miterlimit:4;stroke-dasharray:none;stroke-opacity:0.84803922" />
      <path
         id="path4310"
         transform="translate(0,-364.96063)"
         d="M 1215.3555 14.173828 A 31.889767 31.889767 0 0 0 1183.4648 46.064453 A 31.889767 31.889767 0 0 0 1215.3555 77.953125 A 31.889767 31.889767 0 0 0 1247.2441 46.064453 A 31.889767 31.889767 0 0 0 1215.3555 14.173828 z M 1197.6387 31.890625 L 1233.0723 31.890625 L 1233.0723 60.238281 L 1197.6387 60.238281 L 1197.6387 31.890625 z "
         style="opacity:1;fill:#a2244e;fill-opacity:0.16666667;stroke:#2b336d;stroke-width:0.28708494;stroke-miterlimit:4;stroke-dasharray:none;stroke-opacity:0.84803922" />
      <path
         id="path4312"
         transform="translate(0,-364.96063)"
         d="M 1144.4883 24.802734 A 31.889767 31.889767 0 0 0 1112.5977 56.693359 A 31.889767 31.889767 0 0 0 1144.4883 88.582031 A 31.889767 31.889767 0 0 0 1176.377 56.693359 A 31.889767 31.889767 0 0 0 1144.4883 24.802734 z M 1126.7715 42.519531 L 1162.2051 42.519531 L 1162.2051 70.867188 L 1126.7715 70.867188 L 1126.7715 42.519531 z "
         style="opacity:1;fill:#a2244e;fill-opacity:0.16666667;stroke:#2b336d;stroke-width:0.28708494;stroke-miterlimit:4;stroke-dasharray:none;stroke-opacity:0.84803922" />
    </g>
    <g
       id="g4435"
       transform="translate(1.417323,708.66082)">
      <path
         style="opacity:1;fill:#a2244e;fill-opacity:0.16666667;stroke:#2b336d;stroke-width:0.56637627;stroke-miterlimit:4;stroke-dasharray:none;stroke-opacity:0.84803922"
         d="m 329.52903,-297.63901 0,42.51953 -3.54492,0 c -3.92599,0 -7.08594,3.15996 -7.08594,7.08594 l 0,14.17382 c 0,3.92598 3.15995,7.08595 7.08594,7.08595 l 3.54492,0 0,103.95703 a 70.866142,70.866142 0 0 1 -53.14844,-68.52148 l 3.54102,0 c 3.92598,0 7.08789,-3.15996 7.08789,-7.08594 l 0,-14.17383 c 0,-3.92598 -3.16191,-7.08593 -7.08789,-7.08593 l -3.54297,0 0,-42.51954 -35.43164,0 0,42.51954 -3.54492,0 c -3.92599,0 -7.08594,3.15995 -7.08594,7.08593 l 0,14.17383 c 0,3.92598 3.15995,7.08594 7.08594,7.08594 l 3.54492,0 a 106.29921,106.29921 0 0 0 88.58203,104.792973 l 0,35.68944 A 141.73228,141.73228 0 0 1 205.51341,-191.33822 l 3.54101,0 c 3.92598,0 7.08789,-3.15996 7.08789,-7.08594 l 0,-14.17383 c 0,-3.92598 -3.16191,-7.08593 -7.08789,-7.08593 l -3.54297,0 0,-42.51954 -35.43164,0 0,42.51954 -3.54492,0 c -3.92599,0 -7.08594,3.15995 -7.08594,7.08593 l 0,14.17383 c 0,3.92598 3.15995,7.08594 7.08594,7.08594 l 3.54492,0 a 177.16536,177.16536 0 0 0 159.44922,176.091798 l 0,35.61914 A 212.59842,212.59842 0 0 1 134.64817,-191.33822 l 3.54102,0 c 3.92598,0 7.08789,-3.15996 7.08789,-7.08594 l 0,-14.17383 c 0,-3.92598 -3.16191,-7.08593 -7.08789,-7.08593 l -3.54297,0 0,-42.51954 -35.43164,0 0,42.51954 -3.544922,0 c -3.92599,0 -7.085937,3.15995 -7.085937,7.08593 l 0,14.17383 c 0,3.92598 3.159947,7.08594 7.085937,7.08594 l 3.544922,0 A 248.03149,248.03149 0 0 0 329.52903,56.048497 l 0,35.189451 A 283.46457,283.46457 0 0 1 63.779033,-191.33822 l 3.542969,0 c 3.92598,0 7.087891,-3.15996 7.087891,-7.08594 l 0,-14.17383 c 0,-3.92598 -3.161911,-7.08593 -7.087891,-7.08593 l -3.542969,0 0,-42.51954 -35.431641,0 0,42.51954 -3.544921,0 c -3.925991,0 -7.085938,3.15995 -7.085938,7.08593 l 0,14.17383 c 0,3.92598 3.159947,7.08594 7.085938,7.08594 l 3.544921,0 A 318.89764,318.89764 0 0 0 329.52903,126.93131 l 0,142.35938 -3.54492,0 c -3.92599,0 -7.08594,3.15995 -7.08594,7.08593 l 0,35.78907 10.63086,0 0,13.81836 35.43164,0 0,-13.81836 10.63086,0 0,-35.78907 c 0,-3.92598 -3.15995,-7.08593 -7.08594,-7.08593 l -3.54296,0 0,-142.61914 a 318.89764,318.89764 0 0 0 301.18164,-318.00977 l 3.54101,0 c 3.92598,0 7.08789,-3.15996 7.08789,-7.08594 l 0,-14.17383 c 0,-3.92598 -3.16191,-7.08593 -7.08789,-7.08593 l -3.54297,0 0,-42.51954 -35.43164,0 0,42.51954 -3.54492,0 c -3.92599,0 -7.08594,3.15995 -7.08594,7.08593 l 0,14.17383 c 0,3.92598 3.15995,7.08594 7.08594,7.08594 l 3.54297,0 A 283.46457,283.46457 0 0 1 364.96263,91.495758 l 0,-35.691401 A 248.03149,248.03149 0 0 0 595.27708,-191.33822 l 3.54101,0 c 3.92598,0 7.08789,-3.15996 7.08789,-7.08594 l 0,-14.17383 c 0,-3.92598 -3.16191,-7.08593 -7.08789,-7.08593 l -3.54296,0 0,-42.51954 -35.43165,0 0,42.51954 -3.54492,0 c -3.92599,0 -7.08594,3.15995 -7.08593,7.08593 l 0,14.17383 c 0,3.92598 3.15994,7.08594 7.08593,7.08594 l 3.54492,0 0.004,0 A 212.59842,212.59842 0 0 1 364.96263,20.402008 l 0,-35.46484 A 177.16536,177.16536 0 0 0 524.41184,-191.33822 l 3.54297,0 c 3.92598,0 7.08789,-3.15996 7.08789,-7.08594 l 0,-14.17383 c 0,-3.92598 -3.16191,-7.08593 -7.08789,-7.08593 l -3.54297,0 0,-42.51954 -35.43164,0 0,42.51954 -3.54492,0 c -3.92599,0 -7.08594,3.15995 -7.08594,7.08593 l 0,14.17383 c 0,3.92598 3.15995,7.08594 7.08594,7.08594 l 3.54297,0 A 141.73228,141.73228 0 0 1 364.96263,-50.896817 l 0,-35.74999 a 106.29921,106.29921 0 0 0 88.58203,-104.691413 l 3.54297,0 c 3.92597,0 7.08792,-3.15996 7.08789,-7.08594 l 0,-14.17383 c 0,-3.92598 -3.16192,-7.08593 -7.08789,-7.08593 l -3.54297,0 0,-42.51954 -35.43164,0 0,42.51954 -3.54493,0 c -3.92599,0 -7.08593,3.15995 -7.08593,7.08593 l 0,14.17383 c 0,3.92598 3.15994,7.08594 7.08593,7.08594 l 3.54493,0 a 70.866142,70.866142 0 0 1 -53.15039,68.55859 l 0,-103.99414 3.54101,0 c 3.92598,0 7.08789,-3.15997 7.08789,-7.08595 l 0,-14.17382 c 0,-3.92598 -3.16191,-7.08594 -7.08789,-7.08594 l -3.54101,0 0,-42.51953 -0.002,0 -35.43164,0 z"
         id="path4437"
         inkscape:connector-curvature="0" />
      <path
         style="opacity:1;fill:#a2244e;fill-opacity:0.16666667;stroke:#2b336d;stroke-width:0.57063723;stroke-miterlimit:4;stroke-dasharray:none;stroke-opacity:0.84803922"
         d="m 683.01953,300.35938 a 132.98546,73.833543 45 0 0 -33.91015,13.45117 132.98546,73.833543 45 0 0 41.82617,146.24414 132.98546,73.833543 45 0 0 146.24414,41.82422 132.98546,73.833543 45 0 0 -41.83008,-146.24219 132.98546,73.833543 45 0 0 -112.33008,-55.27734 z m 57.61914,84.9375 25.05469,25.05468 -20.04297,20.04492 -25.05664,-25.05664 20.04492,-20.04296 z"
         transform="translate(0,-364.96063)"
         id="path4439"
         inkscape:connector-curvature="0" />
      <path
         style="opacity:1;fill:#a2244e;fill-opacity:0.16666667;stroke:#2b336d;stroke-width:0.40000001;stroke-miterlimit:4;stroke-dasharray:none;stroke-opacity:0.84803922"
         d="M 633.54883,465.13086 A 85.353678,170.70736 60 0 0 505.29102,504.11523 85.353678,170.70736 60 0 0 400.13086,663.38672 85.353678,170.70736 60 0 0 590.64453,651.95117 85.353678,170.70736 60 0 0 695.80664,492.67773 85.353678,170.70736 60 0 0 633.54883,465.13086 Z m -28.82813,26.94726 46.0625,79.78321 -159.5664,92.125 -46.0625,-79.78321 159.5664,-92.125 z"
         transform="translate(0,-364.96063)"
         id="path4441"
         inkscape:connector-curvature="0" />
      <path
         style="opacity:1;fill:#a2244e;fill-opacity:0.16666667;stroke:#2b336d;stroke-width:0.40000001;stroke-miterlimit:4;stroke-dasharray:none;stroke-opacity:0.84803922"
         d="M 72.472656,421.03516 A 170.70736,85.353678 45 0 0 31.964844,435.2793 170.70736,85.353678 45 0 0 92.318359,616.3418 170.70736,85.353678 45 0 0 273.38086,676.69727 170.70736,85.353678 45 0 0 213.02539,495.63281 170.70736,85.353678 45 0 0 72.472656,421.03516 Z m 47.628904,37.23828 130.28516,130.28711 -65.14258,65.14257 -130.285156,-130.2871 65.142576,-65.14258 z"
         transform="translate(0,-364.96063)"
         id="path4443"
         inkscape:connector-curvature="0" />
      <path
         style="opacity:1;fill:#a2244e;fill-opacity:0.16666667;stroke:#2b336d;stroke-width:0.40000001;stroke-miterlimit:4;stroke-dasharray:none;stroke-opacity:0.84803922"
         d="m 1344.9805,421.12109 a 85.353678,170.70736 45 0 0 -137.3516,74.51368 85.353678,170.70736 45 0 0 -60.3555,181.0625 85.353678,170.70736 45 0 0 181.0625,-60.35352 85.353678,170.70736 45 0 0 60.3555,-181.06445 85.353678,170.70736 45 0 0 -43.7109,-14.15821 z m -44.4258,37.1543 65.1426,65.14063 -130.2852,130.2871 -65.1426,-65.14257 130.2852,-130.28516 z"
         transform="translate(0,-364.96063)"
         id="path4445"
         inkscape:connector-curvature="0" />
      <path
         style="opacity:1;fill:#a2244e;fill-opacity:0.16666667;stroke:#2b336d;stroke-width:0.56637627;stroke-miterlimit:4;stroke-dasharray:none;stroke-opacity:0.84803922"
         d="m 1055.6973,67.322266 0,42.519534 -3.5411,0 c -3.9259,0 -7.0878,3.15993 -7.0878,7.08593 l 0,14.17383 c 0,3.926 3.1619,7.08594 7.0878,7.08594 l 3.5411,0 0,103.99414 a 70.86615,70.86615 0 0 1 -53.1504,-68.55859 l 3.5449,0 c 3.926,0 7.0859,-3.15994 7.0859,-7.08594 l 0,-14.17383 c 0,-3.926 -3.1599,-7.08594 -7.0859,-7.08594 l -3.5449,0 0,-42.51953 -35.43167,0 0,42.51953 -3.54296,0 c -3.926,0 -7.08789,3.15994 -7.08789,7.08594 l 0,14.17383 c -1.1e-4,3.926 3.16189,7.08594 7.08789,7.08594 l 3.54296,0 a 106.29922,106.29922 0 0 0 88.58207,104.6914 l 0,35.75 A 141.7323,141.7323 0 0 1 931.68164,173.62305 l 3.54297,0 c 3.926,0 7.08594,-3.15994 7.08594,-7.08594 l 0,-14.17383 c 0,-3.926 -3.15994,-7.08594 -7.08594,-7.08594 l -3.54492,0 0,-42.51953 -35.43164,0 0,42.51953 -3.54297,0 c -3.926,0 -7.08789,3.15994 -7.08789,7.08594 l 0,14.17383 c 0,3.926 3.16189,7.08594 7.08789,7.08594 l 3.54297,0 a 177.16538,177.16538 0 0 0 159.44925,176.27539 l 0,35.46484 A 212.59845,212.59845 0 0 1 860.8125,173.62305 l 3.54492,0 c 3.926,0 7.08594,-3.15994 7.08594,-7.08594 l 0,-14.17383 c 0,-3.926 -3.15994,-7.08594 -7.08594,-7.08594 l -3.54492,0 0,-42.51953 -35.43164,0 0,42.51953 -3.54297,0 c -3.926,0 -7.08789,3.15994 -7.08789,7.08594 l 0,14.17383 c 0,3.926 3.16189,7.08594 7.08789,7.08594 l 3.54102,0 a 248.03152,248.03152 0 0 0 230.31449,247.14257 l 0,35.69141 A 283.4646,283.4646 0 0 1 789.94727,173.62305 l 3.54296,0 c 3.926,0 7.08594,-3.15994 7.08594,-7.08594 l 0,-14.17383 c 0,-3.926 -3.15994,-7.08594 -7.08594,-7.08594 l -3.54492,0 0,-42.51953 -35.43164,0 0,42.51953 -3.54297,0 c -3.926,0 -7.08789,3.15994 -7.08789,7.08594 l 0,14.17383 c 0,3.926 3.16189,7.08594 7.08789,7.08594 l 3.54102,0 a 318.89768,318.89768 0 0 0 301.18168,318.00976 l 0,142.61914 -3.543,0 c -3.926,0 -7.0859,3.15994 -7.0859,7.08594 l 0,35.78906 10.6308,0 0,13.81836 35.4317,0 0,-13.81836 10.6308,0 0,-35.78906 c 0,-3.926 -3.1599,-7.08594 -7.0859,-7.08594 l -3.5449,0 0,-142.35937 a 318.89768,318.89768 0 0 0 301.1816,-318.26953 l 3.5449,0 c 3.926,0 7.086,-3.15994 7.086,-7.08594 l 0,-14.17383 c 0,-3.926 -3.16,-7.08594 -7.086,-7.08594 l -3.5449,0 0,-42.51953 -35.4316,0 0,42.51953 -3.543,0 c -3.926,0 -7.0879,3.15994 -7.0879,7.08594 l 0,14.17383 c 0,3.926 3.1619,7.08594 7.0879,7.08594 l 3.543,0 a 283.4646,283.4646 0 0 1 -265.75,282.57617 l 0,-35.18945 a 248.03152,248.03152 0 0 0 230.3144,-247.38672 l 3.5449,0 c 3.926,0 7.086,-3.15994 7.086,-7.08594 l 0,-14.17383 c 0,-3.926 -3.16,-7.08594 -7.086,-7.08594 l -3.5449,0 0,-42.51953 -35.4316,0 0,42.51953 -3.543,0 c -3.926,0 -7.0879,3.15994 -7.0879,7.08594 l 0,14.17383 c 0,3.926 3.1619,7.08594 7.0879,7.08594 l 3.541,0 A 212.59845,212.59845 0 0 1 1091.127,385.33398 l 0,-35.61914 a 177.16538,177.16538 0 0 0 159.4492,-176.09179 l 3.5449,0 c 3.926,0 7.0859,-3.15994 7.0859,-7.08594 l 0,-14.17383 c 0,-3.926 -3.1599,-7.08594 -7.0859,-7.08594 l -3.5449,0 0,-42.51953 -35.4317,0 0,42.51953 -3.5429,0 c -3.926,0 -7.0879,3.15994 -7.0879,7.08594 l 0,14.17383 c 0,3.926 3.1619,7.08594 7.0879,7.08594 l 3.541,0 A 141.7323,141.7323 0 0 1 1091.127,314.10547 l 0,-35.68945 a 106.29922,106.29922 0 0 0 88.582,-104.79297 l 3.5449,0 c 3.926,0 7.0859,-3.15994 7.0859,-7.08594 l 0,-14.17383 c 0,-3.926 -3.1599,-7.08594 -7.0859,-7.08594 l -3.5449,0 0,-42.51953 -35.4317,0 0,42.51953 -3.5429,0 c -3.926,0 -7.0879,3.15994 -7.0879,7.08594 l 0,14.17383 c 0,3.926 3.1619,7.08594 7.0879,7.08594 l 3.541,0 a 70.86615,70.86615 0 0 1 -53.1484,68.52148 l 0,-103.95703 3.5449,0 c 3.926,0 7.0859,-3.15994 7.0859,-7.08594 l 0,-14.17383 c 0,-3.926 -3.1599,-7.08593 -7.0859,-7.08593 l -3.5449,0 0,-42.519534 -35.4297,0 z"
         transform="translate(0,-364.96063)"
         id="path4447"
         inkscape:connector-curvature="0" />
      <path
         style="opacity:1;fill:#a2244e;fill-opacity:0.16666667;stroke:#2b336d;stroke-width:0.40000001;stroke-miterlimit:4;stroke-dasharray:none;stroke-opacity:0.84803922"
         d="m 866.3418,520.23828 a 170.70736,85.353678 0 0 0 -170.70703,85.35352 170.70736,85.353678 0 0 0 170.70703,85.35351 170.70736,85.353678 0 0 0 170.709,-85.35351 170.70736,85.353678 0 0 0 -170.709,-85.35352 z m -92.125,39.29102 184.25195,0 0,92.125 -184.25195,0 0,-92.125 z"
         transform="translate(0,-364.96063)"
         id="path4449"
         inkscape:connector-curvature="0" />
      <path
         style="opacity:1;fill:#a2244e;fill-opacity:0.16666667;stroke:#2b336d;stroke-width:0.28708494;stroke-miterlimit:4;stroke-dasharray:none;stroke-opacity:0.84803922"
         d="m 710.43164,44.802734 a 31.889767,31.889767 0 0 0 -31.88867,31.890625 31.889767,31.889767 0 0 0 31.88867,31.888671 31.889767,31.889767 0 0 0 31.89063,-31.888671 31.889767,31.889767 0 0 0 -31.89063,-31.890625 z m -17.7168,17.716797 35.4336,0 0,28.347657 -35.4336,0 0,-28.347657 z"
         transform="translate(0,-364.96063)"
         id="path4451"
         inkscape:connector-curvature="0" />
      <path
         style="opacity:1;fill:#a2244e;fill-opacity:0.16666667;stroke:#2b336d;stroke-width:0.28708494;stroke-miterlimit:4;stroke-dasharray:none;stroke-opacity:0.84803922"
         d="M 60.234375,14.173828 A 31.889767,31.889767 0 0 0 28.345703,46.064453 31.889767,31.889767 0 0 0 60.234375,77.953125 31.889767,31.889767 0 0 0 92.125,46.064453 31.889767,31.889767 0 0 0 60.234375,14.173828 Z m -17.716797,17.716797 35.433594,0 0,28.347656 -35.433594,0 0,-28.347656 z"
         transform="translate(0,-364.96063)"
         id="path4453"
         inkscape:connector-curvature="0" />
      <path
         style="opacity:1;fill:#a2244e;fill-opacity:0.16666667;stroke:#2b336d;stroke-width:0.28708494;stroke-miterlimit:4;stroke-dasharray:none;stroke-opacity:0.84803922"
         d="M 131.10156,24.802734 A 31.889767,31.889767 0 0 0 99.212891,56.693359 31.889767,31.889767 0 0 0 131.10156,88.582031 31.889767,31.889767 0 0 0 162.99219,56.693359 31.889767,31.889767 0 0 0 131.10156,24.802734 Z m -17.71679,17.716797 35.43359,0 0,28.347657 -35.43359,0 0,-28.347657 z"
         transform="translate(0,-364.96063)"
         id="path4455"
         inkscape:connector-curvature="0" />
      <path
         inkscape:connector-curvature="0"
         id="path4457"
         d="m 201.9674,-350.78718 a 31.889763,31.889763 0 0 0 -31.88867,31.89062 31.889763,31.889763 0 0 0 31.88867,31.88867 31.889763,31.889763 0 0 0 31.89063,-31.88867 31.889763,31.889763 0 0 0 -31.89063,-31.89062 z m -17.71679,17.71679 35.43359,0 0,28.34766 -35.43359,0 0,-28.34766 z"
         style="opacity:1;fill:#a2244e;fill-opacity:0.16666667;stroke:#2b336d;stroke-width:0.28708494;stroke-miterlimit:4;stroke-dasharray:none;stroke-opacity:0.84803922" />
      <path
         style="opacity:1;fill:#a2244e;fill-opacity:0.16666667;stroke:#2b336d;stroke-width:0.28708494;stroke-miterlimit:4;stroke-dasharray:none;stroke-opacity:0.84803922"
         d="m 272.83353,-340.15726 a 31.889763,31.889763 0 0 0 -31.88867,31.89062 31.889763,31.889763 0 0 0 31.88867,31.88867 31.889763,31.889763 0 0 0 31.89063,-31.88867 31.889763,31.889763 0 0 0 -31.89063,-31.89062 z m -17.71679,17.71679 35.43359,0 0,28.34766 -35.43359,0 0,-28.34766 z"
         id="path4459"
         inkscape:connector-curvature="0" />
      <path
         style="opacity:1;fill:#a2244e;fill-opacity:0.16666667;stroke:#2b336d;stroke-width:0.28708494;stroke-miterlimit:4;stroke-dasharray:none;stroke-opacity:0.84803922"
         d="m 634.25195,14.173828 a 31.889767,31.889767 0 0 0 -31.89062,31.890625 31.889767,31.889767 0 0 0 31.89062,31.888672 31.889767,31.889767 0 0 0 31.88867,-31.888672 31.889767,31.889767 0 0 0 -31.88867,-31.890625 z m -17.71679,17.716797 35.43359,0 0,28.347656 -35.43359,0 0,-28.347656 z"
         transform="translate(0,-364.96063)"
         id="path4461"
         inkscape:connector-curvature="0" />
      <path
         style="opacity:1;fill:#a2244e;fill-opacity:0.16666667;stroke:#2b336d;stroke-width:0.28708494;stroke-miterlimit:4;stroke-dasharray:none;stroke-opacity:0.84803922"
         d="m 563.38672,24.802734 a 31.889767,31.889767 0 0 0 -31.89063,31.890625 31.889767,31.889767 0 0 0 31.89063,31.888672 31.889767,31.889767 0 0 0 31.88867,-31.888672 31.889767,31.889767 0 0 0 -31.88867,-31.890625 z m -17.7168,17.716797 35.4336,0 0,28.347657 -35.4336,0 0,-28.347657 z"
         transform="translate(0,-364.96063)"
         id="path4463"
         inkscape:connector-curvature="0" />
      <path
         style="opacity:1;fill:#a2244e;fill-opacity:0.16666667;stroke:#2b336d;stroke-width:0.28708494;stroke-miterlimit:4;stroke-dasharray:none;stroke-opacity:0.84803922"
         d="m 492.52148,14.173828 a 31.889767,31.889767 0 0 0 -31.89062,31.890625 31.889767,31.889767 0 0 0 31.89062,31.888672 31.889767,31.889767 0 0 0 31.88868,-31.888672 31.889767,31.889767 0 0 0 -31.88868,-31.890625 z m -17.71679,17.716797 35.43359,0 0,28.347656 -35.43359,0 0,-28.347656 z"
         transform="translate(0,-364.96063)"
         id="path4465"
         inkscape:connector-curvature="0" />
      <path
         style="opacity:1;fill:#a2244e;fill-opacity:0.16666667;stroke:#2b336d;stroke-width:0.28708494;stroke-miterlimit:4;stroke-dasharray:none;stroke-opacity:0.84803922"
         d="M 421.6543,24.802734 A 31.889767,31.889767 0 0 0 389.76367,56.693359 31.889767,31.889767 0 0 0 421.6543,88.582031 31.889767,31.889767 0 0 0 453.54297,56.693359 31.889767,31.889767 0 0 0 421.6543,24.802734 Z m -17.7168,17.716797 35.43359,0 0,28.347657 -35.43359,0 0,-28.347657 z"
         transform="translate(0,-364.96063)"
         id="path4467"
         inkscape:connector-curvature="0" />
      <path
         style="opacity:1;fill:#a2244e;fill-opacity:0.16666667;stroke:#2b336d;stroke-width:0.28708494;stroke-miterlimit:4;stroke-dasharray:none;stroke-opacity:0.84803922"
         d="m 710.43164,205.31055 a 31.889767,31.889767 0 0 0 -31.88867,31.89062 31.889767,31.889767 0 0 0 31.88867,31.88867 31.889767,31.889767 0 0 0 31.89063,-31.88867 31.889767,31.889767 0 0 0 -31.89063,-31.89062 z m -17.7168,17.71679 35.4336,0 0,28.34766 -35.4336,0 0,-28.34766 z"
         transform="translate(0,-364.96063)"
         id="path4469"
         inkscape:connector-curvature="0" />
      <path
         style="opacity:1;fill:#a2244e;fill-opacity:0.16666667;stroke:#2b336d;stroke-width:0.28708494;stroke-miterlimit:4;stroke-dasharray:none;stroke-opacity:0.84803922"
         d="m 783.07031,14.173828 a 31.889767,31.889767 0 0 0 -31.88867,31.890625 31.889767,31.889767 0 0 0 31.88867,31.888672 31.889767,31.889767 0 0 0 31.89063,-31.888672 31.889767,31.889767 0 0 0 -31.89063,-31.890625 z m -17.71679,17.716797 35.43359,0 0,28.347656 -35.43359,0 0,-28.347656 z"
         transform="translate(0,-364.96063)"
         id="path4471"
         inkscape:connector-curvature="0" />
      <path
         style="opacity:1;fill:#a2244e;fill-opacity:0.16666667;stroke:#2b336d;stroke-width:0.28708494;stroke-miterlimit:4;stroke-dasharray:none;stroke-opacity:0.84803922"
         d="m 853.93555,24.802734 a 31.889767,31.889767 0 0 0 -31.88867,31.890625 31.889767,31.889767 0 0 0 31.88867,31.888672 31.889767,31.889767 0 0 0 31.89062,-31.888672 31.889767,31.889767 0 0 0 -31.89062,-31.890625 z m -17.7168,17.716797 35.43359,0 0,28.347657 -35.43359,0 0,-28.347657 z"
         transform="translate(0,-364.96063)"
         id="path4473"
         inkscape:connector-curvature="0" />
      <path
         style="opacity:1;fill:#a2244e;fill-opacity:0.16666667;stroke:#2b336d;stroke-width:0.28708494;stroke-miterlimit:4;stroke-dasharray:none;stroke-opacity:0.84803922"
         d="m 924.80273,14.173828 a 31.889767,31.889767 0 0 0 -31.88867,31.890625 31.889767,31.889767 0 0 0 31.88867,31.888672 31.889767,31.889767 0 0 0 31.89063,-31.888672 31.889767,31.889767 0 0 0 -31.89063,-31.890625 z m -17.71679,17.716797 35.43359,0 0,28.347656 -35.43359,0 0,-28.347656 z"
         transform="translate(0,-364.96063)"
         id="path4475"
         inkscape:connector-curvature="0" />
      <path
         style="opacity:1;fill:#a2244e;fill-opacity:0.16666667;stroke:#2b336d;stroke-width:0.28708494;stroke-miterlimit:4;stroke-dasharray:none;stroke-opacity:0.84803922"
         d="M 995.66797,24.802734 A 31.889767,31.889767 0 0 0 963.7793,56.693359 31.889767,31.889767 0 0 0 995.66797,88.582031 31.889767,31.889767 0 0 0 1027.5586,56.693359 31.889767,31.889767 0 0 0 995.66797,24.802734 Z m -17.7168,17.716797 35.43363,0 0,28.347657 -35.43363,0 0,-28.347657 z"
         transform="translate(0,-364.96063)"
         id="path4477"
         inkscape:connector-curvature="0" />
      <path
         style="opacity:1;fill:#a2244e;fill-opacity:0.16666667;stroke:#2b336d;stroke-width:0.28708494;stroke-miterlimit:4;stroke-dasharray:none;stroke-opacity:0.84803922"
         d="m 1357.0879,14.173828 a 31.889767,31.889767 0 0 0 -31.8906,31.890625 31.889767,31.889767 0 0 0 31.8906,31.888672 31.889767,31.889767 0 0 0 31.8887,-31.888672 31.889767,31.889767 0 0 0 -31.8887,-31.890625 z m -17.7168,17.716797 35.4336,0 0,28.347656 -35.4336,0 0,-28.347656 z"
         transform="translate(0,-364.96063)"
         id="path4479"
         inkscape:connector-curvature="0" />
      <path
         style="opacity:1;fill:#a2244e;fill-opacity:0.16666667;stroke:#2b336d;stroke-width:0.28708494;stroke-miterlimit:4;stroke-dasharray:none;stroke-opacity:0.84803922"
         d="m 1286.2207,24.802734 a 31.889767,31.889767 0 0 0 -31.8906,31.890625 31.889767,31.889767 0 0 0 31.8906,31.888672 31.889767,31.889767 0 0 0 31.8887,-31.888672 31.889767,31.889767 0 0 0 -31.8887,-31.890625 z m -17.7168,17.716797 35.4336,0 0,28.347657 -35.4336,0 0,-28.347657 z"
         transform="translate(0,-364.96063)"
         id="path4481"
         inkscape:connector-curvature="0" />
      <path
         style="opacity:1;fill:#a2244e;fill-opacity:0.16666667;stroke:#2b336d;stroke-width:0.28708494;stroke-miterlimit:4;stroke-dasharray:none;stroke-opacity:0.84803922"
         d="m 1215.3555,14.173828 a 31.889767,31.889767 0 0 0 -31.8907,31.890625 31.889767,31.889767 0 0 0 31.8907,31.888672 31.889767,31.889767 0 0 0 31.8886,-31.888672 31.889767,31.889767 0 0 0 -31.8886,-31.890625 z m -17.7168,17.716797 35.4336,0 0,28.347656 -35.4336,0 0,-28.347656 z"
         transform="translate(0,-364.96063)"
         id="path4483"
         inkscape:connector-curvature="0" />
      <path
         style="opacity:1;fill:#a2244e;fill-opacity:0.16666667;stroke:#2b336d;stroke-width:0.28708494;stroke-miterlimit:4;stroke-dasharray:none;stroke-opacity:0.84803922"
         d="m 1144.4883,24.802734 a 31.889767,31.889767 0 0 0 -31.8906,31.890625 31.889767,31.889767 0 0 0 31.8906,31.888672 31.889767,31.889767 0 0 0 31.8887,-31.888672 31.889767,31.889767 0 0 0 -31.8887,-31.890625 z m -17.7168,17.716797 35.4336,0 0,28.347657 -35.4336,0 0,-28.347657 z"
         transform="translate(0,-364.96063)"
         id="path4485"
         inkscape:connector-curvature="0" />
    </g>
  </g>
</svg>
