<?xml version="1.0" encoding="UTF-8" standalone="no"?>
<!-- Created with Inkscape (http://www.inkscape.org/) -->

<svg
   xmlns:dc="http://purl.org/dc/elements/1.1/"
   xmlns:cc="http://creativecommons.org/ns#"
   xmlns:rdf="http://www.w3.org/1999/02/22-rdf-syntax-ns#"
   xmlns:svg="http://www.w3.org/2000/svg"
   xmlns="http://www.w3.org/2000/svg"
   xmlns:sodipodi="http://sodipodi.sourceforge.net/DTD/sodipodi-0.dtd"
   xmlns:inkscape="http://www.inkscape.org/namespaces/inkscape"
   width="400mm"
   height="400mm"
   viewBox="0 0 400 400"
   version="1.1"
   id="svg1038"
   inkscape:version="0.92.2 5c3e80d, 2017-08-06"
   sodipodi:docname="boxeg.svg">
  <defs
     id="defs1032" />
  <sodipodi:namedview
     id="base"
     pagecolor="#ffffff"
     bordercolor="#666666"
     borderopacity="1.0"
     inkscape:pageopacity="0.0"
     inkscape:pageshadow="2"
     inkscape:zoom="0.35"
     inkscape:cx="907.73036"
     inkscape:cy="1022.6046"
     inkscape:document-units="mm"
     inkscape:current-layer="layer1"
     showgrid="false"
     inkscape:window-width="1440"
     inkscape:window-height="851"
     inkscape:window-x="0"
     inkscape:window-y="1"
     inkscape:window-maximized="1" />
  <metadata
     id="metadata1035">
    <rdf:RDF>
      <cc:Work
         rdf:about="">
        <dc:format>image/svg+xml</dc:format>
        <dc:type
           rdf:resource="http://purl.org/dc/dcmitype/StillImage" />
        <dc:title></dc:title>
      </cc:Work>
    </rdf:RDF>
  </metadata>
  <g
     inkscape:label="Layer 1"
     inkscape:groupmode="layer"
     id="layer1"
     transform="translate(0,103)">
    <path
       style="opacity:0.98000004;fill:#a7e0dd;fill-opacity:0.2171717;stroke:#000000;stroke-width:0.1;stroke-miterlimit:4;stroke-dasharray:none;stroke-opacity:1"
       d="M 0,-63.000244 V 297 H 399.99986 V -63.000244 Z m 9.9999063,2.000394 H 29.99972 v 1.999878 H 9.9999063 Z m 40.0001417,0 h 19.999814 v 1.999878 H 50.000048 Z m 39.999625,0 H 110 v 1.999878 H 89.999673 Z m 40.000147,0 h 19.99981 v 1.999878 h -19.99981 z m 40.00014,0 h 19.99981 v 1.999878 h -19.99981 z m 40.00014,0 h 19.99981 v 1.999878 H 210.0001 Z m 39.99962,0 h 20.00035 v 1.999878 h -20.00035 z m 40.00015,0 h 19.9998 v 1.999878 h -19.9998 z m 40.00013,0 h 19.99982 v 1.999878 H 330 Z m 40.00015,0 h 19.99981 v 1.999878 H 370.00015 Z M 1.9998779,-52.999821 h 1.999878 v 19.999811 h -1.999878 z m 394.0002421,0 H 398 v 19.999811 h -1.99988 z M 1.9998779,-13.000196 h 1.999878 V 7.0001351 h -1.999878 z m 394.0002421,0 H 398 V 7.0001351 h -1.99988 z M 1.9998779,26.999946 h 1.999878 v 19.999296 h -1.999878 z m 394.0002421,0 H 398 v 19.999296 h -1.99988 z M 1.9998779,66.999572 h 1.999878 v 19.999812 h -1.999878 z m 394.0002421,0 H 398 v 19.999812 h -1.99988 z M 1.9998779,106.99971 h 1.999878 v 19.99982 h -1.999878 z m 394.0002421,0 H 398 v 19.99982 h -1.99988 z M 1.9998779,146.99933 h 1.999878 v 20.00033 h -1.999878 z m 394.0002421,0 H 398 v 20.00033 h -1.99988 z M 1.9998779,186.99948 h 1.999878 v 19.9998 h -1.999878 z m 394.0002421,0 H 398 v 19.9998 h -1.99988 z M 1.9998779,226.99961 h 1.999878 v 19.99983 h -1.999878 z m 394.0002421,0 H 398 v 19.99983 h -1.99988 z M 1.9998779,266.99977 h 1.999878 v 19.9998 h -1.999878 z m 394.0002421,0 H 398 v 19.9998 h -1.99988 z M 9.9999063,293.00024 H 29.99972 v 1.99988 H 9.9999063 Z m 40.0001417,0 h 19.999814 v 1.99988 H 50.000048 Z m 39.999625,0 H 110 v 1.99988 H 89.999673 Z m 40.000147,0 h 19.99981 v 1.99988 h -19.99981 z m 40.00014,0 h 19.99981 v 1.99988 h -19.99981 z m 40.00014,0 h 19.99981 v 1.99988 H 210.0001 Z m 39.99962,0 h 20.00035 v 1.99988 h -20.00035 z m 40.00015,0 h 19.9998 v 1.99988 h -19.9998 z m 40.00013,0 h 19.99982 v 1.99988 H 330 Z m 40.00015,0 h 19.99981 v 1.99988 h -19.99981 z"
       id="rect1586"
       inkscape:connector-curvature="0" />
    <path
       style="opacity:0.98000004;fill:#a7e0dd;fill-opacity:0.2171717;stroke:#000000;stroke-width:0.07612059;stroke-miterlimit:4;stroke-dasharray:none;stroke-opacity:1"
       d="m 0,-98.999921 v 50.000013 h 349.99982 v -50.000013 h -47.99964 v 25.000015 h -1.99988 v -25.000015 h -48.00018 v 25.000015 h -1.99988 v -25.000015 h -48.00017 v 25.000015 h -1.99988 v -25.000015 h -48.00017 v 25.000015 h -1.99987 v -25.000015 h -48.00018 v 25.000015 H 100.0001 V -98.999921 H 51.999927 v 25.000015 h -1.999879 v -25.000015 z"
       id="rect1729"
       inkscape:connector-curvature="0" />
    <path
       style="opacity:0.98000004;fill:#a7e0dd;fill-opacity:0.2171717;stroke:#000000;stroke-width:0.1;stroke-miterlimit:4;stroke-dasharray:none;stroke-opacity:1"
       d="M 0,-99.000247 V -49.0002 h 9.9999068 v 1.999878 H 29.99972 V -49.0002 h 20.000328 v 1.999878 H 69.999862 V -49.0002 h 19.999812 v 1.999878 H 110 V -49.0002 h 19.99982 v 1.999878 h 19.99981 V -49.0002 h 20.00033 v 1.999878 h 19.99981 V -49.0002 h 20.00033 v 1.999878 h 19.99981 V -49.0002 h 19.99982 v 1.999878 h 20.00034 V -49.0002 h 19.9998 v 1.999878 h 19.9998 V -49.0002 H 330 v 1.999878 h 19.99983 V -49.0002 h 20.00033 v 1.999878 h 19.9998 V -49.0002 h 9.9999 V -99.000247 H 398 v 25.000024 h -1.99988 V -99.000247 H 3.999756 v 25.000024 H 1.999878 v -25.000024 z"
       id="rect1596"
       inkscape:connector-curvature="0" />
    <path
       style="opacity:0.98000004;fill:#a7e0dd;fill-opacity:0.2171717;stroke:#000000;stroke-width:0.0551259;stroke-miterlimit:4;stroke-dasharray:none;stroke-opacity:1"
       d="M -6.1e-6,115 H 360.00025 V 64.999935 h -1.99988 V 89.99996 h -2.00041 V 64.999935 h -6.00014 v -1.999878 h -19.9998 v 1.999878 h -20.00033 v -1.999878 h -19.99983 v 1.999878 h -20.00033 v -1.999878 h -19.9998 v 1.999878 h -19.99982 v -1.999878 h -20.00033 v 1.999878 h -19.99981 v -1.999878 h -19.99981 v 1.999878 h -20.00033 v -1.999878 h -19.99981 v 1.999878 H 109.99949 V 63.000057 H 90.000191 v 1.999878 H 70.000379 v -1.999878 h -20.00033 v 1.999878 H 30.000235 V 63.000057 H 10.000424 v 1.999878 H 4.0002739 V 89.99996 h -1.99988 V 64.999935 h -2.0004 z"
       id="path1654"
       inkscape:connector-curvature="0" />
    <path
       id="path1679"
       d="M -2e-7,7.0000031 V -43.000047 h 9.999907 v -1.99987 H 29.99972 v 1.99987 h 20.000328 v -1.99987 h 19.999814 v 1.99987 h 19.999814 v -1.99987 h 20.000314 v 1.99987 h 19.99982 v -1.99987 h 19.99981 v 1.99987 h 20.00033 v -1.99987 h 19.99981 v 1.99987 h 20.00033 v -1.99987 h 19.99981 v 1.99987 h 19.99981 v -1.99987 h 20.00035 v 1.99987 h 19.9998 v -1.99987 h 19.9998 v 1.99987 h 20.00033 v -1.99987 h 19.99982 v 1.99987 h 20.00033 v -1.99987 h 19.99981 v 1.99987 h 9.9999 V 7.0000031 h -1.99986 V -18.000017 h -1.99988 V 7.0000031 H 3.9997558 V -18.000017 H 1.9998778 V 7.0000031 Z"
       style="opacity:0.98000004;fill:#a7e0dd;fill-opacity:0.2171717;stroke:#000000;stroke-width:0.1;stroke-miterlimit:4;stroke-dasharray:none;stroke-opacity:1"
       inkscape:connector-curvature="0" />
    <path
       id="path1681"
       d="M -1.9999999e-7,9.000079 H 360.00024 v 50.000044 h -1.99988 V 34.0001 h -2.0004 v 25.000023 h -6.00015 v 1.99988 h -19.9998 v -1.99988 h -20.00033 v 1.99988 h -19.99982 v -1.99988 h -20.00033 v 1.99988 h -19.99981 v -1.99988 h -19.99981 v 1.99988 h -20.00033 v -1.99988 h -19.99981 v 1.99988 h -19.99981 v -1.99988 h -20.00033 v 1.99988 h -19.99982 v -1.99988 h -20.00033 v 1.99988 H 90.00019 v -1.99988 H 70.000378 v 1.99988 h -20.00033 v -1.99988 H 30.000235 v 1.99988 H 10.000423 v -1.99988 H 4.0002728 V 34.0001 H 2.0003948 V 59.000123 H -1.9999997e-7 Z"
       style="opacity:0.98000004;fill:#a7e0dd;fill-opacity:0.2171717;stroke:#000000;stroke-width:0.0551259;stroke-miterlimit:4;stroke-dasharray:none;stroke-opacity:1"
       inkscape:connector-curvature="0" />
    <path
       style="opacity:0.98000004;fill:#a7e0dd;fill-opacity:0.2171717;stroke:#000000;stroke-width:0.09082254;stroke-miterlimit:4;stroke-dasharray:none;stroke-opacity:1"
       d="m 0,-103.00005 v 50.000053 h 50.000048 v -24.8331 h 1.999879 v 24.8331 H 100.0001 v -24.8331 h 1.99987 v 24.8331 h 48.00018 v -24.8331 h 1.99987 v 24.8331 h 48.00017 v -24.8331 h 1.99988 v 24.8331 h 48.00017 v -24.8331 h 1.99988 v 24.8331 h 48.00018 v -24.8331 h 1.99988 v 24.8331 h 87.99978 v -50.000053 z"
       id="big_sep"
       inkscape:label="#rect1702"
       inkscape:connector-curvature="0"
       sodipodi:nodetypes="ccccccccccccccccccccccccccccc" />
    <path
       sodipodi:nodetypes="ccccccccccccccccccccccccccccc"
       inkscape:connector-curvature="0"
       inkscape:label="#rect1702"
       id="path1732"
       d="M 0,-51.00005 V -0.99999695 H 50.000048 V -25.833097 h 1.999879 V -0.99999695 H 100.0001 V -25.833097 h 1.99987 v 24.83310005 h 48.00018 V -25.833097 h 1.99987 v 24.83310005 h 48.00017 V -25.833097 h 1.99988 v 24.83310005 h 48.00017 V -25.833097 h 1.99988 V -0.99999695 H 300.0003 V -25.833097 h 1.99988 v 24.83310005 h 87.99978 V -51.00005 Z"
       style="opacity:0.98000004;fill:#a7e0dd;fill-opacity:0.2171717;stroke:#000000;stroke-width:0.09082254;stroke-miterlimit:4;stroke-dasharray:none;stroke-opacity:1" />
    <path
       sodipodi:nodetypes="ccccccccccccccccccccccccccccc"
       inkscape:connector-curvature="0"
       inkscape:label="#rect1702"
       id="path1734"
       d="M 0,0.99996845 V 51.00002 H 50.000048 V 26.166919 h 1.999879 V 51.00002 H 100.0001 V 26.166919 h 1.99987 V 51.00002 h 48.00018 V 26.166919 h 1.99987 V 51.00002 h 48.00017 V 26.166919 h 1.99988 V 51.00002 h 48.00017 V 26.166919 h 1.99988 V 51.00002 H 300.0003 V 26.166919 h 1.99988 V 51.00002 h 87.99978 V 0.99996845 Z"
       style="opacity:0.98000004;fill:#a7e0dd;fill-opacity:0.2171717;stroke:#000000;stroke-width:0.09082254;stroke-miterlimit:4;stroke-dasharray:none;stroke-opacity:1" />
    <path
       style="opacity:0.98000004;fill:#a7e0dd;fill-opacity:0.2171717;stroke:#000000;stroke-width:0.09082254;stroke-miterlimit:4;stroke-dasharray:none;stroke-opacity:1"
       d="M 0,52.999966 V 103 H 50.000048 V 78.166919 h 1.999879 V 103 H 100.0001 V 78.166919 h 1.99987 V 103 h 48.00018 V 78.166919 h 1.99987 V 103 h 48.00017 V 78.166919 h 1.99988 V 103 h 48.00017 V 78.166919 h 1.99988 V 103 H 300.0003 V 78.166919 h 1.99988 V 103 h 87.99978 V 52.999966 Z"
       id="path1736"
       inkscape:label="#rect1702"
       inkscape:connector-curvature="0"
       sodipodi:nodetypes="ccccccccccccccccccccccccccccc" />
    <path
       inkscape:connector-curvature="0"
       id="path1742"
       d="M 0,-46.999951 V 3.000061 h 349.99982 v -50.000012 h -47.99964 v 25.000014 h -1.99988 v -25.000014 h -48.00018 v 25.000014 h -1.99988 v -25.000014 h -48.00017 v 25.000014 h -1.99988 v -25.000014 h -48.00017 v 25.000014 h -1.99987 v -25.000014 h -48.00018 v 25.000014 H 100.0001 V -46.999951 H 51.999927 v 25.000014 h -1.999879 v -25.000014 z"
       style="opacity:0.98000004;fill:#a7e0dd;fill-opacity:0.2171717;stroke:#000000;stroke-width:0.07612059;stroke-miterlimit:4;stroke-dasharray:none;stroke-opacity:1" />
    <path
       inkscape:connector-curvature="0"
       id="path1744"
       d="M 0,5.0000183 V 55.00003 H 349.99982 V 5.0000183 H 302.00018 V 30.000035 H 300.0003 V 5.0000183 H 252.00012 V 30.000035 h -1.99988 V 5.0000183 H 202.00007 V 30.000035 h -1.99988 V 5.0000183 H 152.00002 V 30.000035 h -1.99987 V 5.0000183 H 101.99997 V 30.000035 H 100.0001 V 5.0000183 H 51.999927 V 30.000035 H 50.000048 V 5.0000183 Z"
       style="opacity:0.98000004;fill:#a7e0dd;fill-opacity:0.2171717;stroke:#000000;stroke-width:0.07612059;stroke-miterlimit:4;stroke-dasharray:none;stroke-opacity:1" />
    <path
       style="opacity:0.98000004;fill:#a7e0dd;fill-opacity:0.2171717;stroke:#000000;stroke-width:0.07612059;stroke-miterlimit:4;stroke-dasharray:none;stroke-opacity:1"
       d="M 0,56.999987 V 107 H 349.99982 V 56.999987 H 302.00018 V 82.000005 H 300.0003 V 56.999987 h -48.00018 v 25.000018 h -1.99988 V 56.999987 h -48.00017 v 25.000018 h -1.99988 V 56.999987 h -48.00017 v 25.000018 h -1.99987 V 56.999987 H 101.99997 V 82.000005 H 100.0001 V 56.999987 H 51.999927 V 82.000005 H 50.000048 V 56.999987 Z"
       id="path1746"
       inkscape:connector-curvature="0" />
  </g>
</svg>
