<?xml version="1.0" encoding="UTF-8" standalone="no"?>
<!-- Generator: Adobe Illustrator 16.0.0, SVG Export Plug-In . SVG Version: 6.00 Build 0)  -->

<svg
   xmlns:dc="http://purl.org/dc/elements/1.1/"
   xmlns:cc="http://creativecommons.org/ns#"
   xmlns:rdf="http://www.w3.org/1999/02/22-rdf-syntax-ns#"
   xmlns:svg="http://www.w3.org/2000/svg"
   xmlns="http://www.w3.org/2000/svg"
   xmlns:sodipodi="http://sodipodi.sourceforge.net/DTD/sodipodi-0.dtd"
   xmlns:inkscape="http://www.inkscape.org/namespaces/inkscape"
   version="1.1"
   id="Layer_1"
   x="0px"
   y="0px"
   width="864px"
   height="864px"
   viewBox="0 0 864 864"
   enable-background="new 0 0 864 864"
   xml:space="preserve"
   sodipodi:docname="panda.svg"
   inkscape:version="0.92.2 5c3e80d, 2017-08-06"><metadata
     id="metadata19"><rdf:RDF><cc:Work
         rdf:about=""><dc:format>image/svg+xml</dc:format><dc:type
           rdf:resource="http://purl.org/dc/dcmitype/StillImage" /></cc:Work></rdf:RDF></metadata><defs
     id="defs17" /><sodipodi:namedview
     pagecolor="#ffffff"
     bordercolor="#666666"
     borderopacity="1"
     objecttolerance="10"
     gridtolerance="10"
     guidetolerance="10"
     inkscape:pageopacity="0"
     inkscape:pageshadow="2"
     inkscape:window-width="1320"
     inkscape:window-height="780"
     id="namedview15"
     showgrid="false"
     inkscape:zoom="0.5462963"
     inkscape:cx="-248.1871"
     inkscape:cy="449.00418"
     inkscape:window-x="0"
     inkscape:window-y="0"
     inkscape:window-maximized="0"
     inkscape:current-layer="Layer_1" /><path
     d="m 577.521,756.056 c -6.408,1.168 -12.84,2.568 -19.341,3.474 -47.362,-0.713 -65.762,-23.229 -71.474,-29.689 -4.062,-4.596 -7.187,-10.097 -10.246,-15.47 -1.561,-2.741 -2.86,-3.666 -6.13,-2.979 -24.55,5.157 -49.45,7.561 -74.45,6.05 -19.113,-1.155 -38.133,-4.04 -57.143,-6.549 -3.74,-0.494 -5.52,-0.195 -7.494,3.396 -16.763,30.487 -42.292,47.008 -77.513,45.585 -26.823,-1.085 -49.303,-13.215 -67.337,-32.581 -32.609,-35.021 -44.763,-76.23 -34.877,-123.463 0.088,-0.417 0.012,-0.868 0.008,-1.307 -0.178,-0.232 -0.307,-0.608 -0.528,-0.672 -23.835,-6.954 -36.001,-24.309 -40.899,-47.313 -6.93,-32.54 0.852,-62.718 16.744,-91.147 10.787,-19.296 25.099,-35.526 44.651,-46.309 7.652,-4.22 16.153,-6.9 24.331,-10.308 -42.805,-35.257 -51.348,-83.135 -46.398,-136.194 -0.889,-0.366 -2.291,-0.766 -3.512,-1.478 -7.736,-4.511 -16.048,-8.313 -23.01,-13.817 -13.028,-10.302 -16.521,-24.248 -12.357,-40.204 3.059,-11.721 8.621,-22.32 15.191,-32.335 7.619,-11.612 14.598,-23.522 20.908,-35.912 6.818,-13.385 15.694,-25.415 27.979,-34.472 16.045,-11.829 32.893,-12.741 50.254,-3.104 13.105,7.275 22.457,18.051 28.655,31.634 0.551,1.206 1.094,2.415 1.651,3.617 0.059,0.126 0.193,0.217 0.146,0.166 101.013,-44.762 201.346,-44.085 300.435,2.942 5.122,-8.083 9.818,-16.797 15.77,-24.549 7.065,-9.204 16.792,-15.387 27.854,-18.911 19.84,-6.321 35.9,0.609 49.458,15.114 8.877,9.495 15.649,20.478 20.509,32.426 4.75,11.679 10.817,22.577 17.001,33.491 6.049,10.676 11.247,21.772 13.723,33.938 3.527,17.34 -1.896,31.056 -16.392,41.273 -8.297,5.848 -17.295,10.054 -27.308,12.293 4.604,51.464 -5.567,97.752 -46.045,134.206 3.375,0.661 6.337,1.098 9.226,1.827 22.678,5.729 39.791,19.597 53.795,37.608 18.749,24.114 29.159,51.51 30.598,82.103 0.623,13.259 -1.16,26.285 -6.144,38.661 -7.619,18.91 -20.767,31.634 -41.724,35.626 8.872,40.081 0.408,76.543 -22.601,110.643 0,-10e-4 -11.187,23.036 -55.964,42.69 z"
     id="out"
     style="clip-rule:evenodd;fill-rule:evenodd;stroke:#cf4092;stroke-opacity:1"
     inkscape:connector-curvature="0"
     inkscape:label="#path2" /><path
     style="clip-rule:evenodd;fill:#d6db55;fill-opacity:0.23232326;fill-rule:evenodd;stroke:none;stroke-opacity:1"
     d="m 613.5801,101.8125 c -4.5075,0.0126 -9.2314,0.7635 -14.1914,2.34375 -11.062,3.524 -20.7885,9.70811 -27.8535,18.91211 -5.952,7.752 -10.6476,16.46583 -15.7696,24.54883 -99.089,-47.027 -199.42252,-47.703409 -300.43552,-2.94141 0.047,0.051 -0.0875,-0.04 -0.14649,-0.16601 -0.557,-1.202 -1.09939,-2.41119 -1.65039,-3.61719 -6.198,-13.583 -15.54929,-24.35977 -28.65429,-31.63477 -17.361,-9.636997 -34.21086,-8.72548 -50.25586,3.10352 -12.285,9.057 -21.16052,21.08765 -27.97852,34.47265 -6.31,12.39 -13.2892,24.30011 -20.9082,35.91211 -6.57,10.015 -12.13046,20.61299 -15.18945,32.33399 -4.164,15.956 -0.67254,29.90308 12.35546,40.20508 6.962,5.504 15.27377,9.3054 23.00977,13.8164 1.221,0.712 2.62467,1.11252 3.51367,1.47852 -4.95,53.059 3.59149,100.93636 46.39649,136.19336 -8.178,3.408 -16.67808,6.08859 -24.33008,10.30859 -19.552,10.783 -33.86339,27.0126 -44.65039,46.30859 -15.892,28.429 -23.67414,58.60649 -16.74414,91.14649 4.898,23.004 17.06343,40.36045 40.89843,47.31445 0.221,0.064 0.34935,0.43988 0.52735,0.67188 0.004,0.439 0.0802,0.88964 -0.008,1.30664 -9.886,47.233 2.26796,88.44189 34.87696,123.46289 18.034,19.366 40.51489,31.49508 67.33789,32.58008 35.221,1.423 60.74872,-15.09699 77.51172,-45.58399 1.974,-3.591 3.75414,-3.89048 7.49414,-3.39648 19.01,2.509 38.03153,5.39383 57.14457,6.54883 24.99998,1.511 49.89918,-0.89183 74.44918,-6.04883 3.27,-0.687 4.5698,0.23751 6.1308,2.97851 3.059,5.373 6.1822,10.87471 10.2442,15.47071 5.712,6.46 24.1126,28.9745 71.4746,29.6875 6.501,-0.906 12.9338,-2.30466 19.3418,-3.47266 44.777,-19.654 55.9629,-42.69241 55.9629,-42.69141 23.009,-34.1 31.4735,-70.56157 22.6015,-110.64257 20.957,-3.992 34.1056,-16.715 41.7246,-35.625 4.984,-12.376 6.7656,-25.40311 6.1426,-38.66211 -1.439,-30.593 -11.8486,-57.98952 -30.5976,-82.10352 -14.004,-18.011 -31.117,-31.87842 -53.795,-37.60742 -2.889,-0.729 -5.8496,-1.16517 -9.2246,-1.82617 40.478,-36.454 50.649,-82.74303 46.045,-134.20703 10.013,-2.239 19.0096,-6.44497 27.3066,-12.29297 14.496,-10.217 19.9196,-23.93149 16.3926,-41.27149 -2.476,-12.166 -7.6737,-23.26345 -13.7227,-33.93945 -6.184,-10.914 -12.2519,-21.81123 -17.0019,-33.49023 -4.86,-11.948 -11.6308,-22.93079 -20.5078,-32.42579 -10.1685,-10.87875 -21.7452,-17.49667 -35.2676,-17.45898 z m -199.6133,12.82422 c 44.812,0.44 97.4359,11.67281 145.9629,39.00781 30.334,17.087 56.0823,39.25581 74.4863,69.25781 18.338,29.898 23.6138,62.27793 18.5508,96.66993 -3.595,24.415 -11.9552,46.85559 -27.4492,66.30859 -19.001,23.855 -44.1585,38.31884 -72.8555,47.21484 -29.395,9.112 -59.6578,11.9668 -90.2148,10.9668 -19.311,-0.631 -38.5445,-3.39094 -57.8555,-4.21094 -10.862,-0.461 -21.7988,1.24764 -32.71485,1.68164 -36.442,1.455 -72.69375,0.15635 -108.34375,-8.47265 -19.788,-4.787 -38.652,-11.92197 -55.75,-23.16797 -25.95,-17.07 -42.90664,-40.73017 -50.43164,-70.82617 -8.692,-34.759 -8.40776,-69.04354 7.24024,-102.14453 11.128,-23.54002 27.41195,-43.02296 47.37695,-59.50196 34.224,-28.248 73.81806,-45.1692 116.78906,-54.7832 24.598,-5.503 49.53999,-8.039 85.20899,-8 z m -108.90821,90.57617 c -11.68975,0.151 -23.30753,5.25881 -33.89453,15.32031 -9.317,8.854 -16.15423,19.49453 -22.36523,30.64453 -6.015,10.799 -12.2521,21.47827 -18.6211,32.07227 -6.477,10.772 -12.82229,21.55703 -16.15429,33.83203 -4.531,16.689 -0.31919,30.56525 13.00781,41.65625 13.203,10.987 28.2615,16.87081 46.1875,16.75781 11.225,0.02 22.62544,-2.42215 33.14844,-7.78515 36.856,-18.786 56.16773,-49.27019 57.42773,-90.36719 0.69,-22.459 -7.24515,-42.27812 -24.41015,-57.70313 -10.875,-9.77249 -22.63643,-14.57873 -34.32618,-14.42773 z m 173.27731,0.0332 c -9.1639,0.20405 -18.4635,3.46627 -27.4687,9.85547 -21.569,15.302 -29.8601,37.21583 -30.6211,64.92383 2.293,36.002 18.8436,65.7442 52.3086,84.9082 29.05,16.636 61.7385,13.66046 85.5215,-6.81054 10.492,-9.03 15.6483,-20.26978 13.5683,-34.17578 -0.736,-4.918 -1.7559,-10.04518 -3.9199,-14.45118 -5.192,-10.566 -11.0668,-20.8027 -16.8008,-31.0957 -4.15,-7.453 -8.7854,-14.64712 -12.7304,-22.20312 -7.078,-13.56 -14.9609,-26.46822 -26.3379,-36.94922 -9.8197,-9.04825 -20.6353,-13.75606 -31.6895,-14.00196 -0.6096,-0.0136 -1.2191,-0.0136 -1.8301,0 z m -25.4921,67.46094 c 5.9738,-0.047 11.1247,5.05339 11.0097,10.90039 -0.111,5.645 -5.2713,10.63022 -10.9433,10.57422 -5.777,-0.057 -10.7142,-4.99033 -10.7442,-10.73633 -0.029,-5.76 4.8746,-10.69228 10.6778,-10.73828 z m -129.20708,0.01 c 5.837,0.093 10.62061,5.06186 10.47461,10.88086 -0.149,5.898 -4.97408,10.61384 -10.83008,10.58984 -5.754,-0.025 -10.74567,-4.9977 -10.76367,-10.7207 -0.017,-5.966 5.03114,-10.846 11.11914,-10.75 z m 49.80078,67.54101 c 4.799,5.572 9.2261,10.64816 13.5801,15.78516 4.63,5.465 1.6007,14.01506 -5.4063,15.53906 -1.70094,0.37 -3.33072,1.06847 -5.71872,1.85547 6.99002,3.225 11.28302,0.35261 14.95902,-4.15039 5.318,5.906 9.1239,7.04327 13.7089,3.94727 -1.338,-0.60501 -2.4547,-1.37115 -3.6777,-1.61915 -8.281,-1.677 -11.1429,-9.87192 -5.6269,-16.29492 1.294,-1.509 2.5904,-3.01611 3.8984,-4.53711 2.91,-3.386 5.8828,-6.84139 9.0508,-10.52539 z m 202.7598,87.64063 c 0.9381,0.0113 1.8203,0.19009 2.3828,0.62109 28.868,22.106 50.973,49.10533 60.498,84.98633 4.81,18.12 5.3968,40.20133 1.1328,54.98633 -0.608,-1.532 -0.7449,-2.31196 -1.1679,-2.87696 -25.577,-34.16 -69.2995,-42.41265 -107.1895,-22.47265 -34.438,18.124 -54.5713,47.56598 -64.0683,84.58398 -6.634,25.853 -5.4341,51.53536 4.4609,76.56836 0.263,0.663 0.4997,1.3368 1.0117,2.7168 -46.175,9.447 -91.895,9.24647 -137.87499,-0.64453 0.097,-0.945 0.0258,-1.67883 0.25977,-2.29883 15.188,-40.341 9.70306,-78.73136 -11.71094,-115.19336 -14.539,-24.757 -35.02636,-43.22684 -62.81836,-51.83984 -34.442,-10.672 -64.3875,-2.83349 -88.8125,24.22851 -0.48,0.532 -0.96786,1.05889 -2.25586,2.46289 -0.511,-4.571 -1.10473,-8.23397 -1.30273,-11.91797 -1.712,-31.888 8.11647,-60.22262 26.73047,-85.76562 10.345,-14.193 22.76711,-26.38692 36.78711,-36.91992 1.309,-0.983 3.88668,-1.35597 5.42968,-0.79297 26.331,9.614 53.68333,13.83009 81.48633,15.62109 26.897,1.73 53.74442,0.60831 80.60742,-1.30469 7.108,-0.506 14.3764,1.15175 21.5664,1.84375 38.114,3.669 76.1865,4.41027 113.7715,-4.17773 13.021,-2.975 25.5553,-8.06834 38.3633,-12.02734 0.781,-0.242 1.7747,-0.39797 2.7129,-0.38672 z"
     id="black"
     inkscape:connector-curvature="0"
     inkscape:label="#path834" /><path
     style="fill:#d8e5d6;fill-opacity:1"
     d="M 413.9668 114.63672 C 378.2978 114.59772 353.35581 117.13372 328.75781 122.63672 C 285.78681 132.25072 246.19275 149.17192 211.96875 177.41992 C 192.00375 193.89892 175.7198 213.38187 164.5918 236.92188 C 148.9438 270.02287 148.65956 304.30741 157.35156 339.06641 C 164.87656 369.16241 181.8332 392.82258 207.7832 409.89258 C 224.8812 421.13858 243.7452 428.27355 263.5332 433.06055 C 299.1832 441.68955 335.43495 442.9882 371.87695 441.5332 C 382.79295 441.0992 393.7298 439.39056 404.5918 439.85156 C 423.9028 440.67156 443.13627 443.4315 462.44727 444.0625 C 493.00427 445.0625 523.26711 442.2077 552.66211 433.0957 C 581.35911 424.1997 606.51658 409.73586 625.51758 385.88086 C 641.01158 366.42786 649.3718 343.98727 652.9668 319.57227 C 658.0298 285.18027 652.75402 252.80034 634.41602 222.90234 C 616.01202 192.90034 590.26369 170.73153 559.92969 153.64453 C 511.40269 126.30953 458.7788 115.07672 413.9668 114.63672 z M 305.05859 205.21289 C 316.74834 205.06189 328.50977 209.86813 339.38477 219.64062 C 356.54977 235.06563 364.48492 254.88475 363.79492 277.34375 C 362.53492 318.44075 343.22319 348.92494 306.36719 367.71094 C 295.84419 373.07394 284.44375 375.51609 273.21875 375.49609 C 255.29275 375.60909 240.23425 369.72528 227.03125 358.73828 C 213.70425 347.64728 209.49244 333.77103 214.02344 317.08203 C 217.35544 304.80703 223.70073 294.022 230.17773 283.25 C 236.54673 272.656 242.78383 261.97673 248.79883 251.17773 C 255.00983 240.02773 261.84706 229.3872 271.16406 220.5332 C 281.75106 210.4717 293.36884 205.36389 305.05859 205.21289 z M 480.16602 205.24609 C 491.22017 205.49199 502.03584 210.1998 511.85547 219.24805 C 523.23247 229.72905 531.11536 242.63727 538.19336 256.19727 C 542.13836 263.75327 546.77383 270.94739 550.92383 278.40039 C 556.65783 288.69339 562.53261 298.93009 567.72461 309.49609 C 569.88861 313.90209 570.90853 319.02927 571.64453 323.94727 C 573.72453 337.85327 568.56817 349.09305 558.07617 358.12305 C 534.29317 378.59405 501.60469 381.56959 472.55469 364.93359 C 439.08969 345.76959 422.53909 316.02739 420.24609 280.02539 C 421.00709 252.31739 429.29819 230.40356 450.86719 215.10156 C 460.47281 208.28641 470.41235 205.02913 480.16602 205.24609 z M 452.84375 272.70703 C 447.04075 272.75303 442.13702 277.68531 442.16602 283.44531 C 442.19602 289.19131 447.13316 294.12464 452.91016 294.18164 C 458.58216 294.23764 463.74252 289.25242 463.85352 283.60742 C 463.96852 277.76042 458.81775 272.66003 452.84375 272.70703 z M 323.63672 272.7168 C 317.54872 272.6208 312.50058 277.5008 312.51758 283.4668 C 312.53558 289.1898 317.52725 294.1625 323.28125 294.1875 C 329.13725 294.2115 333.96233 289.49566 334.11133 283.59766 C 334.25733 277.77866 329.47372 272.8098 323.63672 272.7168 z M 373.4375 340.25781 L 408.20508 340.25781 C 405.03708 343.94181 402.0643 347.3972 399.1543 350.7832 C 397.8463 352.3042 396.54986 353.81131 395.25586 355.32031 C 389.73986 361.74331 392.60181 369.93823 400.88281 371.61523 C 402.10581 371.86323 403.22255 372.62937 404.56055 373.23438 C 399.97555 376.33038 396.16956 375.19311 390.85156 369.28711 C 387.17556 373.79011 382.88258 376.6625 375.89258 373.4375 C 378.28058 372.6505 379.91033 371.95203 381.61133 371.58203 C 388.61833 370.05803 391.64758 361.50797 387.01758 356.04297 C 382.66358 350.90597 378.2365 345.82981 373.4375 340.25781 z M 576.19727 427.89844 C 575.25914 427.88719 574.26537 428.04316 573.48438 428.28516 C 560.67638 432.24416 548.14209 437.3375 535.12109 440.3125 C 497.53609 448.9005 459.46361 448.15923 421.34961 444.49023 C 414.15961 443.79823 406.8912 442.14048 399.7832 442.64648 C 372.9202 444.55948 346.07278 445.68117 319.17578 443.95117 C 291.37278 442.16017 264.02045 437.94408 237.68945 428.33008 C 236.14645 427.76708 233.56877 428.14005 232.25977 429.12305 C 218.23977 439.65605 205.81766 451.84997 195.47266 466.04297 C 176.85866 491.58597 167.03019 519.92059 168.74219 551.80859 C 168.94019 555.49259 169.53392 559.15556 170.04492 563.72656 C 171.33292 562.32256 171.82078 561.79567 172.30078 561.26367 C 196.72578 534.20167 226.67128 526.36316 261.11328 537.03516 C 288.90528 545.64816 309.39264 564.118 323.93164 588.875 C 345.34564 625.337 350.83058 663.72736 335.64258 704.06836 C 335.40858 704.68836 335.47981 705.42219 335.38281 706.36719 C 381.36281 716.25819 427.08281 716.45872 473.25781 707.01172 C 472.74581 705.63172 472.50909 704.95792 472.24609 704.29492 C 462.35109 679.26192 461.15116 653.57956 467.78516 627.72656 C 477.28216 590.70856 497.41552 561.26658 531.85352 543.14258 C 569.74352 523.20258 613.46597 531.45523 639.04297 565.61523 C 639.46597 566.18023 639.60294 566.96019 640.21094 568.49219 C 644.47494 553.70719 643.88812 531.62586 639.07812 513.50586 C 629.55313 477.62486 607.44808 450.62553 578.58008 428.51953 C 578.01758 428.08853 577.13539 427.90969 576.19727 427.89844 z "
     id="white"
     inkscape:label="#path4" /></svg>