<?xml version="1.0" encoding="UTF-8" standalone="no"?>
<!-- Created with Inkscape (http://www.inkscape.org/) -->

<svg
   xmlns:dc="http://purl.org/dc/elements/1.1/"
   xmlns:cc="http://creativecommons.org/ns#"
   xmlns:rdf="http://www.w3.org/1999/02/22-rdf-syntax-ns#"
   xmlns:svg="http://www.w3.org/2000/svg"
   xmlns="http://www.w3.org/2000/svg"
   xmlns:sodipodi="http://sodipodi.sourceforge.net/DTD/sodipodi-0.dtd"
   xmlns:inkscape="http://www.inkscape.org/namespaces/inkscape"
   width="400mm"
   height="400mm"
   viewBox="0 0 400 400"
   version="1.1"
   id="svg1774"
   inkscape:version="0.92.2 5c3e80d, 2017-08-06"
   sodipodi:docname="shield_2.svg">
  <defs
     id="defs1768" />
  <sodipodi:namedview
     id="base"
     pagecolor="#ffffff"
     bordercolor="#666666"
     borderopacity="1.0"
     inkscape:pageopacity="0.0"
     inkscape:pageshadow="2"
     inkscape:zoom="0.27527357"
     inkscape:cx="692.9195"
     inkscape:cy="644.2337"
     inkscape:document-units="mm"
     inkscape:current-layer="layer1"
     showgrid="false"
     inkscape:window-width="1610"
     inkscape:window-height="928"
     inkscape:window-x="0"
     inkscape:window-y="1"
     inkscape:window-maximized="0" />
  <metadata
     id="metadata1771">
    <rdf:RDF>
      <cc:Work
         rdf:about="">
        <dc:format>image/svg+xml</dc:format>
        <dc:type
           rdf:resource="http://purl.org/dc/dcmitype/StillImage" />
        <dc:title />
      </cc:Work>
    </rdf:RDF>
  </metadata>
  <g
     inkscape:label="Layer 1"
     inkscape:groupmode="layer"
     id="layer1"
     transform="translate(0,103)">
    <g
       id="g962">
      <path
         sodipodi:nodetypes="ccccccccccccccccccccccccccccccccccccccccccccc"
         inkscape:connector-curvature="0"
         id="path9770"
         d="m 267.15421,152.73491 c -5e-5,2.48548 1.00739,4.50038 2.25009,4.5002 0.70636,-0.004 1.37095,-0.66972 1.79478,-1.7999 l 0.45579,-4.8e-4 v -0.44974 l -4.8e-4,-0.26928 c 0.29191,11.02746 3.1138,21.84037 8.24787,31.60414 l -0.37066,0.21394 c -0.93173,-0.76636 -1.84011,-1.01124 -2.45335,-0.66136 -1.07645,0.6211 -0.94151,2.86992 0.30137,5.02249 1.24254,2.15222 3.12217,3.39342 4.19837,2.77239 0.6101,-0.35598 0.85242,-1.26547 0.65437,-2.45613 l 0.38836,-0.22417 c 5.73619,9.14204 13.45423,16.87756 22.58325,22.63443 l -0.20555,0.35579 c -1.19001,-0.19779 -2.09907,0.0443 -2.45521,0.65391 -0.62175,1.07605 0.61936,2.95603 2.77192,4.19882 2.15236,1.24283 4.40104,1.37797 5.02248,0.30184 0.3504,-0.61333 0.10549,-1.52213 -0.66134,-2.45426 l 0.18509,-0.32139 c 1.54472,0.78892 3.11744,1.52176 4.71507,2.19708 l 4.7625,-6.79121 -17.46404,-19.05 v -79.95471 l 17.46404,-19.050009 -4.7625,-6.755877 c -1.59352,0.670842 -3.16233,1.39887 -4.70342,2.182653 l -0.19767,-0.342297 c 0.76655,-0.931995 1.01127,-1.840599 0.66089,-2.453805 -0.62124,-1.076182 -2.8697,-0.941245 -5.02204,0.301374 -2.15255,1.242792 -3.39365,3.122775 -2.77191,4.198815 0.35597,0.610119 1.26547,0.852426 2.45614,0.65439 l 0.2065,0.358119 c -9.14903,5.737068 -16.89032,13.458687 -22.65071,22.593057 l -0.32233,-0.18557 c 0.19793,-1.19025 -0.0442,-2.0995 -0.65389,-2.45567 -1.07604,-0.62174 -2.95604,0.61936 -4.19883,2.77193 -1.24289,2.15258 -1.37782,4.40139 -0.30138,5.02248 0.61333,0.3504 1.52214,0.1055 2.45429,-0.66135 l 0.36322,0.20929 c -5.03727,9.54635 -7.86369,20.10311 -8.27019,30.88929 h -0.42603 c -0.42388,-1.13 -1.08847,-1.7963 -1.79478,-1.79943 -1.2427,-1.7e-4 -2.25014,2.01472 -2.25009,4.5002 z"
         style="opacity:0.93000034;fill:#e0b033;fill-opacity:0.35784314;stroke:none;stroke-width:1.43442941;stroke-miterlimit:4;stroke-dasharray:none;stroke-opacity:1" />
      <g
         transform="translate(0,-10)"
         id="g931">
        <path
           style="opacity:0.93000034;fill:#d28833;fill-opacity:0.29411765;stroke:none;stroke-width:1.01659548;stroke-miterlimit:4;stroke-dasharray:none;stroke-opacity:1"
           d="m 22.000329,-73.000246 c -11.079999,0 -20.0003294,8.92033 -20.0003294,20.000329 v 38.291718 C 1.9999996,29.611803 32.388616,187 76.708615,187 H 227.29167 c 44.32,0 74.70861,-157.388197 74.70861,-201.708199 v -38.291718 c 0,-11.079999 -8.92032,-20.000329 -20.00033,-20.000329 z"
           id="rect9270"
           inkscape:connector-curvature="0"
           sodipodi:nodetypes="sccssccss" />
        <g
           id="g9681"
           transform="translate(-17.999813,25.999998)">
          <path
             inkscape:connector-curvature="0"
             id="rect9639"
             d="m 166.29815,-74.186748 -0.21239,-0.21239 1.41439,-1.413868 h 4.99969 l 1.41439,1.413868 -0.21188,0.21239 -1.32653,-1.326534 h -4.75165 z"
             style="opacity:0.93000034;fill:#451d33;fill-opacity:0.83333333;stroke:none;stroke-width:0.42318591;stroke-miterlimit:4;stroke-dasharray:none;stroke-opacity:1" />
          <path
             style="opacity:0.93000034;fill:#451d33;fill-opacity:0.83333333;stroke:none;stroke-width:0.42318591;stroke-miterlimit:4;stroke-dasharray:none;stroke-opacity:1"
             d="m 126.29816,-74.186748 -0.21239,-0.21239 1.41439,-1.413868 h 4.99968 l 1.41439,1.413868 -0.21188,0.21239 -1.32653,-1.326534 h -4.75165 z"
             id="path9646"
             inkscape:connector-curvature="0" />
          <path
             inkscape:connector-curvature="0"
             id="path9648"
             d="m 80.29816,-74.186748 -0.21239,-0.21239 1.41439,-1.413868 h 4.99968 l 1.41439,1.413868 -0.21188,0.21239 -1.32653,-1.326534 h -4.75165 z"
             style="opacity:0.93000034;fill:#451d33;fill-opacity:0.83333333;stroke:none;stroke-width:0.42318591;stroke-miterlimit:4;stroke-dasharray:none;stroke-opacity:1" />
          <path
             style="opacity:0.93000034;fill:#451d33;fill-opacity:0.83333333;stroke:none;stroke-width:0.42318591;stroke-miterlimit:4;stroke-dasharray:none;stroke-opacity:1"
             d="m 31.29816,-74.186748 -0.21239,-0.21239 1.41439,-1.413868 h 4.99968 l 1.41439,1.413868 -0.21188,0.21239 -1.32653,-1.326534 h -4.75165 z"
             id="path9650"
             inkscape:connector-curvature="0" />
          <path
             style="opacity:0.93000034;fill:#451d33;fill-opacity:0.83333333;stroke:none;stroke-width:0.42318591;stroke-miterlimit:4;stroke-dasharray:none;stroke-opacity:1"
             d="m 206.29815,-74.186748 -0.21239,-0.21239 1.41439,-1.413868 h 4.99969 l 1.41439,1.413868 -0.21188,0.21239 -1.32653,-1.326534 h -4.75165 z"
             id="path9652"
             inkscape:connector-curvature="0" />
          <path
             inkscape:connector-curvature="0"
             id="path9654"
             d="m 252.29815,-74.186748 -0.21238,-0.21239 1.41438,-1.413868 h 4.99969 l 1.4144,1.413868 -0.21189,0.21239 -1.32652,-1.326534 h -4.75166 z"
             style="opacity:0.93000034;fill:#451d33;fill-opacity:0.83333333;stroke:none;stroke-width:0.42318591;stroke-miterlimit:4;stroke-dasharray:none;stroke-opacity:1" />
          <path
             style="opacity:0.93000034;fill:#451d33;fill-opacity:0.83333333;stroke:none;stroke-width:0.42318591;stroke-miterlimit:4;stroke-dasharray:none;stroke-opacity:1"
             d="m 301.29814,-74.186748 -0.21238,-0.21239 1.41438,-1.413868 h 4.9997 l 1.4144,1.413868 -0.21189,0.21239 -1.32652,-1.326534 h -4.75167 z"
             id="path9656"
             inkscape:connector-curvature="0" />
        </g>
        <g
           id="g914"
           transform="matrix(0.9,0,0,0.9,24.725014,33.729183)">
          <path
             inkscape:connector-curvature="0"
             id="path9685"
             d="m 94.714963,156.56202 -0.212387,0.21239 1.414387,1.41387 h 4.999677 l 1.41439,-1.41387 -0.21188,-0.21239 -1.32653,1.32654 h -4.751647 z"
             style="opacity:0.93000034;fill:#451d33;fill-opacity:0.83333333;stroke:none;stroke-width:0.42318591;stroke-miterlimit:4;stroke-dasharray:none;stroke-opacity:1" />
          <path
             style="opacity:0.93000034;fill:#451d33;fill-opacity:0.83333333;stroke:none;stroke-width:0.42318591;stroke-miterlimit:4;stroke-dasharray:none;stroke-opacity:1"
             d="m 51.714963,156.56202 -0.21239,0.21239 1.41439,1.41387 h 4.99968 l 1.41439,-1.41387 -0.21188,-0.21239 -1.32653,1.32654 h -4.75165 z"
             id="path9687"
             inkscape:connector-curvature="0" />
          <path
             style="opacity:0.93000034;fill:#451d33;fill-opacity:0.83333333;stroke:none;stroke-width:0.42318591;stroke-miterlimit:4;stroke-dasharray:none;stroke-opacity:1"
             d="m 137.71495,156.56202 -0.21239,0.21239 1.41439,1.41387 h 4.99969 l 1.41439,-1.41387 -0.21188,-0.21239 -1.32653,1.32654 h -4.75165 z"
             id="path9683"
             inkscape:connector-curvature="0" />
          <path
             style="opacity:0.93000034;fill:#451d33;fill-opacity:0.83333333;stroke:none;stroke-width:0.42318591;stroke-miterlimit:4;stroke-dasharray:none;stroke-opacity:1"
             d="m 223.71495,156.56202 -0.21238,0.21239 1.41438,1.41387 h 4.99969 l 1.4144,-1.41387 -0.21189,-0.21239 -1.32652,1.32654 h -4.75166 z"
             id="path9693"
             inkscape:connector-curvature="0" />
          <path
             style="opacity:0.93000034;fill:#451d33;fill-opacity:0.83333333;stroke:none;stroke-width:0.42318591;stroke-miterlimit:4;stroke-dasharray:none;stroke-opacity:1"
             d="m 180.71496,156.56202 -0.21239,0.21239 1.41439,1.41387 h 4.99968 l 1.41439,-1.41387 -0.21188,-0.21239 -1.32653,1.32654 h -4.75165 z"
             id="path9782"
             inkscape:connector-curvature="0" />
        </g>
      </g>
      <g
         transform="translate(2,1.3880273)"
         id="g879">
        <path
           inkscape:connector-curvature="0"
           style="opacity:0.93000034;fill:#d28833;fill-opacity:0.29411765;stroke:none;stroke-width:3.1051929;stroke-miterlimit:4;stroke-dasharray:none;stroke-opacity:1"
           d="m 566.92773,1068.1387 a 18.897638,9.4485664 0 0 0 -18.89648,9.4492 18.897638,9.4485664 0 0 0 7.55859,7.5371 v 1.9121 h -7.55859 c -10.46929,0 -18.89648,8.4272 -18.89648,18.8965 v 120.9453 c 0,10.4693 8.42719,18.8984 18.89648,18.8984 h -45.35352 c 10.4693,0 18.89649,-8.4291 18.89649,-18.8984 v -113.3848 c 0,-10.4693 -8.42719,-18.8984 -18.89649,-18.8984 h -7.55859 v -1.9141 a 18.897638,9.4485668 0 0 0 7.55859,-7.5351 18.897638,9.4485668 0 0 0 -18.89843,-9.4492 18.897638,9.4485668 0 0 0 -18.89649,9.4492 18.897638,9.4485668 0 0 0 7.5586,7.5371 v 1.9121 h -7.5586 c -10.46929,0 -18.89844,8.4291 -18.89843,18.8984 v 113.3848 c 0,10.4693 8.42914,18.8984 18.89843,18.8984 h -68.0332 c 10.46929,0 18.89844,-8.4291 18.89844,-18.8984 v -68.0312 c 0,-10.4693 -8.42915,-18.8985 -18.89844,-18.8985 h -7.55859 v -1.914 a 18.897638,9.4485668 0 0 0 7.55859,-7.5352 18.897638,9.4485668 0 0 0 -18.89844,-9.4492 18.897638,9.4485668 0 0 0 -18.89648,9.4492 18.897638,9.4485668 0 0 0 7.55859,7.5371 v 1.9121 h -7.55859 c -10.46929,0 -18.89649,8.4292 -18.89649,18.8985 v 68.0312 c 0,10.4693 8.4272,18.8984 18.89649,18.8984 H 245.66992 c 10.46929,0 18.89649,-8.4291 18.89649,-18.8984 v -15.1172 c 0,-10.4693 -8.4272,-18.8984 -18.89649,-18.8984 h -7.55859 v -1.9141 a 18.897638,9.4485668 0 0 0 7.55859,-7.5351 18.897638,9.4485668 0 0 0 -18.89844,-9.4493 18.897638,9.4485668 0 0 0 -18.89648,9.4493 18.897638,9.4485668 0 0 0 7.55859,7.5371 v 1.9121 h -7.56054 c -10.46929,0 -18.89649,8.4291 -18.89649,18.8984 v 15.1172 c 0,10.4693 8.4272,18.8984 18.89649,18.8984 h -56.69141 v 0 c 0,-10.4693 -8.42915,-18.8965 -18.89844,-18.8965 H 18.898438 C 8.4291462,1226.8789 0,1235.3061 0,1245.7754 v 75.5918 c 0,10.4693 8.4291462,18.8965 18.898438,18.8965 H 132.2832 c 10.46929,0 18.89844,-8.4272 18.89844,-18.8965 h 56.69141 c -10.46929,0 -18.89649,8.4291 -18.89649,18.8984 v 15.1172 c 0,10.4693 8.4272,18.8984 18.89649,18.8984 h 7.56054 v 1.9122 a 18.897638,9.4485668 0 0 0 -7.55859,7.5371 18.897638,9.4485668 0 0 0 18.89648,9.4492 18.897638,9.4485668 0 0 0 18.89844,-9.4492 18.897638,9.4485668 0 0 0 -7.55859,-7.5352 v -1.9141 h 7.55859 c 10.46929,0 18.89649,-8.4291 18.89649,-18.8984 v -15.1172 c 0,-10.4693 -8.4272,-18.8984 -18.89649,-18.8984 h 113.38477 c -10.46929,0 -18.89649,8.4291 -18.89649,18.8984 v 68.0313 c 0,10.4692 8.4272,18.8965 18.89649,18.8965 h 7.55859 v 1.9121 a 18.897638,9.4485668 0 0 0 -7.55859,7.5371 18.897638,9.4485668 0 0 0 18.89648,9.4512 18.897638,9.4485668 0 0 0 18.89844,-9.4512 18.897638,9.4485668 0 0 0 -7.55859,-7.5352 v -1.914 h 7.55859 c 10.46929,0 18.89844,-8.4273 18.89844,-18.8965 v -68.0313 c 0,-10.4693 -8.42915,-18.8984 -18.89844,-18.8984 h 68.0332 c -10.46929,0 -18.89844,8.4291 -18.89843,18.8984 v 113.3848 c 0,10.4693 8.42914,18.8984 18.89843,18.8984 h 7.5586 v 1.9121 a 18.897638,9.4485668 0 0 0 -7.5586,7.5371 18.897638,9.4485668 0 0 0 18.89649,9.4493 18.897638,9.4485668 0 0 0 18.89843,-9.4493 18.897638,9.4485668 0 0 0 -7.55859,-7.5351 v -1.9141 h 7.55859 c 10.4693,0 18.89649,-8.4291 18.89649,-18.8984 v -113.3848 c 0,-10.4693 -8.42719,-18.8984 -18.89649,-18.8984 h 45.35352 c -10.46929,0 -18.89648,8.4291 -18.89648,18.8984 v 120.9453 c 0,10.4693 8.42719,18.8965 18.89648,18.8965 h 7.55859 v 1.9121 a 18.897638,9.4485668 0 0 0 -7.55859,7.5371 18.897638,9.4485668 0 0 0 18.89648,9.4493 18.897638,9.4485668 0 0 0 18.89844,-9.4493 18.897638,9.4485668 0 0 0 -7.55859,-7.5351 v -1.9141 h 7.55859 c 10.46929,0 18.89844,-8.4272 18.89844,-18.8965 v -120.9453 c 0,-10.4693 -8.42915,-18.8984 -18.89844,-18.8984 h 45.35547 c -10.46929,0 -18.89844,8.4291 -18.89844,18.8984 v 113.3848 c 0,10.4693 8.42915,18.8984 18.89844,18.8984 h 7.55859 v 1.9121 a 18.897638,9.4485668 0 0 0 -7.55859,7.5371 18.897638,9.4485668 0 0 0 18.89648,9.4493 18.897638,9.4485668 0 0 0 18.89844,-9.4493 18.897638,9.4485668 0 0 0 -7.55859,-7.5351 v -1.9141 h 7.55859 c 10.46929,0 18.89649,-8.4291 18.89649,-18.8984 v -113.3848 c 0,-10.4693 -8.4272,-18.8984 -18.89649,-18.8984 h 68.03125 c -10.46929,0 -18.89844,8.4291 -18.89843,18.8984 v 68.0313 c 0,10.4692 8.42914,18.8965 18.89843,18.8965 h 7.5586 v 1.9121 a 18.897638,9.4485668 0 0 0 -7.5586,7.5371 18.897638,9.4485668 0 0 0 18.89649,9.4512 18.897638,9.4485668 0 0 0 18.89843,-9.4512 18.897638,9.4485668 0 0 0 -7.55859,-7.5352 v -1.914 h 7.55859 c 10.46933,0 18.89844,-8.4273 18.89844,-18.8965 v -68.0313 c 0,-10.4693 -8.42911,-18.8984 -18.89844,-18.8984 h 113.38672 c -10.46929,0 -18.89843,8.4291 -18.89843,18.8984 v 15.1172 c 0,10.4693 8.42914,18.8985 18.89843,18.8984 h 7.5586 v 1.9122 a 18.897638,9.4485668 0 0 0 -7.5586,7.5371 18.897638,9.4485668 0 0 0 18.89649,9.4492 18.897638,9.4485668 0 0 0 18.89844,-9.4492 18.897638,9.4485668 0 0 0 -7.5586,-7.5352 v -1.9141 h 7.5586 c 10.46929,0 18.89843,-8.4291 18.89843,-18.8984 v -15.1172 c 0,-10.4693 -8.42914,-18.8984 -18.89843,-18.8984 h 56.69335 c 0,10.4693 8.4272,18.8965 18.89647,18.8965 h 113.3867 c 10.4693,0 18.8965,-8.4272 18.8965,-18.8965 v -75.5918 c 0,-10.4693 -8.4272,-18.8965 -18.8965,-18.8965 h -113.3867 c -10.46927,0 -18.89647,8.4272 -18.89647,18.8965 v 0 h -56.69335 c 10.46929,0 18.89843,-8.4291 18.89843,-18.8984 v -15.1172 c 0,-10.4693 -8.42914,-18.8984 -18.89843,-18.8984 h -7.5586 v -1.9141 a 18.897638,9.4485668 0 0 0 7.5586,-7.5351 18.897638,9.4485668 0 0 0 -18.89844,-9.4493 18.897638,9.4485668 0 0 0 -18.89649,9.4493 18.897638,9.4485668 0 0 0 7.5586,7.5371 v 1.9121 h -7.5586 c -10.46929,0 -18.89843,8.4291 -18.89843,18.8984 v 15.1172 c 0,10.4693 8.42914,18.8984 18.89843,18.8984 H 774.80273 c 10.46933,0 18.89844,-8.4291 18.89844,-18.8984 v -68.0312 c 0,-10.4693 -8.42911,-18.8985 -18.89844,-18.8985 h -7.55859 v -1.914 a 18.897638,9.4485668 0 0 0 7.55859,-7.5352 18.897638,9.4485668 0 0 0 -18.89843,-9.4492 18.897638,9.4485668 0 0 0 -18.89649,9.4492 18.897638,9.4485668 0 0 0 7.5586,7.5371 v 1.9121 h -7.5586 c -10.46929,0 -18.89844,8.4292 -18.89843,18.8985 v 68.0312 c 0,10.4693 8.42914,18.8984 18.89843,18.8984 h -68.03125 c 10.46929,0 18.89649,-8.4291 18.89649,-18.8984 v -113.3848 c 0,-10.4693 -8.4272,-18.8984 -18.89649,-18.8984 h -7.55859 v -1.9141 a 18.897638,9.4485668 0 0 0 7.55859,-7.5351 18.897638,9.4485668 0 0 0 -18.89844,-9.4492 18.897638,9.4485668 0 0 0 -18.89648,9.4492 18.897638,9.4485668 0 0 0 7.55859,7.5371 v 1.9121 h -7.55859 c -10.46929,0 -18.89844,8.4291 -18.89844,18.8984 v 113.3848 c 0,10.4693 8.42915,18.8984 18.89844,18.8984 h -45.35547 c 10.46929,0 18.89844,-8.4291 18.89844,-18.8984 v -120.9453 c 0,-10.4693 -8.42915,-18.8965 -18.89844,-18.8965 h -7.55859 v -1.9141 a 18.897638,9.4485664 0 0 0 7.55859,-7.5351 18.897638,9.4485664 0 0 0 -18.89844,-9.4492 z"
           transform="matrix(0.26458333,0,0,0.26458333,0,-103)"
           id="rect9268" />
        <g
           id="g854">
          <rect
             ry="1.7777778"
             y="228.61183"
             x="6"
             height="16"
             width="3"
             id="rect842"
             style="opacity:0.93000034;fill:#e0b033;fill-opacity:0.35784314;stroke:none;stroke-width:0.70252585;stroke-miterlimit:5.56521749;stroke-dasharray:none;stroke-opacity:1" />
          <rect
             style="opacity:0.93000034;fill:#e0b033;fill-opacity:0.35784314;stroke:none;stroke-width:0.70252585;stroke-miterlimit:5.56521749;stroke-dasharray:none;stroke-opacity:1"
             id="rect844"
             width="3"
             height="16"
             x="14"
             y="228.61183"
             ry="1.7777778" />
          <rect
             ry="1.7777778"
             y="228.61183"
             x="22"
             height="16"
             width="3"
             id="rect846"
             style="opacity:0.93000034;fill:#e0b033;fill-opacity:0.35784314;stroke:none;stroke-width:0.70252585;stroke-miterlimit:5.56521749;stroke-dasharray:none;stroke-opacity:1" />
          <rect
             style="opacity:0.93000034;fill:#e0b033;fill-opacity:0.35784314;stroke:none;stroke-width:0.70252585;stroke-miterlimit:5.56521749;stroke-dasharray:none;stroke-opacity:1"
             id="rect848"
             width="3"
             height="16"
             x="30"
             y="228.61183"
             ry="1.7777778" />
        </g>
        <g
           id="g864"
           transform="translate(260.99976)">
          <rect
             style="opacity:0.93000034;fill:#e0b033;fill-opacity:0.35784314;stroke:none;stroke-width:0.70252585;stroke-miterlimit:5.56521749;stroke-dasharray:none;stroke-opacity:1"
             id="rect856"
             width="3"
             height="16"
             x="6"
             y="228.61183"
             ry="1.7777778" />
          <rect
             ry="1.7777778"
             y="228.61183"
             x="14"
             height="16"
             width="3"
             id="rect858"
             style="opacity:0.93000034;fill:#e0b033;fill-opacity:0.35784314;stroke:none;stroke-width:0.70252585;stroke-miterlimit:5.56521749;stroke-dasharray:none;stroke-opacity:1" />
          <rect
             style="opacity:0.93000034;fill:#e0b033;fill-opacity:0.35784314;stroke:none;stroke-width:0.70252585;stroke-miterlimit:5.56521749;stroke-dasharray:none;stroke-opacity:1"
             id="rect860"
             width="3"
             height="16"
             x="22"
             y="228.61183"
             ry="1.7777778" />
          <rect
             ry="1.7777778"
             y="228.61183"
             x="30"
             height="16"
             width="3"
             id="rect862"
             style="opacity:0.93000034;fill:#e0b033;fill-opacity:0.35784314;stroke:none;stroke-width:0.70252585;stroke-miterlimit:5.56521749;stroke-dasharray:none;stroke-opacity:1" />
        </g>
      </g>
    </g>
  </g>
</svg>
