<?xml version="1.0" encoding="UTF-8" standalone="no"?>
<!-- Created with Inkscape (http://www.inkscape.org/) -->

<svg
   xmlns:dc="http://purl.org/dc/elements/1.1/"
   xmlns:cc="http://creativecommons.org/ns#"
   xmlns:rdf="http://www.w3.org/1999/02/22-rdf-syntax-ns#"
   xmlns:svg="http://www.w3.org/2000/svg"
   xmlns="http://www.w3.org/2000/svg"
   xmlns:sodipodi="http://sodipodi.sourceforge.net/DTD/sodipodi-0.dtd"
   xmlns:inkscape="http://www.inkscape.org/namespaces/inkscape"
   width="400mm"
   height="400mm"
   viewBox="0 0 1417.3228 1417.3228"
   id="svg2"
   version="1.1"
   inkscape:version="0.91 r13725"
   sodipodi:docname="spinner.svg">
  <defs
     id="defs4" />
  <sodipodi:namedview
     id="base"
     pagecolor="#ffffff"
     bordercolor="#666666"
     borderopacity="1.0"
     inkscape:pageopacity="0.0"
     inkscape:pageshadow="2"
     inkscape:zoom="0.98994949"
     inkscape:cx="390.65158"
     inkscape:cy="1230.6184"
     inkscape:document-units="mm"
     inkscape:current-layer="layer1"
     showgrid="false"
     showguides="true"
     inkscape:window-width="1440"
     inkscape:window-height="851"
     inkscape:window-x="0"
     inkscape:window-y="1"
     inkscape:window-maximized="1"
     inkscape:guide-bbox="true" />
  <metadata
     id="metadata7">
    <rdf:RDF>
      <cc:Work
         rdf:about="">
        <dc:format>image/svg+xml</dc:format>
        <dc:type
           rdf:resource="http://purl.org/dc/dcmitype/StillImage" />
        <dc:title></dc:title>
      </cc:Work>
    </rdf:RDF>
  </metadata>
  <g
     inkscape:label="Layer 1"
     inkscape:groupmode="layer"
     id="layer1"
     transform="translate(0,364.96063)">
    <path
       id="ring1"
       style="opacity:1;fill:none;fill-opacity:1;stroke:#0000ff;stroke-width:0.70866132;stroke-miterlimit:4;stroke-dasharray:none;stroke-opacity:1"
       d="m 245.88474,-86.367497 a 43.826508,43.826508 0 0 1 -43.82651,43.82652 43.826508,43.826508 0 0 1 -43.8265,-43.82652 43.826508,43.826508 0 0 1 43.8265,-43.826503 43.826508,43.826508 0 0 1 43.82651,43.826503 z m -14.79792,16.75967 -29.02859,16.75966 -29.02858,-16.75966 0,-33.519333 29.02858,-16.75966 29.02859,16.75966 z"
       inkscape:connector-curvature="0"
       inkscape:label="ring1" />
    <path
       id="center"
       style="opacity:1;fill:none;fill-opacity:1;stroke:#0000ff;stroke-width:0.70866132;stroke-miterlimit:4;stroke-dasharray:none;stroke-opacity:1"
       d="m 238.02767,-357.80468 33.51932,58.05719 -33.51932,58.05717 -67.03865,0 -33.51933,-58.05717 33.51932,-58.05719 z m -33.51933,19.58638 a 38.470798,38.470798 0 0 1 38.4708,38.47081 38.470798,38.470798 0 0 1 -38.4708,38.47079 38.470798,38.470798 0 0 1 -38.4708,-38.47079 38.470798,38.470798 0 0 1 38.4708,-38.47081 z"
       inkscape:connector-curvature="0"
       inkscape:label="center" />
    <path
       id="spinL"
       style="opacity:1;fill:none;fill-opacity:1;stroke:#0000ff;stroke-width:0.70866132;stroke-miterlimit:4;stroke-dasharray:none;stroke-opacity:1"
       d="m 264.05911,-220.16163 29.02858,16.75966 0,33.51933 -29.02859,16.75966 -29.02859,-16.75966 1e-5,-33.51932 z m -211.693224,-52.47311 0,-33.51932 29.028585,-16.75966 29.028589,16.75966 0,33.51933 -29.028589,16.75965 z m 90.892564,20.31812 c 0,0 2.41448,-58.54547 -40.40474,-78.58836 -30.192984,-14.13279 -54.812714,-6.49016 -76.180638,26.94871 -21.367895,33.43886 -19.187499,61.09087 -19.187499,61.09087 0,0 29.680413,-19.9794 51.771073,-6.81294 22.710355,13.53581 23.590545,52.23429 25.344985,68.24402 1.44734,13.20742 0.31258,29.58117 0.31258,29.58117 m 116.102599,0.24773 c 0,0 49.49463,31.36374 88.26189,4.30265 27.33585,-19.0815 33.027,-44.22413 14.75205,-79.44872 -18.27496,-35.22457 -43.31249,-47.1623 -43.31249,-47.1623 0,0 2.46246,35.69369 -19.98536,48.24153 -23.07753,12.89985 -57.0315,-5.68713 -71.77355,-12.1726 -12.16163,-5.35028 -25.77433,-14.51988 -25.77433,-14.51988 m -30.39088,189.373317 -29.028579,16.759661 -29.028585,-16.759661 0,-33.519334 29.028585,-16.759653 29.028579,16.759653 z M 84.943871,-151.86575 c 0,0 -51.909105,27.18173 -47.857145,74.285707 2.85714,33.214287 21.78572,50.714287 61.428579,52.500007 39.642845,1.78571 62.499995,-13.928576 62.499995,-13.928576 0,0 -32.14287,-15.714282 -31.78571,-41.428581 0.36717,-26.435657 33.44094,-46.547157 46.42856,-56.071417 10.71429,-7.85714 25.46175,-15.06128 25.46175,-15.06128 m -19.5417,-33.59604 a 38.470798,38.470798 0 0 1 -38.4708,38.4708 38.470798,38.470798 0 0 1 -38.4708,-38.4708 38.470798,38.470798 0 0 1 38.4708,-38.4708 38.470798,38.470798 0 0 1 38.4708,38.4708 z"
       inkscape:connector-curvature="0"
       inkscape:label="spinL" />
    <path
       inkscape:connector-curvature="0"
       d="m 509.77337,-152.42826 29.02858,-16.75966 0,-33.51933 -29.02859,-16.75966 -29.02859,16.75966 10e-6,33.51932 z m -211.69323,52.473113 0,33.519322 29.02859,16.75966 29.02859,-16.75966 0,-33.519332 -29.02859,-16.759653 z m 90.89257,-20.318123 c 0,0 2.41448,58.545475 -40.40474,78.588365 -30.19299,14.13279 -54.81272,6.49016 -76.18064,-26.94871 -21.3679,-33.438865 -19.1875,-61.090875 -19.1875,-61.090875 0,0 29.68041,19.9794 51.77107,6.81294 22.71036,-13.53581 23.59055,-52.23429 25.34499,-68.24402 1.44734,-13.20742 0.31258,-29.58117 0.31258,-29.58117 m 116.1026,-0.24773 c 0,0 49.49463,-31.36374 88.26189,-4.30265 27.33585,19.0815 33.027,44.22413 14.75205,79.44872 -18.27496,35.22457 -43.31249,47.162303 -43.31249,47.162303 0,0 2.46246,-35.693693 -19.98536,-48.241533 -23.07753,-12.89985 -57.0315,5.68713 -71.77355,12.1726 -12.16163,5.35028 -25.77433,14.51988 -25.77433,14.51988 m -30.39088,-189.37331 -29.02858,-16.75966 -29.02859,16.75966 0,33.51933 29.02859,16.75965 29.02858,-16.75965 z m -27.85027,88.87432 c 0,0 -51.90911,-27.18173 -47.85715,-74.2857 2.85714,-33.21429 21.78572,-50.71429 61.42858,-52.50001 39.64285,-1.78571 62.5,13.92858 62.5,13.92858 0,0 -32.14287,15.71428 -31.78571,41.42858 0.36717,26.43565 33.44094,46.54715 46.42856,56.07141 10.71429,7.85714 25.46175,15.06128 25.46175,15.06128 m -19.5417,33.59604 a 38.470798,38.470798 0 0 0 -38.4708,-38.4708 38.470798,38.470798 0 0 0 -38.4708,38.4708 38.470798,38.470798 0 0 0 38.4708,38.4708 38.470798,38.470798 0 0 0 38.4708,-38.4708 z"
       style="opacity:1;fill:none;fill-opacity:1;stroke:#0000ff;stroke-width:0.70866132;stroke-miterlimit:4;stroke-dasharray:none;stroke-opacity:1"
       id="spinR"
       inkscape:label="spinR" />
    <path
       inkscape:connector-curvature="0"
       d="m 486.30102,-292.43859 a 43.826508,43.826508 0 0 1 -43.82651,43.82652 43.826508,43.826508 0 0 1 -43.8265,-43.82652 43.826508,43.826508 0 0 1 43.8265,-43.8265 43.826508,43.826508 0 0 1 43.82651,43.8265 z m -14.79792,16.75967 -29.02859,16.75966 -29.02858,-16.75966 0,-33.51933 29.02858,-16.75966 29.02859,16.75966 z"
       style="opacity:1;fill:none;fill-opacity:1;stroke:#0000ff;stroke-width:0.70866132;stroke-miterlimit:4;stroke-dasharray:none;stroke-opacity:1"
       id="ring2"
       inkscape:label="ring2" />
    <path
       id="ring3"
       style="opacity:1;fill:none;fill-opacity:1;stroke:#0000ff;stroke-width:0.70866132;stroke-miterlimit:4;stroke-dasharray:none;stroke-opacity:1"
       d="m 483.27056,-86.367491 a 43.826508,43.826508 0 0 1 -43.82651,43.82652 43.826508,43.826508 0 0 1 -43.8265,-43.82652 43.826508,43.826508 0 0 1 43.8265,-43.826499 43.826508,43.826508 0 0 1 43.82651,43.826499 z m -14.79792,16.75967 -29.02859,16.75966 -29.02858,-16.75966 0,-33.519329 29.02858,-16.75966 29.02859,16.75966 z"
       inkscape:connector-curvature="0"
       inkscape:label="ring3" />
  </g>
</svg>
